%TF.GenerationSoftware,KiCad,Pcbnew,10.0.2-10.0.2~ubuntu24.04.1*%
%TF.CreationDate,2026-05-24T09:49:08-05:00*%
%TF.ProjectId,EE327 - UI + GPS,45453332-3720-42d2-9055-49202b204750,rev?*%
%TF.SameCoordinates,Original*%
%TF.FileFunction,Soldermask,Bot*%
%TF.FilePolarity,Negative*%
%FSLAX46Y46*%
G04 Gerber Fmt 4.6, Leading zero omitted, Abs format (unit mm)*
G04 Created by KiCad (PCBNEW 10.0.2-10.0.2~ubuntu24.04.1) date 2026-05-24 09:49:08*
%MOMM*%
%LPD*%
G01*
G04 APERTURE LIST*
G04 Aperture macros list*
%AMRoundRect*
0 Rectangle with rounded corners*
0 $1 Rounding radius*
0 $2 $3 $4 $5 $6 $7 $8 $9 X,Y pos of 4 corners*
0 Add a 4 corners polygon primitive as box body*
4,1,4,$2,$3,$4,$5,$6,$7,$8,$9,$2,$3,0*
0 Add four circle primitives for the rounded corners*
1,1,$1+$1,$2,$3*
1,1,$1+$1,$4,$5*
1,1,$1+$1,$6,$7*
1,1,$1+$1,$8,$9*
0 Add four rect primitives between the rounded corners*
20,1,$1+$1,$2,$3,$4,$5,0*
20,1,$1+$1,$4,$5,$6,$7,0*
20,1,$1+$1,$6,$7,$8,$9,0*
20,1,$1+$1,$8,$9,$2,$3,0*%
G04 Aperture macros list end*
%ADD10R,1.700000X1.700000*%
%ADD11C,1.700000*%
%ADD12C,1.930400*%
%ADD13C,1.320800*%
%ADD14RoundRect,0.250000X-0.337500X-0.475000X0.337500X-0.475000X0.337500X0.475000X-0.337500X0.475000X0*%
%ADD15C,1.498600*%
G04 APERTURE END LIST*
D10*
%TO.C,J2*%
X167741600Y-84175600D03*
D11*
X167741600Y-86715600D03*
X167741600Y-89255600D03*
X167741600Y-91795600D03*
X167741600Y-94335600D03*
X167741600Y-96875600D03*
X167741600Y-99415600D03*
X167741600Y-101955600D03*
X167741600Y-104495600D03*
X167741600Y-107035600D03*
X167741600Y-109575600D03*
X167741600Y-112115600D03*
X167741600Y-114655600D03*
X167741600Y-117195600D03*
%TD*%
D12*
%TO.C,SW2*%
X149987000Y-115189000D03*
X149987000Y-110109000D03*
%TD*%
D10*
%TO.C,J1*%
X162941000Y-85140800D03*
D11*
X162941000Y-87680800D03*
X162941000Y-90220800D03*
X162941000Y-92760800D03*
X162941000Y-95300800D03*
X162941000Y-97840800D03*
X162941000Y-100380800D03*
X162941000Y-102920800D03*
X162941000Y-105460800D03*
%TD*%
D10*
%TO.C,J4*%
X162000000Y-116920000D03*
D11*
X162000000Y-114380000D03*
X162000000Y-111840000D03*
X162000000Y-109300000D03*
%TD*%
D12*
%TO.C,SW1*%
X156464000Y-115062000D03*
X156464000Y-109982000D03*
%TD*%
D13*
%TO.C,J5*%
X166661600Y-122203200D03*
X166661600Y-127203200D03*
X164661601Y-122203200D03*
X164661601Y-127203200D03*
X162661600Y-122203200D03*
X162661600Y-127203200D03*
X160661602Y-122203200D03*
X160661602Y-127203200D03*
%TD*%
D14*
%TO.C,C1*%
X141452600Y-85318600D03*
X143527600Y-85318600D03*
%TD*%
D15*
%TO.C,J3*%
X154341200Y-126796800D03*
X151841200Y-126796800D03*
X149341200Y-126796800D03*
X146841200Y-126796800D03*
X144341200Y-126796800D03*
X141841200Y-126796800D03*
%TD*%
M02*
