%TF.GenerationSoftware,KiCad,Pcbnew,10.0.2-10.0.2~ubuntu24.04.1*%
%TF.CreationDate,2026-05-24T09:49:08-05:00*%
%TF.ProjectId,EE327 - UI + GPS,45453332-3720-42d2-9055-49202b204750,rev?*%
%TF.SameCoordinates,Original*%
%TF.FileFunction,Copper,L4,Bot*%
%TF.FilePolarity,Positive*%
%FSLAX46Y46*%
G04 Gerber Fmt 4.6, Leading zero omitted, Abs format (unit mm)*
G04 Created by KiCad (PCBNEW 10.0.2-10.0.2~ubuntu24.04.1) date 2026-05-24 09:49:08*
%MOMM*%
%LPD*%
G01*
G04 APERTURE LIST*
G04 Aperture macros list*
%AMRoundRect*
0 Rectangle with rounded corners*
0 $1 Rounding radius*
0 $2 $3 $4 $5 $6 $7 $8 $9 X,Y pos of 4 corners*
0 Add a 4 corners polygon primitive as box body*
4,1,4,$2,$3,$4,$5,$6,$7,$8,$9,$2,$3,0*
0 Add four circle primitives for the rounded corners*
1,1,$1+$1,$2,$3*
1,1,$1+$1,$4,$5*
1,1,$1+$1,$6,$7*
1,1,$1+$1,$8,$9*
0 Add four rect primitives between the rounded corners*
20,1,$1+$1,$2,$3,$4,$5,0*
20,1,$1+$1,$4,$5,$6,$7,0*
20,1,$1+$1,$6,$7,$8,$9,0*
20,1,$1+$1,$8,$9,$2,$3,0*%
G04 Aperture macros list end*
%TA.AperFunction,ComponentPad*%
%ADD10R,1.700000X1.700000*%
%TD*%
%TA.AperFunction,ComponentPad*%
%ADD11C,1.700000*%
%TD*%
%TA.AperFunction,ComponentPad*%
%ADD12C,1.930400*%
%TD*%
%TA.AperFunction,ComponentPad*%
%ADD13C,1.320800*%
%TD*%
%TA.AperFunction,SMDPad,CuDef*%
%ADD14RoundRect,0.250000X-0.337500X-0.475000X0.337500X-0.475000X0.337500X0.475000X-0.337500X0.475000X0*%
%TD*%
%TA.AperFunction,ComponentPad*%
%ADD15C,1.498600*%
%TD*%
%TA.AperFunction,ViaPad*%
%ADD16C,0.600000*%
%TD*%
%TA.AperFunction,Conductor*%
%ADD17C,0.400000*%
%TD*%
%TA.AperFunction,Conductor*%
%ADD18C,0.200000*%
%TD*%
G04 APERTURE END LIST*
D10*
%TO.P,J2,1,Pin_1_1*%
%TO.N,+3.3V*%
X167741600Y-84175600D03*
D11*
%TO.P,J2,2,Pin_2_2*%
%TO.N,GND*%
X167741600Y-86715600D03*
%TO.P,J2,3,Pin_3_3*%
%TO.N,/TFT_CS*%
X167741600Y-89255600D03*
%TO.P,J2,4,Pin_4_4*%
%TO.N,/TFT_RST*%
X167741600Y-91795600D03*
%TO.P,J2,5,Pin_5_5*%
%TO.N,/TFT_DC*%
X167741600Y-94335600D03*
%TO.P,J2,6,Pin_6_6*%
%TO.N,/TFT_MOSI*%
X167741600Y-96875600D03*
%TO.P,J2,7,Pin_7_7*%
%TO.N,/TFT_SCK*%
X167741600Y-99415600D03*
%TO.P,J2,8,Pin_8_8*%
%TO.N,+3.3V*%
X167741600Y-101955600D03*
%TO.P,J2,9,Pin_9_9*%
%TO.N,unconnected-(J2-Pin_9-Pad9)*%
X167741600Y-104495600D03*
%TO.P,J2,10,Pin_10_10*%
%TO.N,unconnected-(J2-Pin_10-Pad10)*%
X167741600Y-107035600D03*
%TO.P,J2,11,Pin_11_11*%
%TO.N,unconnected-(J2-Pin_11-Pad11)*%
X167741600Y-109575600D03*
%TO.P,J2,12,Pin_12_12*%
%TO.N,unconnected-(J2-Pin_12-Pad12)*%
X167741600Y-112115600D03*
%TO.P,J2,13,Pin_13_13*%
%TO.N,unconnected-(J2-Pin_13-Pad13)*%
X167741600Y-114655600D03*
%TO.P,J2,14,Pin_14_14*%
%TO.N,unconnected-(J2-Pin_14-Pad14)*%
X167741600Y-117195600D03*
%TD*%
D12*
%TO.P,SW2,1,1_1*%
%TO.N,GND*%
X149987000Y-115189000D03*
%TO.P,SW2,2,2_2*%
%TO.N,/BOOT*%
X149987000Y-110109000D03*
%TD*%
D10*
%TO.P,J1,1,Pin_1_1*%
%TO.N,unconnected-(J1-Pin_1-Pad1)*%
X162941000Y-85140800D03*
D11*
%TO.P,J1,2,Pin_2_2*%
%TO.N,unconnected-(J1-Pin_2-Pad2)*%
X162941000Y-87680800D03*
%TO.P,J1,3,Pin_3_3*%
%TO.N,GND*%
X162941000Y-90220800D03*
%TO.P,J1,4,Pin_4_4*%
%TO.N,/GPS_RX*%
X162941000Y-92760800D03*
%TO.P,J1,5,Pin_5_5*%
%TO.N,/GPS_TX*%
X162941000Y-95300800D03*
%TO.P,J1,6,Pin_6_6*%
%TO.N,unconnected-(J1-Pin_6-Pad6)*%
X162941000Y-97840800D03*
%TO.P,J1,7,Pin_7_7*%
%TO.N,unconnected-(J1-Pin_7-Pad7)*%
X162941000Y-100380800D03*
%TO.P,J1,8,Pin_8_8*%
%TO.N,unconnected-(J1-Pin_8-Pad8)*%
X162941000Y-102920800D03*
%TO.P,J1,9,Pin_9_9*%
%TO.N,+3.3V*%
X162941000Y-105460800D03*
%TD*%
D10*
%TO.P,J4,1,Pin_1_1*%
%TO.N,GND*%
X162000000Y-116920000D03*
D11*
%TO.P,J4,2,Pin_2_2*%
%TO.N,/RX0*%
X162000000Y-114380000D03*
%TO.P,J4,3,Pin_3_3*%
%TO.N,/TX0*%
X162000000Y-111840000D03*
%TO.P,J4,4,Pin_4_4*%
%TO.N,/USB_5V*%
X162000000Y-109300000D03*
%TD*%
D12*
%TO.P,SW1,1,1_1*%
%TO.N,GND*%
X156464000Y-115062000D03*
%TO.P,SW1,2,2_2*%
%TO.N,/ESP_RST*%
X156464000Y-109982000D03*
%TD*%
D13*
%TO.P,J5,1,Pin_1_1*%
%TO.N,/Terminal_5V*%
X166661600Y-122203200D03*
%TO.P,J5,2,Pin_2_2*%
%TO.N,GND*%
X166661600Y-127203200D03*
%TO.P,J5,3,Pin_3_3*%
%TO.N,/SDA*%
X164661601Y-122203200D03*
%TO.P,J5,4,Pin_4_4*%
%TO.N,/SCL*%
X164661601Y-127203200D03*
%TO.P,J5,5,Pin_5_5*%
%TO.N,/PMIC_~{INT}*%
X162661600Y-122203200D03*
%TO.P,J5,6,Pin_6_6*%
%TO.N,/PMIC_STAT1*%
X162661600Y-127203200D03*
%TO.P,J5,7,Pin_7_7*%
%TO.N,/PMIC_STAT2*%
X160661602Y-122203200D03*
%TO.P,J5,8,Pin_8_8*%
%TO.N,/PMIC_~{PG}*%
X160661602Y-127203200D03*
%TD*%
D14*
%TO.P,C1,1*%
%TO.N,+3.3V*%
X141452600Y-85318600D03*
%TO.P,C1,2*%
%TO.N,GND*%
X143527600Y-85318600D03*
%TD*%
D15*
%TO.P,J3,1,Pin_1_1*%
%TO.N,+3.3V*%
X154341200Y-126796800D03*
%TO.P,J3,2,Pin_2_2*%
%TO.N,/MIC_SD*%
X151841200Y-126796800D03*
%TO.P,J3,3,Pin_3_3*%
%TO.N,/MIC_SCK*%
X149341200Y-126796800D03*
%TO.P,J3,4,Pin_4_4*%
%TO.N,/WS*%
X146841200Y-126796800D03*
%TO.P,J3,5,Pin_5_5*%
%TO.N,GND*%
X144341200Y-126796800D03*
%TO.P,J3,6,Pin_6_6*%
X141841200Y-126796800D03*
%TD*%
D16*
%TO.N,GND*%
X148310600Y-112623600D03*
X165201600Y-113741200D03*
X158140400Y-102895400D03*
X147015200Y-121488200D03*
X169849800Y-92735400D03*
X169722800Y-83642200D03*
X140766800Y-121386600D03*
X165252400Y-118287800D03*
X153416000Y-116205000D03*
X158140400Y-90297000D03*
X169926000Y-105308400D03*
X169849800Y-118338600D03*
X138684000Y-108026200D03*
X164058600Y-124383800D03*
X153035000Y-100076000D03*
X145186400Y-84175600D03*
X165100000Y-105206800D03*
X138607800Y-103479600D03*
X149987000Y-94894400D03*
X154355800Y-83921600D03*
X150012400Y-100126800D03*
X149352000Y-123571000D03*
X144653000Y-121539000D03*
X164820600Y-83591400D03*
X143027400Y-103632000D03*
X146227800Y-129692400D03*
X142316200Y-129667000D03*
X164007800Y-129540000D03*
X164896800Y-88138000D03*
X158267400Y-112547400D03*
X165049200Y-100660200D03*
X138734800Y-112572800D03*
X169875200Y-109220000D03*
X169875200Y-100761800D03*
X169875200Y-113766600D03*
X150774400Y-129641600D03*
X164973000Y-96113600D03*
X153111200Y-123520200D03*
X151028400Y-112572800D03*
X154635200Y-112522000D03*
X169799000Y-88188800D03*
X141020800Y-90449400D03*
X158064200Y-99314000D03*
X158394400Y-118592600D03*
X152806400Y-94970600D03*
X145186400Y-86512400D03*
X141097000Y-95173800D03*
X159461200Y-129590800D03*
X168554400Y-129463800D03*
X153390600Y-107061000D03*
X164947600Y-92684600D03*
X146608800Y-100126800D03*
X155321000Y-129565400D03*
X165125400Y-109194600D03*
X149733000Y-86461600D03*
X159486600Y-124307600D03*
X146558000Y-95021400D03*
X138811000Y-117576600D03*
X149910800Y-90347800D03*
X169799000Y-96215200D03*
X149783800Y-83870800D03*
X154279600Y-86385400D03*
X137769600Y-129743200D03*
%TO.N,/USB_5V*%
X155981400Y-118414800D03*
%TO.N,+3.3V*%
X144653000Y-106705400D03*
X158191200Y-105130600D03*
X144627600Y-108483400D03*
X140335000Y-85318600D03*
X151739600Y-105181400D03*
%TO.N,/TFT_CS*%
X154127200Y-89433400D03*
%TO.N,/TFT_RST*%
X154559000Y-92024200D03*
%TO.N,/TFT_DC*%
X153111200Y-103327200D03*
%TO.N,/TFT_SCK*%
X158115000Y-94411800D03*
%TO.N,/BOOT*%
X152452800Y-110299127D03*
%TO.N,/ESP_RST*%
X142671800Y-99669600D03*
%TO.N,/GPS_RX*%
X158927800Y-92887800D03*
%TO.N,/GPS_TX*%
X159072665Y-95790935D03*
%TO.N,/MIC_SD*%
X140950000Y-93050000D03*
%TO.N,/MIC_SCK*%
X140300000Y-94150000D03*
%TO.N,/PMIC_~{INT}*%
X136931400Y-120065800D03*
%TO.N,/PMIC_STAT1*%
X141020800Y-124866400D03*
%TO.N,/PMIC_STAT2*%
X141528800Y-122910600D03*
%TO.N,/PMIC_~{PG}*%
X141046200Y-123825000D03*
%TO.N,/Terminal_5V*%
X156235400Y-120954800D03*
%TD*%
%TO.N,+3.3V*%
D17*
X141452600Y-85318600D02*
X140335000Y-85318600D01*
D18*
X158191200Y-105130600D02*
X158242000Y-105130600D01*
%TO.N,/TFT_CS*%
X167556800Y-89070800D02*
X167741600Y-89255600D01*
X154127200Y-89433400D02*
X154489800Y-89070800D01*
X154489800Y-89070800D02*
X167556800Y-89070800D01*
%TO.N,/TFT_RST*%
X154559000Y-92024200D02*
X154972400Y-91610800D01*
X154972400Y-91610800D02*
X167556800Y-91610800D01*
X167556800Y-91610800D02*
X167741600Y-91795600D01*
%TO.N,/TFT_DC*%
X167265254Y-100565600D02*
X168217946Y-100565600D01*
X154609800Y-103327200D02*
X156184600Y-101752400D01*
X166078454Y-101752400D02*
X167265254Y-100565600D01*
X153111200Y-103327200D02*
X154609800Y-103327200D01*
X168891600Y-95485600D02*
X167741600Y-94335600D01*
X168891600Y-99891946D02*
X168891600Y-95485600D01*
X168217946Y-100565600D02*
X168891600Y-99891946D01*
X156184600Y-101752400D02*
X166078454Y-101752400D01*
%TO.N,/TFT_SCK*%
X167316800Y-98990800D02*
X167741600Y-99415600D01*
X161424001Y-98990800D02*
X167316800Y-98990800D01*
X158115000Y-94411800D02*
X158115000Y-95681799D01*
X158115000Y-95681799D02*
X161424001Y-98990800D01*
%TO.N,/BOOT*%
X152262673Y-110109000D02*
X149987000Y-110109000D01*
X152452800Y-110299127D02*
X152262673Y-110109000D01*
%TO.N,/ESP_RST*%
X142671800Y-99669600D02*
X152222200Y-109220000D01*
X152603200Y-109220000D02*
X153365200Y-109982000D01*
X153365200Y-109982000D02*
X156464000Y-109982000D01*
X152222200Y-109220000D02*
X152603200Y-109220000D01*
%TO.N,/GPS_RX*%
X158927800Y-92887800D02*
X159054800Y-92760800D01*
X159054800Y-92760800D02*
X162941000Y-92760800D01*
%TO.N,/GPS_TX*%
X159072665Y-95790935D02*
X159562800Y-95300800D01*
X159562800Y-95300800D02*
X162941000Y-95300800D01*
%TO.N,/MIC_SD*%
X140497000Y-94925271D02*
X140497000Y-95422329D01*
X140950000Y-93050000D02*
X140950000Y-94573800D01*
X140950000Y-95773800D02*
X140950000Y-103750000D01*
X140497000Y-95422329D02*
X140848471Y-95773800D01*
X163622000Y-121805389D02*
X163622000Y-123971871D01*
X163622000Y-127601011D02*
X162659411Y-128563600D01*
X163458600Y-124135271D02*
X163458600Y-124632329D01*
X163458600Y-124632329D02*
X163622000Y-124795729D01*
X139300000Y-105400000D02*
X139300000Y-111159071D01*
X163622000Y-124795729D02*
X163622000Y-127601011D01*
X162659411Y-128563600D02*
X153608000Y-128563600D01*
X140848471Y-94573800D02*
X140497000Y-94925271D01*
X161482411Y-119665800D02*
X163622000Y-121805389D01*
X147806729Y-119665800D02*
X161482411Y-119665800D01*
X153608000Y-128563600D02*
X151841200Y-126796800D01*
X140950000Y-94573800D02*
X140848471Y-94573800D01*
X163622000Y-123971871D02*
X163458600Y-124135271D01*
X139300000Y-111159071D02*
X147806729Y-119665800D01*
X140848471Y-95773800D02*
X140950000Y-95773800D01*
X140950000Y-103750000D02*
X139300000Y-105400000D01*
%TO.N,/MIC_SCK*%
X163082412Y-119265800D02*
X165622001Y-121805389D01*
X140701471Y-92450000D02*
X141198529Y-92450000D01*
X141697000Y-92948471D02*
X141697000Y-112990385D01*
X141198529Y-92450000D02*
X141697000Y-92948471D01*
X140300000Y-92851471D02*
X140701471Y-92450000D01*
X165622001Y-121805389D02*
X165622001Y-127601011D01*
X147972415Y-119265800D02*
X163082412Y-119265800D01*
X140300000Y-94150000D02*
X140300000Y-92851471D01*
X162823296Y-128965400D02*
X151509800Y-128965400D01*
X163625096Y-128163600D02*
X162823296Y-128965400D01*
X151509800Y-128965400D02*
X149341200Y-126796800D01*
X141697000Y-112990385D02*
X147972415Y-119265800D01*
X165059412Y-128163600D02*
X163625096Y-128163600D01*
X165622001Y-127601011D02*
X165059412Y-128163600D01*
%TO.N,/PMIC_~{INT}*%
X160524200Y-120065800D02*
X162661600Y-122203200D01*
X136931400Y-120065800D02*
X160524200Y-120065800D01*
%TO.N,/PMIC_STAT1*%
X161701200Y-128163600D02*
X162661600Y-127203200D01*
X160263791Y-128163600D02*
X161701200Y-128163600D01*
X141274800Y-125120400D02*
X157220591Y-125120400D01*
X157220591Y-125120400D02*
X160263791Y-128163600D01*
X141020800Y-124866400D02*
X141274800Y-125120400D01*
%TO.N,/PMIC_STAT2*%
X159954202Y-122910600D02*
X160661602Y-122203200D01*
X141528800Y-122910600D02*
X159954202Y-122910600D01*
%TO.N,/PMIC_~{PG}*%
X157740602Y-124282200D02*
X160661602Y-127203200D01*
X141503400Y-124282200D02*
X157740602Y-124282200D01*
X141046200Y-123825000D02*
X141503400Y-124282200D01*
%TD*%
%TA.AperFunction,Conductor*%
%TO.N,GND*%
G36*
X166289127Y-83106323D02*
G01*
X166303148Y-83110440D01*
X166317233Y-83119492D01*
X166333380Y-83123922D01*
X166346018Y-83137991D01*
X166361926Y-83148215D01*
X166369224Y-83163826D01*
X166380070Y-83175900D01*
X166390616Y-83209582D01*
X166392639Y-83222066D01*
X166393526Y-83255152D01*
X166391100Y-83277718D01*
X166391100Y-85073476D01*
X166391259Y-85075406D01*
X166391485Y-85077054D01*
X166397507Y-85133082D01*
X166425290Y-85207571D01*
X166447802Y-85267928D01*
X166447803Y-85267930D01*
X166447804Y-85267932D01*
X166447805Y-85267933D01*
X166534050Y-85383142D01*
X166534056Y-85383148D01*
X166563019Y-85404829D01*
X166649264Y-85469393D01*
X166649271Y-85469397D01*
X166694218Y-85486161D01*
X166784117Y-85519691D01*
X166784116Y-85519691D01*
X166847032Y-85526456D01*
X166846990Y-85526840D01*
X166870505Y-85530860D01*
X166896631Y-85538530D01*
X166949381Y-85569827D01*
X167485450Y-86105896D01*
X167518935Y-86167219D01*
X167513951Y-86236911D01*
X167472079Y-86292844D01*
X167459773Y-86300962D01*
X167434596Y-86315498D01*
X167434590Y-86315503D01*
X167341503Y-86408590D01*
X167341498Y-86408596D01*
X167326962Y-86433773D01*
X167276393Y-86481987D01*
X167207785Y-86495207D01*
X167142922Y-86469237D01*
X167131896Y-86459450D01*
X166626328Y-85953882D01*
X166626327Y-85953882D01*
X166586980Y-86008038D01*
X166490503Y-86197384D01*
X166424842Y-86399465D01*
X166423398Y-86408590D01*
X166391600Y-86609353D01*
X166391600Y-86821846D01*
X166415461Y-86972499D01*
X166423315Y-87022085D01*
X166423316Y-87022093D01*
X166424842Y-87031733D01*
X166467294Y-87162385D01*
X166490504Y-87233817D01*
X166557120Y-87364557D01*
X166586974Y-87423148D01*
X166586975Y-87423150D01*
X166622274Y-87471737D01*
X166626328Y-87477316D01*
X167131897Y-86971747D01*
X167193219Y-86938263D01*
X167262911Y-86943247D01*
X167318844Y-86985119D01*
X167326963Y-86997428D01*
X167341496Y-87022600D01*
X167341499Y-87022604D01*
X167341501Y-87022607D01*
X167434593Y-87115699D01*
X167459769Y-87130234D01*
X167507984Y-87180802D01*
X167521206Y-87249409D01*
X167495238Y-87314273D01*
X167485449Y-87325302D01*
X166979921Y-87830829D01*
X166979882Y-87830869D01*
X166979882Y-87830870D01*
X167034052Y-87870226D01*
X167034051Y-87870226D01*
X167035715Y-87871074D01*
X167043457Y-87876658D01*
X167046090Y-87880048D01*
X167056050Y-87887069D01*
X167065468Y-87895963D01*
X167100692Y-87956300D01*
X167097704Y-88026105D01*
X167061526Y-88079834D01*
X167054521Y-88085903D01*
X167037558Y-88097397D01*
X167037932Y-88098007D01*
X167033772Y-88100555D01*
X167022603Y-88108669D01*
X166989357Y-88125841D01*
X165987379Y-88463797D01*
X165947749Y-88470300D01*
X164274611Y-88470300D01*
X164274608Y-88470299D01*
X164274607Y-88470300D01*
X164239672Y-88465276D01*
X164226354Y-88461365D01*
X164167577Y-88423589D01*
X164138555Y-88360034D01*
X164138080Y-88356730D01*
X164142621Y-88301594D01*
X164143220Y-88299704D01*
X164150930Y-88280909D01*
X164156220Y-88270526D01*
X164156221Y-88270522D01*
X164156230Y-88270506D01*
X164192557Y-88199212D01*
X164258246Y-87997043D01*
X164291500Y-87787087D01*
X164291500Y-87574513D01*
X164258246Y-87364557D01*
X164192557Y-87162388D01*
X164096051Y-86972984D01*
X164096049Y-86972981D01*
X164096048Y-86972979D01*
X164095702Y-86972503D01*
X164095700Y-86972499D01*
X163971112Y-86801016D01*
X163870178Y-86700082D01*
X163870173Y-86700077D01*
X163849027Y-86671830D01*
X163842372Y-86659642D01*
X163827521Y-86591372D01*
X163851935Y-86525911D01*
X163854698Y-86522220D01*
X163910621Y-86480362D01*
X164033331Y-86434596D01*
X164034431Y-86433773D01*
X164071447Y-86406061D01*
X164148546Y-86348346D01*
X164234796Y-86233131D01*
X164285091Y-86098283D01*
X164291500Y-86038673D01*
X164291499Y-84242928D01*
X164285091Y-84183317D01*
X164276112Y-84159243D01*
X164276112Y-84159242D01*
X164276111Y-84159240D01*
X164234797Y-84048471D01*
X164234795Y-84048468D01*
X164234793Y-84048464D01*
X164148547Y-83933255D01*
X164148544Y-83933252D01*
X164148542Y-83933250D01*
X164090616Y-83889886D01*
X164033335Y-83847006D01*
X164033332Y-83847004D01*
X164033330Y-83847003D01*
X164033328Y-83847002D01*
X163898482Y-83796708D01*
X163898483Y-83796708D01*
X163838883Y-83790301D01*
X163838881Y-83790300D01*
X163838873Y-83790300D01*
X163838864Y-83790300D01*
X163837841Y-83790300D01*
X162043123Y-83790300D01*
X162041192Y-83790459D01*
X162039545Y-83790685D01*
X161983516Y-83796708D01*
X161848666Y-83847004D01*
X161848665Y-83847005D01*
X161733456Y-83933250D01*
X161733450Y-83933256D01*
X161647205Y-84048465D01*
X161647203Y-84048468D01*
X161596908Y-84183316D01*
X161590500Y-84242925D01*
X161590500Y-86038676D01*
X161590659Y-86040602D01*
X161590885Y-86042254D01*
X161596907Y-86098282D01*
X161604672Y-86119100D01*
X161647202Y-86233128D01*
X161647206Y-86233135D01*
X161668774Y-86261946D01*
X161733450Y-86348342D01*
X161733452Y-86348344D01*
X161733455Y-86348347D01*
X161848664Y-86434593D01*
X161848671Y-86434597D01*
X161915306Y-86459450D01*
X161963376Y-86477379D01*
X161982936Y-86488059D01*
X161994350Y-86494291D01*
X162005461Y-86502608D01*
X162047334Y-86558540D01*
X162052321Y-86628232D01*
X162052318Y-86628245D01*
X162051342Y-86632730D01*
X162017860Y-86694044D01*
X161910886Y-86801018D01*
X161832730Y-86908593D01*
X161786846Y-86971748D01*
X161785949Y-86972982D01*
X161689445Y-87162380D01*
X161623752Y-87364559D01*
X161590500Y-87574507D01*
X161590500Y-87787091D01*
X161614458Y-87938354D01*
X161617300Y-87956300D01*
X161623754Y-87997043D01*
X161657385Y-88100549D01*
X161663638Y-88119792D01*
X161689446Y-88199220D01*
X161727609Y-88274119D01*
X161732387Y-88288139D01*
X161738993Y-88307524D01*
X161741555Y-88321165D01*
X161734584Y-88390686D01*
X161691133Y-88445402D01*
X161691129Y-88445404D01*
X161688401Y-88447327D01*
X161637282Y-88468300D01*
X161635338Y-88468623D01*
X161615014Y-88470300D01*
X154606383Y-88470300D01*
X154597514Y-88470299D01*
X154562739Y-88465300D01*
X154492126Y-88465300D01*
X154441397Y-88470299D01*
X154410743Y-88470299D01*
X154396018Y-88474244D01*
X154396017Y-88474243D01*
X154392092Y-88475294D01*
X154388981Y-88475914D01*
X154382903Y-88477756D01*
X154380967Y-88478276D01*
X154380939Y-88478284D01*
X154303387Y-88499065D01*
X154303386Y-88499064D01*
X154258009Y-88511223D01*
X154243873Y-88519384D01*
X154243874Y-88519385D01*
X154218744Y-88533895D01*
X154201186Y-88542271D01*
X153842195Y-88680103D01*
X153836391Y-88682373D01*
X153836291Y-88682413D01*
X153836258Y-88682427D01*
X153785906Y-88705763D01*
X153780620Y-88708880D01*
X153780260Y-88708269D01*
X153764134Y-88717329D01*
X153748031Y-88724000D01*
X153748017Y-88724007D01*
X153748007Y-88724013D01*
X153616908Y-88811611D01*
X153616907Y-88811612D01*
X153616901Y-88811617D01*
X153505417Y-88923101D01*
X153505412Y-88923107D01*
X153505411Y-88923108D01*
X153417813Y-89054207D01*
X153417803Y-89054224D01*
X153417798Y-89054233D01*
X153357464Y-89199896D01*
X153357457Y-89199927D01*
X153326700Y-89354550D01*
X153326700Y-89354553D01*
X153326700Y-89512246D01*
X153326700Y-89512248D01*
X153326699Y-89512248D01*
X153357457Y-89666871D01*
X153357464Y-89666902D01*
X153417798Y-89812565D01*
X153417803Y-89812574D01*
X153417813Y-89812591D01*
X153505411Y-89943690D01*
X153505412Y-89943691D01*
X153505417Y-89943697D01*
X153616901Y-90055181D01*
X153616907Y-90055186D01*
X153616911Y-90055189D01*
X153748014Y-90142790D01*
X153748027Y-90142797D01*
X153893698Y-90203135D01*
X153893703Y-90203137D01*
X154048353Y-90233899D01*
X154048356Y-90233900D01*
X154048358Y-90233900D01*
X154206044Y-90233900D01*
X154206045Y-90233899D01*
X154360697Y-90203137D01*
X154506379Y-90142794D01*
X154637489Y-90055189D01*
X154748989Y-89943689D01*
X154836594Y-89812579D01*
X154856582Y-89764317D01*
X154874588Y-89733969D01*
X154884400Y-89721793D01*
X154941786Y-89681947D01*
X154954717Y-89677643D01*
X154993871Y-89671300D01*
X161511568Y-89671300D01*
X161546500Y-89676321D01*
X161559819Y-89680232D01*
X161574820Y-89689873D01*
X161591932Y-89694899D01*
X161603602Y-89708370D01*
X161618597Y-89718006D01*
X161626006Y-89734229D01*
X161637683Y-89747707D01*
X161647616Y-89781547D01*
X161647623Y-89781561D01*
X161647624Y-89781572D01*
X161648618Y-89788489D01*
X161643810Y-89844445D01*
X161624242Y-89904667D01*
X161622715Y-89914311D01*
X161591000Y-90114553D01*
X161591000Y-90327046D01*
X161615988Y-90484812D01*
X161622715Y-90527285D01*
X161622716Y-90527293D01*
X161624242Y-90536933D01*
X161689905Y-90739019D01*
X161728170Y-90814119D01*
X161735215Y-90834791D01*
X161739554Y-90847523D01*
X161742116Y-90861163D01*
X161735145Y-90930684D01*
X161691695Y-90985401D01*
X161691690Y-90985404D01*
X161688962Y-90987327D01*
X161637843Y-91008300D01*
X161635899Y-91008623D01*
X161615575Y-91010300D01*
X155061017Y-91010300D01*
X155059068Y-91010299D01*
X155059053Y-91010299D01*
X155051457Y-91010299D01*
X155011873Y-91010299D01*
X155011872Y-91010298D01*
X154994231Y-91009037D01*
X154977978Y-91006700D01*
X154977975Y-91006700D01*
X154969020Y-91006700D01*
X154969018Y-91006700D01*
X154908906Y-91009922D01*
X154908893Y-91009696D01*
X154900968Y-91010299D01*
X154893343Y-91010299D01*
X154785986Y-91039065D01*
X154785985Y-91039064D01*
X154740609Y-91051223D01*
X154726484Y-91059378D01*
X154726471Y-91059387D01*
X154696131Y-91076904D01*
X154696077Y-91076936D01*
X154690637Y-91080078D01*
X154679725Y-91085680D01*
X154246056Y-91281850D01*
X154207419Y-91301361D01*
X154206807Y-91301746D01*
X154188374Y-91311261D01*
X154179831Y-91314800D01*
X154179817Y-91314807D01*
X154179807Y-91314813D01*
X154048708Y-91402411D01*
X154048707Y-91402412D01*
X154048701Y-91402417D01*
X153937217Y-91513901D01*
X153937212Y-91513907D01*
X153937211Y-91513908D01*
X153849613Y-91645007D01*
X153849603Y-91645024D01*
X153849598Y-91645033D01*
X153789264Y-91790696D01*
X153789257Y-91790727D01*
X153758500Y-91945350D01*
X153758500Y-91945353D01*
X153758500Y-92103046D01*
X153758500Y-92103048D01*
X153758499Y-92103048D01*
X153789257Y-92257671D01*
X153789264Y-92257702D01*
X153849598Y-92403365D01*
X153849603Y-92403374D01*
X153849613Y-92403391D01*
X153937211Y-92534490D01*
X153937212Y-92534491D01*
X153937217Y-92534497D01*
X154048701Y-92645981D01*
X154048707Y-92645986D01*
X154048711Y-92645989D01*
X154179814Y-92733590D01*
X154179827Y-92733597D01*
X154273541Y-92772414D01*
X154325503Y-92793937D01*
X154475287Y-92823731D01*
X154476075Y-92823887D01*
X154477602Y-92824285D01*
X154480155Y-92824700D01*
X154637844Y-92824700D01*
X154641964Y-92824700D01*
X154649814Y-92822318D01*
X154792497Y-92793937D01*
X154938179Y-92733594D01*
X155069289Y-92645989D01*
X155180789Y-92534489D01*
X155268394Y-92403379D01*
X155268395Y-92403376D01*
X155268397Y-92403373D01*
X155268411Y-92403338D01*
X155269093Y-92401948D01*
X155270060Y-92399357D01*
X155281443Y-92371873D01*
X155291443Y-92352673D01*
X155301354Y-92337131D01*
X155323802Y-92287502D01*
X155345336Y-92262468D01*
X155366065Y-92236747D01*
X155368515Y-92235520D01*
X155369365Y-92234533D01*
X155397622Y-92220951D01*
X155407559Y-92217643D01*
X155446713Y-92211300D01*
X158167252Y-92211300D01*
X158202186Y-92216323D01*
X158215254Y-92220160D01*
X158274032Y-92257934D01*
X158303058Y-92321489D01*
X158296106Y-92383518D01*
X158293150Y-92391230D01*
X158280466Y-92415740D01*
X158218412Y-92508608D01*
X158218409Y-92508612D01*
X158218398Y-92508633D01*
X158158064Y-92654296D01*
X158158057Y-92654327D01*
X158127300Y-92808950D01*
X158127300Y-92808953D01*
X158127300Y-92966646D01*
X158127300Y-92966648D01*
X158127299Y-92966648D01*
X158158057Y-93121271D01*
X158158064Y-93121302D01*
X158218398Y-93266965D01*
X158218403Y-93266974D01*
X158218413Y-93266991D01*
X158306011Y-93398090D01*
X158306019Y-93398102D01*
X158308655Y-93401616D01*
X158307719Y-93402317D01*
X158311233Y-93405126D01*
X158318487Y-93416818D01*
X158324930Y-93428617D01*
X158326375Y-93435262D01*
X158327155Y-93436624D01*
X158331409Y-93449239D01*
X158331853Y-93460440D01*
X158339783Y-93496890D01*
X158333922Y-93512604D01*
X158334178Y-93519054D01*
X158326900Y-93531429D01*
X158315367Y-93562355D01*
X158303487Y-93571248D01*
X158298763Y-93579283D01*
X158280262Y-93588635D01*
X158259435Y-93604227D01*
X158259411Y-93604236D01*
X158257222Y-93605052D01*
X158245999Y-93605955D01*
X158236408Y-93610804D01*
X158214256Y-93608510D01*
X158200126Y-93609648D01*
X158199905Y-93611897D01*
X158193843Y-93611300D01*
X158193842Y-93611300D01*
X158036158Y-93611300D01*
X158036155Y-93611300D01*
X158036153Y-93611300D01*
X157881527Y-93642057D01*
X157881496Y-93642064D01*
X157735833Y-93702398D01*
X157735824Y-93702403D01*
X157735807Y-93702413D01*
X157604708Y-93790011D01*
X157604707Y-93790012D01*
X157604701Y-93790017D01*
X157493217Y-93901501D01*
X157493212Y-93901507D01*
X157493211Y-93901508D01*
X157405613Y-94032607D01*
X157405603Y-94032624D01*
X157405598Y-94032633D01*
X157345264Y-94178296D01*
X157345257Y-94178327D01*
X157314500Y-94332950D01*
X157314500Y-94332953D01*
X157314500Y-94490646D01*
X157314500Y-94490648D01*
X157314499Y-94490648D01*
X157345257Y-94645271D01*
X157345263Y-94645299D01*
X157355347Y-94669645D01*
X157360817Y-94685981D01*
X157367927Y-94713414D01*
X157367928Y-94713415D01*
X157506905Y-95092014D01*
X157514500Y-95134742D01*
X157514500Y-95595129D01*
X157514499Y-95595147D01*
X157514499Y-95677047D01*
X157514499Y-95718760D01*
X157508601Y-95738845D01*
X157514498Y-95760853D01*
X157554439Y-95909914D01*
X157555423Y-95913584D01*
X157555424Y-95913587D01*
X157559649Y-95920905D01*
X157569854Y-95938580D01*
X157569855Y-95938583D01*
X157569856Y-95938583D01*
X157577790Y-95952324D01*
X157634479Y-96050513D01*
X157634480Y-96050514D01*
X157634481Y-96050516D01*
X157634485Y-96050521D01*
X157755314Y-96171350D01*
X157755359Y-96171393D01*
X160939140Y-99355174D01*
X160939150Y-99355185D01*
X160943480Y-99359515D01*
X160943481Y-99359516D01*
X161055285Y-99471320D01*
X161055287Y-99471321D01*
X161058786Y-99474820D01*
X161065604Y-99487307D01*
X161094794Y-99497037D01*
X161117581Y-99507286D01*
X161192210Y-99550374D01*
X161192211Y-99550374D01*
X161192216Y-99550377D01*
X161344944Y-99591300D01*
X161503058Y-99591300D01*
X161607389Y-99591300D01*
X161642321Y-99596321D01*
X161655640Y-99600232D01*
X161714418Y-99638006D01*
X161743444Y-99701561D01*
X161743444Y-99701565D01*
X161743919Y-99704869D01*
X161739372Y-99760023D01*
X161738776Y-99761901D01*
X161731070Y-99780686D01*
X161689446Y-99862377D01*
X161623752Y-100064559D01*
X161590500Y-100274507D01*
X161590500Y-100487091D01*
X161623752Y-100697039D01*
X161689445Y-100899218D01*
X161718234Y-100955718D01*
X161723944Y-100972474D01*
X161729618Y-100989124D01*
X161732180Y-101002765D01*
X161725209Y-101072286D01*
X161681758Y-101127002D01*
X161681754Y-101127004D01*
X161679026Y-101128927D01*
X161627907Y-101149900D01*
X161625963Y-101150223D01*
X161605639Y-101151900D01*
X156273221Y-101151900D01*
X156273158Y-101151899D01*
X156271254Y-101151899D01*
X156263658Y-101151899D01*
X156105543Y-101151899D01*
X156029178Y-101172360D01*
X156029179Y-101172361D01*
X155952817Y-101192822D01*
X155952815Y-101192822D01*
X155952814Y-101192823D01*
X155952812Y-101192823D01*
X155952743Y-101192853D01*
X155951934Y-101193330D01*
X155815898Y-101271870D01*
X155815894Y-101271872D01*
X155815890Y-101271875D01*
X155815882Y-101271881D01*
X155815878Y-101271884D01*
X155815876Y-101271885D01*
X154409991Y-102677773D01*
X154381740Y-102698922D01*
X154358652Y-102711530D01*
X154299222Y-102726700D01*
X153834142Y-102726700D01*
X153791412Y-102719105D01*
X153410624Y-102579324D01*
X153366196Y-102565032D01*
X153366210Y-102564985D01*
X153352063Y-102560513D01*
X153344701Y-102557464D01*
X153344689Y-102557461D01*
X153344683Y-102557459D01*
X153344671Y-102557457D01*
X153190047Y-102526700D01*
X153190045Y-102526700D01*
X153190042Y-102526700D01*
X153032358Y-102526700D01*
X153032355Y-102526700D01*
X153032353Y-102526700D01*
X152877727Y-102557457D01*
X152877696Y-102557464D01*
X152732033Y-102617798D01*
X152732024Y-102617803D01*
X152732007Y-102617813D01*
X152600908Y-102705411D01*
X152600907Y-102705412D01*
X152600901Y-102705417D01*
X152489417Y-102816901D01*
X152489412Y-102816907D01*
X152489411Y-102816908D01*
X152401813Y-102948007D01*
X152401803Y-102948024D01*
X152401798Y-102948033D01*
X152341464Y-103093696D01*
X152341457Y-103093727D01*
X152310700Y-103248350D01*
X152310700Y-103406048D01*
X152341457Y-103560671D01*
X152341464Y-103560702D01*
X152401798Y-103706365D01*
X152401803Y-103706374D01*
X152401813Y-103706391D01*
X152489411Y-103837490D01*
X152489412Y-103837491D01*
X152489417Y-103837497D01*
X152600901Y-103948981D01*
X152600907Y-103948986D01*
X152600911Y-103948989D01*
X152732014Y-104036590D01*
X152732027Y-104036597D01*
X152837571Y-104080314D01*
X152877703Y-104096937D01*
X152877705Y-104096937D01*
X152877710Y-104096939D01*
X152961479Y-104113601D01*
X153032353Y-104127699D01*
X153032356Y-104127700D01*
X153032358Y-104127700D01*
X153190044Y-104127700D01*
X153190045Y-104127699D01*
X153344697Y-104096937D01*
X153373131Y-104085158D01*
X153394860Y-104078417D01*
X153410618Y-104075075D01*
X153410618Y-104075074D01*
X153410627Y-104075073D01*
X153791409Y-103935295D01*
X153834139Y-103927700D01*
X154521180Y-103927700D01*
X154521243Y-103927701D01*
X154523147Y-103927701D01*
X154530743Y-103927701D01*
X154688854Y-103927701D01*
X154688857Y-103927701D01*
X154841585Y-103886777D01*
X154841587Y-103886775D01*
X154841589Y-103886775D01*
X154841590Y-103886774D01*
X154841589Y-103886774D01*
X154844217Y-103886070D01*
X154849104Y-103883661D01*
X154849197Y-103883622D01*
X154855725Y-103878613D01*
X154891742Y-103857819D01*
X154891743Y-103857818D01*
X154978516Y-103807720D01*
X155090320Y-103695916D01*
X155090320Y-103695915D01*
X155107756Y-103678479D01*
X155107760Y-103678472D01*
X156384417Y-102401818D01*
X156412662Y-102380675D01*
X156432972Y-102369585D01*
X156435754Y-102368067D01*
X156495179Y-102352900D01*
X161517021Y-102352900D01*
X161551953Y-102357921D01*
X161565272Y-102361832D01*
X161624050Y-102399606D01*
X161653076Y-102463161D01*
X161653077Y-102463169D01*
X161654071Y-102470085D01*
X161649264Y-102526042D01*
X161631952Y-102579324D01*
X161623755Y-102604555D01*
X161623752Y-102604563D01*
X161590500Y-102814507D01*
X161590500Y-103027088D01*
X161590499Y-103027089D01*
X161621940Y-103225595D01*
X161623753Y-103237042D01*
X161678664Y-103406040D01*
X161689442Y-103439210D01*
X161689443Y-103439212D01*
X161779425Y-103615813D01*
X161785951Y-103628620D01*
X161910890Y-103800586D01*
X162061213Y-103950909D01*
X162233182Y-104075850D01*
X162233190Y-104075854D01*
X162233693Y-104076163D01*
X162235174Y-104077296D01*
X162237122Y-104078712D01*
X162237086Y-104078760D01*
X162254034Y-104091734D01*
X162264315Y-104101443D01*
X162299541Y-104161783D01*
X162296552Y-104231589D01*
X162260383Y-104285307D01*
X162253227Y-104291508D01*
X162236814Y-104303523D01*
X162233190Y-104305743D01*
X162061210Y-104430692D01*
X161910892Y-104581010D01*
X161910890Y-104581013D01*
X161812858Y-104715945D01*
X161785949Y-104752982D01*
X161689445Y-104942380D01*
X161623753Y-105144559D01*
X161595817Y-105320943D01*
X161590500Y-105354513D01*
X161590500Y-105567091D01*
X161596505Y-105605004D01*
X161600534Y-105630444D01*
X161604086Y-105652869D01*
X161621940Y-105765595D01*
X161623753Y-105777042D01*
X161680320Y-105951136D01*
X161689442Y-105979210D01*
X161689443Y-105979212D01*
X161689444Y-105979214D01*
X161690812Y-105981899D01*
X161779425Y-106155813D01*
X161785951Y-106168620D01*
X161910890Y-106340586D01*
X161910892Y-106340588D01*
X162061216Y-106490912D01*
X162233169Y-106615842D01*
X162233177Y-106615847D01*
X162233179Y-106615848D01*
X162233181Y-106615849D01*
X162233182Y-106615850D01*
X162233200Y-106615860D01*
X162233442Y-106615982D01*
X162422588Y-106712357D01*
X162624757Y-106778046D01*
X162834713Y-106811300D01*
X162834714Y-106811300D01*
X163047286Y-106811300D01*
X163047287Y-106811300D01*
X163257243Y-106778046D01*
X163459412Y-106712357D01*
X163648816Y-106615851D01*
X163670789Y-106599886D01*
X163820786Y-106490909D01*
X163820786Y-106490908D01*
X163820844Y-106490866D01*
X163821605Y-106490090D01*
X163971104Y-106340592D01*
X163971106Y-106340588D01*
X163971109Y-106340586D01*
X164096048Y-106168620D01*
X164096047Y-106168620D01*
X164096051Y-106168616D01*
X164096053Y-106168610D01*
X164116445Y-106140544D01*
X164124730Y-106112329D01*
X164191188Y-105981899D01*
X164192555Y-105979216D01*
X164192556Y-105979213D01*
X164192557Y-105979212D01*
X164258246Y-105777043D01*
X164291500Y-105567087D01*
X164291500Y-105354513D01*
X164258246Y-105144557D01*
X164192557Y-104942388D01*
X164096051Y-104752984D01*
X164096049Y-104752981D01*
X164096048Y-104752979D01*
X164095702Y-104752503D01*
X164095700Y-104752499D01*
X163971112Y-104581016D01*
X163820782Y-104430686D01*
X163648824Y-104305753D01*
X163648258Y-104305406D01*
X163646627Y-104304157D01*
X163644901Y-104302903D01*
X163644932Y-104302859D01*
X163627960Y-104289862D01*
X163617683Y-104280157D01*
X163582457Y-104219817D01*
X163585445Y-104150012D01*
X163621612Y-104096295D01*
X163628783Y-104090081D01*
X163645194Y-104078069D01*
X163648797Y-104075860D01*
X163648816Y-104075851D01*
X163675991Y-104056106D01*
X163702856Y-104036590D01*
X163748602Y-104003352D01*
X163820786Y-103950909D01*
X163820788Y-103950906D01*
X163820792Y-103950904D01*
X163820800Y-103950895D01*
X163820852Y-103950858D01*
X163821593Y-103950102D01*
X163971104Y-103800592D01*
X163971106Y-103800588D01*
X163971109Y-103800586D01*
X164096048Y-103628620D01*
X164096047Y-103628620D01*
X164096051Y-103628616D01*
X164096053Y-103628610D01*
X164116445Y-103600544D01*
X164124730Y-103572329D01*
X164192557Y-103439212D01*
X164258246Y-103237043D01*
X164291500Y-103027087D01*
X164291500Y-102814513D01*
X164258246Y-102604557D01*
X164258244Y-102604552D01*
X164258244Y-102604549D01*
X164234727Y-102532174D01*
X164234723Y-102532163D01*
X164228708Y-102497398D01*
X164228312Y-102483519D01*
X164246075Y-102415948D01*
X164297551Y-102368705D01*
X164303826Y-102365620D01*
X164358532Y-102352900D01*
X165989834Y-102352900D01*
X165989897Y-102352901D01*
X165991801Y-102352901D01*
X165999397Y-102352901D01*
X166157508Y-102352901D01*
X166157511Y-102352901D01*
X166296336Y-102315702D01*
X166331372Y-102311513D01*
X166347000Y-102311885D01*
X166413549Y-102333159D01*
X166413554Y-102333162D01*
X166413556Y-102333164D01*
X166416484Y-102335146D01*
X166455659Y-102378135D01*
X166457939Y-102382286D01*
X166467186Y-102403666D01*
X166490041Y-102474010D01*
X166490043Y-102474016D01*
X166563305Y-102617798D01*
X166586551Y-102663420D01*
X166711490Y-102835386D01*
X166861813Y-102985709D01*
X167033782Y-103110650D01*
X167033790Y-103110654D01*
X167034293Y-103110963D01*
X167035774Y-103112096D01*
X167037722Y-103113512D01*
X167037686Y-103113560D01*
X167054634Y-103126534D01*
X167064915Y-103136243D01*
X167100141Y-103196583D01*
X167097152Y-103266389D01*
X167060983Y-103320107D01*
X167053827Y-103326308D01*
X167037414Y-103338323D01*
X167033790Y-103340543D01*
X166861810Y-103465492D01*
X166711492Y-103615810D01*
X166586549Y-103787782D01*
X166490045Y-103977180D01*
X166430064Y-104161783D01*
X166424353Y-104179360D01*
X166405042Y-104301286D01*
X166404336Y-104305743D01*
X166391100Y-104389308D01*
X166391100Y-104389313D01*
X166391100Y-104601887D01*
X166394018Y-104620311D01*
X166414785Y-104751433D01*
X166415031Y-104752983D01*
X166424353Y-104811839D01*
X166468563Y-104947907D01*
X166490041Y-105014007D01*
X166490043Y-105014012D01*
X166490044Y-105014014D01*
X166586551Y-105203420D01*
X166711490Y-105375386D01*
X166861813Y-105525709D01*
X167033782Y-105650650D01*
X167033790Y-105650654D01*
X167034293Y-105650963D01*
X167035774Y-105652096D01*
X167037722Y-105653512D01*
X167037686Y-105653560D01*
X167054634Y-105666534D01*
X167064915Y-105676243D01*
X167100141Y-105736583D01*
X167097152Y-105806389D01*
X167060983Y-105860107D01*
X167053827Y-105866308D01*
X167037414Y-105878323D01*
X167033790Y-105880543D01*
X166861810Y-106005492D01*
X166711492Y-106155810D01*
X166586549Y-106327782D01*
X166490045Y-106517180D01*
X166424352Y-106719359D01*
X166391100Y-106929307D01*
X166391100Y-107141891D01*
X166402789Y-107215689D01*
X166420448Y-107327186D01*
X166421037Y-107330905D01*
X166424352Y-107351836D01*
X166424354Y-107351842D01*
X166474409Y-107505899D01*
X166490041Y-107554006D01*
X166490043Y-107554012D01*
X166574203Y-107719187D01*
X166586551Y-107743420D01*
X166711490Y-107915386D01*
X166861813Y-108065709D01*
X167033782Y-108190650D01*
X167033790Y-108190654D01*
X167034293Y-108190963D01*
X167035774Y-108192096D01*
X167037722Y-108193512D01*
X167037686Y-108193560D01*
X167054634Y-108206534D01*
X167064915Y-108216243D01*
X167100141Y-108276583D01*
X167097152Y-108346389D01*
X167060983Y-108400107D01*
X167053827Y-108406308D01*
X167037414Y-108418323D01*
X167033790Y-108420543D01*
X166861810Y-108545492D01*
X166711492Y-108695810D01*
X166657905Y-108769568D01*
X166589276Y-108864029D01*
X166586549Y-108867782D01*
X166490045Y-109057180D01*
X166424352Y-109259359D01*
X166391100Y-109469307D01*
X166391100Y-109681890D01*
X166412723Y-109818412D01*
X166424353Y-109891841D01*
X166462036Y-110007819D01*
X166490043Y-110094014D01*
X166583007Y-110276464D01*
X166586551Y-110283420D01*
X166711490Y-110455386D01*
X166861813Y-110605709D01*
X167033782Y-110730650D01*
X167033790Y-110730654D01*
X167034293Y-110730963D01*
X167035774Y-110732096D01*
X167037722Y-110733512D01*
X167037686Y-110733560D01*
X167054634Y-110746534D01*
X167064915Y-110756243D01*
X167100141Y-110816583D01*
X167097152Y-110886389D01*
X167060983Y-110940107D01*
X167053827Y-110946308D01*
X167037414Y-110958323D01*
X167033790Y-110960543D01*
X166861810Y-111085492D01*
X166711492Y-111235810D01*
X166664914Y-111299920D01*
X166598846Y-111390857D01*
X166586549Y-111407782D01*
X166490045Y-111597180D01*
X166424352Y-111799359D01*
X166391100Y-112009307D01*
X166391100Y-112221890D01*
X166412723Y-112358412D01*
X166424353Y-112431841D01*
X166462036Y-112547819D01*
X166490043Y-112634014D01*
X166583007Y-112816464D01*
X166586551Y-112823420D01*
X166711490Y-112995386D01*
X166861813Y-113145709D01*
X167033782Y-113270650D01*
X167033790Y-113270654D01*
X167034293Y-113270963D01*
X167035774Y-113272096D01*
X167037722Y-113273512D01*
X167037686Y-113273560D01*
X167054634Y-113286534D01*
X167064915Y-113296243D01*
X167100141Y-113356583D01*
X167097152Y-113426389D01*
X167060983Y-113480107D01*
X167053827Y-113486308D01*
X167037414Y-113498323D01*
X167033790Y-113500543D01*
X166861810Y-113625492D01*
X166711492Y-113775810D01*
X166687486Y-113808852D01*
X166595217Y-113935852D01*
X166586549Y-113947782D01*
X166490045Y-114137182D01*
X166424352Y-114339363D01*
X166401082Y-114486287D01*
X166401082Y-114486288D01*
X166391100Y-114549309D01*
X166391100Y-114761891D01*
X166394364Y-114782497D01*
X166401134Y-114825244D01*
X166409344Y-114877078D01*
X166420368Y-114946680D01*
X166424352Y-114971835D01*
X166424354Y-114971842D01*
X166473181Y-115122119D01*
X166490041Y-115174007D01*
X166490043Y-115174012D01*
X166490044Y-115174014D01*
X166586551Y-115363420D01*
X166711490Y-115535386D01*
X166861813Y-115685709D01*
X167033782Y-115810650D01*
X167033790Y-115810654D01*
X167034293Y-115810963D01*
X167035774Y-115812096D01*
X167037722Y-115813512D01*
X167037686Y-115813560D01*
X167054634Y-115826534D01*
X167064915Y-115836243D01*
X167100141Y-115896583D01*
X167097152Y-115966389D01*
X167060983Y-116020107D01*
X167053827Y-116026308D01*
X167037414Y-116038323D01*
X167033790Y-116040543D01*
X166861810Y-116165492D01*
X166711492Y-116315810D01*
X166586549Y-116487782D01*
X166490045Y-116677180D01*
X166424354Y-116879355D01*
X166424352Y-116879362D01*
X166407491Y-116985825D01*
X166407491Y-116985826D01*
X166391100Y-117089313D01*
X166391100Y-117301887D01*
X166424354Y-117511843D01*
X166487245Y-117705402D01*
X166487249Y-117705413D01*
X166490043Y-117714013D01*
X166573281Y-117877377D01*
X166586551Y-117903420D01*
X166711490Y-118075386D01*
X166711492Y-118075388D01*
X166861816Y-118225712D01*
X167033769Y-118350642D01*
X167033777Y-118350647D01*
X167033779Y-118350648D01*
X167033781Y-118350649D01*
X167033782Y-118350650D01*
X167033800Y-118350660D01*
X167034042Y-118350782D01*
X167223188Y-118447157D01*
X167425357Y-118512846D01*
X167635313Y-118546100D01*
X167635314Y-118546100D01*
X167847886Y-118546100D01*
X167847887Y-118546100D01*
X168057843Y-118512846D01*
X168260012Y-118447157D01*
X168449416Y-118350651D01*
X168471389Y-118334686D01*
X168621386Y-118225709D01*
X168621386Y-118225708D01*
X168621444Y-118225666D01*
X168622205Y-118224890D01*
X168771704Y-118075392D01*
X168771705Y-118075390D01*
X168771710Y-118075385D01*
X168771724Y-118075365D01*
X168896648Y-117903420D01*
X168896647Y-117903420D01*
X168896651Y-117903416D01*
X168896653Y-117903410D01*
X168917045Y-117875344D01*
X168925330Y-117847129D01*
X168993157Y-117714012D01*
X169058846Y-117511843D01*
X169092100Y-117301887D01*
X169092100Y-117089313D01*
X169058846Y-116879357D01*
X168993157Y-116677188D01*
X168896651Y-116487784D01*
X168896649Y-116487781D01*
X168896648Y-116487779D01*
X168896302Y-116487303D01*
X168896300Y-116487299D01*
X168771712Y-116315816D01*
X168621382Y-116165486D01*
X168449424Y-116040553D01*
X168448858Y-116040206D01*
X168447227Y-116038957D01*
X168445501Y-116037703D01*
X168445532Y-116037659D01*
X168428560Y-116024662D01*
X168418283Y-116014957D01*
X168383057Y-115954617D01*
X168386045Y-115884812D01*
X168422213Y-115831093D01*
X168429383Y-115824881D01*
X168445787Y-115812875D01*
X168449416Y-115810651D01*
X168457799Y-115804560D01*
X168471389Y-115794686D01*
X168621386Y-115685709D01*
X168621387Y-115685706D01*
X168621390Y-115685705D01*
X168621392Y-115685704D01*
X168621393Y-115685702D01*
X168621447Y-115685663D01*
X168622205Y-115684890D01*
X168771704Y-115535392D01*
X168771706Y-115535388D01*
X168771709Y-115535386D01*
X168820301Y-115468504D01*
X168893934Y-115367157D01*
X168896645Y-115363424D01*
X168896644Y-115363424D01*
X168896648Y-115363420D01*
X168896647Y-115363420D01*
X168896651Y-115363416D01*
X168993157Y-115174012D01*
X169058846Y-114971843D01*
X169092100Y-114761887D01*
X169092100Y-114549313D01*
X169058846Y-114339357D01*
X168993157Y-114137188D01*
X168896651Y-113947784D01*
X168896649Y-113947781D01*
X168896648Y-113947779D01*
X168896302Y-113947303D01*
X168896300Y-113947299D01*
X168771712Y-113775816D01*
X168621382Y-113625486D01*
X168449424Y-113500553D01*
X168448858Y-113500206D01*
X168447227Y-113498957D01*
X168445501Y-113497703D01*
X168445532Y-113497659D01*
X168428560Y-113484662D01*
X168418283Y-113474957D01*
X168383057Y-113414617D01*
X168386045Y-113344812D01*
X168422212Y-113291095D01*
X168429383Y-113284881D01*
X168445794Y-113272869D01*
X168449392Y-113270663D01*
X168449416Y-113270651D01*
X168512315Y-113224953D01*
X168518462Y-113220487D01*
X168572196Y-113181447D01*
X168621386Y-113145709D01*
X168621387Y-113145707D01*
X168621447Y-113145663D01*
X168622205Y-113144890D01*
X168771704Y-112995392D01*
X168771706Y-112995388D01*
X168771709Y-112995386D01*
X168896648Y-112823420D01*
X168896647Y-112823420D01*
X168896651Y-112823416D01*
X168896653Y-112823410D01*
X168917045Y-112795344D01*
X168925330Y-112767129D01*
X168993157Y-112634012D01*
X169058846Y-112431843D01*
X169092100Y-112221887D01*
X169092100Y-112009313D01*
X169058846Y-111799357D01*
X168993157Y-111597188D01*
X168896651Y-111407784D01*
X168896649Y-111407781D01*
X168896648Y-111407779D01*
X168896302Y-111407303D01*
X168896300Y-111407299D01*
X168771712Y-111235816D01*
X168621382Y-111085486D01*
X168449424Y-110960553D01*
X168448858Y-110960206D01*
X168447227Y-110958957D01*
X168445501Y-110957703D01*
X168445532Y-110957659D01*
X168428560Y-110944662D01*
X168418283Y-110934957D01*
X168383057Y-110874617D01*
X168386045Y-110804812D01*
X168422212Y-110751095D01*
X168429383Y-110744881D01*
X168445794Y-110732869D01*
X168449392Y-110730663D01*
X168449416Y-110730651D01*
X168512315Y-110684953D01*
X168518462Y-110680487D01*
X168560337Y-110650063D01*
X168621386Y-110605709D01*
X168621387Y-110605707D01*
X168621447Y-110605663D01*
X168622205Y-110604890D01*
X168771704Y-110455392D01*
X168771706Y-110455388D01*
X168771709Y-110455386D01*
X168896648Y-110283420D01*
X168896647Y-110283420D01*
X168896651Y-110283416D01*
X168896653Y-110283410D01*
X168917045Y-110255344D01*
X168925330Y-110227129D01*
X168993157Y-110094012D01*
X169058846Y-109891843D01*
X169092100Y-109681887D01*
X169092100Y-109469313D01*
X169058846Y-109259357D01*
X168993157Y-109057188D01*
X168896651Y-108867784D01*
X168896649Y-108867781D01*
X168896648Y-108867779D01*
X168896302Y-108867303D01*
X168896300Y-108867299D01*
X168771712Y-108695816D01*
X168621382Y-108545486D01*
X168449424Y-108420553D01*
X168448858Y-108420206D01*
X168447227Y-108418957D01*
X168445501Y-108417703D01*
X168445532Y-108417659D01*
X168428560Y-108404662D01*
X168418283Y-108394957D01*
X168383057Y-108334617D01*
X168386045Y-108264812D01*
X168422212Y-108211095D01*
X168429383Y-108204881D01*
X168445794Y-108192869D01*
X168449391Y-108190663D01*
X168449416Y-108190651D01*
X168512320Y-108144949D01*
X168621386Y-108065709D01*
X168621386Y-108065708D01*
X168621445Y-108065665D01*
X168622205Y-108064890D01*
X168771704Y-107915392D01*
X168771706Y-107915388D01*
X168771709Y-107915386D01*
X168896648Y-107743420D01*
X168896647Y-107743420D01*
X168896651Y-107743416D01*
X168896653Y-107743410D01*
X168917045Y-107715344D01*
X168925330Y-107687129D01*
X168993157Y-107554012D01*
X169058846Y-107351843D01*
X169092100Y-107141887D01*
X169092100Y-106929313D01*
X169058846Y-106719357D01*
X168993157Y-106517188D01*
X168896651Y-106327784D01*
X168896649Y-106327781D01*
X168896648Y-106327779D01*
X168896302Y-106327303D01*
X168896300Y-106327299D01*
X168771712Y-106155816D01*
X168621382Y-106005486D01*
X168449424Y-105880553D01*
X168448858Y-105880206D01*
X168447227Y-105878957D01*
X168445501Y-105877703D01*
X168445532Y-105877659D01*
X168428560Y-105864662D01*
X168418283Y-105854957D01*
X168383057Y-105794617D01*
X168386045Y-105724812D01*
X168422212Y-105671095D01*
X168429383Y-105664881D01*
X168445794Y-105652869D01*
X168449405Y-105650656D01*
X168449416Y-105650651D01*
X168456516Y-105645492D01*
X168473633Y-105633057D01*
X168512244Y-105605004D01*
X168621386Y-105525709D01*
X168621388Y-105525706D01*
X168621392Y-105525704D01*
X168621400Y-105525695D01*
X168621452Y-105525658D01*
X168622193Y-105524902D01*
X168771704Y-105375392D01*
X168771706Y-105375388D01*
X168771709Y-105375386D01*
X168855362Y-105260246D01*
X168895079Y-105205580D01*
X168895549Y-105204931D01*
X168896648Y-105203420D01*
X168896647Y-105203420D01*
X168896651Y-105203416D01*
X168993157Y-105014012D01*
X169058846Y-104811843D01*
X169060369Y-104802231D01*
X169086710Y-104635915D01*
X169092100Y-104601887D01*
X169092100Y-104389313D01*
X169058846Y-104179357D01*
X168993157Y-103977188D01*
X168896651Y-103787784D01*
X168896649Y-103787781D01*
X168896648Y-103787779D01*
X168896302Y-103787303D01*
X168896300Y-103787299D01*
X168771712Y-103615816D01*
X168621382Y-103465486D01*
X168449424Y-103340553D01*
X168448858Y-103340206D01*
X168447227Y-103338957D01*
X168445501Y-103337703D01*
X168445532Y-103337659D01*
X168428560Y-103324662D01*
X168418283Y-103314957D01*
X168383057Y-103254617D01*
X168386045Y-103184812D01*
X168422212Y-103131095D01*
X168429383Y-103124881D01*
X168445794Y-103112869D01*
X168449394Y-103110662D01*
X168449416Y-103110651D01*
X168564433Y-103027087D01*
X168621386Y-102985709D01*
X168621388Y-102985706D01*
X168621392Y-102985704D01*
X168621396Y-102985699D01*
X168621450Y-102985660D01*
X168622206Y-102984890D01*
X168771704Y-102835392D01*
X168771706Y-102835388D01*
X168771709Y-102835386D01*
X168896648Y-102663420D01*
X168896647Y-102663420D01*
X168896651Y-102663416D01*
X168896653Y-102663410D01*
X168917045Y-102635344D01*
X168925330Y-102607129D01*
X168993157Y-102474012D01*
X169058846Y-102271843D01*
X169092100Y-102061887D01*
X169092100Y-101849313D01*
X169058846Y-101639357D01*
X168993157Y-101437188D01*
X168896651Y-101247784D01*
X168896649Y-101247781D01*
X168896648Y-101247779D01*
X168896302Y-101247303D01*
X168896300Y-101247299D01*
X168771712Y-101075816D01*
X168764626Y-101068730D01*
X168743474Y-101040474D01*
X168735982Y-101026753D01*
X168721130Y-100958493D01*
X168721259Y-100956684D01*
X168740625Y-100898489D01*
X168744818Y-100891965D01*
X168761439Y-100871340D01*
X169372120Y-100260662D01*
X169451177Y-100123730D01*
X169492101Y-99971003D01*
X169492101Y-99812888D01*
X169492101Y-99805293D01*
X169492101Y-99803609D01*
X169492100Y-99803535D01*
X169492100Y-95587106D01*
X169492100Y-95578237D01*
X169497100Y-95543462D01*
X169497100Y-95487925D01*
X169492101Y-95437195D01*
X169492101Y-95406544D01*
X169492101Y-95406542D01*
X169488164Y-95391853D01*
X169488161Y-95391842D01*
X169487109Y-95387918D01*
X169486486Y-95384780D01*
X169484630Y-95378663D01*
X169451176Y-95253814D01*
X169451173Y-95253809D01*
X169451151Y-95253756D01*
X169450667Y-95252933D01*
X169437826Y-95230691D01*
X169426682Y-95205108D01*
X169100795Y-94144157D01*
X169041630Y-93951541D01*
X169041627Y-93951533D01*
X169041622Y-93951516D01*
X169023868Y-93902781D01*
X169023865Y-93902777D01*
X169023865Y-93902775D01*
X169021266Y-93897344D01*
X169021583Y-93897191D01*
X169013181Y-93878817D01*
X168993157Y-93817188D01*
X168896651Y-93627784D01*
X168896649Y-93627781D01*
X168896648Y-93627779D01*
X168896302Y-93627303D01*
X168896300Y-93627299D01*
X168771712Y-93455816D01*
X168621382Y-93305486D01*
X168449424Y-93180553D01*
X168448858Y-93180206D01*
X168447227Y-93178957D01*
X168445501Y-93177703D01*
X168445532Y-93177659D01*
X168428560Y-93164662D01*
X168418283Y-93154957D01*
X168383057Y-93094617D01*
X168386045Y-93024812D01*
X168422212Y-92971095D01*
X168429383Y-92964881D01*
X168445801Y-92952866D01*
X168449410Y-92950653D01*
X168449416Y-92950651D01*
X168561230Y-92869414D01*
X168561235Y-92869411D01*
X168578085Y-92857168D01*
X168621386Y-92825709D01*
X168621387Y-92825707D01*
X168621448Y-92825663D01*
X168622209Y-92824886D01*
X168771704Y-92675392D01*
X168771706Y-92675388D01*
X168771709Y-92675386D01*
X168773363Y-92673110D01*
X168894141Y-92506872D01*
X168895389Y-92505152D01*
X168896648Y-92503420D01*
X168896647Y-92503420D01*
X168896651Y-92503416D01*
X168993157Y-92314012D01*
X169058846Y-92111843D01*
X169092100Y-91901887D01*
X169092100Y-91689313D01*
X169058846Y-91479357D01*
X168993157Y-91277188D01*
X168896651Y-91087784D01*
X168896649Y-91087781D01*
X168896648Y-91087779D01*
X168896302Y-91087303D01*
X168896300Y-91087299D01*
X168771712Y-90915816D01*
X168621382Y-90765486D01*
X168449424Y-90640553D01*
X168448858Y-90640206D01*
X168447227Y-90638957D01*
X168445501Y-90637703D01*
X168445532Y-90637659D01*
X168428560Y-90624662D01*
X168418283Y-90614957D01*
X168383057Y-90554617D01*
X168386045Y-90484812D01*
X168422213Y-90431093D01*
X168429383Y-90424881D01*
X168445787Y-90412875D01*
X168449416Y-90410651D01*
X168449417Y-90410650D01*
X168471389Y-90394686D01*
X168621386Y-90285709D01*
X168621387Y-90285706D01*
X168621390Y-90285705D01*
X168621392Y-90285704D01*
X168621393Y-90285702D01*
X168621447Y-90285663D01*
X168622205Y-90284890D01*
X168771704Y-90135392D01*
X168771706Y-90135388D01*
X168771709Y-90135386D01*
X168896648Y-89963420D01*
X168896647Y-89963420D01*
X168896651Y-89963416D01*
X168896653Y-89963410D01*
X168917045Y-89935344D01*
X168925330Y-89907129D01*
X168993157Y-89774012D01*
X169058846Y-89571843D01*
X169092100Y-89361887D01*
X169092100Y-89149313D01*
X169058846Y-88939357D01*
X168993157Y-88737188D01*
X168896651Y-88547784D01*
X168896649Y-88547781D01*
X168896648Y-88547779D01*
X168896302Y-88547303D01*
X168896300Y-88547299D01*
X168771712Y-88375816D01*
X168621388Y-88225492D01*
X168621386Y-88225490D01*
X168449417Y-88100549D01*
X168449412Y-88100546D01*
X168448184Y-88099794D01*
X168427842Y-88084224D01*
X168417727Y-88074671D01*
X168382506Y-88014334D01*
X168385496Y-87944529D01*
X168421666Y-87890810D01*
X168428722Y-87884696D01*
X168445137Y-87872683D01*
X168449142Y-87870228D01*
X168449155Y-87870222D01*
X168470719Y-87854553D01*
X168497458Y-87845012D01*
X168503317Y-87830869D01*
X167997749Y-87325302D01*
X167964264Y-87263979D01*
X167969248Y-87194288D01*
X168011119Y-87138354D01*
X168023422Y-87130239D01*
X168048607Y-87115699D01*
X168141699Y-87022607D01*
X168156234Y-86997430D01*
X168206799Y-86949216D01*
X168275405Y-86935991D01*
X168340271Y-86961958D01*
X168351302Y-86971749D01*
X168856869Y-87477317D01*
X168856869Y-87477316D01*
X168856870Y-87477317D01*
X168856870Y-87477316D01*
X168870338Y-87471737D01*
X168876555Y-87450567D01*
X168880554Y-87444718D01*
X168896221Y-87423155D01*
X168926077Y-87364560D01*
X168992695Y-87233817D01*
X169058357Y-87031730D01*
X169058357Y-87031727D01*
X169091600Y-86821846D01*
X169091600Y-86609353D01*
X169074363Y-86500525D01*
X169059884Y-86409111D01*
X169059883Y-86409105D01*
X169059883Y-86409106D01*
X169058356Y-86399465D01*
X169031073Y-86315498D01*
X168992695Y-86197382D01*
X168896224Y-86008049D01*
X168856870Y-85953882D01*
X168856869Y-85953882D01*
X168856868Y-85953882D01*
X168351302Y-86459449D01*
X168289979Y-86492934D01*
X168220287Y-86487950D01*
X168164354Y-86446078D01*
X168156234Y-86433769D01*
X168141699Y-86408593D01*
X168048607Y-86315501D01*
X168048604Y-86315499D01*
X168048600Y-86315496D01*
X168023428Y-86300963D01*
X167975213Y-86250396D01*
X167961991Y-86181789D01*
X167987959Y-86116924D01*
X167997733Y-86105912D01*
X168528628Y-85575016D01*
X168556872Y-85553874D01*
X168579964Y-85541266D01*
X168636198Y-85526913D01*
X168636176Y-85526500D01*
X168636171Y-85526454D01*
X168636173Y-85526453D01*
X168636164Y-85526276D01*
X168639367Y-85526104D01*
X168639389Y-85526099D01*
X168639471Y-85526099D01*
X168639472Y-85526099D01*
X168699083Y-85519691D01*
X168833931Y-85469396D01*
X168949146Y-85383146D01*
X169035396Y-85267931D01*
X169085691Y-85133083D01*
X169092100Y-85073473D01*
X169092099Y-83277728D01*
X169089793Y-83256275D01*
X169091052Y-83221013D01*
X169093648Y-83206626D01*
X169124922Y-83144151D01*
X169182877Y-83109063D01*
X169195080Y-83105715D01*
X169227877Y-83101300D01*
X170096470Y-83101300D01*
X170131406Y-83106323D01*
X170146404Y-83110727D01*
X170161394Y-83120357D01*
X170178475Y-83125367D01*
X170205155Y-83148472D01*
X170206342Y-83149841D01*
X170233818Y-83204702D01*
X170235463Y-83212260D01*
X170238300Y-83238631D01*
X170238300Y-130929670D01*
X170233275Y-130964614D01*
X170228870Y-130979612D01*
X170219239Y-130994601D01*
X170214232Y-131011675D01*
X170191127Y-131038355D01*
X170189758Y-131039542D01*
X170134897Y-131067018D01*
X170127339Y-131068663D01*
X170100968Y-131071500D01*
X136710130Y-131071500D01*
X136675189Y-131066475D01*
X136660190Y-131062070D01*
X136645202Y-131052440D01*
X136628124Y-131047432D01*
X136601444Y-131024327D01*
X136600257Y-131022958D01*
X136572777Y-130968083D01*
X136571132Y-130960521D01*
X136568300Y-130934168D01*
X136568300Y-120978680D01*
X136573322Y-120943747D01*
X136577233Y-120930428D01*
X136586871Y-120915430D01*
X136591894Y-120898325D01*
X136605366Y-120886650D01*
X136615006Y-120871651D01*
X136631223Y-120864244D01*
X136644697Y-120852569D01*
X136678551Y-120842627D01*
X136689464Y-120841058D01*
X136731295Y-120842178D01*
X136798682Y-120855582D01*
X136798683Y-120855583D01*
X136798684Y-120855583D01*
X136852555Y-120866300D01*
X137010244Y-120866300D01*
X137013277Y-120866300D01*
X137017149Y-120865036D01*
X137019655Y-120864427D01*
X137164897Y-120835537D01*
X137202195Y-120820086D01*
X137211515Y-120817823D01*
X137212336Y-120817861D01*
X137215060Y-120817017D01*
X137230818Y-120813675D01*
X137230818Y-120813674D01*
X137230827Y-120813673D01*
X137611609Y-120673895D01*
X137654339Y-120666300D01*
X155307679Y-120666300D01*
X155342611Y-120671321D01*
X155355930Y-120675232D01*
X155414708Y-120713006D01*
X155443734Y-120776561D01*
X155443733Y-120776563D01*
X155445300Y-120787457D01*
X155444180Y-120829299D01*
X155434900Y-120875950D01*
X155434900Y-120875953D01*
X155434900Y-121033646D01*
X155434900Y-121033648D01*
X155434899Y-121033648D01*
X155465657Y-121188271D01*
X155465664Y-121188302D01*
X155525998Y-121333965D01*
X155526003Y-121333974D01*
X155526013Y-121333991D01*
X155613611Y-121465090D01*
X155613612Y-121465091D01*
X155613617Y-121465097D01*
X155725101Y-121576581D01*
X155725107Y-121576586D01*
X155725111Y-121576589D01*
X155856214Y-121664190D01*
X155856227Y-121664197D01*
X156001898Y-121724535D01*
X156001903Y-121724537D01*
X156156553Y-121755299D01*
X156156556Y-121755300D01*
X156156558Y-121755300D01*
X156314244Y-121755300D01*
X156314245Y-121755299D01*
X156468897Y-121724537D01*
X156614579Y-121664194D01*
X156745689Y-121576589D01*
X156857189Y-121465089D01*
X156944794Y-121333979D01*
X157005137Y-121188297D01*
X157035900Y-121033642D01*
X157035900Y-120875958D01*
X157035900Y-120875955D01*
X157035900Y-120875771D01*
X157035469Y-120873788D01*
X157027152Y-120831976D01*
X157025263Y-120796733D01*
X157026500Y-120782910D01*
X157033026Y-120766320D01*
X157033379Y-120762385D01*
X157035803Y-120759264D01*
X157052081Y-120717891D01*
X157108749Y-120677027D01*
X157119146Y-120673359D01*
X157160389Y-120666300D01*
X160206274Y-120666300D01*
X160238509Y-120670563D01*
X160239869Y-120670929D01*
X160253543Y-120674944D01*
X160260002Y-120676349D01*
X160262906Y-120677131D01*
X160290232Y-120693831D01*
X160318345Y-120709180D01*
X160318352Y-120709187D01*
X160455666Y-120846501D01*
X160476814Y-120874750D01*
X160483021Y-120886116D01*
X160497876Y-120954388D01*
X160473463Y-121019854D01*
X160422461Y-121059768D01*
X160413928Y-121063374D01*
X160398743Y-121067716D01*
X160398827Y-121067976D01*
X160381355Y-121073579D01*
X160380927Y-121073754D01*
X160215963Y-121127354D01*
X160053156Y-121210309D01*
X160017408Y-121236282D01*
X159905323Y-121317717D01*
X159905321Y-121317719D01*
X159905320Y-121317719D01*
X159776121Y-121446918D01*
X159776121Y-121446919D01*
X159776119Y-121446921D01*
X159760124Y-121468936D01*
X159668711Y-121594754D01*
X159585756Y-121757563D01*
X159529285Y-121931361D01*
X159513737Y-122029527D01*
X159513029Y-122033568D01*
X159511582Y-122041082D01*
X159504388Y-122063278D01*
X159479380Y-122208375D01*
X159479156Y-122209539D01*
X159463672Y-122239590D01*
X159448804Y-122269883D01*
X159447729Y-122270531D01*
X159447154Y-122271649D01*
X159417903Y-122288545D01*
X159388996Y-122306005D01*
X159387298Y-122306224D01*
X159386653Y-122306598D01*
X159385017Y-122306520D01*
X159357391Y-122310100D01*
X142251744Y-122310100D01*
X142209014Y-122302505D01*
X141830274Y-122163476D01*
X141830250Y-122163468D01*
X141800772Y-122155621D01*
X141785224Y-122150358D01*
X141762302Y-122140864D01*
X141762271Y-122140857D01*
X141607647Y-122110100D01*
X141607645Y-122110100D01*
X141607642Y-122110100D01*
X141449958Y-122110100D01*
X141449955Y-122110100D01*
X141449953Y-122110100D01*
X141295327Y-122140857D01*
X141295296Y-122140864D01*
X141149633Y-122201198D01*
X141149624Y-122201203D01*
X141149607Y-122201213D01*
X141018508Y-122288811D01*
X141018507Y-122288812D01*
X141018501Y-122288817D01*
X140907017Y-122400301D01*
X140907012Y-122400307D01*
X140907011Y-122400308D01*
X140819413Y-122531407D01*
X140819403Y-122531424D01*
X140819398Y-122531433D01*
X140759064Y-122677096D01*
X140759057Y-122677127D01*
X140728300Y-122831750D01*
X140728300Y-122966529D01*
X140727777Y-122977909D01*
X140724145Y-123017318D01*
X140698394Y-123082264D01*
X140691339Y-123091297D01*
X140659121Y-123120255D01*
X140640603Y-123131776D01*
X140630668Y-123139894D01*
X140535918Y-123203205D01*
X140535904Y-123203214D01*
X140424417Y-123314701D01*
X140424412Y-123314707D01*
X140424411Y-123314708D01*
X140336813Y-123445807D01*
X140336803Y-123445824D01*
X140336798Y-123445833D01*
X140276464Y-123591496D01*
X140276457Y-123591527D01*
X140245700Y-123746150D01*
X140245700Y-123746153D01*
X140245700Y-123903846D01*
X140245700Y-123903848D01*
X140245699Y-123903848D01*
X140276457Y-124058471D01*
X140276464Y-124058502D01*
X140336798Y-124204165D01*
X140336802Y-124204172D01*
X140336809Y-124204185D01*
X140350261Y-124224317D01*
X140362729Y-124242977D01*
X140370211Y-124258616D01*
X140377959Y-124274810D01*
X140382631Y-124289729D01*
X140383881Y-124359588D01*
X140383879Y-124359593D01*
X140380276Y-124372726D01*
X140363797Y-124408809D01*
X140311419Y-124487197D01*
X140311403Y-124487224D01*
X140311398Y-124487233D01*
X140251064Y-124632896D01*
X140251057Y-124632927D01*
X140220300Y-124787550D01*
X140220300Y-124787553D01*
X140220300Y-124945246D01*
X140220300Y-124945248D01*
X140220299Y-124945248D01*
X140251057Y-125099871D01*
X140251064Y-125099902D01*
X140311398Y-125245565D01*
X140311403Y-125245574D01*
X140311413Y-125245591D01*
X140399011Y-125376690D01*
X140399012Y-125376691D01*
X140399017Y-125376697D01*
X140510501Y-125488181D01*
X140510507Y-125488186D01*
X140510511Y-125488189D01*
X140641614Y-125575790D01*
X140641627Y-125575797D01*
X140787298Y-125636135D01*
X140787303Y-125636137D01*
X140941953Y-125666899D01*
X140941956Y-125666900D01*
X140941958Y-125666900D01*
X140980823Y-125666900D01*
X140984414Y-125667109D01*
X140985737Y-125667582D01*
X140996934Y-125668479D01*
X141012594Y-125671002D01*
X141040322Y-125678861D01*
X141043009Y-125679974D01*
X141043015Y-125679977D01*
X141044200Y-125680294D01*
X141047752Y-125681938D01*
X141050525Y-125683087D01*
X141050478Y-125683200D01*
X141079801Y-125696771D01*
X141079921Y-125696581D01*
X141079975Y-125696489D01*
X141079978Y-125696491D01*
X141080034Y-125696404D01*
X141082155Y-125697746D01*
X141082165Y-125697753D01*
X141093251Y-125704153D01*
X141100065Y-125708088D01*
X141125746Y-125727794D01*
X141540403Y-126142450D01*
X141588491Y-126190537D01*
X141621976Y-126251860D01*
X141616992Y-126321551D01*
X141575121Y-126377485D01*
X141562812Y-126385604D01*
X141537077Y-126400462D01*
X141444861Y-126492678D01*
X141430003Y-126518412D01*
X141379435Y-126566626D01*
X141310827Y-126579847D01*
X141245963Y-126553877D01*
X141234937Y-126544090D01*
X141076452Y-126385605D01*
X140798023Y-126107175D01*
X140798022Y-126107175D01*
X140798021Y-126107175D01*
X140796144Y-126109759D01*
X140772703Y-126142021D01*
X140683427Y-126317233D01*
X140683425Y-126317237D01*
X140683417Y-126317260D01*
X140622662Y-126504249D01*
X140591900Y-126698472D01*
X140591900Y-126895126D01*
X140622662Y-127089349D01*
X140683417Y-127276338D01*
X140683424Y-127276357D01*
X140683424Y-127276358D01*
X140683425Y-127276361D01*
X140683426Y-127276362D01*
X140683427Y-127276365D01*
X140772702Y-127451575D01*
X140774336Y-127453824D01*
X140774692Y-127454823D01*
X140775248Y-127455729D01*
X140775057Y-127455845D01*
X140783879Y-127480565D01*
X140798022Y-127486424D01*
X141234939Y-127049506D01*
X141296260Y-127016023D01*
X141365951Y-127021007D01*
X141421885Y-127062878D01*
X141429997Y-127075176D01*
X141444861Y-127100921D01*
X141537079Y-127193139D01*
X141562809Y-127207994D01*
X141611024Y-127258558D01*
X141624248Y-127327165D01*
X141598281Y-127392030D01*
X141588490Y-127403061D01*
X141151575Y-127839975D01*
X141151574Y-127839976D01*
X141151575Y-127839976D01*
X141151575Y-127839977D01*
X141186423Y-127865296D01*
X141361634Y-127954572D01*
X141361637Y-127954573D01*
X141361639Y-127954573D01*
X141361640Y-127954574D01*
X141361660Y-127954581D01*
X141548650Y-128015336D01*
X141548653Y-128015337D01*
X141742879Y-128046100D01*
X141939520Y-128046100D01*
X141939521Y-128046100D01*
X142133746Y-128015337D01*
X142320762Y-127954573D01*
X142320775Y-127954567D01*
X142495969Y-127865300D01*
X142495974Y-127865297D01*
X142530824Y-127839976D01*
X142093909Y-127403061D01*
X142060424Y-127341738D01*
X142065408Y-127272046D01*
X142107280Y-127216113D01*
X142119568Y-127208007D01*
X142145321Y-127193139D01*
X142237539Y-127100921D01*
X142252395Y-127075188D01*
X142302960Y-127026975D01*
X142371567Y-127013751D01*
X142436432Y-127039719D01*
X142447462Y-127049509D01*
X142884375Y-127486422D01*
X142884376Y-127486423D01*
X142909695Y-127451576D01*
X142972623Y-127328074D01*
X142992950Y-127299240D01*
X143001848Y-127289818D01*
X143062188Y-127254598D01*
X143131993Y-127257590D01*
X143185707Y-127293758D01*
X143191777Y-127300763D01*
X143208549Y-127325671D01*
X143241750Y-127390830D01*
X143272700Y-127451572D01*
X143273545Y-127452735D01*
X143274337Y-127453825D01*
X143274693Y-127454825D01*
X143275246Y-127455726D01*
X143275056Y-127455841D01*
X143283879Y-127480565D01*
X143298022Y-127486424D01*
X143734939Y-127049506D01*
X143796260Y-127016023D01*
X143865951Y-127021007D01*
X143921885Y-127062878D01*
X143929997Y-127075176D01*
X143944861Y-127100921D01*
X144037079Y-127193139D01*
X144062809Y-127207994D01*
X144111024Y-127258558D01*
X144124248Y-127327165D01*
X144098281Y-127392030D01*
X144088490Y-127403061D01*
X143651575Y-127839975D01*
X143651575Y-127839976D01*
X143651575Y-127839977D01*
X143686423Y-127865296D01*
X143861634Y-127954572D01*
X143861637Y-127954573D01*
X143861639Y-127954573D01*
X143861640Y-127954574D01*
X143861660Y-127954581D01*
X144048650Y-128015336D01*
X144048653Y-128015337D01*
X144242879Y-128046100D01*
X144439520Y-128046100D01*
X144439521Y-128046100D01*
X144633746Y-128015337D01*
X144820762Y-127954573D01*
X144820775Y-127954567D01*
X144995969Y-127865300D01*
X144995974Y-127865297D01*
X145030824Y-127839976D01*
X144593909Y-127403061D01*
X144560424Y-127341738D01*
X144565408Y-127272046D01*
X144607280Y-127216113D01*
X144619568Y-127208007D01*
X144645321Y-127193139D01*
X144737539Y-127100921D01*
X144752395Y-127075188D01*
X144802960Y-127026975D01*
X144871567Y-127013751D01*
X144936432Y-127039719D01*
X144947461Y-127049508D01*
X145384376Y-127486423D01*
X145409695Y-127451576D01*
X145472346Y-127328618D01*
X145492672Y-127299788D01*
X145501573Y-127290363D01*
X145561915Y-127255146D01*
X145631721Y-127258142D01*
X145685424Y-127294304D01*
X145691494Y-127301309D01*
X145708268Y-127326218D01*
X145772275Y-127451838D01*
X145887906Y-127610990D01*
X146027010Y-127750094D01*
X146186162Y-127865725D01*
X146235004Y-127890611D01*
X146354994Y-127951750D01*
X146356589Y-127952683D01*
X146360294Y-127954478D01*
X146362299Y-127955475D01*
X146366065Y-127956537D01*
X146404126Y-127968903D01*
X146461728Y-127987619D01*
X146461729Y-127987620D01*
X146483431Y-127994671D01*
X146548537Y-128015826D01*
X146742834Y-128046600D01*
X146742839Y-128046600D01*
X146939565Y-128046600D01*
X146939566Y-128046600D01*
X147133862Y-128015826D01*
X147192076Y-127996911D01*
X147320957Y-127955035D01*
X147496238Y-127865725D01*
X147655390Y-127750094D01*
X147794494Y-127610990D01*
X147910125Y-127451838D01*
X147972620Y-127329181D01*
X147992955Y-127300336D01*
X148001847Y-127290920D01*
X148062188Y-127255699D01*
X148131994Y-127258691D01*
X148185715Y-127294867D01*
X148191784Y-127301872D01*
X148208549Y-127326772D01*
X148272143Y-127451579D01*
X148272275Y-127451838D01*
X148387906Y-127610990D01*
X148527010Y-127750094D01*
X148686162Y-127865725D01*
X148735004Y-127890611D01*
X148854994Y-127951750D01*
X148856589Y-127952683D01*
X148860294Y-127954478D01*
X148862297Y-127955473D01*
X148866058Y-127956534D01*
X148933574Y-127978471D01*
X148951597Y-127985941D01*
X148971084Y-127995880D01*
X148971087Y-127995881D01*
X148971089Y-127995882D01*
X150036677Y-128359475D01*
X150084313Y-128389149D01*
X151141087Y-129445923D01*
X151141769Y-129446414D01*
X151144275Y-129447763D01*
X151278009Y-129524973D01*
X151278016Y-129524977D01*
X151430743Y-129565901D01*
X151430745Y-129565901D01*
X151596454Y-129565901D01*
X151598358Y-129565901D01*
X151598421Y-129565900D01*
X162734676Y-129565900D01*
X162734739Y-129565901D01*
X162736643Y-129565901D01*
X162744239Y-129565901D01*
X162902350Y-129565901D01*
X162902353Y-129565901D01*
X163055081Y-129524977D01*
X163105200Y-129496039D01*
X163192012Y-129445920D01*
X163303816Y-129334116D01*
X163303816Y-129334114D01*
X163314024Y-129323907D01*
X163314024Y-129323905D01*
X163314529Y-129323401D01*
X163317714Y-129320214D01*
X163324227Y-129313701D01*
X163324230Y-129313700D01*
X163324233Y-129313695D01*
X163824907Y-128813023D01*
X163853157Y-128791875D01*
X163876249Y-128779267D01*
X163935674Y-128764100D01*
X164970792Y-128764100D01*
X164970855Y-128764101D01*
X164972759Y-128764101D01*
X164980355Y-128764101D01*
X165138466Y-128764101D01*
X165138469Y-128764101D01*
X165291197Y-128723177D01*
X165341316Y-128694239D01*
X165428128Y-128644120D01*
X165539932Y-128532316D01*
X165539932Y-128532315D01*
X165557372Y-128514875D01*
X165557373Y-128514872D01*
X165863513Y-128208731D01*
X165891760Y-128187589D01*
X165905480Y-128180098D01*
X165973744Y-128165248D01*
X165973746Y-128165248D01*
X165980319Y-128165718D01*
X166044365Y-128189085D01*
X166053417Y-128195662D01*
X166216156Y-128278583D01*
X166389871Y-128335027D01*
X166570270Y-128363600D01*
X166752929Y-128363600D01*
X166752930Y-128363600D01*
X166933328Y-128335027D01*
X167107043Y-128278583D01*
X167269778Y-128195665D01*
X167287578Y-128182731D01*
X166849230Y-127744383D01*
X166815745Y-127683060D01*
X166820729Y-127613368D01*
X166862601Y-127557435D01*
X166874898Y-127549322D01*
X166911136Y-127528401D01*
X166986801Y-127452736D01*
X167007716Y-127416509D01*
X167058281Y-127368296D01*
X167126888Y-127355072D01*
X167191753Y-127381040D01*
X167202783Y-127390830D01*
X167641131Y-127829178D01*
X167654065Y-127811378D01*
X167736983Y-127648643D01*
X167793427Y-127474928D01*
X167822000Y-127294530D01*
X167822000Y-127111869D01*
X167793427Y-126931471D01*
X167736983Y-126757756D01*
X167654645Y-126596162D01*
X167651087Y-126581343D01*
X167641130Y-126577218D01*
X167202782Y-127015567D01*
X167141459Y-127049052D01*
X167071767Y-127044068D01*
X167015834Y-127002196D01*
X167007714Y-126989886D01*
X166986803Y-126953667D01*
X166986798Y-126953661D01*
X166911138Y-126878001D01*
X166911136Y-126877999D01*
X166898922Y-126870947D01*
X166874908Y-126857082D01*
X166826693Y-126806514D01*
X166813472Y-126737907D01*
X166839441Y-126673043D01*
X166849215Y-126662030D01*
X167287578Y-126223667D01*
X167269778Y-126210735D01*
X167269774Y-126210732D01*
X167107054Y-126127821D01*
X167107041Y-126127815D01*
X167013437Y-126097401D01*
X166933328Y-126071372D01*
X166933326Y-126071371D01*
X166933324Y-126071371D01*
X166752935Y-126042800D01*
X166752930Y-126042800D01*
X166570270Y-126042800D01*
X166386211Y-126071951D01*
X166370353Y-126073427D01*
X166353123Y-126073919D01*
X166285549Y-126056156D01*
X166238306Y-126004680D01*
X166235217Y-125998397D01*
X166222501Y-125943698D01*
X166222501Y-123469670D01*
X166227523Y-123434737D01*
X166231434Y-123421418D01*
X166241072Y-123406419D01*
X166246095Y-123389315D01*
X166259567Y-123377640D01*
X166269207Y-123362641D01*
X166285424Y-123355234D01*
X166298898Y-123343559D01*
X166332756Y-123333616D01*
X166339957Y-123332581D01*
X166386550Y-123334745D01*
X166389744Y-123335511D01*
X166389755Y-123335515D01*
X166399293Y-123337025D01*
X166411380Y-123338940D01*
X166411447Y-123338950D01*
X166411540Y-123338965D01*
X166570230Y-123364100D01*
X166570235Y-123364100D01*
X166752968Y-123364100D01*
X166752970Y-123364100D01*
X166853231Y-123348219D01*
X166853232Y-123348219D01*
X166881101Y-123343805D01*
X166933445Y-123335515D01*
X167107231Y-123279048D01*
X167270044Y-123196091D01*
X167417876Y-123088685D01*
X167547085Y-122959476D01*
X167654491Y-122811644D01*
X167737448Y-122648831D01*
X167793915Y-122475045D01*
X167820040Y-122310100D01*
X167822500Y-122294570D01*
X167822500Y-122111829D01*
X167793915Y-121931358D01*
X167793915Y-121931355D01*
X167737448Y-121757569D01*
X167737446Y-121757566D01*
X167737446Y-121757564D01*
X167654490Y-121594754D01*
X167644175Y-121580558D01*
X167639002Y-121568006D01*
X167632254Y-121560385D01*
X167627704Y-121549344D01*
X167623902Y-121538689D01*
X167623416Y-121530188D01*
X167621949Y-121526628D01*
X167620282Y-121515853D01*
X167621899Y-121503678D01*
X167619912Y-121468936D01*
X167628548Y-121453641D01*
X167629485Y-121446593D01*
X167638595Y-121435848D01*
X167654267Y-121408096D01*
X167668496Y-121400586D01*
X167674673Y-121393302D01*
X167692762Y-121387779D01*
X167716043Y-121375493D01*
X167717493Y-121375199D01*
X167732987Y-121375499D01*
X167741498Y-121372902D01*
X167752018Y-121375869D01*
X167771466Y-121376246D01*
X167772173Y-121376419D01*
X167790263Y-121382329D01*
X167879242Y-121419187D01*
X168033139Y-121449799D01*
X168033142Y-121449800D01*
X168033144Y-121449800D01*
X168190062Y-121449800D01*
X168190063Y-121449799D01*
X168343962Y-121419187D01*
X168488933Y-121359137D01*
X168619405Y-121271959D01*
X168730361Y-121161003D01*
X168817539Y-121030531D01*
X168877589Y-120885560D01*
X168908202Y-120731658D01*
X168908202Y-120574742D01*
X168908202Y-120574739D01*
X168908202Y-120574560D01*
X168907776Y-120572602D01*
X168878251Y-120424170D01*
X168877836Y-120421743D01*
X168877589Y-120420843D01*
X168877589Y-120420840D01*
X168817539Y-120275869D01*
X168817537Y-120275866D01*
X168817535Y-120275862D01*
X168730361Y-120145396D01*
X168730359Y-120145393D01*
X168619407Y-120034441D01*
X168488936Y-119947264D01*
X168488934Y-119947263D01*
X168467697Y-119938466D01*
X168343962Y-119887213D01*
X168343954Y-119887211D01*
X168343946Y-119887209D01*
X168343936Y-119887207D01*
X168190065Y-119856600D01*
X168190063Y-119856600D01*
X168190060Y-119856600D01*
X168033144Y-119856600D01*
X168033141Y-119856600D01*
X168033139Y-119856600D01*
X167879266Y-119887207D01*
X167879241Y-119887213D01*
X167734268Y-119947263D01*
X167734266Y-119947264D01*
X167603795Y-120034441D01*
X167492843Y-120145393D01*
X167405666Y-120275864D01*
X167405665Y-120275866D01*
X167345615Y-120420839D01*
X167345609Y-120420864D01*
X167315002Y-120574734D01*
X167315002Y-120574737D01*
X167315002Y-120731662D01*
X167315002Y-120731664D01*
X167315001Y-120731664D01*
X167345609Y-120885534D01*
X167345613Y-120885552D01*
X167345615Y-120885560D01*
X167352296Y-120901691D01*
X167400882Y-121018988D01*
X167406177Y-121039734D01*
X167409610Y-121053182D01*
X167410819Y-121064425D01*
X167398415Y-121133185D01*
X167350806Y-121184323D01*
X167283113Y-121201604D01*
X167283107Y-121201603D01*
X167283107Y-121201604D01*
X167283106Y-121201603D01*
X167278119Y-121201426D01*
X167226243Y-121187990D01*
X167107236Y-121127354D01*
X167107233Y-121127353D01*
X167107231Y-121127352D01*
X167060181Y-121112064D01*
X166946971Y-121075279D01*
X166946960Y-121075276D01*
X166933445Y-121070885D01*
X166933443Y-121070884D01*
X166933441Y-121070884D01*
X166919044Y-121068603D01*
X166919037Y-121068602D01*
X166787004Y-121047690D01*
X166752970Y-121042300D01*
X166752969Y-121042300D01*
X166570231Y-121042300D01*
X166570230Y-121042300D01*
X166528394Y-121048926D01*
X166389761Y-121070883D01*
X166215963Y-121127354D01*
X166053155Y-121210308D01*
X166053148Y-121210312D01*
X166050741Y-121212062D01*
X166050735Y-121212064D01*
X166050734Y-121212067D01*
X166019520Y-121228535D01*
X166014870Y-121230195D01*
X166004799Y-121233788D01*
X165935051Y-121237775D01*
X165928630Y-121236282D01*
X165869032Y-121203185D01*
X163574340Y-118908493D01*
X163574331Y-118908483D01*
X163570000Y-118904152D01*
X163451129Y-118785281D01*
X163451128Y-118785280D01*
X163383126Y-118746020D01*
X163381065Y-118744720D01*
X163376901Y-118739997D01*
X163371842Y-118735598D01*
X163349254Y-118726463D01*
X163314198Y-118706223D01*
X163276015Y-118695992D01*
X163161469Y-118665299D01*
X163161466Y-118665299D01*
X162993855Y-118665299D01*
X162993792Y-118665300D01*
X156916680Y-118665300D01*
X156916677Y-118665299D01*
X156916676Y-118665300D01*
X156881741Y-118660276D01*
X156868423Y-118656365D01*
X156809646Y-118618589D01*
X156780624Y-118555036D01*
X156779339Y-118546100D01*
X156779057Y-118544135D01*
X156780178Y-118502298D01*
X156780708Y-118499632D01*
X156781900Y-118493641D01*
X156781900Y-118335955D01*
X156781900Y-118335771D01*
X156781464Y-118333766D01*
X156768780Y-118269999D01*
X156759974Y-118225730D01*
X156751137Y-118181303D01*
X156728721Y-118127185D01*
X156707265Y-118075385D01*
X156690797Y-118035627D01*
X156690790Y-118035614D01*
X156603189Y-117904511D01*
X156603186Y-117904507D01*
X156603181Y-117904501D01*
X156491697Y-117793017D01*
X156491691Y-117793012D01*
X156491690Y-117793011D01*
X156360591Y-117705413D01*
X156360590Y-117705412D01*
X156360585Y-117705409D01*
X156360572Y-117705402D01*
X156360565Y-117705398D01*
X156214902Y-117645064D01*
X156214871Y-117645057D01*
X156060247Y-117614300D01*
X156060245Y-117614300D01*
X156060242Y-117614300D01*
X155902558Y-117614300D01*
X155902555Y-117614300D01*
X155902553Y-117614300D01*
X155747927Y-117645057D01*
X155747896Y-117645064D01*
X155602233Y-117705398D01*
X155602224Y-117705403D01*
X155602207Y-117705413D01*
X155471108Y-117793011D01*
X155471107Y-117793012D01*
X155471101Y-117793017D01*
X155359617Y-117904501D01*
X155359612Y-117904507D01*
X155359611Y-117904508D01*
X155272013Y-118035607D01*
X155272003Y-118035624D01*
X155271998Y-118035633D01*
X155211664Y-118181296D01*
X155211657Y-118181327D01*
X155180900Y-118335950D01*
X155180900Y-118493643D01*
X155182091Y-118499632D01*
X155183534Y-118526582D01*
X155183978Y-118534869D01*
X155182741Y-118548690D01*
X155157159Y-118613708D01*
X155100495Y-118654570D01*
X155090111Y-118658234D01*
X155048851Y-118665300D01*
X148290342Y-118665300D01*
X148255406Y-118660277D01*
X148230164Y-118652865D01*
X148177419Y-118621569D01*
X144629524Y-115073674D01*
X148521800Y-115073674D01*
X148521800Y-115304324D01*
X148557876Y-115532098D01*
X148557877Y-115532102D01*
X148629147Y-115751446D01*
X148733850Y-115956935D01*
X148733852Y-115956938D01*
X148789247Y-116033185D01*
X148789253Y-116033191D01*
X148789254Y-116033192D01*
X148789255Y-116033192D01*
X149371439Y-115451006D01*
X149432762Y-115417521D01*
X149502453Y-115422505D01*
X149558387Y-115464376D01*
X149566506Y-115476685D01*
X149580498Y-115500920D01*
X149675080Y-115595502D01*
X149675081Y-115595503D01*
X149675083Y-115595504D01*
X149699308Y-115609490D01*
X149747525Y-115660056D01*
X149760749Y-115728663D01*
X149734782Y-115793528D01*
X149724991Y-115804559D01*
X149142805Y-116386743D01*
X149142806Y-116386743D01*
X149142806Y-116386744D01*
X149219067Y-116442151D01*
X149424553Y-116546852D01*
X149643897Y-116618122D01*
X149871681Y-116654200D01*
X150102318Y-116654200D01*
X150102319Y-116654200D01*
X150330102Y-116618122D01*
X150549446Y-116546852D01*
X150754924Y-116442155D01*
X150754930Y-116442151D01*
X150798596Y-116410426D01*
X150825334Y-116400885D01*
X150831191Y-116386744D01*
X150831192Y-116386744D01*
X150744614Y-116300166D01*
X150249006Y-115804559D01*
X150215522Y-115743237D01*
X150220506Y-115673546D01*
X150262377Y-115617612D01*
X150274690Y-115609491D01*
X150274692Y-115609490D01*
X150298920Y-115595502D01*
X150393502Y-115500920D01*
X150407491Y-115476690D01*
X150458055Y-115428475D01*
X150526661Y-115415250D01*
X150591527Y-115441216D01*
X150602559Y-115451008D01*
X151184743Y-116033192D01*
X151184743Y-116033191D01*
X151184744Y-116033192D01*
X151184744Y-116033191D01*
X151198212Y-116027613D01*
X151204429Y-116006441D01*
X151208407Y-116000621D01*
X151240151Y-115956930D01*
X151240155Y-115956924D01*
X151344852Y-115751446D01*
X151416122Y-115532102D01*
X151452200Y-115304319D01*
X151452200Y-115073681D01*
X151434386Y-114961213D01*
X151434387Y-114961212D01*
X151434385Y-114961206D01*
X151432083Y-114946674D01*
X154998800Y-114946674D01*
X154998800Y-115177324D01*
X155034876Y-115405098D01*
X155034877Y-115405102D01*
X155106147Y-115624446D01*
X155210850Y-115829935D01*
X155210852Y-115829938D01*
X155266247Y-115906185D01*
X155266253Y-115906191D01*
X155266254Y-115906192D01*
X155266255Y-115906192D01*
X155848439Y-115324006D01*
X155909762Y-115290521D01*
X155979453Y-115295505D01*
X156035387Y-115337376D01*
X156043506Y-115349685D01*
X156057498Y-115373920D01*
X156152080Y-115468502D01*
X156152081Y-115468503D01*
X156152083Y-115468504D01*
X156176308Y-115482490D01*
X156224525Y-115533056D01*
X156237749Y-115601663D01*
X156211782Y-115666528D01*
X156201991Y-115677559D01*
X155619805Y-116259743D01*
X155619806Y-116259743D01*
X155619806Y-116259744D01*
X155696067Y-116315151D01*
X155901553Y-116419852D01*
X156120897Y-116491122D01*
X156348681Y-116527200D01*
X156579318Y-116527200D01*
X156579319Y-116527200D01*
X156807102Y-116491122D01*
X157026446Y-116419852D01*
X157231924Y-116315155D01*
X157231930Y-116315151D01*
X157275596Y-116283426D01*
X157302334Y-116273885D01*
X157308192Y-116259743D01*
X156726007Y-115677560D01*
X156692522Y-115616237D01*
X156697506Y-115546546D01*
X156739377Y-115490612D01*
X156751690Y-115482491D01*
X156761741Y-115476688D01*
X156775920Y-115468502D01*
X156870502Y-115373920D01*
X156884491Y-115349690D01*
X156935055Y-115301475D01*
X157003661Y-115288250D01*
X157068527Y-115314216D01*
X157079559Y-115324008D01*
X157661743Y-115906192D01*
X157661743Y-115906191D01*
X157661744Y-115906192D01*
X157661744Y-115906191D01*
X157675212Y-115900613D01*
X157681429Y-115879441D01*
X157685407Y-115873621D01*
X157717151Y-115829930D01*
X157717155Y-115829924D01*
X157821852Y-115624446D01*
X157893122Y-115405102D01*
X157929200Y-115177319D01*
X157929200Y-114946680D01*
X157893122Y-114718897D01*
X157821852Y-114499553D01*
X157815094Y-114486289D01*
X160649499Y-114486289D01*
X160680338Y-114680995D01*
X160682753Y-114696241D01*
X160682755Y-114696246D01*
X160737884Y-114865917D01*
X160748442Y-114898410D01*
X160748443Y-114898412D01*
X160837746Y-115073681D01*
X160844951Y-115087820D01*
X160969890Y-115259786D01*
X161071212Y-115361108D01*
X161092361Y-115389359D01*
X161099013Y-115401541D01*
X161113865Y-115469814D01*
X161089449Y-115535279D01*
X161089433Y-115535300D01*
X161086683Y-115538972D01*
X161030766Y-115580822D01*
X160907917Y-115626643D01*
X160907909Y-115626647D01*
X160907906Y-115626648D01*
X160907906Y-115626649D01*
X160863280Y-115660056D01*
X160792813Y-115712808D01*
X160792810Y-115712810D01*
X160792807Y-115712813D01*
X160706648Y-115827907D01*
X160706646Y-115827910D01*
X160656402Y-115962621D01*
X160656400Y-115962628D01*
X160650000Y-116022146D01*
X160650000Y-116022155D01*
X160650000Y-116670000D01*
X161387750Y-116670000D01*
X161454789Y-116689685D01*
X161500544Y-116742489D01*
X161510488Y-116811647D01*
X161507524Y-116826095D01*
X161500000Y-116854171D01*
X161500000Y-116985825D01*
X161507524Y-117013905D01*
X161505863Y-117083755D01*
X161466701Y-117141618D01*
X161402473Y-117169123D01*
X161387750Y-117170000D01*
X160650000Y-117170000D01*
X160650000Y-117817852D01*
X160656400Y-117877370D01*
X160656402Y-117877377D01*
X160666519Y-117904501D01*
X160706645Y-118012086D01*
X160706649Y-118012093D01*
X160724267Y-118035627D01*
X160792807Y-118127185D01*
X160792809Y-118127187D01*
X160792812Y-118127190D01*
X160907906Y-118213350D01*
X160907913Y-118213354D01*
X161042620Y-118263596D01*
X161042627Y-118263598D01*
X161049468Y-118264333D01*
X161102138Y-118269998D01*
X161102155Y-118269999D01*
X161102172Y-118270000D01*
X161750000Y-118270000D01*
X161750000Y-117532250D01*
X161769685Y-117465211D01*
X161822489Y-117419456D01*
X161891647Y-117409512D01*
X161906093Y-117412475D01*
X161934174Y-117420000D01*
X162065825Y-117420000D01*
X162065826Y-117420000D01*
X162093905Y-117412476D01*
X162163755Y-117414137D01*
X162221618Y-117453299D01*
X162249123Y-117517527D01*
X162250000Y-117532250D01*
X162250000Y-118270000D01*
X162897828Y-118270000D01*
X162897836Y-118270000D01*
X162897847Y-118269999D01*
X162933560Y-118266158D01*
X162957372Y-118263598D01*
X162957379Y-118263596D01*
X163092086Y-118213354D01*
X163092093Y-118213350D01*
X163207187Y-118127190D01*
X163207190Y-118127187D01*
X163293350Y-118012093D01*
X163293354Y-118012086D01*
X163343596Y-117877379D01*
X163343598Y-117877372D01*
X163346851Y-117847124D01*
X163349998Y-117817860D01*
X163350000Y-117817827D01*
X163350000Y-117170000D01*
X162612250Y-117170000D01*
X162545211Y-117150315D01*
X162499456Y-117097511D01*
X162489512Y-117028353D01*
X162492476Y-117013905D01*
X162500000Y-116985825D01*
X162500000Y-116854175D01*
X162499999Y-116854171D01*
X162492476Y-116826095D01*
X162494137Y-116756245D01*
X162533299Y-116698382D01*
X162597527Y-116670877D01*
X162612250Y-116670000D01*
X163350000Y-116670000D01*
X163350000Y-116022172D01*
X163349998Y-116022138D01*
X163344333Y-115969468D01*
X163343598Y-115962627D01*
X163343596Y-115962620D01*
X163293354Y-115827913D01*
X163293350Y-115827906D01*
X163207190Y-115712812D01*
X163207187Y-115712809D01*
X163207186Y-115712808D01*
X163207185Y-115712807D01*
X163139824Y-115662381D01*
X163092093Y-115626649D01*
X163092088Y-115626646D01*
X163020607Y-115599985D01*
X162977232Y-115583807D01*
X162946255Y-115566891D01*
X162935145Y-115558574D01*
X162893274Y-115502640D01*
X162890542Y-115464438D01*
X162888290Y-115432950D01*
X162889265Y-115428467D01*
X162922750Y-115367145D01*
X163030104Y-115259792D01*
X163090025Y-115177318D01*
X163155048Y-115087820D01*
X163155047Y-115087820D01*
X163155051Y-115087816D01*
X163251557Y-114898412D01*
X163317246Y-114696243D01*
X163350500Y-114486287D01*
X163350500Y-114273713D01*
X163317246Y-114063757D01*
X163251557Y-113861588D01*
X163155051Y-113672184D01*
X163155049Y-113672181D01*
X163155048Y-113672179D01*
X163154702Y-113671703D01*
X163154700Y-113671699D01*
X163030112Y-113500216D01*
X162879782Y-113349886D01*
X162707824Y-113224953D01*
X162707258Y-113224606D01*
X162705627Y-113223357D01*
X162703901Y-113222103D01*
X162703932Y-113222059D01*
X162686960Y-113209062D01*
X162676683Y-113199357D01*
X162641457Y-113139017D01*
X162644445Y-113069212D01*
X162680613Y-113015493D01*
X162687783Y-113009281D01*
X162704187Y-112997275D01*
X162707816Y-112995051D01*
X162707817Y-112995050D01*
X162729789Y-112979086D01*
X162879786Y-112870109D01*
X162879787Y-112870106D01*
X162879790Y-112870105D01*
X162879792Y-112870104D01*
X162879793Y-112870102D01*
X162879847Y-112870063D01*
X162880605Y-112869290D01*
X163030104Y-112719792D01*
X163030106Y-112719788D01*
X163030109Y-112719786D01*
X163155048Y-112547820D01*
X163155047Y-112547820D01*
X163155051Y-112547816D01*
X163155053Y-112547810D01*
X163175445Y-112519744D01*
X163183730Y-112491529D01*
X163251557Y-112358412D01*
X163317246Y-112156243D01*
X163350500Y-111946287D01*
X163350500Y-111733713D01*
X163317246Y-111523757D01*
X163251557Y-111321588D01*
X163155051Y-111132184D01*
X163155049Y-111132181D01*
X163155048Y-111132179D01*
X163154702Y-111131703D01*
X163154700Y-111131699D01*
X163030112Y-110960216D01*
X162879782Y-110809886D01*
X162707824Y-110684953D01*
X162707258Y-110684606D01*
X162705627Y-110683357D01*
X162703901Y-110682103D01*
X162703932Y-110682059D01*
X162686960Y-110669062D01*
X162676683Y-110659357D01*
X162641457Y-110599017D01*
X162644445Y-110529212D01*
X162680613Y-110475493D01*
X162687783Y-110469281D01*
X162704187Y-110457275D01*
X162707816Y-110455051D01*
X162711722Y-110452213D01*
X162729789Y-110439086D01*
X162879786Y-110330109D01*
X162879787Y-110330106D01*
X162879790Y-110330105D01*
X162879792Y-110330104D01*
X162879793Y-110330102D01*
X162879847Y-110330063D01*
X162880605Y-110329290D01*
X163030104Y-110179792D01*
X163030106Y-110179788D01*
X163030109Y-110179786D01*
X163155048Y-110007820D01*
X163155047Y-110007820D01*
X163155051Y-110007816D01*
X163155053Y-110007810D01*
X163175445Y-109979744D01*
X163183730Y-109951529D01*
X163251557Y-109818412D01*
X163317246Y-109616243D01*
X163350500Y-109406287D01*
X163350500Y-109193713D01*
X163317246Y-108983757D01*
X163251557Y-108781588D01*
X163155051Y-108592184D01*
X163155049Y-108592181D01*
X163155048Y-108592179D01*
X163154702Y-108591703D01*
X163154700Y-108591699D01*
X163030112Y-108420216D01*
X162879788Y-108269892D01*
X162879786Y-108269890D01*
X162707820Y-108144951D01*
X162627920Y-108104240D01*
X162540245Y-108059567D01*
X162540240Y-108059565D01*
X162518414Y-108048444D01*
X162518413Y-108048443D01*
X162518412Y-108048443D01*
X162421550Y-108016970D01*
X162325074Y-107985623D01*
X162320552Y-107983770D01*
X162311362Y-107981600D01*
X162306599Y-107981226D01*
X162255363Y-107973111D01*
X162154957Y-107957208D01*
X162135489Y-107954124D01*
X162106290Y-107949500D01*
X162106287Y-107949500D01*
X161893713Y-107949500D01*
X161893709Y-107949500D01*
X161854776Y-107955666D01*
X161845042Y-107957208D01*
X161807654Y-107963129D01*
X161683763Y-107982752D01*
X161481582Y-108048445D01*
X161292182Y-108144949D01*
X161120210Y-108269892D01*
X160969892Y-108420210D01*
X160969890Y-108420213D01*
X160844953Y-108592177D01*
X160844949Y-108592182D01*
X160748445Y-108781580D01*
X160682752Y-108983759D01*
X160649500Y-109193707D01*
X160649500Y-109406291D01*
X160682752Y-109616239D01*
X160748445Y-109818418D01*
X160841532Y-110001111D01*
X160844951Y-110007820D01*
X160969890Y-110179786D01*
X161120213Y-110330109D01*
X161292182Y-110455050D01*
X161292190Y-110455054D01*
X161292693Y-110455363D01*
X161294174Y-110456496D01*
X161296122Y-110457912D01*
X161296086Y-110457960D01*
X161313034Y-110470934D01*
X161323315Y-110480643D01*
X161358541Y-110540983D01*
X161355552Y-110610789D01*
X161319383Y-110664507D01*
X161312227Y-110670708D01*
X161295814Y-110682723D01*
X161292190Y-110684943D01*
X161120210Y-110809892D01*
X160969892Y-110960210D01*
X160844949Y-111132182D01*
X160748445Y-111321580D01*
X160682752Y-111523759D01*
X160649500Y-111733707D01*
X160649500Y-111946291D01*
X160682752Y-112156239D01*
X160748445Y-112358418D01*
X160841532Y-112541111D01*
X160844951Y-112547820D01*
X160969890Y-112719786D01*
X161120213Y-112870109D01*
X161292182Y-112995050D01*
X161292190Y-112995054D01*
X161292693Y-112995363D01*
X161294174Y-112996496D01*
X161296122Y-112997912D01*
X161296086Y-112997960D01*
X161313034Y-113010934D01*
X161323315Y-113020643D01*
X161358541Y-113080983D01*
X161355552Y-113150789D01*
X161319383Y-113204507D01*
X161312227Y-113210708D01*
X161295814Y-113222723D01*
X161292190Y-113224943D01*
X161120210Y-113349892D01*
X160969892Y-113500210D01*
X160844949Y-113672182D01*
X160748445Y-113861580D01*
X160682752Y-114063759D01*
X160649500Y-114273707D01*
X160649500Y-114486287D01*
X160649499Y-114486289D01*
X157815094Y-114486289D01*
X157717151Y-114294067D01*
X157685425Y-114250401D01*
X157675885Y-114223663D01*
X157661743Y-114217805D01*
X157079559Y-114799990D01*
X157018236Y-114833475D01*
X156948544Y-114828491D01*
X156892611Y-114786619D01*
X156884491Y-114774309D01*
X156870504Y-114750083D01*
X156870500Y-114750078D01*
X156775921Y-114655499D01*
X156775920Y-114655498D01*
X156751687Y-114641507D01*
X156703472Y-114590941D01*
X156690248Y-114522334D01*
X156716216Y-114457469D01*
X156726006Y-114446439D01*
X156954639Y-114217807D01*
X157308192Y-113864254D01*
X157308191Y-113864253D01*
X157308185Y-113864247D01*
X157231938Y-113808852D01*
X157231937Y-113808851D01*
X157231935Y-113808850D01*
X157026446Y-113704147D01*
X156807102Y-113632877D01*
X156807100Y-113632876D01*
X156807098Y-113632876D01*
X156579324Y-113596800D01*
X156579319Y-113596800D01*
X156348681Y-113596800D01*
X156348676Y-113596800D01*
X156120900Y-113632876D01*
X155901555Y-113704146D01*
X155696065Y-113808849D01*
X155619807Y-113864253D01*
X155619807Y-113864255D01*
X156201993Y-114446439D01*
X156235478Y-114507762D01*
X156230494Y-114577453D01*
X156188623Y-114633387D01*
X156176313Y-114641507D01*
X156152080Y-114655497D01*
X156057499Y-114750078D01*
X156057495Y-114750083D01*
X156043506Y-114774313D01*
X155992938Y-114822528D01*
X155924331Y-114835749D01*
X155859466Y-114809780D01*
X155848439Y-114799992D01*
X155266255Y-114217807D01*
X155266253Y-114217807D01*
X155210849Y-114294065D01*
X155106146Y-114499555D01*
X155034876Y-114718900D01*
X154998800Y-114946674D01*
X151432083Y-114946674D01*
X151428966Y-114926992D01*
X151416121Y-114845897D01*
X151344852Y-114626553D01*
X151240151Y-114421067D01*
X151208425Y-114377401D01*
X151198885Y-114350663D01*
X151184743Y-114344805D01*
X150602559Y-114926990D01*
X150541236Y-114960475D01*
X150471544Y-114955491D01*
X150415611Y-114913619D01*
X150407491Y-114901309D01*
X150393504Y-114877083D01*
X150393500Y-114877078D01*
X150298921Y-114782499D01*
X150298920Y-114782498D01*
X150274687Y-114768507D01*
X150226472Y-114717941D01*
X150213248Y-114649334D01*
X150239216Y-114584469D01*
X150249006Y-114573439D01*
X150477639Y-114344807D01*
X150831192Y-113991254D01*
X150831191Y-113991253D01*
X150831185Y-113991247D01*
X150754938Y-113935852D01*
X150754937Y-113935851D01*
X150754935Y-113935850D01*
X150549446Y-113831147D01*
X150330102Y-113759877D01*
X150330100Y-113759876D01*
X150330098Y-113759876D01*
X150102324Y-113723800D01*
X150102319Y-113723800D01*
X149871681Y-113723800D01*
X149871676Y-113723800D01*
X149643900Y-113759876D01*
X149424555Y-113831146D01*
X149219065Y-113935849D01*
X149142807Y-113991253D01*
X149142807Y-113991255D01*
X149724993Y-114573439D01*
X149758478Y-114634762D01*
X149753494Y-114704453D01*
X149711623Y-114760387D01*
X149699313Y-114768507D01*
X149675080Y-114782497D01*
X149580499Y-114877078D01*
X149580495Y-114877083D01*
X149566506Y-114901313D01*
X149515938Y-114949528D01*
X149447331Y-114962749D01*
X149382466Y-114936780D01*
X149371439Y-114926992D01*
X148789255Y-114344807D01*
X148789253Y-114344807D01*
X148733849Y-114421065D01*
X148629146Y-114626555D01*
X148557876Y-114845900D01*
X148521800Y-115073674D01*
X144629524Y-115073674D01*
X142346426Y-112790576D01*
X142346421Y-112790571D01*
X142325274Y-112762320D01*
X142312667Y-112739231D01*
X142297500Y-112679806D01*
X142297500Y-108562248D01*
X143827099Y-108562248D01*
X143857857Y-108716871D01*
X143857864Y-108716901D01*
X143918198Y-108862565D01*
X143918203Y-108862574D01*
X143918213Y-108862591D01*
X144005811Y-108993690D01*
X144005812Y-108993691D01*
X144005817Y-108993697D01*
X144117301Y-109105181D01*
X144117307Y-109105186D01*
X144117311Y-109105189D01*
X144248414Y-109192790D01*
X144248427Y-109192797D01*
X144394098Y-109253135D01*
X144394103Y-109253137D01*
X144548753Y-109283899D01*
X144548756Y-109283900D01*
X144548758Y-109283900D01*
X144706444Y-109283900D01*
X144706445Y-109283899D01*
X144861097Y-109253137D01*
X144973766Y-109206467D01*
X145000234Y-109195504D01*
X145003025Y-109194531D01*
X145004468Y-109193864D01*
X145009128Y-109191821D01*
X145018387Y-109187985D01*
X145027271Y-109179101D01*
X145137889Y-109105189D01*
X145249389Y-108993689D01*
X145336994Y-108862579D01*
X145397337Y-108716897D01*
X145428100Y-108562242D01*
X145428100Y-108404558D01*
X145428100Y-108404555D01*
X145428100Y-108404373D01*
X145427665Y-108402372D01*
X145427214Y-108400107D01*
X145412084Y-108324043D01*
X145397337Y-108249903D01*
X145394515Y-108243091D01*
X145390814Y-108234156D01*
X145337002Y-108104240D01*
X145336999Y-108104233D01*
X145336997Y-108104227D01*
X145336990Y-108104214D01*
X145249389Y-107973111D01*
X145249386Y-107973107D01*
X145249381Y-107973101D01*
X145137897Y-107861617D01*
X145137891Y-107861612D01*
X145137890Y-107861611D01*
X145006791Y-107774013D01*
X145006790Y-107774012D01*
X145006785Y-107774009D01*
X145006772Y-107774002D01*
X145006758Y-107773996D01*
X144874435Y-107719187D01*
X144862755Y-107710506D01*
X144851873Y-107706968D01*
X144844080Y-107701177D01*
X144835272Y-107694079D01*
X144829537Y-107685820D01*
X144825875Y-107683098D01*
X144818775Y-107674411D01*
X144814363Y-107663964D01*
X144795424Y-107636687D01*
X144794738Y-107617497D01*
X144791592Y-107610046D01*
X144793980Y-107596261D01*
X144792931Y-107566861D01*
X144801610Y-107552233D01*
X144803522Y-107541202D01*
X144816618Y-107526938D01*
X144828583Y-107506774D01*
X144830326Y-107505151D01*
X144842201Y-107499077D01*
X144850778Y-107489737D01*
X144870684Y-107484509D01*
X144881324Y-107479067D01*
X144880669Y-107476905D01*
X144886497Y-107475137D01*
X145032172Y-107414797D01*
X145032172Y-107414796D01*
X145032179Y-107414794D01*
X145163289Y-107327189D01*
X145163292Y-107327186D01*
X145163294Y-107327185D01*
X145274786Y-107215692D01*
X145274788Y-107215690D01*
X145274789Y-107215689D01*
X145362394Y-107084579D01*
X145422737Y-106938897D01*
X145453500Y-106784242D01*
X145453500Y-106626558D01*
X145453500Y-106626555D01*
X145453500Y-106626373D01*
X145453065Y-106624371D01*
X145431744Y-106517184D01*
X145428714Y-106501953D01*
X145422737Y-106471903D01*
X145368347Y-106340592D01*
X145362397Y-106326227D01*
X145362390Y-106326214D01*
X145274789Y-106195111D01*
X145274786Y-106195107D01*
X145274781Y-106195101D01*
X145163297Y-106083617D01*
X145163291Y-106083612D01*
X145163290Y-106083611D01*
X145032191Y-105996013D01*
X145032190Y-105996012D01*
X145032185Y-105996009D01*
X145032172Y-105996002D01*
X145032165Y-105995998D01*
X144886502Y-105935664D01*
X144886471Y-105935657D01*
X144731847Y-105904900D01*
X144731845Y-105904900D01*
X144731842Y-105904900D01*
X144574158Y-105904900D01*
X144574155Y-105904900D01*
X144574153Y-105904900D01*
X144419527Y-105935657D01*
X144419496Y-105935664D01*
X144273833Y-105995998D01*
X144273824Y-105996003D01*
X144273807Y-105996013D01*
X144142708Y-106083611D01*
X144142707Y-106083612D01*
X144142701Y-106083617D01*
X144031217Y-106195101D01*
X144031212Y-106195107D01*
X144031211Y-106195108D01*
X143943613Y-106326207D01*
X143943603Y-106326224D01*
X143943598Y-106326233D01*
X143883264Y-106471896D01*
X143883257Y-106471927D01*
X143852500Y-106626550D01*
X143852500Y-106626553D01*
X143852500Y-106784246D01*
X143852500Y-106784248D01*
X143852499Y-106784248D01*
X143883257Y-106938871D01*
X143883264Y-106938902D01*
X143943598Y-107084565D01*
X143943603Y-107084574D01*
X143943613Y-107084591D01*
X144031211Y-107215690D01*
X144031212Y-107215691D01*
X144031217Y-107215697D01*
X144142705Y-107327185D01*
X144142711Y-107327189D01*
X144273814Y-107414790D01*
X144273827Y-107414797D01*
X144406167Y-107469613D01*
X144418299Y-107478750D01*
X144430019Y-107482726D01*
X144436518Y-107487621D01*
X144445326Y-107494719D01*
X144451707Y-107503909D01*
X144455711Y-107506925D01*
X144462707Y-107515710D01*
X144466693Y-107525494D01*
X144485174Y-107552111D01*
X144485907Y-107572650D01*
X144489071Y-107580415D01*
X144486648Y-107593411D01*
X144487667Y-107621937D01*
X144478429Y-107637505D01*
X144476268Y-107649102D01*
X144463514Y-107662642D01*
X144452014Y-107682025D01*
X144452014Y-107682026D01*
X144450202Y-107683713D01*
X144437051Y-107690737D01*
X144428363Y-107699963D01*
X144412288Y-107703966D01*
X144397601Y-107711813D01*
X144397801Y-107712398D01*
X144396164Y-107712957D01*
X144396201Y-107713091D01*
X144394173Y-107713643D01*
X144394168Y-107713647D01*
X144394126Y-107713656D01*
X144394089Y-107713666D01*
X144394088Y-107713667D01*
X144248433Y-107773998D01*
X144248424Y-107774003D01*
X144248407Y-107774013D01*
X144117308Y-107861611D01*
X144117307Y-107861612D01*
X144117301Y-107861617D01*
X144005817Y-107973101D01*
X144005812Y-107973107D01*
X144005811Y-107973108D01*
X143918213Y-108104207D01*
X143918203Y-108104224D01*
X143918198Y-108104233D01*
X143857864Y-108249896D01*
X143857857Y-108249927D01*
X143827100Y-108404550D01*
X143827100Y-108404553D01*
X143827100Y-108562246D01*
X143827100Y-108562248D01*
X143827099Y-108562248D01*
X142297500Y-108562248D01*
X142297500Y-100580251D01*
X142302517Y-100545336D01*
X142303172Y-100543104D01*
X142340938Y-100484324D01*
X142404490Y-100455290D01*
X142473650Y-100465225D01*
X142474249Y-100465501D01*
X142722795Y-100580571D01*
X142758380Y-100605415D01*
X150705207Y-108552242D01*
X150726357Y-108580494D01*
X150729688Y-108586594D01*
X150733293Y-108603168D01*
X150741634Y-108617937D01*
X150740566Y-108636600D01*
X150744541Y-108654867D01*
X150738614Y-108670759D01*
X150737646Y-108687692D01*
X150726659Y-108702814D01*
X150720126Y-108720332D01*
X150706545Y-108730498D01*
X150696578Y-108744218D01*
X150679159Y-108750999D01*
X150664193Y-108762204D01*
X150646883Y-108763566D01*
X150631469Y-108769568D01*
X150596233Y-108767553D01*
X150590429Y-108766377D01*
X150558758Y-108755331D01*
X150556081Y-108753968D01*
X150554485Y-108753033D01*
X150550768Y-108751233D01*
X150550763Y-108751230D01*
X150549166Y-108750456D01*
X150548175Y-108750110D01*
X150545569Y-108749362D01*
X150445663Y-108716901D01*
X150445662Y-108716900D01*
X150355769Y-108687692D01*
X150330219Y-108679390D01*
X150330217Y-108679389D01*
X150330216Y-108679389D01*
X150175387Y-108654867D01*
X150133508Y-108648234D01*
X150121046Y-108646260D01*
X150102356Y-108643300D01*
X150102353Y-108643300D01*
X149871647Y-108643300D01*
X149844238Y-108647641D01*
X149643785Y-108679388D01*
X149492882Y-108728421D01*
X149492881Y-108728421D01*
X149424440Y-108750658D01*
X149424365Y-108750683D01*
X149424361Y-108750685D01*
X149218801Y-108855423D01*
X149112316Y-108932789D01*
X149044028Y-108982403D01*
X149036653Y-108986533D01*
X148864533Y-109158653D01*
X148860403Y-109166028D01*
X148810789Y-109234316D01*
X148733423Y-109340801D01*
X148628686Y-109546357D01*
X148598656Y-109638780D01*
X148557390Y-109765780D01*
X148557389Y-109765783D01*
X148557389Y-109765785D01*
X148521300Y-109993641D01*
X148521300Y-110224357D01*
X148557389Y-110452213D01*
X148557390Y-110452219D01*
X148593936Y-110564692D01*
X148628683Y-110671633D01*
X148628684Y-110671636D01*
X148628685Y-110671637D01*
X148634946Y-110683926D01*
X148634950Y-110683936D01*
X148658753Y-110730650D01*
X148658754Y-110730651D01*
X148733421Y-110877194D01*
X148869027Y-111063839D01*
X149032161Y-111226973D01*
X149218806Y-111362579D01*
X149424367Y-111467317D01*
X149598071Y-111523757D01*
X149643780Y-111538609D01*
X149757714Y-111556654D01*
X149871647Y-111574700D01*
X149871648Y-111574700D01*
X150102352Y-111574700D01*
X150102353Y-111574700D01*
X150330219Y-111538609D01*
X150549633Y-111467317D01*
X150642111Y-111420196D01*
X150658280Y-111413354D01*
X150682105Y-111405209D01*
X151756625Y-110856367D01*
X151825280Y-110843404D01*
X151890046Y-110869616D01*
X151900709Y-110879116D01*
X151942501Y-110920908D01*
X151942507Y-110920913D01*
X151942511Y-110920916D01*
X152073614Y-111008517D01*
X152073627Y-111008524D01*
X152073629Y-111008524D01*
X152073633Y-111008527D01*
X152207166Y-111063838D01*
X152207167Y-111063838D01*
X152215135Y-111067137D01*
X152219303Y-111068864D01*
X152219304Y-111068864D01*
X152219306Y-111068865D01*
X152275357Y-111080014D01*
X152373953Y-111099626D01*
X152373956Y-111099627D01*
X152373958Y-111099627D01*
X152531644Y-111099627D01*
X152531645Y-111099626D01*
X152686297Y-111068864D01*
X152831979Y-111008521D01*
X152963089Y-110920916D01*
X153074589Y-110809416D01*
X153162194Y-110678306D01*
X153163343Y-110675532D01*
X153177608Y-110650063D01*
X153179421Y-110647568D01*
X153182713Y-110643484D01*
X153183258Y-110642289D01*
X153187278Y-110636760D01*
X153211404Y-110618164D01*
X153227345Y-110603844D01*
X153226485Y-110602504D01*
X153227016Y-110602163D01*
X153230284Y-110601203D01*
X153234057Y-110597815D01*
X153234071Y-110597808D01*
X153239981Y-110594981D01*
X153240385Y-110595827D01*
X153242618Y-110594107D01*
X153259353Y-110592673D01*
X153294020Y-110582501D01*
X153454248Y-110582501D01*
X153454260Y-110582500D01*
X154376998Y-110582500D01*
X154433403Y-110596071D01*
X155690414Y-111238124D01*
X155768893Y-111278209D01*
X155812679Y-111298008D01*
X155812685Y-111298009D01*
X155818270Y-111299920D01*
X155818078Y-111300479D01*
X155836460Y-111307245D01*
X155901367Y-111340317D01*
X156056907Y-111390855D01*
X156120780Y-111411609D01*
X156234714Y-111429654D01*
X156348647Y-111447700D01*
X156348648Y-111447700D01*
X156579352Y-111447700D01*
X156579353Y-111447700D01*
X156807219Y-111411609D01*
X157026633Y-111340317D01*
X157232194Y-111235579D01*
X157418839Y-111099973D01*
X157581973Y-110936839D01*
X157717579Y-110750194D01*
X157822317Y-110544633D01*
X157893609Y-110325219D01*
X157929700Y-110097353D01*
X157929700Y-109866647D01*
X157913724Y-109765780D01*
X157893609Y-109638780D01*
X157822315Y-109419362D01*
X157740788Y-109259357D01*
X157717579Y-109213806D01*
X157717578Y-109213805D01*
X157712247Y-109206468D01*
X157711846Y-109205915D01*
X157711846Y-109205914D01*
X157711841Y-109205909D01*
X157703574Y-109194531D01*
X157674244Y-109154161D01*
X157581973Y-109027161D01*
X157418839Y-108864027D01*
X157232194Y-108728421D01*
X157131680Y-108677207D01*
X157026637Y-108623685D01*
X157026636Y-108623684D01*
X157026633Y-108623683D01*
X156929674Y-108592179D01*
X156929672Y-108592178D01*
X156929671Y-108592177D01*
X156834915Y-108561389D01*
X156807219Y-108552390D01*
X156807217Y-108552389D01*
X156807216Y-108552389D01*
X156656107Y-108528456D01*
X156610508Y-108521234D01*
X156598046Y-108519260D01*
X156579356Y-108516300D01*
X156579353Y-108516300D01*
X156348647Y-108516300D01*
X156321238Y-108520641D01*
X156120785Y-108552388D01*
X155998325Y-108592179D01*
X155974828Y-108599814D01*
X155901367Y-108623683D01*
X155901364Y-108623684D01*
X155901362Y-108623685D01*
X155805138Y-108672712D01*
X155801248Y-108674372D01*
X155800140Y-108674502D01*
X155792723Y-108677642D01*
X155768898Y-108685788D01*
X155768893Y-108685790D01*
X154433400Y-109367929D01*
X154376996Y-109381500D01*
X153683128Y-109381500D01*
X153683127Y-109381499D01*
X153683127Y-109381500D01*
X153648192Y-109376477D01*
X153622950Y-109369065D01*
X153570205Y-109337769D01*
X153095128Y-108862693D01*
X153095108Y-108862671D01*
X152971922Y-108739485D01*
X152971917Y-108739481D01*
X152971909Y-108739475D01*
X152932809Y-108716901D01*
X152864064Y-108677211D01*
X152864058Y-108677207D01*
X152841536Y-108664205D01*
X152841531Y-108664202D01*
X152834985Y-108660423D01*
X152682257Y-108619499D01*
X152682254Y-108619499D01*
X152540126Y-108619499D01*
X152540125Y-108619498D01*
X152540125Y-108619499D01*
X152505190Y-108614476D01*
X152479948Y-108607064D01*
X152427203Y-108575768D01*
X149111683Y-105260248D01*
X150939099Y-105260248D01*
X150969857Y-105414871D01*
X150969864Y-105414902D01*
X151030198Y-105560565D01*
X151030203Y-105560574D01*
X151030213Y-105560591D01*
X151117811Y-105691690D01*
X151117812Y-105691691D01*
X151117817Y-105691697D01*
X151229301Y-105803181D01*
X151229307Y-105803186D01*
X151229311Y-105803189D01*
X151360414Y-105890790D01*
X151360427Y-105890797D01*
X151506098Y-105951135D01*
X151506103Y-105951137D01*
X151647245Y-105979212D01*
X151653128Y-105980382D01*
X151653130Y-105980383D01*
X151655846Y-105981103D01*
X151660755Y-105981900D01*
X151818444Y-105981900D01*
X151822564Y-105981900D01*
X151830414Y-105979518D01*
X151973097Y-105951137D01*
X152118779Y-105890794D01*
X152249889Y-105803189D01*
X152361389Y-105691689D01*
X152448994Y-105560579D01*
X152509337Y-105414897D01*
X152540100Y-105260242D01*
X152540100Y-105209448D01*
X157390699Y-105209448D01*
X157421457Y-105364071D01*
X157421464Y-105364102D01*
X157481798Y-105509765D01*
X157481803Y-105509774D01*
X157481813Y-105509791D01*
X157569411Y-105640890D01*
X157569412Y-105640891D01*
X157569417Y-105640897D01*
X157680901Y-105752381D01*
X157680907Y-105752386D01*
X157680911Y-105752389D01*
X157812014Y-105839990D01*
X157812027Y-105839997D01*
X157934654Y-105890790D01*
X157957703Y-105900337D01*
X157957707Y-105900337D01*
X157957710Y-105900339D01*
X158041479Y-105917001D01*
X158112353Y-105931099D01*
X158112356Y-105931100D01*
X158112358Y-105931100D01*
X158270044Y-105931100D01*
X158270045Y-105931099D01*
X158424697Y-105900337D01*
X158570379Y-105839994D01*
X158701489Y-105752389D01*
X158812989Y-105640889D01*
X158900594Y-105509779D01*
X158960937Y-105364097D01*
X158981594Y-105260248D01*
X158991700Y-105209445D01*
X158991700Y-105051571D01*
X158991264Y-105049566D01*
X158965388Y-104919480D01*
X158960937Y-104897103D01*
X158960935Y-104897098D01*
X158900597Y-104751427D01*
X158900590Y-104751414D01*
X158812989Y-104620311D01*
X158812986Y-104620307D01*
X158812985Y-104620305D01*
X158701497Y-104508817D01*
X158701491Y-104508812D01*
X158701490Y-104508811D01*
X158570391Y-104421213D01*
X158570390Y-104421212D01*
X158570385Y-104421209D01*
X158570372Y-104421202D01*
X158570365Y-104421198D01*
X158424702Y-104360864D01*
X158424671Y-104360857D01*
X158270047Y-104330100D01*
X158270045Y-104330100D01*
X158270042Y-104330100D01*
X158112358Y-104330100D01*
X158112355Y-104330100D01*
X158112353Y-104330100D01*
X157957727Y-104360857D01*
X157957696Y-104360864D01*
X157812033Y-104421198D01*
X157812024Y-104421203D01*
X157812007Y-104421213D01*
X157680908Y-104508811D01*
X157680907Y-104508812D01*
X157680901Y-104508817D01*
X157569417Y-104620301D01*
X157569414Y-104620305D01*
X157481813Y-104751407D01*
X157481803Y-104751424D01*
X157481798Y-104751433D01*
X157421464Y-104897096D01*
X157421457Y-104897127D01*
X157390700Y-105051750D01*
X157390700Y-105209445D01*
X157390699Y-105209448D01*
X152540100Y-105209448D01*
X152540100Y-105102558D01*
X152540100Y-105102555D01*
X152540100Y-105102371D01*
X152539667Y-105100380D01*
X152533596Y-105069855D01*
X152533596Y-105069853D01*
X152533591Y-105069830D01*
X152509098Y-104946701D01*
X152507011Y-104942288D01*
X152452978Y-104811839D01*
X152448997Y-104802227D01*
X152448990Y-104802214D01*
X152361389Y-104671111D01*
X152361386Y-104671107D01*
X152361381Y-104671101D01*
X152249897Y-104559617D01*
X152249891Y-104559612D01*
X152249890Y-104559611D01*
X152118791Y-104472013D01*
X152118790Y-104472012D01*
X152118785Y-104472009D01*
X152118772Y-104472002D01*
X152118765Y-104471998D01*
X151973102Y-104411664D01*
X151973071Y-104411657D01*
X151818447Y-104380900D01*
X151818445Y-104380900D01*
X151818442Y-104380900D01*
X151660758Y-104380900D01*
X151660755Y-104380900D01*
X151660753Y-104380900D01*
X151506127Y-104411657D01*
X151506096Y-104411664D01*
X151360433Y-104471998D01*
X151360424Y-104472003D01*
X151360407Y-104472013D01*
X151229308Y-104559611D01*
X151229307Y-104559612D01*
X151229301Y-104559617D01*
X151117817Y-104671101D01*
X151117812Y-104671107D01*
X151117811Y-104671108D01*
X151030213Y-104802207D01*
X151030203Y-104802224D01*
X151030198Y-104802233D01*
X150969864Y-104947896D01*
X150969864Y-104947898D01*
X150969862Y-104947908D01*
X150939100Y-105102550D01*
X150939100Y-105102553D01*
X150939100Y-105260246D01*
X150939100Y-105260248D01*
X150939099Y-105260248D01*
X149111683Y-105260248D01*
X143607616Y-99756181D01*
X143582771Y-99720596D01*
X143467364Y-99471321D01*
X143412353Y-99352499D01*
X143393612Y-99315985D01*
X143393610Y-99315983D01*
X143391014Y-99310924D01*
X143391062Y-99310899D01*
X143384234Y-99297759D01*
X143381200Y-99290434D01*
X143381197Y-99290427D01*
X143381195Y-99290424D01*
X143381190Y-99290414D01*
X143293589Y-99159311D01*
X143293586Y-99159307D01*
X143293581Y-99159301D01*
X143182097Y-99047817D01*
X143182091Y-99047812D01*
X143182090Y-99047811D01*
X143050991Y-98960213D01*
X143050990Y-98960212D01*
X143050985Y-98960209D01*
X143050972Y-98960202D01*
X143050965Y-98960198D01*
X142905302Y-98899864D01*
X142905271Y-98899857D01*
X142750647Y-98869100D01*
X142750645Y-98869100D01*
X142750642Y-98869100D01*
X142592958Y-98869100D01*
X142592953Y-98869100D01*
X142592948Y-98869100D01*
X142463181Y-98894912D01*
X142463180Y-98894913D01*
X142427936Y-98896803D01*
X142414111Y-98895566D01*
X142349093Y-98869985D01*
X142308226Y-98813313D01*
X142304560Y-98802920D01*
X142297500Y-98761676D01*
X142297500Y-92869411D01*
X142296877Y-92867087D01*
X142296875Y-92867080D01*
X142296870Y-92867064D01*
X142285789Y-92825709D01*
X142285259Y-92823731D01*
X142256577Y-92716687D01*
X142200573Y-92619684D01*
X142179370Y-92582958D01*
X142177953Y-92580326D01*
X142177572Y-92579807D01*
X142060363Y-92462598D01*
X142060320Y-92462556D01*
X141690457Y-92092693D01*
X141686119Y-92088355D01*
X141686117Y-92088352D01*
X141567246Y-91969481D01*
X141567245Y-91969480D01*
X141567244Y-91969479D01*
X141567241Y-91969477D01*
X141501327Y-91931421D01*
X141501327Y-91931422D01*
X141465372Y-91910664D01*
X141465371Y-91910663D01*
X141430315Y-91890423D01*
X141392132Y-91880192D01*
X141277586Y-91849499D01*
X141277583Y-91849499D01*
X141109972Y-91849499D01*
X141109909Y-91849500D01*
X140790092Y-91849500D01*
X140790029Y-91849499D01*
X140788125Y-91849499D01*
X140780529Y-91849499D01*
X140622414Y-91849499D01*
X140546049Y-91869960D01*
X140546050Y-91869961D01*
X140469688Y-91890422D01*
X140469686Y-91890422D01*
X140469685Y-91890423D01*
X140469683Y-91890423D01*
X140469614Y-91890453D01*
X140468805Y-91890930D01*
X140332769Y-91969470D01*
X140332764Y-91969472D01*
X140332761Y-91969475D01*
X140332758Y-91969477D01*
X140332748Y-91969484D01*
X139932899Y-92369334D01*
X139892875Y-92409358D01*
X139892867Y-92409368D01*
X139819480Y-92482755D01*
X139792748Y-92529057D01*
X139740423Y-92619686D01*
X139699499Y-92772414D01*
X139699499Y-92772416D01*
X139699499Y-92942871D01*
X139699500Y-92942922D01*
X139699500Y-93552404D01*
X139699499Y-93552405D01*
X139699500Y-93552406D01*
X139694476Y-93587341D01*
X139685136Y-93619148D01*
X139669262Y-93653102D01*
X139590613Y-93770807D01*
X139590603Y-93770824D01*
X139590598Y-93770833D01*
X139530264Y-93916496D01*
X139530257Y-93916527D01*
X139499500Y-94071150D01*
X139499500Y-94071153D01*
X139499500Y-94228846D01*
X139499500Y-94228848D01*
X139499499Y-94228848D01*
X139530257Y-94383471D01*
X139530264Y-94383502D01*
X139590598Y-94529165D01*
X139590603Y-94529174D01*
X139590613Y-94529191D01*
X139678211Y-94660290D01*
X139678212Y-94660291D01*
X139678217Y-94660297D01*
X139789700Y-94771780D01*
X139789703Y-94771782D01*
X139789706Y-94771785D01*
X139789709Y-94771787D01*
X139789711Y-94771789D01*
X139826573Y-94796419D01*
X139842587Y-94809151D01*
X139848872Y-94815057D01*
X139850860Y-94818444D01*
X139852836Y-94820015D01*
X139855399Y-94823083D01*
X139854697Y-94823668D01*
X139865998Y-94835914D01*
X139866272Y-94835713D01*
X139868066Y-94838155D01*
X139868271Y-94838377D01*
X139868561Y-94838829D01*
X139870859Y-94841956D01*
X139869798Y-94842735D01*
X139874491Y-94853254D01*
X139885090Y-94865475D01*
X139895048Y-94899335D01*
X139895229Y-94900590D01*
X139896499Y-94918291D01*
X139896499Y-95004328D01*
X139896499Y-95004330D01*
X139896500Y-95014324D01*
X139896500Y-95335659D01*
X139896499Y-95335677D01*
X139896499Y-95406542D01*
X139896499Y-95459290D01*
X139890601Y-95479375D01*
X139937423Y-95654115D01*
X139957662Y-95689170D01*
X139957663Y-95689170D01*
X139966358Y-95704230D01*
X139966359Y-95704233D01*
X139966360Y-95704233D01*
X139975776Y-95720543D01*
X139978422Y-95725125D01*
X139978422Y-95725127D01*
X140016467Y-95791024D01*
X140016477Y-95791040D01*
X140016481Y-95791046D01*
X140016485Y-95791051D01*
X140137314Y-95911880D01*
X140137359Y-95911923D01*
X140300573Y-96075137D01*
X140321723Y-96103389D01*
X140334331Y-96126478D01*
X140349500Y-96185907D01*
X140349500Y-103432072D01*
X140344476Y-103467009D01*
X140337064Y-103492250D01*
X140305769Y-103544994D01*
X138818309Y-105032453D01*
X138815415Y-105038322D01*
X138794944Y-105073780D01*
X138794940Y-105073783D01*
X138794941Y-105073784D01*
X138748587Y-105154072D01*
X138748585Y-105154075D01*
X138740423Y-105168211D01*
X138729375Y-105209445D01*
X138699499Y-105320943D01*
X138699499Y-105491400D01*
X138699500Y-105491451D01*
X138699500Y-111070661D01*
X138699499Y-111070735D01*
X138699499Y-111072419D01*
X138699499Y-111080014D01*
X138699499Y-111238128D01*
X138726881Y-111340317D01*
X138740424Y-111390859D01*
X138747871Y-111403757D01*
X138752404Y-111411609D01*
X138752405Y-111411610D01*
X138817154Y-111523759D01*
X138819474Y-111527778D01*
X138819481Y-111527788D01*
X138819485Y-111527793D01*
X138940314Y-111648622D01*
X138940358Y-111648665D01*
X146532704Y-119241011D01*
X146553853Y-119269261D01*
X146559274Y-119279188D01*
X146574128Y-119347461D01*
X146549714Y-119412926D01*
X146493782Y-119454799D01*
X146493778Y-119454801D01*
X146486590Y-119457482D01*
X146443256Y-119465300D01*
X137654342Y-119465300D01*
X137611612Y-119457705D01*
X137230824Y-119317924D01*
X137186396Y-119303632D01*
X137186410Y-119303585D01*
X137172263Y-119299113D01*
X137164901Y-119296064D01*
X137164889Y-119296061D01*
X137164883Y-119296059D01*
X137164871Y-119296057D01*
X137010247Y-119265300D01*
X137010245Y-119265300D01*
X137010242Y-119265300D01*
X136852558Y-119265300D01*
X136852555Y-119265300D01*
X136852552Y-119265300D01*
X136733981Y-119288885D01*
X136733980Y-119288886D01*
X136698736Y-119290776D01*
X136684911Y-119289539D01*
X136619893Y-119263958D01*
X136579026Y-119207286D01*
X136575360Y-119196893D01*
X136568300Y-119155649D01*
X136568300Y-85397448D01*
X139534499Y-85397448D01*
X139565257Y-85552071D01*
X139565264Y-85552102D01*
X139625598Y-85697765D01*
X139625603Y-85697774D01*
X139625613Y-85697791D01*
X139713211Y-85828890D01*
X139713212Y-85828891D01*
X139713217Y-85828897D01*
X139824701Y-85940381D01*
X139824707Y-85940386D01*
X139824711Y-85940389D01*
X139955814Y-86027990D01*
X139955827Y-86027997D01*
X140101498Y-86088335D01*
X140101503Y-86088337D01*
X140224079Y-86112719D01*
X140248533Y-86117583D01*
X140251250Y-86118304D01*
X140256155Y-86119100D01*
X140256156Y-86119100D01*
X140275930Y-86119100D01*
X140342969Y-86138785D01*
X140346456Y-86141110D01*
X140514820Y-86257534D01*
X140531975Y-86271843D01*
X140646444Y-86386312D01*
X140795766Y-86478414D01*
X140962303Y-86533599D01*
X141065091Y-86544100D01*
X141840108Y-86544099D01*
X141840116Y-86544098D01*
X141840119Y-86544098D01*
X141840127Y-86544097D01*
X141840417Y-86544079D01*
X141841433Y-86543963D01*
X141886559Y-86539353D01*
X141896403Y-86538348D01*
X141896403Y-86538347D01*
X141942897Y-86533599D01*
X142109434Y-86478414D01*
X142258756Y-86386312D01*
X142382812Y-86262256D01*
X142382812Y-86262255D01*
X142387924Y-86257144D01*
X142388001Y-86257221D01*
X142394659Y-86250124D01*
X142408423Y-86237743D01*
X142471425Y-86207544D01*
X142540754Y-86216198D01*
X142543996Y-86217607D01*
X142588289Y-86250124D01*
X142590155Y-86252277D01*
X142594058Y-86257400D01*
X142597782Y-86261943D01*
X142597783Y-86261944D01*
X142721754Y-86385915D01*
X142870975Y-86477956D01*
X142870980Y-86477958D01*
X143037399Y-86533104D01*
X143037400Y-86533104D01*
X143037402Y-86533105D01*
X143037409Y-86533106D01*
X143140119Y-86543599D01*
X143277599Y-86543599D01*
X143777600Y-86543599D01*
X143915060Y-86543599D01*
X143915072Y-86543599D01*
X143915086Y-86543598D01*
X144017797Y-86533105D01*
X144184219Y-86477958D01*
X144184224Y-86477956D01*
X144333445Y-86385915D01*
X144457415Y-86261945D01*
X144549456Y-86112724D01*
X144549458Y-86112719D01*
X144604605Y-85946297D01*
X144604606Y-85946290D01*
X144615099Y-85843586D01*
X144615100Y-85843573D01*
X144615100Y-85568600D01*
X143777600Y-85568600D01*
X143777600Y-86543599D01*
X143277599Y-86543599D01*
X143277600Y-86543598D01*
X143277600Y-85068600D01*
X143777600Y-85068600D01*
X144615099Y-85068600D01*
X144615099Y-84793628D01*
X144615098Y-84793613D01*
X144604605Y-84690902D01*
X144549458Y-84524480D01*
X144549456Y-84524475D01*
X144457415Y-84375254D01*
X144333445Y-84251284D01*
X144184224Y-84159243D01*
X144184219Y-84159241D01*
X144182843Y-84158785D01*
X144017799Y-84104094D01*
X144017794Y-84104093D01*
X143915091Y-84093600D01*
X143915086Y-84093600D01*
X143777600Y-84093600D01*
X143777600Y-85068600D01*
X143277600Y-85068600D01*
X143277600Y-84093600D01*
X143140125Y-84093600D01*
X143140109Y-84093601D01*
X143037404Y-84104093D01*
X143037402Y-84104094D01*
X142870987Y-84159238D01*
X142870979Y-84159241D01*
X142870977Y-84159242D01*
X142870975Y-84159243D01*
X142788992Y-84209810D01*
X142721755Y-84251283D01*
X142597777Y-84375260D01*
X142596113Y-84377120D01*
X142586637Y-84386617D01*
X142572349Y-84399466D01*
X142509339Y-84429657D01*
X142440020Y-84420994D01*
X142439991Y-84420981D01*
X142436782Y-84419587D01*
X142392520Y-84387102D01*
X142392358Y-84386915D01*
X142391450Y-84385867D01*
X142387483Y-84380462D01*
X142387294Y-84380613D01*
X142382812Y-84374944D01*
X142258757Y-84250889D01*
X142258756Y-84250888D01*
X142110175Y-84159243D01*
X142109436Y-84158787D01*
X142109431Y-84158785D01*
X141951365Y-84106407D01*
X141948545Y-84105241D01*
X141942892Y-84103599D01*
X141840119Y-84093100D01*
X141840110Y-84093100D01*
X141065098Y-84093100D01*
X141065080Y-84093101D01*
X141065072Y-84093101D01*
X141065053Y-84093103D01*
X140962297Y-84103600D01*
X140962293Y-84103601D01*
X140962132Y-84103656D01*
X140795767Y-84158785D01*
X140795765Y-84158786D01*
X140795763Y-84158787D01*
X140755994Y-84183317D01*
X140646440Y-84250890D01*
X140531970Y-84365358D01*
X140514817Y-84379666D01*
X140346455Y-84496090D01*
X140280119Y-84518029D01*
X140275928Y-84518100D01*
X140256153Y-84518100D01*
X140101527Y-84548857D01*
X140101496Y-84548864D01*
X139955833Y-84609198D01*
X139955824Y-84609203D01*
X139955807Y-84609213D01*
X139824708Y-84696811D01*
X139824707Y-84696812D01*
X139824701Y-84696817D01*
X139713217Y-84808301D01*
X139713212Y-84808307D01*
X139713211Y-84808308D01*
X139625613Y-84939407D01*
X139625603Y-84939424D01*
X139625598Y-84939433D01*
X139565264Y-85085096D01*
X139565257Y-85085127D01*
X139534500Y-85239750D01*
X139534500Y-85239753D01*
X139534500Y-85397446D01*
X139534500Y-85397448D01*
X139534499Y-85397448D01*
X136568300Y-85397448D01*
X136568300Y-83243129D01*
X136573323Y-83208193D01*
X136577727Y-83193195D01*
X136615472Y-83134444D01*
X136615500Y-83134419D01*
X136615499Y-83134419D01*
X136616841Y-83133256D01*
X136671720Y-83105777D01*
X136672001Y-83105716D01*
X136673341Y-83105424D01*
X136679279Y-83104133D01*
X136705632Y-83101300D01*
X166254192Y-83101300D01*
X166289127Y-83106323D01*
G37*
%TD.AperFunction*%
%TA.AperFunction,Conductor*%
G36*
X143584592Y-125725921D02*
G01*
X143609836Y-125733334D01*
X143662582Y-125764630D01*
X144040403Y-126142450D01*
X144088491Y-126190537D01*
X144121976Y-126251860D01*
X144116992Y-126321551D01*
X144075121Y-126377485D01*
X144062812Y-126385604D01*
X144037077Y-126400462D01*
X143944861Y-126492678D01*
X143930003Y-126518412D01*
X143879435Y-126566626D01*
X143810827Y-126579847D01*
X143745963Y-126553877D01*
X143734937Y-126544090D01*
X143576452Y-126385605D01*
X143298023Y-126107175D01*
X143298021Y-126107175D01*
X143283025Y-126127816D01*
X143272702Y-126142024D01*
X143272701Y-126142025D01*
X143255873Y-126175051D01*
X143209776Y-126265519D01*
X143189442Y-126294364D01*
X143180553Y-126303776D01*
X143120212Y-126338999D01*
X143050406Y-126336007D01*
X142996692Y-126299840D01*
X142990621Y-126292834D01*
X142973848Y-126267925D01*
X142973287Y-126266824D01*
X142909838Y-126142301D01*
X142909710Y-126142047D01*
X142909701Y-126142031D01*
X142909698Y-126142025D01*
X142884376Y-126107175D01*
X142884375Y-126107174D01*
X142884374Y-126107174D01*
X142447461Y-126544088D01*
X142386138Y-126577573D01*
X142316446Y-126572589D01*
X142260513Y-126530717D01*
X142252394Y-126518408D01*
X142244154Y-126504137D01*
X142237539Y-126492679D01*
X142145321Y-126400461D01*
X142119586Y-126385602D01*
X142071373Y-126335038D01*
X142058151Y-126266430D01*
X142084119Y-126201566D01*
X142093898Y-126190547D01*
X142514628Y-125769818D01*
X142542873Y-125748675D01*
X142565965Y-125736067D01*
X142625390Y-125720900D01*
X143549660Y-125720900D01*
X143584592Y-125725921D01*
G37*
%TD.AperFunction*%
%TA.AperFunction,Conductor*%
G36*
X145867351Y-125725921D02*
G01*
X145878204Y-125729107D01*
X145936985Y-125766877D01*
X145966014Y-125830431D01*
X145956075Y-125899590D01*
X145956074Y-125899592D01*
X145952889Y-125906567D01*
X145927772Y-125942743D01*
X145883415Y-125987098D01*
X145879280Y-125994481D01*
X145847375Y-126038396D01*
X145847374Y-126038395D01*
X145782403Y-126127821D01*
X145772275Y-126141761D01*
X145772273Y-126141764D01*
X145772268Y-126141773D01*
X145709496Y-126264969D01*
X145698224Y-126280959D01*
X145689162Y-126293814D01*
X145680272Y-126303227D01*
X145619930Y-126338450D01*
X145550125Y-126335458D01*
X145496411Y-126299291D01*
X145490340Y-126292285D01*
X145473568Y-126267378D01*
X145409696Y-126142023D01*
X145384376Y-126107175D01*
X145384375Y-126107175D01*
X144947461Y-126544089D01*
X144886138Y-126577574D01*
X144816446Y-126572590D01*
X144760513Y-126530718D01*
X144752396Y-126518412D01*
X144737539Y-126492679D01*
X144645321Y-126400461D01*
X144619586Y-126385602D01*
X144571373Y-126335038D01*
X144558151Y-126266430D01*
X144584119Y-126201566D01*
X144593898Y-126190547D01*
X145014628Y-125769818D01*
X145042873Y-125748675D01*
X145065965Y-125736067D01*
X145125390Y-125720900D01*
X145832424Y-125720900D01*
X145867351Y-125725921D01*
G37*
%TD.AperFunction*%
%TA.AperFunction,Conductor*%
G36*
X161707815Y-122903141D02*
G01*
X161707817Y-122903138D01*
X161707842Y-122903147D01*
X161708015Y-122903189D01*
X161711056Y-122904391D01*
X161711110Y-122904420D01*
X161712289Y-122904879D01*
X161712658Y-122905025D01*
X161713368Y-122905575D01*
X161713765Y-122905632D01*
X161714131Y-122905799D01*
X161714532Y-122905983D01*
X161714364Y-122906348D01*
X161767377Y-122947450D01*
X161776114Y-122959475D01*
X161776115Y-122959476D01*
X161905324Y-123088685D01*
X162053156Y-123196091D01*
X162215969Y-123279048D01*
X162389755Y-123335515D01*
X162450721Y-123345171D01*
X162570230Y-123364100D01*
X162570235Y-123364100D01*
X162752969Y-123364100D01*
X162821571Y-123353234D01*
X162860503Y-123347067D01*
X162889284Y-123345897D01*
X162892522Y-123346143D01*
X162896641Y-123346675D01*
X162897638Y-123346531D01*
X162904399Y-123347045D01*
X162932450Y-123357648D01*
X162961286Y-123365888D01*
X162964790Y-123369873D01*
X162969755Y-123371750D01*
X162983398Y-123390143D01*
X162985180Y-123388362D01*
X162985181Y-123388363D01*
X162991950Y-123400760D01*
X163007424Y-123418357D01*
X163007435Y-123418381D01*
X163009926Y-123423735D01*
X163008727Y-123424292D01*
X163011380Y-123427868D01*
X163012028Y-123437529D01*
X163018666Y-123449686D01*
X163021500Y-123476044D01*
X163021500Y-123653943D01*
X163021499Y-123653946D01*
X163021500Y-123653948D01*
X163016476Y-123688883D01*
X163009064Y-123714122D01*
X162981160Y-123761154D01*
X162981966Y-123761815D01*
X162978080Y-123766554D01*
X162932024Y-123846327D01*
X162932022Y-123846331D01*
X162907189Y-123889338D01*
X162907186Y-123889345D01*
X162899023Y-123903482D01*
X162896345Y-123913480D01*
X162896344Y-123913484D01*
X162858099Y-124056214D01*
X162858099Y-124056216D01*
X162858099Y-124226671D01*
X162858100Y-124226722D01*
X162858100Y-124545659D01*
X162858099Y-124545677D01*
X162858099Y-124632896D01*
X162858099Y-124669290D01*
X162852201Y-124689375D01*
X162858098Y-124711383D01*
X162899023Y-124864114D01*
X162927960Y-124914233D01*
X162978080Y-125001045D01*
X162987921Y-125010886D01*
X162995487Y-125023096D01*
X162999344Y-125037081D01*
X163003798Y-125044583D01*
X163005499Y-125043879D01*
X163010580Y-125056137D01*
X163008874Y-125056844D01*
X163021500Y-125106308D01*
X163021500Y-125921816D01*
X163021499Y-125921820D01*
X163021500Y-125921823D01*
X163016475Y-125956757D01*
X163012564Y-125970074D01*
X162974787Y-126028850D01*
X162911231Y-126057872D01*
X162898346Y-126059724D01*
X162861307Y-126059459D01*
X162752970Y-126042300D01*
X162752965Y-126042300D01*
X162752964Y-126042300D01*
X162570231Y-126042300D01*
X162570230Y-126042300D01*
X162534684Y-126047930D01*
X162389761Y-126070883D01*
X162215963Y-126127354D01*
X162053154Y-126210309D01*
X162034769Y-126223667D01*
X161905321Y-126317717D01*
X161905319Y-126317719D01*
X161905318Y-126317719D01*
X161776114Y-126446923D01*
X161772393Y-126452046D01*
X161754504Y-126470452D01*
X161747799Y-126477351D01*
X161736811Y-126485824D01*
X161671702Y-126511173D01*
X161603224Y-126497298D01*
X161603221Y-126497295D01*
X161597040Y-126494034D01*
X161554588Y-126457249D01*
X161547087Y-126446924D01*
X161417878Y-126317715D01*
X161270046Y-126210309D01*
X161252887Y-126201566D01*
X161107237Y-126127353D01*
X161074347Y-126116666D01*
X161053084Y-126109757D01*
X161038960Y-126104191D01*
X161008419Y-126089936D01*
X161008407Y-126089930D01*
X160355485Y-125860166D01*
X160092483Y-125767615D01*
X160045964Y-125738327D01*
X158232530Y-123924893D01*
X158232510Y-123924871D01*
X158109324Y-123801685D01*
X158109322Y-123801684D01*
X158109319Y-123801681D01*
X158109311Y-123801675D01*
X158022231Y-123751400D01*
X158010766Y-123739878D01*
X157998216Y-123733329D01*
X157994504Y-123729600D01*
X157986681Y-123721395D01*
X157980560Y-123709521D01*
X157976537Y-123705478D01*
X157971450Y-123696565D01*
X157969375Y-123687823D01*
X157954667Y-123659292D01*
X157956944Y-123635449D01*
X157955315Y-123628584D01*
X157958452Y-123619662D01*
X157961311Y-123589739D01*
X157975176Y-123572108D01*
X157978495Y-123562672D01*
X157989072Y-123554438D01*
X158004499Y-123534822D01*
X158005104Y-123534391D01*
X158025843Y-123525816D01*
X158033631Y-123519755D01*
X158042429Y-123518958D01*
X158056394Y-123513184D01*
X158058619Y-123512810D01*
X158079144Y-123511100D01*
X159605051Y-123511100D01*
X159622697Y-123512362D01*
X159648696Y-123516100D01*
X159951867Y-123516100D01*
X159951876Y-123516100D01*
X160002605Y-123511101D01*
X160033256Y-123511101D01*
X160033259Y-123511101D01*
X160051884Y-123506110D01*
X160055021Y-123505486D01*
X160059227Y-123504209D01*
X160063040Y-123503120D01*
X160185987Y-123470177D01*
X160185991Y-123470174D01*
X160188412Y-123469172D01*
X160214805Y-123461533D01*
X160801519Y-123360414D01*
X160835385Y-123353377D01*
X160835391Y-123353374D01*
X160835393Y-123353374D01*
X160840650Y-123351787D01*
X160840808Y-123352310D01*
X160858797Y-123347338D01*
X160882657Y-123343559D01*
X160933447Y-123335515D01*
X161107233Y-123279048D01*
X161270046Y-123196091D01*
X161417878Y-123088685D01*
X161547087Y-122959476D01*
X161550801Y-122954363D01*
X161575397Y-122929051D01*
X161583555Y-122922761D01*
X161583560Y-122922755D01*
X161586364Y-122920594D01*
X161587439Y-122921989D01*
X161594493Y-122918755D01*
X161605131Y-122908527D01*
X161625613Y-122904489D01*
X161644592Y-122895789D01*
X161659202Y-122897868D01*
X161673681Y-122895014D01*
X161707815Y-122903141D01*
G37*
%TD.AperFunction*%
%TA.AperFunction,Conductor*%
G36*
X164376133Y-123332469D02*
G01*
X164385056Y-123333987D01*
X164389756Y-123335515D01*
X164450722Y-123345171D01*
X164451533Y-123345299D01*
X164451548Y-123345302D01*
X164501628Y-123353234D01*
X164570231Y-123364100D01*
X164570236Y-123364100D01*
X164752970Y-123364100D01*
X164821572Y-123353234D01*
X164860501Y-123347067D01*
X164895784Y-123346565D01*
X164909549Y-123348344D01*
X164973512Y-123376459D01*
X165012118Y-123434682D01*
X165015964Y-123447117D01*
X165021501Y-123483756D01*
X165021501Y-125921816D01*
X165016476Y-125956757D01*
X165012565Y-125970074D01*
X165002925Y-125985071D01*
X164997902Y-126002177D01*
X164984428Y-126013851D01*
X164974788Y-126028850D01*
X164958569Y-126036255D01*
X164945096Y-126047930D01*
X164911232Y-126057872D01*
X164898347Y-126059724D01*
X164861308Y-126059459D01*
X164752971Y-126042300D01*
X164752966Y-126042300D01*
X164752965Y-126042300D01*
X164570231Y-126042300D01*
X164390720Y-126070731D01*
X164389548Y-126070911D01*
X164384837Y-126071611D01*
X164384752Y-126071599D01*
X164384474Y-126071639D01*
X164384462Y-126071558D01*
X164382681Y-126071311D01*
X164370149Y-126072908D01*
X164354764Y-126073347D01*
X164353119Y-126073393D01*
X164285547Y-126055629D01*
X164238305Y-126004154D01*
X164235211Y-125997857D01*
X164222500Y-125943170D01*
X164222500Y-124716674D01*
X164222500Y-124716672D01*
X164181577Y-124563945D01*
X164122279Y-124461237D01*
X164109163Y-124428474D01*
X164104727Y-124410189D01*
X164106254Y-124346018D01*
X164109188Y-124336026D01*
X164120778Y-124308962D01*
X164131882Y-124289729D01*
X164181577Y-124203655D01*
X164222500Y-124050928D01*
X164222500Y-123469668D01*
X164227524Y-123434729D01*
X164231425Y-123421445D01*
X164233109Y-123421939D01*
X164263976Y-123367133D01*
X164274944Y-123361329D01*
X164276569Y-123358939D01*
X164291397Y-123352623D01*
X164319838Y-123337574D01*
X164319409Y-123335942D01*
X164322829Y-123335042D01*
X164322836Y-123335042D01*
X164323813Y-123334785D01*
X164325043Y-123334820D01*
X164325733Y-123334455D01*
X164325910Y-123334419D01*
X164326340Y-123334332D01*
X164326446Y-123334860D01*
X164332686Y-123335037D01*
X164340851Y-123331560D01*
X164376133Y-123332469D01*
G37*
%TD.AperFunction*%
%TA.AperFunction,Conductor*%
G36*
X166063771Y-99601940D02*
G01*
X166385149Y-99744421D01*
X166438456Y-99789586D01*
X166452822Y-99819460D01*
X166490044Y-99934015D01*
X166556559Y-100064557D01*
X166586549Y-100123416D01*
X166628134Y-100180653D01*
X166628135Y-100180654D01*
X166644605Y-100211870D01*
X166649857Y-100226591D01*
X166653845Y-100296341D01*
X166652352Y-100302762D01*
X166619255Y-100362360D01*
X165878645Y-101102973D01*
X165850394Y-101124122D01*
X165827306Y-101136730D01*
X165767876Y-101151900D01*
X164283986Y-101151900D01*
X164283983Y-101151899D01*
X164283982Y-101151900D01*
X164249047Y-101146876D01*
X164235729Y-101142965D01*
X164176952Y-101105189D01*
X164147930Y-101041634D01*
X164147734Y-101040274D01*
X164147455Y-101038329D01*
X164151995Y-100983197D01*
X164152594Y-100981309D01*
X164160305Y-100962510D01*
X164192555Y-100899216D01*
X164192556Y-100899214D01*
X164192557Y-100899212D01*
X164258246Y-100697043D01*
X164291500Y-100487087D01*
X164291500Y-100274513D01*
X164258246Y-100064557D01*
X164192557Y-99862388D01*
X164192555Y-99862385D01*
X164192555Y-99862383D01*
X164154391Y-99787483D01*
X164154388Y-99787477D01*
X164143006Y-99754074D01*
X164140444Y-99740432D01*
X164147416Y-99670911D01*
X164190866Y-99616197D01*
X164193599Y-99614271D01*
X164244786Y-99593287D01*
X164246733Y-99592964D01*
X164266986Y-99591300D01*
X166013515Y-99591300D01*
X166063771Y-99601940D01*
G37*
%TD.AperFunction*%
%TA.AperFunction,Conductor*%
G36*
X165950130Y-92228035D02*
G01*
X166683747Y-92653528D01*
X166709214Y-92673110D01*
X166711490Y-92675386D01*
X166861813Y-92825709D01*
X167033782Y-92950650D01*
X167033790Y-92950654D01*
X167034293Y-92950963D01*
X167035774Y-92952096D01*
X167037722Y-92953512D01*
X167037686Y-92953560D01*
X167054634Y-92966534D01*
X167064915Y-92976243D01*
X167100141Y-93036583D01*
X167097152Y-93106389D01*
X167060983Y-93160107D01*
X167053827Y-93166308D01*
X167037414Y-93178323D01*
X167033790Y-93180543D01*
X166861810Y-93305492D01*
X166778229Y-93389074D01*
X166711490Y-93455813D01*
X166592822Y-93619148D01*
X166586549Y-93627782D01*
X166490045Y-93817180D01*
X166424352Y-94019359D01*
X166391100Y-94229307D01*
X166391100Y-94441891D01*
X166422071Y-94637435D01*
X166422072Y-94637443D01*
X166424353Y-94651839D01*
X166424353Y-94651841D01*
X166424354Y-94651843D01*
X166428745Y-94665359D01*
X166428749Y-94665373D01*
X166487506Y-94846207D01*
X166490042Y-94854011D01*
X166530898Y-94934195D01*
X166586551Y-95043420D01*
X166711490Y-95215386D01*
X166861813Y-95365709D01*
X167033782Y-95490650D01*
X167033790Y-95490654D01*
X167034293Y-95490963D01*
X167035774Y-95492096D01*
X167037722Y-95493512D01*
X167037686Y-95493560D01*
X167054634Y-95506534D01*
X167064915Y-95516243D01*
X167100141Y-95576583D01*
X167097152Y-95646389D01*
X167060983Y-95700107D01*
X167053827Y-95706308D01*
X167037414Y-95718323D01*
X167033790Y-95720543D01*
X166861810Y-95845492D01*
X166711492Y-95995810D01*
X166711490Y-95995813D01*
X166633333Y-96103389D01*
X166586549Y-96167782D01*
X166490045Y-96357180D01*
X166424352Y-96559359D01*
X166391100Y-96769307D01*
X166391100Y-96981891D01*
X166424352Y-97191839D01*
X166490045Y-97394018D01*
X166556559Y-97524557D01*
X166586551Y-97583420D01*
X166711490Y-97755386D01*
X166861813Y-97905709D01*
X166982619Y-97993478D01*
X167025286Y-98048808D01*
X167031265Y-98118421D01*
X166998660Y-98180216D01*
X166937822Y-98214574D01*
X166934680Y-98215262D01*
X166094706Y-98387765D01*
X166069761Y-98390300D01*
X164370957Y-98390300D01*
X164370954Y-98390299D01*
X164370953Y-98390300D01*
X164336018Y-98385276D01*
X164322700Y-98381365D01*
X164263923Y-98343589D01*
X164234901Y-98280032D01*
X164234900Y-98280027D01*
X164233906Y-98273110D01*
X164238854Y-98217082D01*
X164238749Y-98217048D01*
X164250716Y-98180216D01*
X164258246Y-98157043D01*
X164291500Y-97947087D01*
X164291500Y-97734513D01*
X164258246Y-97524557D01*
X164192557Y-97322388D01*
X164096051Y-97132984D01*
X164096049Y-97132981D01*
X164096048Y-97132979D01*
X164095702Y-97132503D01*
X164095700Y-97132499D01*
X163971112Y-96961016D01*
X163820782Y-96810686D01*
X163648824Y-96685753D01*
X163648258Y-96685406D01*
X163646627Y-96684157D01*
X163644901Y-96682903D01*
X163644932Y-96682859D01*
X163627960Y-96669862D01*
X163617683Y-96660157D01*
X163582457Y-96599817D01*
X163585445Y-96530012D01*
X163621612Y-96476295D01*
X163628783Y-96470081D01*
X163645201Y-96458066D01*
X163648810Y-96455853D01*
X163648816Y-96455851D01*
X163755591Y-96378275D01*
X163820786Y-96330909D01*
X163820788Y-96330906D01*
X163820792Y-96330904D01*
X163820794Y-96330901D01*
X163820847Y-96330863D01*
X163821605Y-96330090D01*
X163971104Y-96180592D01*
X163971106Y-96180588D01*
X163971109Y-96180586D01*
X164096048Y-96008620D01*
X164096047Y-96008620D01*
X164096051Y-96008616D01*
X164096053Y-96008610D01*
X164116445Y-95980544D01*
X164124730Y-95952329D01*
X164192557Y-95819212D01*
X164258246Y-95617043D01*
X164291500Y-95407087D01*
X164291500Y-95194513D01*
X164258246Y-94984557D01*
X164192557Y-94782388D01*
X164096051Y-94592984D01*
X164096049Y-94592981D01*
X164096048Y-94592979D01*
X164095702Y-94592503D01*
X164095700Y-94592499D01*
X163971112Y-94421016D01*
X163820782Y-94270686D01*
X163648824Y-94145753D01*
X163648258Y-94145406D01*
X163646627Y-94144157D01*
X163644901Y-94142903D01*
X163644932Y-94142859D01*
X163627960Y-94129862D01*
X163617683Y-94120157D01*
X163582457Y-94059817D01*
X163585445Y-93990012D01*
X163621612Y-93936295D01*
X163628783Y-93930081D01*
X163645194Y-93918069D01*
X163648795Y-93915861D01*
X163648816Y-93915851D01*
X163673410Y-93897983D01*
X163675380Y-93896552D01*
X163719710Y-93864344D01*
X163820786Y-93790909D01*
X163820788Y-93790906D01*
X163820792Y-93790904D01*
X163820799Y-93790896D01*
X163820851Y-93790859D01*
X163821593Y-93790103D01*
X163971104Y-93640592D01*
X163971106Y-93640588D01*
X163971109Y-93640586D01*
X164096048Y-93468620D01*
X164096047Y-93468620D01*
X164096051Y-93468616D01*
X164096053Y-93468610D01*
X164116445Y-93440544D01*
X164124730Y-93412329D01*
X164192557Y-93279212D01*
X164258246Y-93077043D01*
X164291500Y-92867087D01*
X164291500Y-92654513D01*
X164258246Y-92444557D01*
X164257269Y-92441552D01*
X164240704Y-92390569D01*
X164240703Y-92390568D01*
X164240703Y-92390567D01*
X164234686Y-92355790D01*
X164234290Y-92341921D01*
X164252053Y-92274347D01*
X164303525Y-92227107D01*
X164309812Y-92224015D01*
X164364509Y-92211300D01*
X165887919Y-92211300D01*
X165950130Y-92228035D01*
G37*
%TD.AperFunction*%
%TD*%
%TA.AperFunction,Conductor*%
%TO.N,+3.3V*%
G36*
X140902273Y-84738360D02*
G01*
X141445942Y-85310541D01*
X141449156Y-85318899D01*
X141445942Y-85326659D01*
X140902273Y-85898839D01*
X140894090Y-85902476D01*
X140887136Y-85900403D01*
X140884874Y-85898839D01*
X140718207Y-85783588D01*
X140340045Y-85522088D01*
X140335190Y-85514564D01*
X140335000Y-85512465D01*
X140335000Y-85124734D01*
X140338427Y-85116461D01*
X140340042Y-85115113D01*
X140887138Y-84736795D01*
X140895890Y-84734909D01*
X140902273Y-84738360D01*
G37*
%TD.AperFunction*%
%TD*%
%TA.AperFunction,Conductor*%
%TO.N,+3.3V*%
G36*
X140386035Y-85023239D02*
G01*
X140922745Y-85116909D01*
X140930305Y-85121707D01*
X140932433Y-85128435D01*
X140932433Y-85508764D01*
X140929006Y-85517037D01*
X140922745Y-85520290D01*
X140386036Y-85613959D01*
X140377296Y-85612005D01*
X140372498Y-85604445D01*
X140372443Y-85604097D01*
X140359937Y-85517037D01*
X140331672Y-85320263D01*
X140331672Y-85316936D01*
X140358749Y-85128435D01*
X140372443Y-85033100D01*
X140377011Y-85025401D01*
X140385688Y-85023185D01*
X140386035Y-85023239D01*
G37*
%TD.AperFunction*%
%TD*%
%TA.AperFunction,Conductor*%
%TO.N,/TFT_CS*%
G36*
X154571012Y-88974227D02*
G01*
X154574439Y-88982500D01*
X154574439Y-89129716D01*
X154571012Y-89137989D01*
X154563192Y-89141407D01*
X154560512Y-89141510D01*
X154560511Y-89141511D01*
X154554063Y-89158306D01*
X154408621Y-89537115D01*
X154402456Y-89543610D01*
X154393504Y-89543844D01*
X154393339Y-89543779D01*
X154129315Y-89437783D01*
X154122914Y-89431520D01*
X154122816Y-89431284D01*
X154016820Y-89167258D01*
X154016918Y-89158306D01*
X154023319Y-89152043D01*
X154023437Y-89151996D01*
X154419089Y-89000089D01*
X154487649Y-88971691D01*
X154492126Y-88970800D01*
X154562739Y-88970800D01*
X154571012Y-88974227D01*
G37*
%TD.AperFunction*%
%TD*%
%TA.AperFunction,Conductor*%
%TO.N,/TFT_CS*%
G36*
X167735697Y-88411207D02*
G01*
X167741588Y-88417951D01*
X167742194Y-88421246D01*
X167766674Y-89065386D01*
X167763563Y-89073783D01*
X167762883Y-89074459D01*
X167046712Y-89730196D01*
X167038296Y-89733256D01*
X167032941Y-89731688D01*
X166071710Y-89174181D01*
X166066273Y-89167066D01*
X166065880Y-89164060D01*
X166065880Y-88979200D01*
X166069307Y-88970927D01*
X166073837Y-88968115D01*
X167726763Y-88410604D01*
X167735697Y-88411207D01*
G37*
%TD.AperFunction*%
%TD*%
%TA.AperFunction,Conductor*%
%TO.N,/TFT_RST*%
G36*
X154984306Y-91518532D02*
G01*
X154985197Y-91523009D01*
X154985197Y-91705498D01*
X154985197Y-91705499D01*
X155015783Y-91692829D01*
X155024736Y-91692829D01*
X155031068Y-91699161D01*
X155031069Y-91708116D01*
X155030919Y-91708461D01*
X154840783Y-92128793D01*
X154834251Y-92134919D01*
X154825764Y-92134829D01*
X154561115Y-92028583D01*
X154554714Y-92022320D01*
X154554616Y-92022084D01*
X154448370Y-91757435D01*
X154448468Y-91748481D01*
X154454404Y-91742417D01*
X154901547Y-91540153D01*
X154901852Y-91540021D01*
X154969020Y-91512200D01*
X154977975Y-91512200D01*
X154984306Y-91518532D01*
G37*
%TD.AperFunction*%
%TD*%
%TA.AperFunction,Conductor*%
%TO.N,/TFT_RST*%
G36*
X167735697Y-90951207D02*
G01*
X167741588Y-90957951D01*
X167742194Y-90961246D01*
X167766674Y-91605386D01*
X167763563Y-91613783D01*
X167762883Y-91614459D01*
X167046712Y-92270196D01*
X167038296Y-92273256D01*
X167032941Y-92271688D01*
X166071710Y-91714181D01*
X166066273Y-91707066D01*
X166065880Y-91704060D01*
X166065880Y-91519200D01*
X166069307Y-91510927D01*
X166073837Y-91508115D01*
X167726763Y-90950604D01*
X167735697Y-90951207D01*
G37*
%TD.AperFunction*%
%TD*%
%TA.AperFunction,Conductor*%
%TO.N,/TFT_DC*%
G36*
X153700965Y-103224385D02*
G01*
X153707550Y-103230452D01*
X153708633Y-103235368D01*
X153708633Y-103419031D01*
X153705206Y-103427304D01*
X153700965Y-103430014D01*
X153236433Y-103600535D01*
X153227485Y-103600169D01*
X153221641Y-103594147D01*
X153150385Y-103427304D01*
X153109594Y-103331793D01*
X153109497Y-103322841D01*
X153109595Y-103322605D01*
X153221642Y-103060250D01*
X153228042Y-103053989D01*
X153236433Y-103053864D01*
X153700965Y-103224385D01*
G37*
%TD.AperFunction*%
%TD*%
%TA.AperFunction,Conductor*%
%TO.N,/TFT_DC*%
G36*
X168552790Y-94093090D02*
G01*
X168558404Y-94099944D01*
X168962309Y-95414884D01*
X168990709Y-95483448D01*
X168991600Y-95487925D01*
X168991600Y-95543462D01*
X168988173Y-95551735D01*
X168979900Y-95555162D01*
X168803300Y-95555162D01*
X168795027Y-95551735D01*
X168794341Y-95550080D01*
X168793891Y-95550414D01*
X168791599Y-95547313D01*
X167505944Y-95152404D01*
X167499041Y-95146699D01*
X167498165Y-95137885D01*
X167736192Y-94338067D01*
X167741836Y-94331117D01*
X167744064Y-94330193D01*
X168543885Y-94092165D01*
X168552790Y-94093090D01*
G37*
%TD.AperFunction*%
%TD*%
%TA.AperFunction,Conductor*%
%TO.N,/TFT_SCK*%
G36*
X167739676Y-98569493D02*
G01*
X167744513Y-98576145D01*
X167856383Y-98981044D01*
X167855284Y-98989931D01*
X167849814Y-98994871D01*
X167169334Y-99293937D01*
X166896328Y-99413922D01*
X166887376Y-99414114D01*
X166886879Y-99413907D01*
X166165037Y-99093884D01*
X166158863Y-99087398D01*
X166158079Y-99083188D01*
X166158079Y-98900341D01*
X166161506Y-98892068D01*
X166167423Y-98888881D01*
X167730884Y-98567800D01*
X167739676Y-98569493D01*
G37*
%TD.AperFunction*%
%TD*%
%TA.AperFunction,Conductor*%
%TO.N,/TFT_SCK*%
G36*
X158121625Y-94411062D02*
G01*
X158379805Y-94521326D01*
X158383572Y-94523903D01*
X158384942Y-94525303D01*
X158388279Y-94533313D01*
X158388302Y-94534866D01*
X158387586Y-94539071D01*
X158218617Y-94999379D01*
X158216238Y-95003276D01*
X158214240Y-95005444D01*
X158208299Y-95008908D01*
X158208222Y-95008926D01*
X158205559Y-95009233D01*
X158025495Y-95009233D01*
X158021017Y-95008342D01*
X158018294Y-95007214D01*
X158012908Y-95002697D01*
X158012860Y-95002622D01*
X158012036Y-95000956D01*
X158011962Y-95000882D01*
X158011962Y-95000806D01*
X158011747Y-95000372D01*
X157842465Y-94539217D01*
X157841759Y-94534708D01*
X157841839Y-94532751D01*
X157845380Y-94524832D01*
X157846494Y-94523751D01*
X157850047Y-94521389D01*
X157850195Y-94521326D01*
X158108270Y-94411106D01*
X158112731Y-94410168D01*
X158116906Y-94410123D01*
X158121625Y-94411062D01*
G37*
%TD.AperFunction*%
%TD*%
%TA.AperFunction,Conductor*%
%TO.N,/BOOT*%
G36*
X150452164Y-109262965D02*
G01*
X151906374Y-110005742D01*
X151912183Y-110012557D01*
X151912752Y-110016161D01*
X151912752Y-110201838D01*
X151909325Y-110210111D01*
X151906374Y-110212257D01*
X150452166Y-110955033D01*
X150443240Y-110955745D01*
X150436555Y-110950182D01*
X149984364Y-110114567D01*
X149983441Y-110105661D01*
X149984365Y-110103432D01*
X150033542Y-110012557D01*
X150436555Y-109267815D01*
X150443505Y-109262171D01*
X150452164Y-109262965D01*
G37*
%TD.AperFunction*%
%TD*%
%TA.AperFunction,Conductor*%
%TO.N,/BOOT*%
G36*
X152454600Y-110002520D02*
G01*
X152456329Y-110004628D01*
X152514955Y-110096004D01*
X152516539Y-110104818D01*
X152511426Y-110112169D01*
X152508527Y-110113511D01*
X152165639Y-110218290D01*
X152161742Y-110218791D01*
X151933515Y-110209458D01*
X151925389Y-110205696D01*
X151922293Y-110197768D01*
X151922293Y-110020484D01*
X151925720Y-110012211D01*
X151933774Y-110008786D01*
X152446265Y-109999248D01*
X152454600Y-110002520D01*
G37*
%TD.AperFunction*%
%TD*%
%TA.AperFunction,Conductor*%
%TO.N,/ESP_RST*%
G36*
X142947609Y-99559031D02*
G01*
X142953630Y-99564874D01*
X143132594Y-99951431D01*
X143161527Y-100013924D01*
X143161893Y-100022872D01*
X143159183Y-100027113D01*
X143029313Y-100156983D01*
X143021040Y-100160410D01*
X143016125Y-100159327D01*
X142567074Y-99951430D01*
X142561008Y-99944846D01*
X142561132Y-99936456D01*
X142667416Y-99671714D01*
X142673679Y-99665314D01*
X142673884Y-99665228D01*
X142938656Y-99558933D01*
X142947609Y-99559031D01*
G37*
%TD.AperFunction*%
%TD*%
%TA.AperFunction,Conductor*%
%TO.N,/ESP_RST*%
G36*
X156014445Y-109140817D02*
G01*
X156466634Y-109976432D01*
X156467558Y-109985339D01*
X156466634Y-109987568D01*
X156014445Y-110823182D01*
X156007494Y-110828828D01*
X155998833Y-110828033D01*
X154544626Y-110085257D01*
X154538817Y-110078442D01*
X154538248Y-110074838D01*
X154538248Y-109889161D01*
X154541675Y-109880888D01*
X154544624Y-109878742D01*
X155998835Y-109135965D01*
X156007759Y-109135254D01*
X156014445Y-109140817D01*
G37*
%TD.AperFunction*%
%TD*%
%TA.AperFunction,Conductor*%
%TO.N,/GPS_RX*%
G36*
X162545710Y-92021138D02*
G01*
X162943077Y-92755230D01*
X162944002Y-92764137D01*
X162943077Y-92766370D01*
X162545710Y-93500461D01*
X162538758Y-93506105D01*
X162530176Y-93505349D01*
X162064907Y-93271987D01*
X161251548Y-92864037D01*
X161245689Y-92857265D01*
X161245093Y-92853579D01*
X161245093Y-92668020D01*
X161248520Y-92659747D01*
X161251546Y-92657563D01*
X162530179Y-92016249D01*
X162539107Y-92015604D01*
X162545710Y-92021138D01*
G37*
%TD.AperFunction*%
%TD*%
%TA.AperFunction,Conductor*%
%TO.N,/GPS_RX*%
G36*
X159487709Y-92659492D02*
G01*
X159495480Y-92663942D01*
X159497923Y-92671097D01*
X159497923Y-92851811D01*
X159494496Y-92860084D01*
X159489238Y-92863116D01*
X159228680Y-92932618D01*
X159220198Y-92931657D01*
X158904474Y-92764791D01*
X158898761Y-92757896D01*
X158898423Y-92752394D01*
X158925843Y-92598762D01*
X158930670Y-92591221D01*
X158938845Y-92589214D01*
X159487709Y-92659492D01*
G37*
%TD.AperFunction*%
%TD*%
%TA.AperFunction,Conductor*%
%TO.N,/GPS_TX*%
G36*
X159430178Y-95303551D02*
G01*
X159560048Y-95433421D01*
X159563475Y-95441694D01*
X159562392Y-95446610D01*
X159354496Y-95895659D01*
X159347911Y-95901726D01*
X159339520Y-95901601D01*
X159074780Y-95795318D01*
X159068379Y-95789055D01*
X159068281Y-95788819D01*
X158961998Y-95524079D01*
X158962096Y-95515125D01*
X158967937Y-95509105D01*
X159416992Y-95301206D01*
X159425937Y-95300841D01*
X159430178Y-95303551D01*
G37*
%TD.AperFunction*%
%TD*%
%TA.AperFunction,Conductor*%
%TO.N,/GPS_TX*%
G36*
X162545710Y-94561138D02*
G01*
X162943077Y-95295230D01*
X162944002Y-95304137D01*
X162943077Y-95306370D01*
X162545710Y-96040461D01*
X162538758Y-96046105D01*
X162530176Y-96045349D01*
X162064907Y-95811987D01*
X161251548Y-95404037D01*
X161245689Y-95397265D01*
X161245093Y-95393579D01*
X161245093Y-95208020D01*
X161248520Y-95199747D01*
X161251546Y-95197563D01*
X162530179Y-94556249D01*
X162539107Y-94555604D01*
X162545710Y-94561138D01*
G37*
%TD.AperFunction*%
%TD*%
%TA.AperFunction,Conductor*%
%TO.N,/MIC_SD*%
G36*
X152556364Y-126583420D02*
G01*
X152561866Y-126589931D01*
X152966675Y-127776310D01*
X152966104Y-127785246D01*
X152963875Y-127788361D01*
X152832761Y-127919475D01*
X152824488Y-127922902D01*
X152820710Y-127922275D01*
X151634331Y-127517466D01*
X151627607Y-127511551D01*
X151626895Y-127503059D01*
X151836136Y-126799610D01*
X151841778Y-126792660D01*
X151844002Y-126791739D01*
X152547459Y-126582495D01*
X152556364Y-126583420D01*
G37*
%TD.AperFunction*%
%TD*%
%TA.AperFunction,Conductor*%
%TO.N,/MIC_SCK*%
G36*
X150056364Y-126583420D02*
G01*
X150061866Y-126589931D01*
X150466675Y-127776310D01*
X150466104Y-127785246D01*
X150463875Y-127788361D01*
X150332761Y-127919475D01*
X150324488Y-127922902D01*
X150320710Y-127922275D01*
X149134331Y-127517466D01*
X149127607Y-127511551D01*
X149126895Y-127503059D01*
X149336136Y-126799610D01*
X149341778Y-126792660D01*
X149344002Y-126791739D01*
X150047459Y-126582495D01*
X150056364Y-126583420D01*
G37*
%TD.AperFunction*%
%TD*%
%TA.AperFunction,Conductor*%
%TO.N,/PMIC_~{INT}*%
G36*
X161807560Y-121203237D02*
G01*
X162187683Y-121337003D01*
X162842799Y-121567540D01*
X162849465Y-121573519D01*
X162850130Y-121581911D01*
X162666360Y-122200079D01*
X162660718Y-122207033D01*
X162658479Y-122207960D01*
X162040311Y-122391730D01*
X162031404Y-122390803D01*
X162025940Y-122384399D01*
X161963524Y-122207033D01*
X161865512Y-121928511D01*
X161661637Y-121349160D01*
X161662124Y-121340218D01*
X161664398Y-121337006D01*
X161795404Y-121206000D01*
X161803676Y-121202574D01*
X161807560Y-121203237D01*
G37*
%TD.AperFunction*%
%TD*%
%TA.AperFunction,Conductor*%
%TO.N,/PMIC_~{INT}*%
G36*
X137521165Y-119962985D02*
G01*
X137527750Y-119969052D01*
X137528833Y-119973968D01*
X137528833Y-120157631D01*
X137525406Y-120165904D01*
X137521165Y-120168614D01*
X137056633Y-120339135D01*
X137047685Y-120338769D01*
X137041841Y-120332747D01*
X136970585Y-120165904D01*
X136929794Y-120070393D01*
X136929697Y-120061441D01*
X136929795Y-120061205D01*
X137041842Y-119798850D01*
X137048242Y-119792589D01*
X137056633Y-119792464D01*
X137521165Y-119962985D01*
G37*
%TD.AperFunction*%
%TD*%
%TA.AperFunction,Conductor*%
%TO.N,/PMIC_STAT1*%
G36*
X162064971Y-127022000D02*
G01*
X162658479Y-127198439D01*
X162665433Y-127204081D01*
X162666360Y-127206320D01*
X162850130Y-127824488D01*
X162849203Y-127833395D01*
X162842799Y-127838859D01*
X161807560Y-128203162D01*
X161798618Y-128202675D01*
X161795403Y-128200398D01*
X161664401Y-128069396D01*
X161660974Y-128061123D01*
X161661637Y-128057239D01*
X162025941Y-127021998D01*
X162031919Y-127015334D01*
X162040310Y-127014669D01*
X162064971Y-127022000D01*
G37*
%TD.AperFunction*%
%TD*%
%TA.AperFunction,Conductor*%
%TO.N,/PMIC_STAT2*%
G36*
X160654902Y-122199341D02*
G01*
X160662819Y-122203524D01*
X160665460Y-122209900D01*
X160725324Y-122849639D01*
X160722683Y-122858195D01*
X160715662Y-122862259D01*
X160024919Y-122981309D01*
X160024906Y-122981313D01*
X159956353Y-123009709D01*
X159951876Y-123010600D01*
X159648696Y-123010600D01*
X159640423Y-123007173D01*
X159636996Y-122998900D01*
X159636996Y-122823772D01*
X159640423Y-122815499D01*
X159648696Y-122812072D01*
X159650071Y-122812153D01*
X159818670Y-122832186D01*
X159883490Y-122839889D01*
X159883490Y-122839888D01*
X159883491Y-122839889D01*
X160002543Y-122149136D01*
X160007324Y-122141568D01*
X160015159Y-122139477D01*
X160654902Y-122199341D01*
G37*
%TD.AperFunction*%
%TD*%
%TA.AperFunction,Conductor*%
%TO.N,/PMIC_STAT2*%
G36*
X141656070Y-122638011D02*
G01*
X142116381Y-122806983D01*
X142120276Y-122809361D01*
X142122444Y-122811359D01*
X142125915Y-122817332D01*
X142125933Y-122817410D01*
X142126233Y-122820041D01*
X142126233Y-123000103D01*
X142125342Y-123004581D01*
X142124214Y-123007304D01*
X142119696Y-123012691D01*
X142119627Y-123012735D01*
X142117368Y-123013853D01*
X141656218Y-123183132D01*
X141651708Y-123183839D01*
X141649750Y-123183759D01*
X141641836Y-123180221D01*
X141640751Y-123179103D01*
X141638390Y-123175556D01*
X141567985Y-123010704D01*
X141528106Y-122917329D01*
X141527168Y-122912866D01*
X141527123Y-122908691D01*
X141528061Y-122903976D01*
X141638329Y-122645785D01*
X141640904Y-122642023D01*
X141642305Y-122640652D01*
X141650310Y-122637319D01*
X141651867Y-122637296D01*
X141656070Y-122638011D01*
G37*
%TD.AperFunction*%
%TD*%
%TA.AperFunction,Conductor*%
%TO.N,/PMIC_~{PG}*%
G36*
X160187685Y-126337003D02*
G01*
X160840608Y-126566768D01*
X160844536Y-126569096D01*
X160845987Y-126570398D01*
X160849837Y-126578184D01*
X160849960Y-126579740D01*
X160849511Y-126583996D01*
X160667025Y-127197847D01*
X160664896Y-127201884D01*
X160662721Y-127204565D01*
X160656969Y-127208409D01*
X160042542Y-127391067D01*
X160037996Y-127391488D01*
X160036409Y-127391323D01*
X160036057Y-127391287D01*
X160028368Y-127387242D01*
X160027354Y-127386053D01*
X160025219Y-127382345D01*
X159963526Y-127207033D01*
X159865514Y-126928511D01*
X159744278Y-126583996D01*
X159662410Y-126351352D01*
X159661765Y-126346838D01*
X159661936Y-126343694D01*
X159665345Y-126336060D01*
X159793762Y-126207643D01*
X159797552Y-126205110D01*
X159800459Y-126203906D01*
X159808818Y-126203679D01*
X160187685Y-126337003D01*
G37*
%TD.AperFunction*%
%TD*%
%TA.AperFunction,Conductor*%
%TO.N,/PMIC_~{PG}*%
G36*
X141322009Y-123714431D02*
G01*
X141328030Y-123720274D01*
X141506994Y-124106831D01*
X141535927Y-124169324D01*
X141536293Y-124178272D01*
X141533583Y-124182513D01*
X141403713Y-124312383D01*
X141395440Y-124315810D01*
X141390525Y-124314727D01*
X140941474Y-124106830D01*
X140935408Y-124100246D01*
X140935532Y-124091856D01*
X141041816Y-123827114D01*
X141048079Y-123820714D01*
X141048284Y-123820628D01*
X141313056Y-123714333D01*
X141322009Y-123714431D01*
G37*
%TD.AperFunction*%
%TD*%
M02*
