%TF.GenerationSoftware,KiCad,Pcbnew,10.0.2-10.0.2~ubuntu24.04.1*%
%TF.CreationDate,2026-05-24T09:49:08-05:00*%
%TF.ProjectId,EE327 - UI + GPS,45453332-3720-42d2-9055-49202b204750,rev?*%
%TF.SameCoordinates,Original*%
%TF.FileFunction,Soldermask,Top*%
%TF.FilePolarity,Negative*%
%FSLAX46Y46*%
G04 Gerber Fmt 4.6, Leading zero omitted, Abs format (unit mm)*
G04 Created by KiCad (PCBNEW 10.0.2-10.0.2~ubuntu24.04.1) date 2026-05-24 09:49:08*
%MOMM*%
%LPD*%
G01*
G04 APERTURE LIST*
G04 Aperture macros list*
%AMRoundRect*
0 Rectangle with rounded corners*
0 $1 Rounding radius*
0 $2 $3 $4 $5 $6 $7 $8 $9 X,Y pos of 4 corners*
0 Add a 4 corners polygon primitive as box body*
4,1,4,$2,$3,$4,$5,$6,$7,$8,$9,$2,$3,0*
0 Add four circle primitives for the rounded corners*
1,1,$1+$1,$2,$3*
1,1,$1+$1,$4,$5*
1,1,$1+$1,$6,$7*
1,1,$1+$1,$8,$9*
0 Add four rect primitives between the rounded corners*
20,1,$1+$1,$2,$3,$4,$5,0*
20,1,$1+$1,$4,$5,$6,$7,0*
20,1,$1+$1,$6,$7,$8,$9,0*
20,1,$1+$1,$8,$9,$2,$3,0*%
G04 Aperture macros list end*
%ADD10RoundRect,0.237500X-0.237500X0.287500X-0.237500X-0.287500X0.237500X-0.287500X0.237500X0.287500X0*%
%ADD11RoundRect,0.255000X-0.995000X-0.595000X0.995000X-0.595000X0.995000X0.595000X-0.995000X0.595000X0*%
%ADD12R,1.700000X1.700000*%
%ADD13C,1.700000*%
%ADD14C,1.930400*%
%ADD15RoundRect,0.250000X-0.450000X0.350000X-0.450000X-0.350000X0.450000X-0.350000X0.450000X0.350000X0*%
%ADD16RoundRect,0.250000X-0.475000X0.337500X-0.475000X-0.337500X0.475000X-0.337500X0.475000X0.337500X0*%
%ADD17RoundRect,0.250000X0.450000X-0.350000X0.450000X0.350000X-0.450000X0.350000X-0.450000X-0.350000X0*%
%ADD18RoundRect,0.250000X0.475000X-0.337500X0.475000X0.337500X-0.475000X0.337500X-0.475000X-0.337500X0*%
%ADD19R,0.900800X1.549400*%
%ADD20R,3.200400X1.549400*%
%ADD21R,1.498600X0.889000*%
%ADD22R,0.889000X1.498600*%
%ADD23R,0.889000X0.889000*%
%ADD24C,1.320800*%
%ADD25C,1.498600*%
G04 APERTURE END LIST*
D10*
%TO.C,D4*%
X146481800Y-103888600D03*
X146481800Y-105638600D03*
%TD*%
D11*
%TO.C,D1*%
X149460200Y-118457400D03*
X153460200Y-118457400D03*
%TD*%
D12*
%TO.C,J2*%
X167741600Y-84175600D03*
D13*
X167741600Y-86715600D03*
X167741600Y-89255600D03*
X167741600Y-91795600D03*
X167741600Y-94335600D03*
X167741600Y-96875600D03*
X167741600Y-99415600D03*
X167741600Y-101955600D03*
X167741600Y-104495600D03*
X167741600Y-107035600D03*
X167741600Y-109575600D03*
X167741600Y-112115600D03*
X167741600Y-114655600D03*
X167741600Y-117195600D03*
%TD*%
D14*
%TO.C,SW2*%
X149987000Y-115189000D03*
X149987000Y-110109000D03*
%TD*%
D15*
%TO.C,R1*%
X156387800Y-105035600D03*
X156387800Y-107035600D03*
%TD*%
D12*
%TO.C,J1*%
X162941000Y-85140800D03*
D13*
X162941000Y-87680800D03*
X162941000Y-90220800D03*
X162941000Y-92760800D03*
X162941000Y-95300800D03*
X162941000Y-97840800D03*
X162941000Y-100380800D03*
X162941000Y-102920800D03*
X162941000Y-105460800D03*
%TD*%
D16*
%TO.C,C5*%
X143038800Y-119485500D03*
X143038800Y-121560500D03*
%TD*%
D15*
%TO.C,R2*%
X150037800Y-105197400D03*
X150037800Y-107197400D03*
%TD*%
D17*
%TO.C,R5*%
X146456400Y-109746800D03*
X146456400Y-107746800D03*
%TD*%
D18*
%TO.C,C6*%
X143002000Y-107467400D03*
X143002000Y-105392400D03*
%TD*%
D12*
%TO.C,J4*%
X162000000Y-116920000D03*
D13*
X162000000Y-114380000D03*
X162000000Y-111840000D03*
X162000000Y-109300000D03*
%TD*%
D19*
%TO.C,U3*%
X140637200Y-116560600D03*
X142937200Y-116560600D03*
X145237200Y-116560600D03*
D20*
X142937200Y-110109000D03*
%TD*%
D21*
%TO.C,U1*%
X138599400Y-84050000D03*
X138599400Y-85320000D03*
X138599400Y-86590000D03*
X138599400Y-87860000D03*
X138599400Y-89130000D03*
X138599400Y-90400000D03*
X138599400Y-91670000D03*
X138599400Y-92940000D03*
X138599400Y-94210000D03*
X138599400Y-95480000D03*
X138599400Y-96750000D03*
X138599400Y-98020000D03*
X138599400Y-99290000D03*
X138599400Y-100560000D03*
D22*
X141634700Y-101810950D03*
X142904700Y-101810950D03*
X144174700Y-101810950D03*
X145444700Y-101810950D03*
X146714700Y-101810950D03*
X147984700Y-101810950D03*
X149254700Y-101810950D03*
X150524700Y-101810950D03*
X151794700Y-101810950D03*
X153064700Y-101810950D03*
D21*
X156100000Y-100560000D03*
X156100000Y-99290000D03*
X156100000Y-98020000D03*
X156100000Y-96750000D03*
X156100000Y-95480000D03*
X156100000Y-94210000D03*
X156100000Y-92940000D03*
X156100000Y-91670000D03*
X156100000Y-90400000D03*
X156100000Y-89130000D03*
X156100000Y-87860000D03*
X156100000Y-86590000D03*
X156100000Y-85320000D03*
X156100000Y-84050000D03*
D23*
X145848560Y-91771600D03*
X144449020Y-90372060D03*
X144449020Y-91771600D03*
X144449020Y-93171140D03*
X145848560Y-93171140D03*
X147248100Y-93171140D03*
X147248100Y-91771600D03*
X147248100Y-90372060D03*
X145848560Y-90372060D03*
%TD*%
D14*
%TO.C,SW1*%
X156464000Y-115062000D03*
X156464000Y-109982000D03*
%TD*%
D11*
%TO.C,D2*%
X149402800Y-121869200D03*
X153402800Y-121869200D03*
%TD*%
D24*
%TO.C,J5*%
X166661600Y-122203200D03*
X166661600Y-127203200D03*
X164661601Y-122203200D03*
X164661601Y-127203200D03*
X162661600Y-122203200D03*
X162661600Y-127203200D03*
X160661602Y-122203200D03*
X160661602Y-127203200D03*
%TD*%
D25*
%TO.C,J3*%
X154341200Y-126796800D03*
X151841200Y-126796800D03*
X149341200Y-126796800D03*
X146841200Y-126796800D03*
X144341200Y-126796800D03*
X141841200Y-126796800D03*
%TD*%
M02*
