%TF.GenerationSoftware,KiCad,Pcbnew,10.0.2-10.0.2~ubuntu24.04.1*%
%TF.CreationDate,2026-05-24T09:49:08-05:00*%
%TF.ProjectId,EE327 - UI + GPS,45453332-3720-42d2-9055-49202b204750,rev?*%
%TF.SameCoordinates,Original*%
%TF.FileFunction,Legend,Top*%
%TF.FilePolarity,Positive*%
%FSLAX46Y46*%
G04 Gerber Fmt 4.6, Leading zero omitted, Abs format (unit mm)*
G04 Created by KiCad (PCBNEW 10.0.2-10.0.2~ubuntu24.04.1) date 2026-05-24 09:49:08*
%MOMM*%
%LPD*%
G01*
G04 APERTURE LIST*
%ADD10C,0.160000*%
%ADD11C,0.150000*%
%ADD12C,0.100000*%
%ADD13C,0.120000*%
%ADD14C,0.152400*%
%ADD15C,0.508000*%
G04 APERTURE END LIST*
D10*
X156870680Y-113804532D02*
X156918299Y-113661675D01*
X156918299Y-113661675D02*
X156918299Y-113423580D01*
X156918299Y-113423580D02*
X156870680Y-113328342D01*
X156870680Y-113328342D02*
X156823060Y-113280723D01*
X156823060Y-113280723D02*
X156727822Y-113233104D01*
X156727822Y-113233104D02*
X156632584Y-113233104D01*
X156632584Y-113233104D02*
X156537346Y-113280723D01*
X156537346Y-113280723D02*
X156489727Y-113328342D01*
X156489727Y-113328342D02*
X156442108Y-113423580D01*
X156442108Y-113423580D02*
X156394489Y-113614056D01*
X156394489Y-113614056D02*
X156346870Y-113709294D01*
X156346870Y-113709294D02*
X156299251Y-113756913D01*
X156299251Y-113756913D02*
X156204013Y-113804532D01*
X156204013Y-113804532D02*
X156108775Y-113804532D01*
X156108775Y-113804532D02*
X156013537Y-113756913D01*
X156013537Y-113756913D02*
X155965918Y-113709294D01*
X155965918Y-113709294D02*
X155918299Y-113614056D01*
X155918299Y-113614056D02*
X155918299Y-113375961D01*
X155918299Y-113375961D02*
X155965918Y-113233104D01*
X155918299Y-112899770D02*
X156918299Y-112661675D01*
X156918299Y-112661675D02*
X156204013Y-112471199D01*
X156204013Y-112471199D02*
X156918299Y-112280723D01*
X156918299Y-112280723D02*
X155918299Y-112042628D01*
X156013537Y-111709294D02*
X155965918Y-111661675D01*
X155965918Y-111661675D02*
X155918299Y-111566437D01*
X155918299Y-111566437D02*
X155918299Y-111328342D01*
X155918299Y-111328342D02*
X155965918Y-111233104D01*
X155965918Y-111233104D02*
X156013537Y-111185485D01*
X156013537Y-111185485D02*
X156108775Y-111137866D01*
X156108775Y-111137866D02*
X156204013Y-111137866D01*
X156204013Y-111137866D02*
X156346870Y-111185485D01*
X156346870Y-111185485D02*
X156918299Y-111756913D01*
X156918299Y-111756913D02*
X156918299Y-111137866D01*
D11*
X148613019Y-105411494D02*
X147613019Y-105411494D01*
X147613019Y-105411494D02*
X147613019Y-105173399D01*
X147613019Y-105173399D02*
X147660638Y-105030542D01*
X147660638Y-105030542D02*
X147755876Y-104935304D01*
X147755876Y-104935304D02*
X147851114Y-104887685D01*
X147851114Y-104887685D02*
X148041590Y-104840066D01*
X148041590Y-104840066D02*
X148184447Y-104840066D01*
X148184447Y-104840066D02*
X148374923Y-104887685D01*
X148374923Y-104887685D02*
X148470161Y-104935304D01*
X148470161Y-104935304D02*
X148565400Y-105030542D01*
X148565400Y-105030542D02*
X148613019Y-105173399D01*
X148613019Y-105173399D02*
X148613019Y-105411494D01*
X147946352Y-103982923D02*
X148613019Y-103982923D01*
X147565400Y-104221018D02*
X148279685Y-104459113D01*
X148279685Y-104459113D02*
X148279685Y-103840066D01*
D12*
X147879019Y-119254494D02*
X146879019Y-119254494D01*
X146879019Y-119254494D02*
X146879019Y-119016399D01*
X146879019Y-119016399D02*
X146926638Y-118873542D01*
X146926638Y-118873542D02*
X147021876Y-118778304D01*
X147021876Y-118778304D02*
X147117114Y-118730685D01*
X147117114Y-118730685D02*
X147307590Y-118683066D01*
X147307590Y-118683066D02*
X147450447Y-118683066D01*
X147450447Y-118683066D02*
X147640923Y-118730685D01*
X147640923Y-118730685D02*
X147736161Y-118778304D01*
X147736161Y-118778304D02*
X147831400Y-118873542D01*
X147831400Y-118873542D02*
X147879019Y-119016399D01*
X147879019Y-119016399D02*
X147879019Y-119254494D01*
X147879019Y-117730685D02*
X147879019Y-118302113D01*
X147879019Y-118016399D02*
X146879019Y-118016399D01*
X146879019Y-118016399D02*
X147021876Y-118111637D01*
X147021876Y-118111637D02*
X147117114Y-118206875D01*
X147117114Y-118206875D02*
X147164733Y-118302113D01*
D11*
X164715866Y-84011419D02*
X164715866Y-84725704D01*
X164715866Y-84725704D02*
X164668247Y-84868561D01*
X164668247Y-84868561D02*
X164573009Y-84963800D01*
X164573009Y-84963800D02*
X164430152Y-85011419D01*
X164430152Y-85011419D02*
X164334914Y-85011419D01*
X165144438Y-84106657D02*
X165192057Y-84059038D01*
X165192057Y-84059038D02*
X165287295Y-84011419D01*
X165287295Y-84011419D02*
X165525390Y-84011419D01*
X165525390Y-84011419D02*
X165620628Y-84059038D01*
X165620628Y-84059038D02*
X165668247Y-84106657D01*
X165668247Y-84106657D02*
X165715866Y-84201895D01*
X165715866Y-84201895D02*
X165715866Y-84297133D01*
X165715866Y-84297133D02*
X165668247Y-84439990D01*
X165668247Y-84439990D02*
X165096819Y-85011419D01*
X165096819Y-85011419D02*
X165715866Y-85011419D01*
X158492619Y-106202266D02*
X158016428Y-106535599D01*
X158492619Y-106773694D02*
X157492619Y-106773694D01*
X157492619Y-106773694D02*
X157492619Y-106392742D01*
X157492619Y-106392742D02*
X157540238Y-106297504D01*
X157540238Y-106297504D02*
X157587857Y-106249885D01*
X157587857Y-106249885D02*
X157683095Y-106202266D01*
X157683095Y-106202266D02*
X157825952Y-106202266D01*
X157825952Y-106202266D02*
X157921190Y-106249885D01*
X157921190Y-106249885D02*
X157968809Y-106297504D01*
X157968809Y-106297504D02*
X158016428Y-106392742D01*
X158016428Y-106392742D02*
X158016428Y-106773694D01*
X158492619Y-105249885D02*
X158492619Y-105821313D01*
X158492619Y-105535599D02*
X157492619Y-105535599D01*
X157492619Y-105535599D02*
X157635476Y-105630837D01*
X157635476Y-105630837D02*
X157730714Y-105726075D01*
X157730714Y-105726075D02*
X157778333Y-105821313D01*
X159966066Y-84570219D02*
X159966066Y-85284504D01*
X159966066Y-85284504D02*
X159918447Y-85427361D01*
X159918447Y-85427361D02*
X159823209Y-85522600D01*
X159823209Y-85522600D02*
X159680352Y-85570219D01*
X159680352Y-85570219D02*
X159585114Y-85570219D01*
X160966066Y-85570219D02*
X160394638Y-85570219D01*
X160680352Y-85570219D02*
X160680352Y-84570219D01*
X160680352Y-84570219D02*
X160585114Y-84713076D01*
X160585114Y-84713076D02*
X160489876Y-84808314D01*
X160489876Y-84808314D02*
X160394638Y-84855933D01*
X145078380Y-120689666D02*
X145126000Y-120737285D01*
X145126000Y-120737285D02*
X145173619Y-120880142D01*
X145173619Y-120880142D02*
X145173619Y-120975380D01*
X145173619Y-120975380D02*
X145126000Y-121118237D01*
X145126000Y-121118237D02*
X145030761Y-121213475D01*
X145030761Y-121213475D02*
X144935523Y-121261094D01*
X144935523Y-121261094D02*
X144745047Y-121308713D01*
X144745047Y-121308713D02*
X144602190Y-121308713D01*
X144602190Y-121308713D02*
X144411714Y-121261094D01*
X144411714Y-121261094D02*
X144316476Y-121213475D01*
X144316476Y-121213475D02*
X144221238Y-121118237D01*
X144221238Y-121118237D02*
X144173619Y-120975380D01*
X144173619Y-120975380D02*
X144173619Y-120880142D01*
X144173619Y-120880142D02*
X144221238Y-120737285D01*
X144221238Y-120737285D02*
X144268857Y-120689666D01*
X144173619Y-119784904D02*
X144173619Y-120261094D01*
X144173619Y-120261094D02*
X144649809Y-120308713D01*
X144649809Y-120308713D02*
X144602190Y-120261094D01*
X144602190Y-120261094D02*
X144554571Y-120165856D01*
X144554571Y-120165856D02*
X144554571Y-119927761D01*
X144554571Y-119927761D02*
X144602190Y-119832523D01*
X144602190Y-119832523D02*
X144649809Y-119784904D01*
X144649809Y-119784904D02*
X144745047Y-119737285D01*
X144745047Y-119737285D02*
X144983142Y-119737285D01*
X144983142Y-119737285D02*
X145078380Y-119784904D01*
X145078380Y-119784904D02*
X145126000Y-119832523D01*
X145126000Y-119832523D02*
X145173619Y-119927761D01*
X145173619Y-119927761D02*
X145173619Y-120165856D01*
X145173619Y-120165856D02*
X145126000Y-120261094D01*
X145126000Y-120261094D02*
X145078380Y-120308713D01*
X152142619Y-106364066D02*
X151666428Y-106697399D01*
X152142619Y-106935494D02*
X151142619Y-106935494D01*
X151142619Y-106935494D02*
X151142619Y-106554542D01*
X151142619Y-106554542D02*
X151190238Y-106459304D01*
X151190238Y-106459304D02*
X151237857Y-106411685D01*
X151237857Y-106411685D02*
X151333095Y-106364066D01*
X151333095Y-106364066D02*
X151475952Y-106364066D01*
X151475952Y-106364066D02*
X151571190Y-106411685D01*
X151571190Y-106411685D02*
X151618809Y-106459304D01*
X151618809Y-106459304D02*
X151666428Y-106554542D01*
X151666428Y-106554542D02*
X151666428Y-106935494D01*
X151237857Y-105983113D02*
X151190238Y-105935494D01*
X151190238Y-105935494D02*
X151142619Y-105840256D01*
X151142619Y-105840256D02*
X151142619Y-105602161D01*
X151142619Y-105602161D02*
X151190238Y-105506923D01*
X151190238Y-105506923D02*
X151237857Y-105459304D01*
X151237857Y-105459304D02*
X151333095Y-105411685D01*
X151333095Y-105411685D02*
X151428333Y-105411685D01*
X151428333Y-105411685D02*
X151571190Y-105459304D01*
X151571190Y-105459304D02*
X152142619Y-106030732D01*
X152142619Y-106030732D02*
X152142619Y-105411685D01*
X148663819Y-108878666D02*
X148187628Y-109211999D01*
X148663819Y-109450094D02*
X147663819Y-109450094D01*
X147663819Y-109450094D02*
X147663819Y-109069142D01*
X147663819Y-109069142D02*
X147711438Y-108973904D01*
X147711438Y-108973904D02*
X147759057Y-108926285D01*
X147759057Y-108926285D02*
X147854295Y-108878666D01*
X147854295Y-108878666D02*
X147997152Y-108878666D01*
X147997152Y-108878666D02*
X148092390Y-108926285D01*
X148092390Y-108926285D02*
X148140009Y-108973904D01*
X148140009Y-108973904D02*
X148187628Y-109069142D01*
X148187628Y-109069142D02*
X148187628Y-109450094D01*
X147663819Y-107973904D02*
X147663819Y-108450094D01*
X147663819Y-108450094D02*
X148140009Y-108497713D01*
X148140009Y-108497713D02*
X148092390Y-108450094D01*
X148092390Y-108450094D02*
X148044771Y-108354856D01*
X148044771Y-108354856D02*
X148044771Y-108116761D01*
X148044771Y-108116761D02*
X148092390Y-108021523D01*
X148092390Y-108021523D02*
X148140009Y-107973904D01*
X148140009Y-107973904D02*
X148235247Y-107926285D01*
X148235247Y-107926285D02*
X148473342Y-107926285D01*
X148473342Y-107926285D02*
X148568580Y-107973904D01*
X148568580Y-107973904D02*
X148616200Y-108021523D01*
X148616200Y-108021523D02*
X148663819Y-108116761D01*
X148663819Y-108116761D02*
X148663819Y-108354856D01*
X148663819Y-108354856D02*
X148616200Y-108450094D01*
X148616200Y-108450094D02*
X148568580Y-108497713D01*
X141681580Y-106596566D02*
X141729200Y-106644185D01*
X141729200Y-106644185D02*
X141776819Y-106787042D01*
X141776819Y-106787042D02*
X141776819Y-106882280D01*
X141776819Y-106882280D02*
X141729200Y-107025137D01*
X141729200Y-107025137D02*
X141633961Y-107120375D01*
X141633961Y-107120375D02*
X141538723Y-107167994D01*
X141538723Y-107167994D02*
X141348247Y-107215613D01*
X141348247Y-107215613D02*
X141205390Y-107215613D01*
X141205390Y-107215613D02*
X141014914Y-107167994D01*
X141014914Y-107167994D02*
X140919676Y-107120375D01*
X140919676Y-107120375D02*
X140824438Y-107025137D01*
X140824438Y-107025137D02*
X140776819Y-106882280D01*
X140776819Y-106882280D02*
X140776819Y-106787042D01*
X140776819Y-106787042D02*
X140824438Y-106644185D01*
X140824438Y-106644185D02*
X140872057Y-106596566D01*
X140776819Y-105739423D02*
X140776819Y-105929899D01*
X140776819Y-105929899D02*
X140824438Y-106025137D01*
X140824438Y-106025137D02*
X140872057Y-106072756D01*
X140872057Y-106072756D02*
X141014914Y-106167994D01*
X141014914Y-106167994D02*
X141205390Y-106215613D01*
X141205390Y-106215613D02*
X141586342Y-106215613D01*
X141586342Y-106215613D02*
X141681580Y-106167994D01*
X141681580Y-106167994D02*
X141729200Y-106120375D01*
X141729200Y-106120375D02*
X141776819Y-106025137D01*
X141776819Y-106025137D02*
X141776819Y-105834661D01*
X141776819Y-105834661D02*
X141729200Y-105739423D01*
X141729200Y-105739423D02*
X141681580Y-105691804D01*
X141681580Y-105691804D02*
X141586342Y-105644185D01*
X141586342Y-105644185D02*
X141348247Y-105644185D01*
X141348247Y-105644185D02*
X141253009Y-105691804D01*
X141253009Y-105691804D02*
X141205390Y-105739423D01*
X141205390Y-105739423D02*
X141157771Y-105834661D01*
X141157771Y-105834661D02*
X141157771Y-106025137D01*
X141157771Y-106025137D02*
X141205390Y-106120375D01*
X141205390Y-106120375D02*
X141253009Y-106167994D01*
X141253009Y-106167994D02*
X141348247Y-106215613D01*
X161666666Y-118754819D02*
X161666666Y-119469104D01*
X161666666Y-119469104D02*
X161619047Y-119611961D01*
X161619047Y-119611961D02*
X161523809Y-119707200D01*
X161523809Y-119707200D02*
X161380952Y-119754819D01*
X161380952Y-119754819D02*
X161285714Y-119754819D01*
X162571428Y-119088152D02*
X162571428Y-119754819D01*
X162333333Y-118707200D02*
X162095238Y-119421485D01*
X162095238Y-119421485D02*
X162714285Y-119421485D01*
X142175295Y-112789619D02*
X142175295Y-113599142D01*
X142175295Y-113599142D02*
X142222914Y-113694380D01*
X142222914Y-113694380D02*
X142270533Y-113742000D01*
X142270533Y-113742000D02*
X142365771Y-113789619D01*
X142365771Y-113789619D02*
X142556247Y-113789619D01*
X142556247Y-113789619D02*
X142651485Y-113742000D01*
X142651485Y-113742000D02*
X142699104Y-113694380D01*
X142699104Y-113694380D02*
X142746723Y-113599142D01*
X142746723Y-113599142D02*
X142746723Y-112789619D01*
X143127676Y-112789619D02*
X143746723Y-112789619D01*
X143746723Y-112789619D02*
X143413390Y-113170571D01*
X143413390Y-113170571D02*
X143556247Y-113170571D01*
X143556247Y-113170571D02*
X143651485Y-113218190D01*
X143651485Y-113218190D02*
X143699104Y-113265809D01*
X143699104Y-113265809D02*
X143746723Y-113361047D01*
X143746723Y-113361047D02*
X143746723Y-113599142D01*
X143746723Y-113599142D02*
X143699104Y-113694380D01*
X143699104Y-113694380D02*
X143651485Y-113742000D01*
X143651485Y-113742000D02*
X143556247Y-113789619D01*
X143556247Y-113789619D02*
X143270533Y-113789619D01*
X143270533Y-113789619D02*
X143175295Y-113742000D01*
X143175295Y-113742000D02*
X143127676Y-113694380D01*
X146587795Y-88765159D02*
X146587795Y-89574682D01*
X146587795Y-89574682D02*
X146635414Y-89669920D01*
X146635414Y-89669920D02*
X146683033Y-89717540D01*
X146683033Y-89717540D02*
X146778271Y-89765159D01*
X146778271Y-89765159D02*
X146968747Y-89765159D01*
X146968747Y-89765159D02*
X147063985Y-89717540D01*
X147063985Y-89717540D02*
X147111604Y-89669920D01*
X147111604Y-89669920D02*
X147159223Y-89574682D01*
X147159223Y-89574682D02*
X147159223Y-88765159D01*
X148159223Y-89765159D02*
X147587795Y-89765159D01*
X147873509Y-89765159D02*
X147873509Y-88765159D01*
X147873509Y-88765159D02*
X147778271Y-88908016D01*
X147778271Y-88908016D02*
X147683033Y-89003254D01*
X147683033Y-89003254D02*
X147587795Y-89050873D01*
X137215100Y-83504819D02*
X137215100Y-83742914D01*
X136977005Y-83647676D02*
X137215100Y-83742914D01*
X137215100Y-83742914D02*
X137453195Y-83647676D01*
X137072243Y-83933390D02*
X137215100Y-83742914D01*
X137215100Y-83742914D02*
X137357957Y-83933390D01*
X137215100Y-83504819D02*
X137215100Y-83742914D01*
X136977005Y-83647676D02*
X137215100Y-83742914D01*
X137215100Y-83742914D02*
X137453195Y-83647676D01*
X137072243Y-83933390D02*
X137215100Y-83742914D01*
X137215100Y-83742914D02*
X137357957Y-83933390D01*
D10*
X150419080Y-113855332D02*
X150466699Y-113712475D01*
X150466699Y-113712475D02*
X150466699Y-113474380D01*
X150466699Y-113474380D02*
X150419080Y-113379142D01*
X150419080Y-113379142D02*
X150371460Y-113331523D01*
X150371460Y-113331523D02*
X150276222Y-113283904D01*
X150276222Y-113283904D02*
X150180984Y-113283904D01*
X150180984Y-113283904D02*
X150085746Y-113331523D01*
X150085746Y-113331523D02*
X150038127Y-113379142D01*
X150038127Y-113379142D02*
X149990508Y-113474380D01*
X149990508Y-113474380D02*
X149942889Y-113664856D01*
X149942889Y-113664856D02*
X149895270Y-113760094D01*
X149895270Y-113760094D02*
X149847651Y-113807713D01*
X149847651Y-113807713D02*
X149752413Y-113855332D01*
X149752413Y-113855332D02*
X149657175Y-113855332D01*
X149657175Y-113855332D02*
X149561937Y-113807713D01*
X149561937Y-113807713D02*
X149514318Y-113760094D01*
X149514318Y-113760094D02*
X149466699Y-113664856D01*
X149466699Y-113664856D02*
X149466699Y-113426761D01*
X149466699Y-113426761D02*
X149514318Y-113283904D01*
X149466699Y-112950570D02*
X150466699Y-112712475D01*
X150466699Y-112712475D02*
X149752413Y-112521999D01*
X149752413Y-112521999D02*
X150466699Y-112331523D01*
X150466699Y-112331523D02*
X149466699Y-112093428D01*
X150466699Y-111188666D02*
X150466699Y-111760094D01*
X150466699Y-111474380D02*
X149466699Y-111474380D01*
X149466699Y-111474380D02*
X149609556Y-111569618D01*
X149609556Y-111569618D02*
X149704794Y-111664856D01*
X149704794Y-111664856D02*
X149752413Y-111760094D01*
D12*
X147828219Y-122429494D02*
X146828219Y-122429494D01*
X146828219Y-122429494D02*
X146828219Y-122191399D01*
X146828219Y-122191399D02*
X146875838Y-122048542D01*
X146875838Y-122048542D02*
X146971076Y-121953304D01*
X146971076Y-121953304D02*
X147066314Y-121905685D01*
X147066314Y-121905685D02*
X147256790Y-121858066D01*
X147256790Y-121858066D02*
X147399647Y-121858066D01*
X147399647Y-121858066D02*
X147590123Y-121905685D01*
X147590123Y-121905685D02*
X147685361Y-121953304D01*
X147685361Y-121953304D02*
X147780600Y-122048542D01*
X147780600Y-122048542D02*
X147828219Y-122191399D01*
X147828219Y-122191399D02*
X147828219Y-122429494D01*
X146923457Y-121477113D02*
X146875838Y-121429494D01*
X146875838Y-121429494D02*
X146828219Y-121334256D01*
X146828219Y-121334256D02*
X146828219Y-121096161D01*
X146828219Y-121096161D02*
X146875838Y-121000923D01*
X146875838Y-121000923D02*
X146923457Y-120953304D01*
X146923457Y-120953304D02*
X147018695Y-120905685D01*
X147018695Y-120905685D02*
X147113933Y-120905685D01*
X147113933Y-120905685D02*
X147256790Y-120953304D01*
X147256790Y-120953304D02*
X147828219Y-121524732D01*
X147828219Y-121524732D02*
X147828219Y-120905685D01*
%TO.C,D4*%
D13*
X145746800Y-103103600D02*
X145746800Y-105563600D01*
X147216800Y-103103600D02*
X145746800Y-103103600D01*
X147216800Y-105563600D02*
X147216800Y-103103600D01*
%TO.C,J2*%
X166361600Y-82795600D02*
X167741600Y-82795600D01*
X166361600Y-84175600D02*
X166361600Y-82795600D01*
X166361600Y-85445600D02*
X166361600Y-118575600D01*
X166361600Y-85445600D02*
X169121600Y-85445600D01*
X166361600Y-118575600D02*
X169121600Y-118575600D01*
X169121600Y-85445600D02*
X169121600Y-118575600D01*
%TO.C,SW2*%
D10*
X148787000Y-115049000D02*
G75*
G02*
X148741938Y-110272065I1200001J2400000D01*
G01*
X151203838Y-110274311D02*
G75*
G02*
X151248900Y-115051246I-1200001J-2400000D01*
G01*
%TO.C,R1*%
D13*
X155652800Y-105808536D02*
X155652800Y-106262664D01*
X157122800Y-105808536D02*
X157122800Y-106262664D01*
%TO.C,J1*%
X161561000Y-83760800D02*
X162941000Y-83760800D01*
X161561000Y-85140800D02*
X161561000Y-83760800D01*
X161561000Y-86410800D02*
X161561000Y-106840800D01*
X161561000Y-86410800D02*
X164321000Y-86410800D01*
X161561000Y-106840800D02*
X164321000Y-106840800D01*
X164321000Y-86410800D02*
X164321000Y-106840800D01*
%TO.C,C5*%
X142303800Y-120261748D02*
X142303800Y-120784252D01*
X143773800Y-120261748D02*
X143773800Y-120784252D01*
%TO.C,R2*%
X149302800Y-105970336D02*
X149302800Y-106424464D01*
X150772800Y-105970336D02*
X150772800Y-106424464D01*
%TO.C,R5*%
X145721400Y-108973864D02*
X145721400Y-108519736D01*
X147191400Y-108973864D02*
X147191400Y-108519736D01*
%TO.C,C6*%
X142267000Y-106691152D02*
X142267000Y-106168648D01*
X143737000Y-106691152D02*
X143737000Y-106168648D01*
%TO.C,J4*%
X160620000Y-115650000D02*
X160620000Y-107920000D01*
X163380000Y-107920000D02*
X160620000Y-107920000D01*
X163380000Y-115650000D02*
X160620000Y-115650000D01*
X163380000Y-115650000D02*
X163380000Y-107920000D01*
X163380000Y-116920000D02*
X163380000Y-118300000D01*
X163380000Y-118300000D02*
X162000000Y-118300000D01*
%TO.C,U3*%
D14*
X139457400Y-111353600D02*
X139457400Y-115316000D01*
X139457400Y-115316000D02*
X146417000Y-115316000D01*
X146417000Y-111353600D02*
X139457400Y-111353600D01*
X146417000Y-115316000D02*
X146417000Y-111353600D01*
X138441400Y-116979700D02*
G75*
G02*
X138187400Y-116979700I-127000J0D01*
G01*
X138187400Y-116979700D02*
G75*
G02*
X138441400Y-116979700I127000J0D01*
G01*
%TO.C,U1*%
X138218400Y-76432540D02*
X138218400Y-83272760D01*
X138218400Y-101337240D02*
X138218400Y-102188140D01*
X138218400Y-102188140D02*
X140857460Y-102188140D01*
X153841940Y-102188140D02*
X156481000Y-102188140D01*
X156481000Y-76432540D02*
X138218400Y-76432540D01*
X156481000Y-83272760D02*
X156481000Y-76432540D01*
X156481000Y-102188140D02*
X156481000Y-101337240D01*
%TO.C,SW1*%
D10*
X155264000Y-114922000D02*
G75*
G02*
X155218938Y-110145065I1200001J2400000D01*
G01*
X157680838Y-110147311D02*
G75*
G02*
X157725900Y-114924246I-1200001J-2400000D01*
G01*
%TO.C,J5*%
D15*
X169808401Y-122203200D02*
G75*
G02*
X169046401Y-122203200I-381000J0D01*
G01*
X169046401Y-122203200D02*
G75*
G02*
X169808401Y-122203200I381000J0D01*
G01*
%TO.C,J3*%
X157933700Y-126796800D02*
G75*
G02*
X157171700Y-126796800I-381000J0D01*
G01*
X157171700Y-126796800D02*
G75*
G02*
X157933700Y-126796800I381000J0D01*
G01*
%TD*%
M02*
