%TF.GenerationSoftware,KiCad,Pcbnew,10.0.2-10.0.2~ubuntu24.04.1*%
%TF.CreationDate,2026-05-24T09:49:08-05:00*%
%TF.ProjectId,EE327 - UI + GPS,45453332-3720-42d2-9055-49202b204750,rev?*%
%TF.SameCoordinates,Original*%
%TF.FileFunction,Copper,L3,Inr*%
%TF.FilePolarity,Positive*%
%FSLAX46Y46*%
G04 Gerber Fmt 4.6, Leading zero omitted, Abs format (unit mm)*
G04 Created by KiCad (PCBNEW 10.0.2-10.0.2~ubuntu24.04.1) date 2026-05-24 09:49:08*
%MOMM*%
%LPD*%
G01*
G04 APERTURE LIST*
%TA.AperFunction,ComponentPad*%
%ADD10R,1.700000X1.700000*%
%TD*%
%TA.AperFunction,ComponentPad*%
%ADD11C,1.700000*%
%TD*%
%TA.AperFunction,ComponentPad*%
%ADD12C,1.930400*%
%TD*%
%TA.AperFunction,ComponentPad*%
%ADD13C,1.320800*%
%TD*%
%TA.AperFunction,ComponentPad*%
%ADD14C,1.498600*%
%TD*%
%TA.AperFunction,ViaPad*%
%ADD15C,0.600000*%
%TD*%
%TA.AperFunction,Conductor*%
%ADD16C,0.600000*%
%TD*%
%TA.AperFunction,Conductor*%
%ADD17C,0.500000*%
%TD*%
%TA.AperFunction,Conductor*%
%ADD18C,0.400000*%
%TD*%
G04 APERTURE END LIST*
D10*
%TO.N,+3.3V*%
%TO.C,J2*%
X167741600Y-84175600D03*
D11*
%TO.N,GND*%
X167741600Y-86715600D03*
%TO.N,/TFT_CS*%
X167741600Y-89255600D03*
%TO.N,/TFT_RST*%
X167741600Y-91795600D03*
%TO.N,/TFT_DC*%
X167741600Y-94335600D03*
%TO.N,/TFT_MOSI*%
X167741600Y-96875600D03*
%TO.N,/TFT_SCK*%
X167741600Y-99415600D03*
%TO.N,+3.3V*%
X167741600Y-101955600D03*
%TO.N,unconnected-(J2-Pin_9-Pad9)*%
X167741600Y-104495600D03*
%TO.N,unconnected-(J2-Pin_10-Pad10)*%
X167741600Y-107035600D03*
%TO.N,unconnected-(J2-Pin_11-Pad11)*%
X167741600Y-109575600D03*
%TO.N,unconnected-(J2-Pin_12-Pad12)*%
X167741600Y-112115600D03*
%TO.N,unconnected-(J2-Pin_13-Pad13)*%
X167741600Y-114655600D03*
%TO.N,unconnected-(J2-Pin_14-Pad14)*%
X167741600Y-117195600D03*
%TD*%
D12*
%TO.N,GND*%
%TO.C,SW2*%
X149987000Y-115189000D03*
%TO.N,/BOOT*%
X149987000Y-110109000D03*
%TD*%
D10*
%TO.N,unconnected-(J1-Pin_1-Pad1)*%
%TO.C,J1*%
X162941000Y-85140800D03*
D11*
%TO.N,unconnected-(J1-Pin_2-Pad2)*%
X162941000Y-87680800D03*
%TO.N,GND*%
X162941000Y-90220800D03*
%TO.N,/GPS_RX*%
X162941000Y-92760800D03*
%TO.N,/GPS_TX*%
X162941000Y-95300800D03*
%TO.N,unconnected-(J1-Pin_6-Pad6)*%
X162941000Y-97840800D03*
%TO.N,unconnected-(J1-Pin_7-Pad7)*%
X162941000Y-100380800D03*
%TO.N,unconnected-(J1-Pin_8-Pad8)*%
X162941000Y-102920800D03*
%TO.N,+3.3V*%
X162941000Y-105460800D03*
%TD*%
D10*
%TO.N,GND*%
%TO.C,J4*%
X162000000Y-116920000D03*
D11*
%TO.N,/RX0*%
X162000000Y-114380000D03*
%TO.N,/TX0*%
X162000000Y-111840000D03*
%TO.N,/USB_5V*%
X162000000Y-109300000D03*
%TD*%
D12*
%TO.N,GND*%
%TO.C,SW1*%
X156464000Y-115062000D03*
%TO.N,/ESP_RST*%
X156464000Y-109982000D03*
%TD*%
D13*
%TO.N,/Terminal_5V*%
%TO.C,J5*%
X166661600Y-122203200D03*
%TO.N,GND*%
X166661600Y-127203200D03*
%TO.N,/SDA*%
X164661601Y-122203200D03*
%TO.N,/SCL*%
X164661601Y-127203200D03*
%TO.N,/PMIC_~{INT}*%
X162661600Y-122203200D03*
%TO.N,/PMIC_STAT1*%
X162661600Y-127203200D03*
%TO.N,/PMIC_STAT2*%
X160661602Y-122203200D03*
%TO.N,/PMIC_~{PG}*%
X160661602Y-127203200D03*
%TD*%
D14*
%TO.N,+3.3V*%
%TO.C,J3*%
X154341200Y-126796800D03*
%TO.N,/MIC_SD*%
X151841200Y-126796800D03*
%TO.N,/MIC_SCK*%
X149341200Y-126796800D03*
%TO.N,/WS*%
X146841200Y-126796800D03*
%TO.N,GND*%
X144341200Y-126796800D03*
X141841200Y-126796800D03*
%TD*%
D15*
%TO.N,GND*%
X148310600Y-112623600D03*
X165201600Y-113741200D03*
X158140400Y-102895400D03*
X147015200Y-121488200D03*
X169849800Y-92735400D03*
X169722800Y-83642200D03*
X140766800Y-121386600D03*
X165252400Y-118287800D03*
X153416000Y-116205000D03*
X158140400Y-90297000D03*
X169926000Y-105308400D03*
X169849800Y-118338600D03*
X138684000Y-108026200D03*
X164058600Y-124383800D03*
X153035000Y-100076000D03*
X145186400Y-84175600D03*
X165100000Y-105206800D03*
X138607800Y-103479600D03*
X149987000Y-94894400D03*
X154355800Y-83921600D03*
X150012400Y-100126800D03*
X149352000Y-123571000D03*
X144653000Y-121539000D03*
X164820600Y-83591400D03*
X143027400Y-103632000D03*
X146227800Y-129692400D03*
X142316200Y-129667000D03*
X164007800Y-129540000D03*
X164896800Y-88138000D03*
X158267400Y-112547400D03*
X165049200Y-100660200D03*
X138734800Y-112572800D03*
X169875200Y-109220000D03*
X169875200Y-100761800D03*
X169875200Y-113766600D03*
X150774400Y-129641600D03*
X164973000Y-96113600D03*
X153111200Y-123520200D03*
X151028400Y-112572800D03*
X154635200Y-112522000D03*
X169799000Y-88188800D03*
X141020800Y-90449400D03*
X158064200Y-99314000D03*
X158394400Y-118592600D03*
X152806400Y-94970600D03*
X145186400Y-86512400D03*
X141097000Y-95173800D03*
X159461200Y-129590800D03*
X168554400Y-129463800D03*
X153390600Y-107061000D03*
X164947600Y-92684600D03*
X146608800Y-100126800D03*
X155321000Y-129565400D03*
X165125400Y-109194600D03*
X149733000Y-86461600D03*
X159486600Y-124307600D03*
X146558000Y-95021400D03*
X138811000Y-117576600D03*
X149910800Y-90347800D03*
X169799000Y-96215200D03*
X149783800Y-83870800D03*
X154279600Y-86385400D03*
X137769600Y-129743200D03*
%TO.N,/USB_5V*%
X155981400Y-118414800D03*
%TO.N,+3.3V*%
X144653000Y-106705400D03*
X158191200Y-105130600D03*
X144627600Y-108483400D03*
X140335000Y-85318600D03*
X151739600Y-105181400D03*
%TO.N,/TFT_CS*%
X154127200Y-89433400D03*
%TO.N,/TFT_RST*%
X154559000Y-92024200D03*
%TO.N,/TFT_DC*%
X153111200Y-103327200D03*
%TO.N,/TFT_SCK*%
X158115000Y-94411800D03*
%TO.N,/BOOT*%
X152452800Y-110299127D03*
%TO.N,/ESP_RST*%
X142671800Y-99669600D03*
%TO.N,/GPS_RX*%
X158927800Y-92887800D03*
%TO.N,/GPS_TX*%
X159072665Y-95790935D03*
%TO.N,/MIC_SD*%
X140950000Y-93050000D03*
%TO.N,/MIC_SCK*%
X140300000Y-94150000D03*
%TO.N,/PMIC_~{INT}*%
X136931400Y-120065800D03*
%TO.N,/PMIC_STAT1*%
X141020800Y-124866400D03*
%TO.N,/PMIC_STAT2*%
X141528800Y-122910600D03*
%TO.N,/PMIC_~{PG}*%
X141046200Y-123825000D03*
%TO.N,/Terminal_5V*%
X156235400Y-120954800D03*
%TD*%
%TO.N,/USB_5V*%
D16*
X159850000Y-114546200D02*
X155981400Y-118414800D01*
X159850000Y-111900000D02*
X159850000Y-114546200D01*
X159950000Y-111800000D02*
X159850000Y-111900000D01*
X159950000Y-111398200D02*
X159950000Y-111800000D01*
X162077400Y-109270800D02*
X159950000Y-111398200D01*
%TO.N,+3.3V*%
D17*
X144627600Y-112674400D02*
X144627600Y-108483400D01*
X147929600Y-105181400D02*
X144627600Y-108483400D01*
X158191200Y-105130600D02*
X161823400Y-105130600D01*
D18*
X144653000Y-108458000D02*
X144627600Y-108483400D01*
D17*
X162941000Y-105460800D02*
X165799200Y-102602600D01*
X162153600Y-105460800D02*
X162941000Y-105460800D01*
D18*
X144653000Y-89636600D02*
X140335000Y-85318600D01*
D17*
X165799200Y-101815200D02*
X165939600Y-101955600D01*
D18*
X144653000Y-106705400D02*
X144653000Y-108458000D01*
D17*
X154341200Y-126796800D02*
X144627600Y-117083200D01*
X165939600Y-101955600D02*
X167741600Y-101955600D01*
X165799200Y-101815200D02*
X165799200Y-86118000D01*
X165799200Y-102602600D02*
X165799200Y-101815200D01*
X165799200Y-86118000D02*
X167741600Y-84175600D01*
X161823400Y-105130600D02*
X162153600Y-105460800D01*
X151739600Y-105181400D02*
X151790400Y-105130600D01*
X151739600Y-105181400D02*
X147929600Y-105181400D01*
D18*
X144653000Y-106705400D02*
X144653000Y-89636600D01*
D17*
X144627600Y-117083200D02*
X144627600Y-112674400D01*
X151790400Y-105130600D02*
X158191200Y-105130600D01*
%TO.N,/Terminal_5V*%
D16*
X165413200Y-120954800D02*
X156235400Y-120954800D01*
X166661600Y-122203200D02*
X165413200Y-120954800D01*
%TD*%
%TA.AperFunction,Conductor*%
%TO.N,GND*%
G36*
X166276313Y-83104479D02*
G01*
X166277136Y-83104465D01*
X166284367Y-83105373D01*
X166286402Y-83105930D01*
X166289128Y-83106322D01*
X166296618Y-83108521D01*
X166296562Y-83108710D01*
X166318282Y-83114656D01*
X166318653Y-83114817D01*
X166332398Y-83126278D01*
X166348432Y-83133257D01*
X166358076Y-83147690D01*
X166372315Y-83159563D01*
X166372386Y-83159670D01*
X166372936Y-83160493D01*
X166387842Y-83191297D01*
X166389040Y-83195008D01*
X166394958Y-83228685D01*
X166394994Y-83229695D01*
X166394363Y-83247362D01*
X166391100Y-83277715D01*
X166391100Y-83670272D01*
X166378965Y-83723773D01*
X165697793Y-85148039D01*
X165673609Y-85182219D01*
X165224126Y-85631703D01*
X165224123Y-85631706D01*
X165216252Y-85639578D01*
X165216249Y-85639581D01*
X165177363Y-85697778D01*
X165177364Y-85697779D01*
X165152171Y-85735482D01*
X165152138Y-85735531D01*
X165134113Y-85762508D01*
X165077547Y-85899072D01*
X165077541Y-85899087D01*
X165077538Y-85899098D01*
X165048700Y-86044076D01*
X165048700Y-102222539D01*
X165048699Y-102222541D01*
X165048700Y-102222542D01*
X165043676Y-102257476D01*
X165036264Y-102282717D01*
X165004969Y-102335461D01*
X164508242Y-102832188D01*
X164479986Y-102853340D01*
X164468620Y-102859546D01*
X164400346Y-102874397D01*
X164334883Y-102849979D01*
X164294974Y-102798977D01*
X164291364Y-102790434D01*
X164283115Y-102761575D01*
X164274219Y-102705411D01*
X164274219Y-102705409D01*
X164260344Y-102617803D01*
X164258246Y-102604557D01*
X164192557Y-102402388D01*
X164192555Y-102402385D01*
X164192555Y-102402383D01*
X164100921Y-102222542D01*
X164096051Y-102212984D01*
X164096049Y-102212981D01*
X164096048Y-102212979D01*
X164095702Y-102212503D01*
X164095700Y-102212499D01*
X163971112Y-102041016D01*
X163820782Y-101890686D01*
X163648824Y-101765753D01*
X163648258Y-101765406D01*
X163646627Y-101764157D01*
X163644901Y-101762903D01*
X163644932Y-101762859D01*
X163627960Y-101749862D01*
X163617683Y-101740157D01*
X163582457Y-101679817D01*
X163585445Y-101610012D01*
X163621613Y-101556293D01*
X163628783Y-101550081D01*
X163645187Y-101538075D01*
X163648816Y-101535851D01*
X163648817Y-101535850D01*
X163670789Y-101519886D01*
X163820786Y-101410909D01*
X163820787Y-101410906D01*
X163820790Y-101410905D01*
X163820792Y-101410904D01*
X163820793Y-101410902D01*
X163820847Y-101410863D01*
X163821605Y-101410090D01*
X163971104Y-101260592D01*
X163971106Y-101260588D01*
X163971109Y-101260586D01*
X164096048Y-101088620D01*
X164096047Y-101088620D01*
X164096051Y-101088616D01*
X164096053Y-101088610D01*
X164116445Y-101060544D01*
X164124730Y-101032329D01*
X164192557Y-100899212D01*
X164258246Y-100697043D01*
X164291500Y-100487087D01*
X164291500Y-100274513D01*
X164258246Y-100064557D01*
X164192557Y-99862388D01*
X164096051Y-99672984D01*
X164096049Y-99672981D01*
X164096048Y-99672979D01*
X164095702Y-99672503D01*
X164095700Y-99672499D01*
X163971112Y-99501016D01*
X163820782Y-99350686D01*
X163648824Y-99225753D01*
X163648258Y-99225406D01*
X163646627Y-99224157D01*
X163644901Y-99222903D01*
X163644932Y-99222859D01*
X163627960Y-99209862D01*
X163617683Y-99200157D01*
X163582457Y-99139817D01*
X163585445Y-99070012D01*
X163621613Y-99016293D01*
X163628783Y-99010081D01*
X163645187Y-98998075D01*
X163648816Y-98995851D01*
X163648817Y-98995850D01*
X163670789Y-98979886D01*
X163820786Y-98870909D01*
X163820787Y-98870906D01*
X163820790Y-98870905D01*
X163820792Y-98870904D01*
X163820793Y-98870902D01*
X163820847Y-98870863D01*
X163821605Y-98870090D01*
X163971104Y-98720592D01*
X163971106Y-98720588D01*
X163971109Y-98720586D01*
X164096048Y-98548620D01*
X164096047Y-98548620D01*
X164096051Y-98548616D01*
X164096053Y-98548610D01*
X164116445Y-98520544D01*
X164124730Y-98492329D01*
X164192557Y-98359212D01*
X164258246Y-98157043D01*
X164291500Y-97947087D01*
X164291500Y-97734513D01*
X164258246Y-97524557D01*
X164192557Y-97322388D01*
X164096051Y-97132984D01*
X164096049Y-97132981D01*
X164096048Y-97132979D01*
X164095702Y-97132503D01*
X164095700Y-97132499D01*
X163971112Y-96961016D01*
X163820782Y-96810686D01*
X163648824Y-96685753D01*
X163648258Y-96685406D01*
X163646627Y-96684157D01*
X163644901Y-96682903D01*
X163644932Y-96682859D01*
X163627960Y-96669862D01*
X163617683Y-96660157D01*
X163582457Y-96599817D01*
X163585445Y-96530012D01*
X163621612Y-96476295D01*
X163628783Y-96470081D01*
X163645194Y-96458069D01*
X163648791Y-96455863D01*
X163648816Y-96455851D01*
X163708180Y-96412721D01*
X163820786Y-96330909D01*
X163820787Y-96330906D01*
X163820789Y-96330905D01*
X163820792Y-96330904D01*
X163820794Y-96330901D01*
X163820848Y-96330862D01*
X163821605Y-96330090D01*
X163971104Y-96180592D01*
X163971106Y-96180588D01*
X163971109Y-96180586D01*
X164096048Y-96008620D01*
X164096047Y-96008620D01*
X164096051Y-96008616D01*
X164096053Y-96008610D01*
X164116445Y-95980544D01*
X164124730Y-95952329D01*
X164192557Y-95819212D01*
X164258246Y-95617043D01*
X164291500Y-95407087D01*
X164291500Y-95194513D01*
X164258246Y-94984557D01*
X164192557Y-94782388D01*
X164096051Y-94592984D01*
X164096049Y-94592981D01*
X164096048Y-94592979D01*
X164095702Y-94592503D01*
X164095700Y-94592499D01*
X163971112Y-94421016D01*
X163820782Y-94270686D01*
X163648824Y-94145753D01*
X163648258Y-94145406D01*
X163646627Y-94144157D01*
X163644901Y-94142903D01*
X163644932Y-94142859D01*
X163627960Y-94129862D01*
X163617683Y-94120157D01*
X163582457Y-94059817D01*
X163585445Y-93990012D01*
X163621612Y-93936295D01*
X163628783Y-93930081D01*
X163645194Y-93918069D01*
X163648792Y-93915863D01*
X163648816Y-93915851D01*
X163738932Y-93850379D01*
X163742196Y-93848008D01*
X163804546Y-93802708D01*
X163820786Y-93790909D01*
X163820787Y-93790907D01*
X163820848Y-93790863D01*
X163821609Y-93790086D01*
X163971104Y-93640592D01*
X163971106Y-93640588D01*
X163971109Y-93640586D01*
X164096048Y-93468620D01*
X164096047Y-93468620D01*
X164096051Y-93468616D01*
X164096053Y-93468610D01*
X164116445Y-93440544D01*
X164124730Y-93412329D01*
X164192557Y-93279212D01*
X164258246Y-93077043D01*
X164291500Y-92867087D01*
X164291500Y-92654513D01*
X164258246Y-92444557D01*
X164192557Y-92242388D01*
X164096051Y-92052984D01*
X164096049Y-92052981D01*
X164096048Y-92052979D01*
X164095702Y-92052503D01*
X164095700Y-92052499D01*
X163971112Y-91881016D01*
X163820788Y-91730692D01*
X163820786Y-91730690D01*
X163648817Y-91605749D01*
X163648812Y-91605746D01*
X163647584Y-91604994D01*
X163627242Y-91589424D01*
X163617127Y-91579871D01*
X163581906Y-91519534D01*
X163584896Y-91449729D01*
X163621066Y-91396010D01*
X163628122Y-91389896D01*
X163644537Y-91377883D01*
X163648542Y-91375428D01*
X163648555Y-91375422D01*
X163670119Y-91359753D01*
X163696858Y-91350212D01*
X163702717Y-91336069D01*
X163197149Y-90830502D01*
X163163664Y-90769179D01*
X163168648Y-90699488D01*
X163210519Y-90643554D01*
X163222822Y-90635439D01*
X163248007Y-90620899D01*
X163341099Y-90527807D01*
X163355634Y-90502630D01*
X163406199Y-90454416D01*
X163474805Y-90441191D01*
X163539671Y-90467158D01*
X163550702Y-90476949D01*
X164056269Y-90982517D01*
X164056269Y-90982516D01*
X164056270Y-90982517D01*
X164056270Y-90982516D01*
X164069738Y-90976937D01*
X164075955Y-90955767D01*
X164079954Y-90949918D01*
X164095621Y-90928355D01*
X164102010Y-90915816D01*
X164192095Y-90739017D01*
X164257757Y-90536930D01*
X164257757Y-90536927D01*
X164266012Y-90484812D01*
X164275502Y-90424891D01*
X164291000Y-90327046D01*
X164291000Y-90114553D01*
X164276341Y-90022000D01*
X164259284Y-89914311D01*
X164259283Y-89914305D01*
X164259283Y-89914306D01*
X164257756Y-89904665D01*
X164230473Y-89820698D01*
X164192095Y-89702582D01*
X164095624Y-89513249D01*
X164056270Y-89459082D01*
X164056269Y-89459082D01*
X164056268Y-89459082D01*
X163550702Y-89964649D01*
X163489379Y-89998134D01*
X163419687Y-89993150D01*
X163363754Y-89951278D01*
X163355634Y-89938969D01*
X163349977Y-89929171D01*
X163341099Y-89913793D01*
X163248007Y-89820701D01*
X163248004Y-89820699D01*
X163248000Y-89820696D01*
X163222828Y-89806163D01*
X163174613Y-89755596D01*
X163161391Y-89686989D01*
X163187359Y-89622124D01*
X163197135Y-89611110D01*
X163702716Y-89105528D01*
X163702715Y-89105527D01*
X163668934Y-89080984D01*
X163668888Y-89080951D01*
X163648547Y-89066173D01*
X163648547Y-89066172D01*
X163647190Y-89065481D01*
X163639690Y-89060133D01*
X163636977Y-89056678D01*
X163626539Y-89049321D01*
X163617129Y-89040434D01*
X163596612Y-89005286D01*
X163596533Y-89005186D01*
X163596529Y-89005144D01*
X163581905Y-88980092D01*
X163584897Y-88910287D01*
X163621070Y-88856567D01*
X163628084Y-88850490D01*
X163645077Y-88839086D01*
X163644657Y-88838400D01*
X163648810Y-88835854D01*
X163648816Y-88835851D01*
X163784615Y-88737188D01*
X163820786Y-88710909D01*
X163820786Y-88710908D01*
X163820844Y-88710866D01*
X163821605Y-88710090D01*
X163971104Y-88560592D01*
X163971106Y-88560588D01*
X163971109Y-88560586D01*
X164096048Y-88388620D01*
X164096047Y-88388620D01*
X164096051Y-88388616D01*
X164096053Y-88388610D01*
X164116445Y-88360544D01*
X164124730Y-88332329D01*
X164192557Y-88199212D01*
X164258246Y-87997043D01*
X164291500Y-87787087D01*
X164291500Y-87574513D01*
X164258246Y-87364557D01*
X164192557Y-87162388D01*
X164096051Y-86972984D01*
X164096049Y-86972981D01*
X164096048Y-86972979D01*
X164095702Y-86972503D01*
X164095700Y-86972499D01*
X163971112Y-86801016D01*
X163870178Y-86700082D01*
X163870173Y-86700077D01*
X163849027Y-86671830D01*
X163842372Y-86659642D01*
X163827521Y-86591372D01*
X163851935Y-86525911D01*
X163854698Y-86522220D01*
X163910621Y-86480362D01*
X164033331Y-86434596D01*
X164068067Y-86408593D01*
X164071447Y-86406061D01*
X164148546Y-86348346D01*
X164234796Y-86233131D01*
X164285091Y-86098283D01*
X164291500Y-86038673D01*
X164291499Y-84242928D01*
X164285091Y-84183317D01*
X164234796Y-84048469D01*
X164234795Y-84048468D01*
X164234793Y-84048464D01*
X164234782Y-84048449D01*
X164232392Y-84044729D01*
X164232391Y-84044728D01*
X164229489Y-84041379D01*
X164148547Y-83933255D01*
X164148544Y-83933252D01*
X164148542Y-83933250D01*
X164090616Y-83889886D01*
X164033335Y-83847006D01*
X164033332Y-83847004D01*
X164033330Y-83847003D01*
X164033328Y-83847002D01*
X163898482Y-83796708D01*
X163898483Y-83796708D01*
X163838883Y-83790301D01*
X163838881Y-83790300D01*
X163838873Y-83790300D01*
X163838864Y-83790300D01*
X163837841Y-83790300D01*
X162043123Y-83790300D01*
X162041192Y-83790459D01*
X162039545Y-83790685D01*
X161983516Y-83796708D01*
X161848666Y-83847004D01*
X161848665Y-83847005D01*
X161733456Y-83933250D01*
X161733450Y-83933256D01*
X161647205Y-84048465D01*
X161647203Y-84048468D01*
X161596908Y-84183316D01*
X161590500Y-84242925D01*
X161590500Y-86038676D01*
X161590659Y-86040602D01*
X161590885Y-86042254D01*
X161596907Y-86098282D01*
X161624690Y-86172771D01*
X161647202Y-86233128D01*
X161647203Y-86233130D01*
X161647204Y-86233132D01*
X161647205Y-86233133D01*
X161733450Y-86348342D01*
X161733452Y-86348344D01*
X161733455Y-86348347D01*
X161848664Y-86434593D01*
X161848671Y-86434597D01*
X161963376Y-86477379D01*
X161991865Y-86492934D01*
X161994350Y-86494291D01*
X162005461Y-86502608D01*
X162047334Y-86558540D01*
X162052321Y-86628232D01*
X162052318Y-86628245D01*
X162051342Y-86632730D01*
X162017860Y-86694044D01*
X161910886Y-86801018D01*
X161832730Y-86908593D01*
X161786846Y-86971748D01*
X161785949Y-86972982D01*
X161689445Y-87162380D01*
X161623752Y-87364559D01*
X161590500Y-87574507D01*
X161590500Y-87787091D01*
X161614458Y-87938354D01*
X161617300Y-87956300D01*
X161623754Y-87997043D01*
X161657384Y-88100547D01*
X161657385Y-88100548D01*
X161689445Y-88199218D01*
X161779427Y-88375816D01*
X161785951Y-88388620D01*
X161910890Y-88560586D01*
X161910892Y-88560588D01*
X162061216Y-88710912D01*
X162233178Y-88835848D01*
X162234031Y-88836367D01*
X162234303Y-88836665D01*
X162234902Y-88837100D01*
X162235387Y-88837320D01*
X162236225Y-88837879D01*
X162236142Y-88838002D01*
X162237311Y-88838851D01*
X162237195Y-88839009D01*
X162254741Y-88852161D01*
X162264865Y-88861721D01*
X162278665Y-88885360D01*
X162281085Y-88888016D01*
X162281439Y-88890112D01*
X162300091Y-88922059D01*
X162297105Y-88991865D01*
X162260938Y-89045585D01*
X162253614Y-89051932D01*
X162235059Y-89065232D01*
X162233440Y-89066179D01*
X162179282Y-89105526D01*
X162179281Y-89105527D01*
X162684850Y-89611096D01*
X162718335Y-89672419D01*
X162713351Y-89742111D01*
X162671479Y-89798044D01*
X162659173Y-89806162D01*
X162633996Y-89820698D01*
X162633990Y-89820703D01*
X162540903Y-89913790D01*
X162540898Y-89913796D01*
X162526362Y-89938973D01*
X162475793Y-89987187D01*
X162407185Y-90000407D01*
X162342322Y-89974437D01*
X162331296Y-89964650D01*
X161825728Y-89459082D01*
X161825727Y-89459082D01*
X161786380Y-89513238D01*
X161689903Y-89702584D01*
X161624242Y-89904665D01*
X161622798Y-89913790D01*
X161591000Y-90114553D01*
X161591000Y-90327046D01*
X161615988Y-90484812D01*
X161622715Y-90527285D01*
X161622716Y-90527293D01*
X161624242Y-90536933D01*
X161657910Y-90640551D01*
X161689904Y-90739017D01*
X161761682Y-90879887D01*
X161786374Y-90928348D01*
X161786375Y-90928350D01*
X161821674Y-90976937D01*
X161825728Y-90982516D01*
X162331297Y-90476947D01*
X162392619Y-90443463D01*
X162462311Y-90448447D01*
X162518244Y-90490319D01*
X162526363Y-90502628D01*
X162540896Y-90527800D01*
X162540899Y-90527804D01*
X162540901Y-90527807D01*
X162633993Y-90620899D01*
X162659169Y-90635434D01*
X162707384Y-90686002D01*
X162720606Y-90754609D01*
X162694638Y-90819473D01*
X162684849Y-90830502D01*
X162179321Y-91336029D01*
X162179282Y-91336069D01*
X162179282Y-91336070D01*
X162233452Y-91375426D01*
X162233451Y-91375426D01*
X162235115Y-91376274D01*
X162242857Y-91381858D01*
X162245490Y-91385248D01*
X162255450Y-91392269D01*
X162264868Y-91401163D01*
X162300092Y-91461500D01*
X162297104Y-91531305D01*
X162260932Y-91585029D01*
X162253929Y-91591097D01*
X162236944Y-91602576D01*
X162237331Y-91603207D01*
X162233172Y-91605755D01*
X162061216Y-91730686D01*
X161910892Y-91881010D01*
X161785949Y-92052982D01*
X161689417Y-92242437D01*
X161688947Y-92243377D01*
X161687863Y-92247250D01*
X161681770Y-92266005D01*
X161681768Y-92266010D01*
X161623752Y-92444563D01*
X161590500Y-92654507D01*
X161590500Y-92867088D01*
X161590499Y-92867089D01*
X161621940Y-93065595D01*
X161623753Y-93077042D01*
X161685466Y-93266972D01*
X161685470Y-93266985D01*
X161689444Y-93279214D01*
X161785951Y-93468620D01*
X161910890Y-93640586D01*
X162061213Y-93790909D01*
X162233182Y-93915850D01*
X162233190Y-93915854D01*
X162233693Y-93916163D01*
X162235174Y-93917296D01*
X162237122Y-93918712D01*
X162237086Y-93918760D01*
X162254034Y-93931734D01*
X162264315Y-93941443D01*
X162299541Y-94001783D01*
X162296552Y-94071589D01*
X162260383Y-94125307D01*
X162253227Y-94131508D01*
X162236814Y-94143523D01*
X162233190Y-94145743D01*
X162061210Y-94270692D01*
X161910892Y-94421010D01*
X161910890Y-94421013D01*
X161832300Y-94529185D01*
X161785949Y-94592982D01*
X161689445Y-94782382D01*
X161689444Y-94782384D01*
X161689444Y-94782385D01*
X161680159Y-94810961D01*
X161623752Y-94984563D01*
X161592554Y-95181535D01*
X161592555Y-95181536D01*
X161590500Y-95194512D01*
X161590500Y-95407091D01*
X161591242Y-95411775D01*
X161600534Y-95470444D01*
X161604087Y-95492875D01*
X161621940Y-95605595D01*
X161623753Y-95617042D01*
X161629464Y-95634617D01*
X161657385Y-95720549D01*
X161674062Y-95771874D01*
X161689445Y-95819218D01*
X161779427Y-95995816D01*
X161785951Y-96008620D01*
X161910890Y-96180586D01*
X162061213Y-96330909D01*
X162233182Y-96455850D01*
X162233190Y-96455854D01*
X162233693Y-96456163D01*
X162235174Y-96457296D01*
X162237122Y-96458712D01*
X162237086Y-96458760D01*
X162254034Y-96471734D01*
X162264315Y-96481443D01*
X162299541Y-96541783D01*
X162296552Y-96611589D01*
X162260383Y-96665307D01*
X162253227Y-96671508D01*
X162236814Y-96683523D01*
X162233190Y-96685743D01*
X162061210Y-96810692D01*
X161910892Y-96961010D01*
X161785949Y-97132982D01*
X161689445Y-97322380D01*
X161623752Y-97524559D01*
X161590500Y-97734507D01*
X161590500Y-97947088D01*
X161590499Y-97947089D01*
X161621940Y-98145595D01*
X161623753Y-98157042D01*
X161629464Y-98174617D01*
X161657385Y-98260549D01*
X161674062Y-98311874D01*
X161689445Y-98359218D01*
X161779427Y-98535816D01*
X161785951Y-98548620D01*
X161910890Y-98720586D01*
X162061213Y-98870909D01*
X162233182Y-98995850D01*
X162233190Y-98995854D01*
X162233693Y-98996163D01*
X162235174Y-98997296D01*
X162237122Y-98998712D01*
X162237086Y-98998760D01*
X162254034Y-99011734D01*
X162264315Y-99021443D01*
X162299541Y-99081783D01*
X162296552Y-99151589D01*
X162260383Y-99205307D01*
X162253227Y-99211508D01*
X162236814Y-99223523D01*
X162233190Y-99225743D01*
X162061210Y-99350692D01*
X161910892Y-99501010D01*
X161785949Y-99672982D01*
X161689445Y-99862380D01*
X161623752Y-100064559D01*
X161590500Y-100274507D01*
X161590500Y-100487088D01*
X161590499Y-100487089D01*
X161621940Y-100685595D01*
X161623753Y-100697042D01*
X161644085Y-100759617D01*
X161657385Y-100800549D01*
X161661779Y-100814071D01*
X161689445Y-100899218D01*
X161779427Y-101075816D01*
X161785951Y-101088620D01*
X161910890Y-101260586D01*
X162061213Y-101410909D01*
X162233182Y-101535850D01*
X162233190Y-101535854D01*
X162233693Y-101536163D01*
X162235174Y-101537296D01*
X162237122Y-101538712D01*
X162237086Y-101538760D01*
X162254034Y-101551734D01*
X162264315Y-101561443D01*
X162299541Y-101621783D01*
X162296552Y-101691589D01*
X162260383Y-101745307D01*
X162253227Y-101751508D01*
X162236814Y-101763523D01*
X162233190Y-101765743D01*
X162061210Y-101890692D01*
X161910892Y-102041010D01*
X161785949Y-102212982D01*
X161689445Y-102402380D01*
X161623752Y-102604559D01*
X161590500Y-102814507D01*
X161590500Y-103027091D01*
X161621940Y-103225595D01*
X161623753Y-103237042D01*
X161678664Y-103406040D01*
X161689442Y-103439210D01*
X161689443Y-103439212D01*
X161779425Y-103615813D01*
X161785951Y-103628620D01*
X161910890Y-103800586D01*
X162061213Y-103950909D01*
X162233182Y-104075850D01*
X162233184Y-104075851D01*
X162233191Y-104075856D01*
X162233687Y-104076160D01*
X162242371Y-104081999D01*
X162247288Y-104085616D01*
X162250099Y-104089306D01*
X162254034Y-104091734D01*
X162256355Y-104093926D01*
X162256006Y-104094294D01*
X162264342Y-104100767D01*
X162270453Y-104107296D01*
X162283450Y-104133090D01*
X162289626Y-104141198D01*
X162290020Y-104146129D01*
X162301893Y-104169692D01*
X162297303Y-104232002D01*
X162296608Y-104234043D01*
X162256365Y-104291158D01*
X162235533Y-104304551D01*
X162233191Y-104305744D01*
X162233179Y-104305751D01*
X162138092Y-104374835D01*
X162137179Y-104375309D01*
X162136851Y-104375725D01*
X162116189Y-104386219D01*
X162105435Y-104391810D01*
X162105020Y-104391952D01*
X162090564Y-104396806D01*
X162083043Y-104399489D01*
X162082275Y-104399753D01*
X162068325Y-104400378D01*
X162017856Y-104404076D01*
X161897322Y-104380100D01*
X161897320Y-104380100D01*
X161897318Y-104380100D01*
X158852571Y-104380100D01*
X158824597Y-104376903D01*
X158820720Y-104376005D01*
X158713405Y-104366887D01*
X158284152Y-104330416D01*
X158244638Y-104328612D01*
X158244637Y-104328612D01*
X158244636Y-104328612D01*
X158243169Y-104328813D01*
X158242172Y-104328950D01*
X158225688Y-104330099D01*
X158225347Y-104330100D01*
X158112358Y-104330100D01*
X158112355Y-104330100D01*
X158110663Y-104330436D01*
X158102970Y-104330459D01*
X158102621Y-104330357D01*
X158098246Y-104330415D01*
X157561685Y-104376004D01*
X157544450Y-104378033D01*
X157534109Y-104379250D01*
X157519617Y-104380100D01*
X152363644Y-104380100D01*
X152346650Y-104378930D01*
X152319461Y-104375168D01*
X151711009Y-104378402D01*
X151679101Y-104379581D01*
X151677633Y-104379681D01*
X151675031Y-104379972D01*
X151675018Y-104379861D01*
X151675010Y-104379862D01*
X151675008Y-104379846D01*
X151665066Y-104380806D01*
X151662657Y-104380900D01*
X151660755Y-104380900D01*
X151660290Y-104380992D01*
X151655840Y-104381166D01*
X151654783Y-104380900D01*
X151654670Y-104380900D01*
X151654670Y-104380871D01*
X151654542Y-104380839D01*
X151651071Y-104380909D01*
X151651075Y-104381157D01*
X151646647Y-104381216D01*
X151646646Y-104381216D01*
X151597849Y-104385362D01*
X151110085Y-104426804D01*
X151092850Y-104428833D01*
X151082509Y-104430050D01*
X151068017Y-104430900D01*
X147855678Y-104430900D01*
X147710696Y-104459738D01*
X147710679Y-104459744D01*
X147574117Y-104516308D01*
X147574108Y-104516313D01*
X147574091Y-104516323D01*
X147451181Y-104598449D01*
X147451180Y-104598450D01*
X147451174Y-104598455D01*
X145620452Y-106429178D01*
X145559129Y-106462663D01*
X145489437Y-106457679D01*
X145433504Y-106415807D01*
X145410617Y-106362815D01*
X145404503Y-106327784D01*
X145361567Y-106081762D01*
X145355346Y-106046113D01*
X145353500Y-106024795D01*
X145353500Y-103248350D01*
X152310700Y-103248350D01*
X152310700Y-103406048D01*
X152341457Y-103560671D01*
X152341464Y-103560702D01*
X152401798Y-103706365D01*
X152401803Y-103706374D01*
X152401813Y-103706391D01*
X152489411Y-103837490D01*
X152489412Y-103837491D01*
X152489417Y-103837497D01*
X152600901Y-103948981D01*
X152600907Y-103948986D01*
X152600911Y-103948989D01*
X152732014Y-104036590D01*
X152732027Y-104036597D01*
X152846446Y-104083990D01*
X152877703Y-104096937D01*
X153027364Y-104126706D01*
X153029600Y-104127253D01*
X153032355Y-104127700D01*
X153190044Y-104127700D01*
X153194164Y-104127700D01*
X153202014Y-104125318D01*
X153344697Y-104096937D01*
X153490379Y-104036594D01*
X153621489Y-103948989D01*
X153732989Y-103837489D01*
X153820594Y-103706379D01*
X153880937Y-103560697D01*
X153911700Y-103406042D01*
X153911700Y-103248358D01*
X153911700Y-103248355D01*
X153911700Y-103248289D01*
X153911586Y-103247787D01*
X153906117Y-103220292D01*
X153880937Y-103093703D01*
X153875682Y-103081016D01*
X153820597Y-102948027D01*
X153820590Y-102948014D01*
X153732989Y-102816911D01*
X153732986Y-102816907D01*
X153732981Y-102816901D01*
X153621497Y-102705417D01*
X153621490Y-102705411D01*
X153621487Y-102705409D01*
X153490391Y-102617813D01*
X153490390Y-102617812D01*
X153490385Y-102617809D01*
X153490372Y-102617802D01*
X153490365Y-102617798D01*
X153344702Y-102557464D01*
X153344671Y-102557457D01*
X153190047Y-102526700D01*
X153190045Y-102526700D01*
X153190042Y-102526700D01*
X153032358Y-102526700D01*
X153032355Y-102526700D01*
X153032353Y-102526700D01*
X152877727Y-102557457D01*
X152877696Y-102557464D01*
X152732033Y-102617798D01*
X152732024Y-102617803D01*
X152732007Y-102617813D01*
X152600912Y-102705409D01*
X152600909Y-102705411D01*
X152600901Y-102705417D01*
X152489417Y-102816901D01*
X152489412Y-102816907D01*
X152489411Y-102816908D01*
X152401813Y-102948007D01*
X152401803Y-102948024D01*
X152401798Y-102948033D01*
X152341464Y-103093696D01*
X152341457Y-103093727D01*
X152310700Y-103248350D01*
X145353500Y-103248350D01*
X145353500Y-94490648D01*
X157314499Y-94490648D01*
X157345257Y-94645271D01*
X157345264Y-94645302D01*
X157405598Y-94790965D01*
X157405603Y-94790974D01*
X157405613Y-94790991D01*
X157493211Y-94922090D01*
X157493212Y-94922091D01*
X157493217Y-94922097D01*
X157604701Y-95033581D01*
X157604707Y-95033586D01*
X157604711Y-95033589D01*
X157735814Y-95121190D01*
X157735827Y-95121197D01*
X157851588Y-95169146D01*
X157881503Y-95181537D01*
X157980672Y-95201263D01*
X158028532Y-95210783D01*
X158031254Y-95211504D01*
X158036155Y-95212300D01*
X158036156Y-95212300D01*
X158036158Y-95212300D01*
X158193843Y-95212300D01*
X158193844Y-95212300D01*
X158231846Y-95204740D01*
X158267078Y-95202851D01*
X158278351Y-95203859D01*
X158343368Y-95229440D01*
X158384235Y-95286111D01*
X158387978Y-95355871D01*
X158386215Y-95363335D01*
X158368639Y-95403719D01*
X158363275Y-95411745D01*
X158363274Y-95411748D01*
X158363270Y-95411754D01*
X158363262Y-95411771D01*
X158302929Y-95557431D01*
X158302922Y-95557462D01*
X158272165Y-95712085D01*
X158272165Y-95712088D01*
X158272165Y-95869781D01*
X158272165Y-95869783D01*
X158272164Y-95869783D01*
X158302922Y-96024406D01*
X158302929Y-96024437D01*
X158363263Y-96170100D01*
X158363268Y-96170109D01*
X158363278Y-96170126D01*
X158450876Y-96301225D01*
X158450877Y-96301226D01*
X158450882Y-96301232D01*
X158562366Y-96412716D01*
X158562372Y-96412721D01*
X158562376Y-96412724D01*
X158693479Y-96500325D01*
X158693492Y-96500332D01*
X158839163Y-96560670D01*
X158839168Y-96560672D01*
X158982803Y-96589243D01*
X158993818Y-96591434D01*
X158993821Y-96591435D01*
X158993823Y-96591435D01*
X159151509Y-96591435D01*
X159151510Y-96591434D01*
X159306162Y-96560672D01*
X159451844Y-96500329D01*
X159582954Y-96412724D01*
X159694454Y-96301224D01*
X159782059Y-96170114D01*
X159842402Y-96024432D01*
X159873165Y-95869777D01*
X159873165Y-95712093D01*
X159873165Y-95712090D01*
X159873165Y-95711906D01*
X159872729Y-95709901D01*
X159866194Y-95677047D01*
X159842404Y-95557445D01*
X159842401Y-95557436D01*
X159814737Y-95490648D01*
X159782067Y-95411775D01*
X159782062Y-95411762D01*
X159782055Y-95411749D01*
X159694454Y-95280646D01*
X159694451Y-95280642D01*
X159694446Y-95280636D01*
X159582962Y-95169152D01*
X159582955Y-95169146D01*
X159582953Y-95169145D01*
X159451856Y-95081548D01*
X159451855Y-95081547D01*
X159451850Y-95081544D01*
X159451837Y-95081537D01*
X159451830Y-95081533D01*
X159306167Y-95021199D01*
X159306136Y-95021192D01*
X159151512Y-94990435D01*
X159151510Y-94990435D01*
X159151507Y-94990435D01*
X158993823Y-94990435D01*
X158955818Y-94997993D01*
X158955817Y-94997994D01*
X158920574Y-94999882D01*
X158909311Y-94998874D01*
X158844293Y-94973292D01*
X158803427Y-94916620D01*
X158799688Y-94846852D01*
X158801455Y-94839373D01*
X158819030Y-94799006D01*
X158824394Y-94790979D01*
X158827953Y-94782388D01*
X158878527Y-94660289D01*
X158878528Y-94660288D01*
X158881922Y-94652091D01*
X158884737Y-94645297D01*
X158915500Y-94490642D01*
X158915500Y-94332958D01*
X158915500Y-94332955D01*
X158915500Y-94332771D01*
X158915064Y-94330766D01*
X158903114Y-94270690D01*
X158903113Y-94270686D01*
X158884737Y-94178303D01*
X158884734Y-94178296D01*
X158869404Y-94141285D01*
X158835659Y-94059817D01*
X158824397Y-94032627D01*
X158824390Y-94032614D01*
X158736789Y-93901511D01*
X158736786Y-93901507D01*
X158736779Y-93901496D01*
X158734144Y-93897983D01*
X158735075Y-93897284D01*
X158731577Y-93894489D01*
X158724311Y-93882780D01*
X158717867Y-93870979D01*
X158716424Y-93864344D01*
X158715650Y-93862993D01*
X158711394Y-93850379D01*
X158710947Y-93839170D01*
X158703015Y-93802708D01*
X158708869Y-93787010D01*
X158708613Y-93780565D01*
X158715892Y-93768180D01*
X158727431Y-93737243D01*
X158739299Y-93728358D01*
X158744018Y-93720330D01*
X158762524Y-93710970D01*
X158783360Y-93695372D01*
X158784981Y-93694768D01*
X158785586Y-93694543D01*
X158796787Y-93693644D01*
X158806368Y-93688799D01*
X158828570Y-93691093D01*
X158842670Y-93689962D01*
X158842893Y-93687702D01*
X158848956Y-93688299D01*
X158848958Y-93688300D01*
X158848960Y-93688300D01*
X159006644Y-93688300D01*
X159010764Y-93688300D01*
X159018614Y-93685918D01*
X159161297Y-93657537D01*
X159306979Y-93597194D01*
X159438089Y-93509589D01*
X159549589Y-93398089D01*
X159637194Y-93266979D01*
X159697537Y-93121297D01*
X159728300Y-92966642D01*
X159728300Y-92808958D01*
X159728300Y-92808955D01*
X159728300Y-92808774D01*
X159727866Y-92806778D01*
X159725311Y-92793930D01*
X159725311Y-92793929D01*
X159706931Y-92701528D01*
X159697537Y-92654303D01*
X159650072Y-92539711D01*
X159637197Y-92508627D01*
X159637190Y-92508614D01*
X159549589Y-92377511D01*
X159549586Y-92377507D01*
X159549581Y-92377501D01*
X159438097Y-92266017D01*
X159438091Y-92266012D01*
X159438081Y-92266005D01*
X159306991Y-92178413D01*
X159306990Y-92178412D01*
X159306985Y-92178409D01*
X159306972Y-92178402D01*
X159306965Y-92178398D01*
X159161302Y-92118064D01*
X159161271Y-92118057D01*
X159006647Y-92087300D01*
X159006645Y-92087300D01*
X159006642Y-92087300D01*
X158848958Y-92087300D01*
X158848955Y-92087300D01*
X158848953Y-92087300D01*
X158694327Y-92118057D01*
X158694296Y-92118064D01*
X158548633Y-92178398D01*
X158548624Y-92178403D01*
X158548607Y-92178413D01*
X158417518Y-92266005D01*
X158417507Y-92266012D01*
X158417501Y-92266017D01*
X158306017Y-92377501D01*
X158306012Y-92377507D01*
X158306011Y-92377508D01*
X158218413Y-92508607D01*
X158218403Y-92508624D01*
X158218398Y-92508633D01*
X158158064Y-92654296D01*
X158158057Y-92654327D01*
X158127300Y-92808950D01*
X158127300Y-92808953D01*
X158127300Y-92966646D01*
X158127300Y-92966648D01*
X158127299Y-92966648D01*
X158158057Y-93121271D01*
X158158064Y-93121302D01*
X158218398Y-93266965D01*
X158218402Y-93266972D01*
X158218407Y-93266982D01*
X158218413Y-93266991D01*
X158306011Y-93398090D01*
X158306019Y-93398102D01*
X158308655Y-93401616D01*
X158307719Y-93402317D01*
X158311233Y-93405126D01*
X158318487Y-93416818D01*
X158324930Y-93428617D01*
X158326375Y-93435262D01*
X158327155Y-93436624D01*
X158331409Y-93449239D01*
X158331853Y-93460440D01*
X158339783Y-93496890D01*
X158333922Y-93512604D01*
X158334178Y-93519054D01*
X158326900Y-93531429D01*
X158315367Y-93562355D01*
X158303487Y-93571248D01*
X158298763Y-93579283D01*
X158280262Y-93588635D01*
X158259435Y-93604227D01*
X158259411Y-93604236D01*
X158257222Y-93605052D01*
X158245999Y-93605955D01*
X158236408Y-93610804D01*
X158214256Y-93608510D01*
X158200126Y-93609648D01*
X158199905Y-93611897D01*
X158193843Y-93611300D01*
X158193842Y-93611300D01*
X158036158Y-93611300D01*
X158036155Y-93611300D01*
X158036153Y-93611300D01*
X157881527Y-93642057D01*
X157881496Y-93642064D01*
X157735833Y-93702398D01*
X157735824Y-93702403D01*
X157735807Y-93702413D01*
X157604708Y-93790011D01*
X157604707Y-93790012D01*
X157604701Y-93790017D01*
X157493217Y-93901501D01*
X157493212Y-93901507D01*
X157493211Y-93901508D01*
X157405613Y-94032607D01*
X157405603Y-94032624D01*
X157405598Y-94032633D01*
X157345264Y-94178296D01*
X157345257Y-94178327D01*
X157314500Y-94332950D01*
X157314500Y-94332953D01*
X157314500Y-94490646D01*
X157314500Y-94490648D01*
X157314499Y-94490648D01*
X145353500Y-94490648D01*
X145353500Y-92103048D01*
X153758499Y-92103048D01*
X153789257Y-92257671D01*
X153789264Y-92257702D01*
X153849598Y-92403365D01*
X153849603Y-92403374D01*
X153849613Y-92403391D01*
X153937211Y-92534490D01*
X153937212Y-92534491D01*
X153937217Y-92534497D01*
X154048701Y-92645981D01*
X154048707Y-92645986D01*
X154048711Y-92645989D01*
X154179814Y-92733590D01*
X154179827Y-92733597D01*
X154179829Y-92733597D01*
X154179833Y-92733600D01*
X154320130Y-92791712D01*
X154325498Y-92793935D01*
X154325506Y-92793938D01*
X154395795Y-92807919D01*
X154480153Y-92824699D01*
X154480156Y-92824700D01*
X154480158Y-92824700D01*
X154637844Y-92824700D01*
X154637845Y-92824699D01*
X154792497Y-92793937D01*
X154938179Y-92733594D01*
X155069289Y-92645989D01*
X155180789Y-92534489D01*
X155268394Y-92403379D01*
X155328737Y-92257697D01*
X155359500Y-92103042D01*
X155359500Y-91945358D01*
X155359500Y-91945355D01*
X155359500Y-91945173D01*
X155359065Y-91943172D01*
X155329397Y-91794024D01*
X155328994Y-91791667D01*
X155328738Y-91790708D01*
X155328737Y-91790706D01*
X155328737Y-91790703D01*
X155328735Y-91790698D01*
X155268397Y-91645027D01*
X155268390Y-91645014D01*
X155180789Y-91513911D01*
X155180786Y-91513907D01*
X155180781Y-91513901D01*
X155069297Y-91402417D01*
X155069291Y-91402412D01*
X155069290Y-91402411D01*
X154938191Y-91314813D01*
X154938190Y-91314812D01*
X154938185Y-91314809D01*
X154938172Y-91314802D01*
X154938165Y-91314798D01*
X154792502Y-91254464D01*
X154792471Y-91254457D01*
X154637847Y-91223700D01*
X154637845Y-91223700D01*
X154637842Y-91223700D01*
X154480158Y-91223700D01*
X154480155Y-91223700D01*
X154480153Y-91223700D01*
X154325527Y-91254457D01*
X154325496Y-91254464D01*
X154179833Y-91314798D01*
X154179824Y-91314803D01*
X154179807Y-91314813D01*
X154048708Y-91402411D01*
X154048707Y-91402412D01*
X154048701Y-91402417D01*
X153937217Y-91513901D01*
X153937212Y-91513907D01*
X153937211Y-91513908D01*
X153849613Y-91645007D01*
X153849603Y-91645024D01*
X153849598Y-91645033D01*
X153789264Y-91790696D01*
X153789257Y-91790727D01*
X153758500Y-91945350D01*
X153758500Y-91945353D01*
X153758500Y-92103046D01*
X153758500Y-92103048D01*
X153758499Y-92103048D01*
X145353500Y-92103048D01*
X145353500Y-89567601D01*
X145342489Y-89512248D01*
X153326699Y-89512248D01*
X153357457Y-89666871D01*
X153357464Y-89666902D01*
X153417798Y-89812565D01*
X153417803Y-89812574D01*
X153417813Y-89812591D01*
X153505411Y-89943690D01*
X153505412Y-89943691D01*
X153505417Y-89943697D01*
X153616901Y-90055181D01*
X153616907Y-90055186D01*
X153616911Y-90055189D01*
X153748014Y-90142790D01*
X153748027Y-90142797D01*
X153893698Y-90203135D01*
X153893703Y-90203137D01*
X154048353Y-90233899D01*
X154048356Y-90233900D01*
X154048358Y-90233900D01*
X154206044Y-90233900D01*
X154206045Y-90233899D01*
X154360697Y-90203137D01*
X154506379Y-90142794D01*
X154637489Y-90055189D01*
X154637492Y-90055186D01*
X154670679Y-90022000D01*
X154748986Y-89943692D01*
X154748989Y-89943689D01*
X154836594Y-89812579D01*
X154896937Y-89666897D01*
X154927700Y-89512242D01*
X154927700Y-89354558D01*
X154927700Y-89354555D01*
X154927700Y-89354373D01*
X154927265Y-89352372D01*
X154905640Y-89243657D01*
X154897595Y-89203215D01*
X154897183Y-89200803D01*
X154896937Y-89199904D01*
X154892858Y-89190057D01*
X154857846Y-89105528D01*
X154836597Y-89054227D01*
X154836590Y-89054214D01*
X154748989Y-88923111D01*
X154748986Y-88923107D01*
X154748981Y-88923101D01*
X154637497Y-88811617D01*
X154637491Y-88811612D01*
X154637490Y-88811611D01*
X154506391Y-88724013D01*
X154506390Y-88724012D01*
X154506385Y-88724009D01*
X154506372Y-88724002D01*
X154506365Y-88723998D01*
X154360702Y-88663664D01*
X154360671Y-88663657D01*
X154206047Y-88632900D01*
X154206045Y-88632900D01*
X154206042Y-88632900D01*
X154048358Y-88632900D01*
X154048355Y-88632900D01*
X154048353Y-88632900D01*
X153893727Y-88663657D01*
X153893696Y-88663664D01*
X153748033Y-88723998D01*
X153748024Y-88724003D01*
X153748007Y-88724013D01*
X153616908Y-88811611D01*
X153616907Y-88811612D01*
X153616901Y-88811617D01*
X153505417Y-88923101D01*
X153505412Y-88923107D01*
X153505411Y-88923108D01*
X153417813Y-89054207D01*
X153417803Y-89054224D01*
X153417798Y-89054233D01*
X153357464Y-89199896D01*
X153357457Y-89199927D01*
X153326700Y-89354550D01*
X153326700Y-89354553D01*
X153326700Y-89512246D01*
X153326700Y-89512248D01*
X153326699Y-89512248D01*
X145342489Y-89512248D01*
X145326341Y-89431070D01*
X145324259Y-89426669D01*
X145293484Y-89352372D01*
X145273778Y-89304795D01*
X145273774Y-89304788D01*
X145232927Y-89243656D01*
X145197114Y-89190057D01*
X145197112Y-89190055D01*
X145197110Y-89190052D01*
X145197109Y-89190051D01*
X141311583Y-85304526D01*
X141297815Y-85288147D01*
X141199345Y-85148039D01*
X140993512Y-84855170D01*
X140988940Y-84848771D01*
X140988904Y-84848720D01*
X140988738Y-84848491D01*
X140988737Y-84848490D01*
X140965658Y-84820470D01*
X140961710Y-84815677D01*
X140956789Y-84808311D01*
X140956786Y-84808307D01*
X140950287Y-84801808D01*
X140949662Y-84801049D01*
X140945172Y-84796607D01*
X140945174Y-84796604D01*
X140944273Y-84795793D01*
X140845297Y-84696817D01*
X140845291Y-84696812D01*
X140845290Y-84696811D01*
X140714191Y-84609213D01*
X140714190Y-84609212D01*
X140714185Y-84609209D01*
X140714172Y-84609202D01*
X140714165Y-84609198D01*
X140568502Y-84548864D01*
X140568471Y-84548857D01*
X140413847Y-84518100D01*
X140413845Y-84518100D01*
X140413842Y-84518100D01*
X140256158Y-84518100D01*
X140256155Y-84518100D01*
X140256153Y-84518100D01*
X140101527Y-84548857D01*
X140101496Y-84548864D01*
X139955833Y-84609198D01*
X139955824Y-84609203D01*
X139955807Y-84609213D01*
X139824708Y-84696811D01*
X139824707Y-84696812D01*
X139824701Y-84696817D01*
X139713217Y-84808301D01*
X139713212Y-84808307D01*
X139713211Y-84808308D01*
X139625613Y-84939407D01*
X139625603Y-84939424D01*
X139625598Y-84939433D01*
X139565264Y-85085096D01*
X139565257Y-85085127D01*
X139534500Y-85239750D01*
X139534500Y-85239753D01*
X139534500Y-85397446D01*
X139534500Y-85397448D01*
X139534499Y-85397448D01*
X139565257Y-85552071D01*
X139565264Y-85552102D01*
X139625598Y-85697765D01*
X139625603Y-85697774D01*
X139625613Y-85697791D01*
X139713211Y-85828890D01*
X139713212Y-85828891D01*
X139713217Y-85828897D01*
X139824702Y-85940382D01*
X139824716Y-85940393D01*
X139824738Y-85940408D01*
X139843188Y-85952736D01*
X139859310Y-85965567D01*
X139871564Y-85977107D01*
X139871572Y-85977114D01*
X140304547Y-86281415D01*
X140320927Y-86295184D01*
X143903574Y-89877831D01*
X143924723Y-89906082D01*
X143937331Y-89929171D01*
X143952500Y-89988600D01*
X143952500Y-106024794D01*
X143950653Y-106046113D01*
X143859667Y-106567454D01*
X143858604Y-106573840D01*
X143858336Y-106575455D01*
X143858283Y-106575791D01*
X143858280Y-106575809D01*
X143854818Y-106611696D01*
X143854819Y-106611697D01*
X143854222Y-106617893D01*
X143852500Y-106626553D01*
X143852500Y-106635749D01*
X143852404Y-106636745D01*
X143852440Y-106643049D01*
X143852433Y-106643049D01*
X143852500Y-106644285D01*
X143852500Y-106784247D01*
X143856835Y-106806039D01*
X143859162Y-106826512D01*
X143859667Y-106843341D01*
X143859667Y-106843344D01*
X143950654Y-107364685D01*
X143952500Y-107386004D01*
X143952500Y-107794810D01*
X143949603Y-107821456D01*
X143839211Y-108323179D01*
X143834937Y-108344850D01*
X143834933Y-108344872D01*
X143834764Y-108345840D01*
X143834710Y-108346389D01*
X143831851Y-108375259D01*
X143831850Y-108375272D01*
X143830788Y-108386009D01*
X143827100Y-108404553D01*
X143827100Y-108562246D01*
X143827646Y-108564993D01*
X143827430Y-108574743D01*
X143827396Y-108574848D01*
X143827416Y-108576351D01*
X143827416Y-108576353D01*
X143837566Y-108695810D01*
X143873006Y-109112934D01*
X143876250Y-109140499D01*
X143877100Y-109154990D01*
X143877100Y-117112751D01*
X143871837Y-117130671D01*
X143905938Y-117302099D01*
X143905944Y-117302119D01*
X143962510Y-117438684D01*
X143962515Y-117438695D01*
X143962523Y-117438707D01*
X143985817Y-117473569D01*
X144007519Y-117506047D01*
X144007519Y-117506048D01*
X144007520Y-117506049D01*
X144015189Y-117517527D01*
X144044651Y-117561620D01*
X144044652Y-117561621D01*
X147929624Y-121446593D01*
X151806275Y-125323243D01*
X151806276Y-125323245D01*
X151806278Y-125323246D01*
X151827428Y-125351501D01*
X151832918Y-125361556D01*
X151847768Y-125429829D01*
X151823349Y-125495293D01*
X151767827Y-125537007D01*
X151752071Y-125542947D01*
X151727726Y-125549392D01*
X151548542Y-125577772D01*
X151548540Y-125577772D01*
X151548537Y-125577773D01*
X151361438Y-125638566D01*
X151305832Y-125666899D01*
X151186160Y-125727875D01*
X151095359Y-125793847D01*
X151038881Y-125834881D01*
X151031500Y-125839014D01*
X150883414Y-125987100D01*
X150879284Y-125994476D01*
X150861007Y-126019633D01*
X150844539Y-126042300D01*
X150823417Y-126071372D01*
X150772275Y-126141760D01*
X150709778Y-126264417D01*
X150696430Y-126283351D01*
X150689443Y-126293263D01*
X150680553Y-126302676D01*
X150620211Y-126337899D01*
X150550406Y-126334907D01*
X150496692Y-126298740D01*
X150490621Y-126291734D01*
X150473849Y-126266827D01*
X150410258Y-126142024D01*
X150410256Y-126142020D01*
X150410172Y-126141853D01*
X150410129Y-126141768D01*
X150410125Y-126141763D01*
X150410125Y-126141762D01*
X150294494Y-125982610D01*
X150155390Y-125843506D01*
X149996238Y-125727875D01*
X149820961Y-125638566D01*
X149633862Y-125577773D01*
X149621386Y-125575797D01*
X149439571Y-125547000D01*
X149439566Y-125547000D01*
X149439561Y-125547000D01*
X149242839Y-125547000D01*
X149242834Y-125547000D01*
X149242829Y-125547000D01*
X149048542Y-125577772D01*
X149048540Y-125577772D01*
X149048537Y-125577773D01*
X148861438Y-125638566D01*
X148805832Y-125666899D01*
X148686160Y-125727875D01*
X148595359Y-125793847D01*
X148538881Y-125834881D01*
X148531500Y-125839014D01*
X148383414Y-125987100D01*
X148379284Y-125994476D01*
X148361007Y-126019633D01*
X148344539Y-126042300D01*
X148323417Y-126071372D01*
X148272275Y-126141760D01*
X148209778Y-126264417D01*
X148196430Y-126283351D01*
X148189443Y-126293263D01*
X148180553Y-126302676D01*
X148120211Y-126337899D01*
X148050406Y-126334907D01*
X147996692Y-126298740D01*
X147990621Y-126291734D01*
X147973849Y-126266827D01*
X147910258Y-126142024D01*
X147910256Y-126142020D01*
X147910172Y-126141853D01*
X147910129Y-126141768D01*
X147910125Y-126141763D01*
X147910125Y-126141762D01*
X147794494Y-125982610D01*
X147655390Y-125843506D01*
X147496238Y-125727875D01*
X147320961Y-125638566D01*
X147133862Y-125577773D01*
X147121386Y-125575797D01*
X146939571Y-125547000D01*
X146939566Y-125547000D01*
X146939561Y-125547000D01*
X146742839Y-125547000D01*
X146742834Y-125547000D01*
X146742829Y-125547000D01*
X146548542Y-125577772D01*
X146548540Y-125577772D01*
X146548537Y-125577773D01*
X146361438Y-125638566D01*
X146305832Y-125666899D01*
X146186160Y-125727875D01*
X146095359Y-125793847D01*
X146038881Y-125834881D01*
X146031500Y-125839014D01*
X145883414Y-125987100D01*
X145879284Y-125994476D01*
X145861007Y-126019633D01*
X145844539Y-126042300D01*
X145823417Y-126071371D01*
X145772273Y-126141762D01*
X145772273Y-126141763D01*
X145709496Y-126264969D01*
X145698224Y-126280959D01*
X145689162Y-126293814D01*
X145680272Y-126303227D01*
X145619930Y-126338450D01*
X145550125Y-126335458D01*
X145496411Y-126299291D01*
X145490340Y-126292285D01*
X145473568Y-126267378D01*
X145409696Y-126142023D01*
X145384376Y-126107175D01*
X145384375Y-126107175D01*
X144947461Y-126544089D01*
X144886138Y-126577574D01*
X144816446Y-126572590D01*
X144760513Y-126530718D01*
X144752396Y-126518412D01*
X144737539Y-126492679D01*
X144645321Y-126400461D01*
X144619586Y-126385602D01*
X144571373Y-126335038D01*
X144558151Y-126266430D01*
X144584119Y-126201566D01*
X144593900Y-126190545D01*
X145030824Y-125753622D01*
X144995975Y-125728302D01*
X144995971Y-125728300D01*
X144995968Y-125728298D01*
X144914102Y-125686585D01*
X144820765Y-125639027D01*
X144820762Y-125639026D01*
X144820761Y-125639025D01*
X144820758Y-125639024D01*
X144820738Y-125639017D01*
X144633748Y-125578262D01*
X144633749Y-125578262D01*
X144439526Y-125547500D01*
X144439521Y-125547500D01*
X144242879Y-125547500D01*
X144242874Y-125547500D01*
X144048649Y-125578262D01*
X143861660Y-125639017D01*
X143861637Y-125639025D01*
X143861633Y-125639027D01*
X143686421Y-125728303D01*
X143651575Y-125753621D01*
X143651575Y-125753623D01*
X144088490Y-126190537D01*
X144121975Y-126251860D01*
X144116991Y-126321551D01*
X144075120Y-126377485D01*
X144062812Y-126385603D01*
X144037078Y-126400461D01*
X143944861Y-126492678D01*
X143930003Y-126518412D01*
X143879435Y-126566626D01*
X143810827Y-126579847D01*
X143745963Y-126553877D01*
X143734937Y-126544090D01*
X143576452Y-126385605D01*
X143298023Y-126107175D01*
X143298021Y-126107175D01*
X143283025Y-126127816D01*
X143272702Y-126142024D01*
X143272701Y-126142025D01*
X143255873Y-126175051D01*
X143209776Y-126265519D01*
X143189442Y-126294364D01*
X143180553Y-126303776D01*
X143120212Y-126338999D01*
X143050406Y-126336007D01*
X142996692Y-126299840D01*
X142990621Y-126292834D01*
X142973848Y-126267925D01*
X142973287Y-126266824D01*
X142909838Y-126142301D01*
X142909710Y-126142047D01*
X142909701Y-126142031D01*
X142909698Y-126142025D01*
X142884376Y-126107175D01*
X142884375Y-126107174D01*
X142884374Y-126107174D01*
X142447461Y-126544088D01*
X142386138Y-126577573D01*
X142316446Y-126572589D01*
X142260513Y-126530717D01*
X142252394Y-126518408D01*
X142240206Y-126497299D01*
X142237539Y-126492679D01*
X142145321Y-126400461D01*
X142119586Y-126385602D01*
X142071373Y-126335038D01*
X142058151Y-126266430D01*
X142084119Y-126201566D01*
X142093900Y-126190545D01*
X142530824Y-125753622D01*
X142495975Y-125728302D01*
X142495971Y-125728300D01*
X142495968Y-125728298D01*
X142414102Y-125686585D01*
X142320765Y-125639027D01*
X142320762Y-125639026D01*
X142320761Y-125639025D01*
X142320758Y-125639024D01*
X142320738Y-125639017D01*
X142133748Y-125578262D01*
X142133749Y-125578262D01*
X141939526Y-125547500D01*
X141939521Y-125547500D01*
X141778275Y-125547500D01*
X141778271Y-125547499D01*
X141778270Y-125547500D01*
X141743335Y-125542476D01*
X141730266Y-125538638D01*
X141671490Y-125500861D01*
X141642467Y-125437304D01*
X141649415Y-125375298D01*
X141652379Y-125367563D01*
X141665054Y-125343068D01*
X141727250Y-125249984D01*
X141729268Y-125247227D01*
X141730778Y-125244826D01*
X141732510Y-125239985D01*
X141790537Y-125099897D01*
X141821300Y-124945242D01*
X141821300Y-124787558D01*
X141821300Y-124787555D01*
X141821300Y-124787373D01*
X141820865Y-124785372D01*
X141791197Y-124636224D01*
X141790794Y-124633867D01*
X141790538Y-124632908D01*
X141790537Y-124632906D01*
X141790537Y-124632903D01*
X141790535Y-124632898D01*
X141730197Y-124487227D01*
X141730190Y-124487214D01*
X141704264Y-124448414D01*
X141689035Y-124416579D01*
X141684364Y-124401659D01*
X141683117Y-124331810D01*
X141685128Y-124324480D01*
X141686719Y-124318678D01*
X141703200Y-124282591D01*
X141708400Y-124274810D01*
X141755594Y-124204179D01*
X141815937Y-124058497D01*
X141846700Y-123903842D01*
X141846700Y-123770773D01*
X141847182Y-123759851D01*
X141850819Y-123718721D01*
X141876329Y-123653680D01*
X141883276Y-123644717D01*
X141915599Y-123615506D01*
X141934686Y-123603585D01*
X141944311Y-123595717D01*
X142039089Y-123532389D01*
X142150586Y-123420892D01*
X142150589Y-123420889D01*
X142238194Y-123289779D01*
X142298537Y-123144097D01*
X142329300Y-122989442D01*
X142329300Y-122831758D01*
X142329300Y-122831755D01*
X142329300Y-122831573D01*
X142328865Y-122829572D01*
X142299198Y-122680430D01*
X142298784Y-122678006D01*
X142298538Y-122677110D01*
X142298537Y-122677103D01*
X142286827Y-122648833D01*
X142286826Y-122648831D01*
X142238202Y-122531440D01*
X142238199Y-122531433D01*
X142238197Y-122531427D01*
X142238190Y-122531414D01*
X142150589Y-122400311D01*
X142150586Y-122400307D01*
X142150581Y-122400301D01*
X142039097Y-122288817D01*
X142039091Y-122288812D01*
X142039090Y-122288811D01*
X141907991Y-122201213D01*
X141907990Y-122201212D01*
X141907985Y-122201209D01*
X141907972Y-122201202D01*
X141907965Y-122201198D01*
X141762302Y-122140864D01*
X141762271Y-122140857D01*
X141607647Y-122110100D01*
X141607645Y-122110100D01*
X141607642Y-122110100D01*
X141449958Y-122110100D01*
X141449955Y-122110100D01*
X141449953Y-122110100D01*
X141295327Y-122140857D01*
X141295296Y-122140864D01*
X141149633Y-122201198D01*
X141149624Y-122201203D01*
X141149607Y-122201213D01*
X141018508Y-122288811D01*
X141018507Y-122288812D01*
X141018501Y-122288817D01*
X140907017Y-122400301D01*
X140907012Y-122400307D01*
X140907011Y-122400308D01*
X140819413Y-122531407D01*
X140819403Y-122531424D01*
X140819398Y-122531433D01*
X140759064Y-122677096D01*
X140759057Y-122677127D01*
X140728300Y-122831750D01*
X140728300Y-122966529D01*
X140727777Y-122977909D01*
X140724145Y-123017318D01*
X140698394Y-123082264D01*
X140691339Y-123091297D01*
X140659121Y-123120255D01*
X140640603Y-123131776D01*
X140630668Y-123139894D01*
X140535918Y-123203205D01*
X140535904Y-123203214D01*
X140424417Y-123314701D01*
X140424412Y-123314707D01*
X140424411Y-123314708D01*
X140336813Y-123445807D01*
X140336803Y-123445824D01*
X140336798Y-123445833D01*
X140276464Y-123591496D01*
X140276457Y-123591527D01*
X140245700Y-123746150D01*
X140245700Y-123746153D01*
X140245700Y-123903846D01*
X140245700Y-123903848D01*
X140245699Y-123903848D01*
X140276457Y-124058471D01*
X140276464Y-124058502D01*
X140336798Y-124204165D01*
X140336802Y-124204172D01*
X140336809Y-124204185D01*
X140357243Y-124234767D01*
X140362729Y-124242977D01*
X140369562Y-124257260D01*
X140377959Y-124274810D01*
X140382631Y-124289729D01*
X140383881Y-124359588D01*
X140383879Y-124359593D01*
X140380276Y-124372726D01*
X140363797Y-124408809D01*
X140311419Y-124487197D01*
X140311403Y-124487224D01*
X140311398Y-124487233D01*
X140251064Y-124632896D01*
X140251057Y-124632927D01*
X140220300Y-124787550D01*
X140220300Y-124787553D01*
X140220300Y-124945246D01*
X140220300Y-124945248D01*
X140220299Y-124945248D01*
X140251057Y-125099871D01*
X140251064Y-125099902D01*
X140311398Y-125245565D01*
X140311402Y-125245572D01*
X140311408Y-125245584D01*
X140311413Y-125245591D01*
X140399011Y-125376690D01*
X140399012Y-125376691D01*
X140399017Y-125376697D01*
X140510501Y-125488181D01*
X140510507Y-125488186D01*
X140510511Y-125488189D01*
X140641614Y-125575790D01*
X140641627Y-125575797D01*
X140787298Y-125636135D01*
X140787303Y-125636137D01*
X140941953Y-125666899D01*
X140941956Y-125666900D01*
X141008934Y-125666900D01*
X141011450Y-125667002D01*
X141014639Y-125668080D01*
X141041362Y-125671923D01*
X141056361Y-125676327D01*
X141075618Y-125688703D01*
X141077638Y-125689386D01*
X141078644Y-125690647D01*
X141115139Y-125714101D01*
X141115140Y-125714101D01*
X141135175Y-125737223D01*
X141540403Y-126142450D01*
X141588491Y-126190537D01*
X141621976Y-126251860D01*
X141616992Y-126321551D01*
X141575121Y-126377485D01*
X141562812Y-126385604D01*
X141537077Y-126400462D01*
X141444861Y-126492678D01*
X141430003Y-126518412D01*
X141379435Y-126566626D01*
X141310827Y-126579847D01*
X141245963Y-126553877D01*
X141234937Y-126544090D01*
X141076452Y-126385605D01*
X140798023Y-126107175D01*
X140798022Y-126107175D01*
X140798021Y-126107175D01*
X140786885Y-126122502D01*
X140772703Y-126142021D01*
X140683427Y-126317233D01*
X140683425Y-126317237D01*
X140683417Y-126317260D01*
X140622662Y-126504249D01*
X140591900Y-126698472D01*
X140591900Y-126895126D01*
X140622662Y-127089349D01*
X140683417Y-127276338D01*
X140683424Y-127276357D01*
X140683424Y-127276358D01*
X140683425Y-127276361D01*
X140683426Y-127276362D01*
X140683427Y-127276365D01*
X140772702Y-127451575D01*
X140774336Y-127453824D01*
X140774692Y-127454823D01*
X140775248Y-127455729D01*
X140775057Y-127455845D01*
X140783879Y-127480565D01*
X140798022Y-127486424D01*
X141234939Y-127049506D01*
X141296260Y-127016023D01*
X141365951Y-127021007D01*
X141421885Y-127062878D01*
X141429997Y-127075176D01*
X141444861Y-127100921D01*
X141537079Y-127193139D01*
X141562809Y-127207994D01*
X141611024Y-127258558D01*
X141624248Y-127327165D01*
X141598281Y-127392030D01*
X141588490Y-127403061D01*
X141151575Y-127839975D01*
X141151574Y-127839976D01*
X141151575Y-127839976D01*
X141151575Y-127839977D01*
X141186423Y-127865296D01*
X141361634Y-127954572D01*
X141361637Y-127954573D01*
X141361639Y-127954573D01*
X141361640Y-127954574D01*
X141361660Y-127954581D01*
X141548650Y-128015336D01*
X141548653Y-128015337D01*
X141742879Y-128046100D01*
X141939520Y-128046100D01*
X141939521Y-128046100D01*
X142133746Y-128015337D01*
X142320762Y-127954573D01*
X142320775Y-127954567D01*
X142495969Y-127865300D01*
X142495974Y-127865297D01*
X142530824Y-127839976D01*
X142093909Y-127403061D01*
X142060424Y-127341738D01*
X142065408Y-127272046D01*
X142107280Y-127216113D01*
X142119568Y-127208007D01*
X142145321Y-127193139D01*
X142237539Y-127100921D01*
X142252395Y-127075188D01*
X142302960Y-127026975D01*
X142371567Y-127013751D01*
X142436432Y-127039719D01*
X142447462Y-127049509D01*
X142884375Y-127486422D01*
X142884376Y-127486423D01*
X142909695Y-127451576D01*
X142972623Y-127328074D01*
X142992950Y-127299240D01*
X143001848Y-127289818D01*
X143062188Y-127254598D01*
X143131993Y-127257590D01*
X143185707Y-127293758D01*
X143191777Y-127300763D01*
X143208549Y-127325671D01*
X143241750Y-127390830D01*
X143272700Y-127451572D01*
X143273543Y-127452732D01*
X143274337Y-127453825D01*
X143274693Y-127454825D01*
X143275246Y-127455726D01*
X143275056Y-127455841D01*
X143283879Y-127480565D01*
X143298022Y-127486424D01*
X143734939Y-127049506D01*
X143796260Y-127016023D01*
X143865951Y-127021007D01*
X143921885Y-127062878D01*
X143929997Y-127075176D01*
X143944861Y-127100921D01*
X144037079Y-127193139D01*
X144062809Y-127207994D01*
X144111024Y-127258558D01*
X144124248Y-127327165D01*
X144098281Y-127392030D01*
X144088490Y-127403061D01*
X143651575Y-127839975D01*
X143651575Y-127839976D01*
X143651575Y-127839977D01*
X143686423Y-127865296D01*
X143861634Y-127954572D01*
X143861637Y-127954573D01*
X143861639Y-127954573D01*
X143861640Y-127954574D01*
X143861660Y-127954581D01*
X144048650Y-128015336D01*
X144048653Y-128015337D01*
X144242879Y-128046100D01*
X144439520Y-128046100D01*
X144439521Y-128046100D01*
X144633746Y-128015337D01*
X144820762Y-127954573D01*
X144820775Y-127954567D01*
X144995969Y-127865300D01*
X144995974Y-127865297D01*
X145030824Y-127839976D01*
X144593909Y-127403061D01*
X144560424Y-127341738D01*
X144565408Y-127272046D01*
X144607280Y-127216113D01*
X144619568Y-127208007D01*
X144645321Y-127193139D01*
X144737539Y-127100921D01*
X144752395Y-127075188D01*
X144802960Y-127026975D01*
X144871567Y-127013751D01*
X144936432Y-127039719D01*
X144947461Y-127049508D01*
X145384376Y-127486423D01*
X145409695Y-127451576D01*
X145472346Y-127328618D01*
X145492672Y-127299788D01*
X145501573Y-127290363D01*
X145561915Y-127255146D01*
X145631721Y-127258142D01*
X145685424Y-127294304D01*
X145691494Y-127301309D01*
X145708268Y-127326218D01*
X145772275Y-127451838D01*
X145887906Y-127610990D01*
X146027010Y-127750094D01*
X146186162Y-127865725D01*
X146248071Y-127897269D01*
X146354994Y-127951750D01*
X146356589Y-127952683D01*
X146360294Y-127954478D01*
X146362297Y-127955473D01*
X146366057Y-127956534D01*
X146461730Y-127987620D01*
X146548537Y-128015826D01*
X146742834Y-128046600D01*
X146742839Y-128046600D01*
X146939565Y-128046600D01*
X146939566Y-128046600D01*
X147133862Y-128015826D01*
X147135367Y-128015337D01*
X147320957Y-127955035D01*
X147496238Y-127865725D01*
X147655390Y-127750094D01*
X147794494Y-127610990D01*
X147910125Y-127451838D01*
X147972620Y-127329181D01*
X147992955Y-127300336D01*
X148001847Y-127290920D01*
X148062188Y-127255699D01*
X148131994Y-127258691D01*
X148185715Y-127294867D01*
X148191784Y-127301872D01*
X148208549Y-127326772D01*
X148272143Y-127451579D01*
X148272275Y-127451838D01*
X148387906Y-127610990D01*
X148527010Y-127750094D01*
X148686162Y-127865725D01*
X148748071Y-127897269D01*
X148854994Y-127951750D01*
X148856589Y-127952683D01*
X148860294Y-127954478D01*
X148862297Y-127955473D01*
X148866057Y-127956534D01*
X148961730Y-127987620D01*
X149048537Y-128015826D01*
X149242834Y-128046600D01*
X149242839Y-128046600D01*
X149439565Y-128046600D01*
X149439566Y-128046600D01*
X149633862Y-128015826D01*
X149635367Y-128015337D01*
X149820957Y-127955035D01*
X149996238Y-127865725D01*
X150155390Y-127750094D01*
X150294494Y-127610990D01*
X150410125Y-127451838D01*
X150472620Y-127329181D01*
X150492955Y-127300336D01*
X150501847Y-127290920D01*
X150562188Y-127255699D01*
X150631994Y-127258691D01*
X150685715Y-127294867D01*
X150691784Y-127301872D01*
X150708549Y-127326772D01*
X150772143Y-127451579D01*
X150772275Y-127451838D01*
X150887906Y-127610990D01*
X151027010Y-127750094D01*
X151186162Y-127865725D01*
X151248071Y-127897269D01*
X151354994Y-127951750D01*
X151356589Y-127952683D01*
X151360294Y-127954478D01*
X151362297Y-127955473D01*
X151366057Y-127956534D01*
X151461730Y-127987620D01*
X151548537Y-128015826D01*
X151742834Y-128046600D01*
X151742839Y-128046600D01*
X151939565Y-128046600D01*
X151939566Y-128046600D01*
X152133862Y-128015826D01*
X152135367Y-128015337D01*
X152320957Y-127955035D01*
X152496238Y-127865725D01*
X152655390Y-127750094D01*
X152794494Y-127610990D01*
X152910125Y-127451838D01*
X152972620Y-127329181D01*
X152992951Y-127300340D01*
X153001363Y-127291434D01*
X153061701Y-127256212D01*
X153131507Y-127259202D01*
X153188614Y-127299457D01*
X153203966Y-127324325D01*
X153206223Y-127329183D01*
X153216767Y-127351879D01*
X153222034Y-127362865D01*
X153222289Y-127363381D01*
X153222294Y-127363390D01*
X153259280Y-127427154D01*
X153259056Y-127427283D01*
X153263204Y-127434036D01*
X153272275Y-127451838D01*
X153387906Y-127610990D01*
X153527010Y-127750094D01*
X153686162Y-127865725D01*
X153748071Y-127897269D01*
X153854994Y-127951750D01*
X153856589Y-127952683D01*
X153860294Y-127954478D01*
X153862297Y-127955473D01*
X153866057Y-127956534D01*
X153961730Y-127987620D01*
X154048537Y-128015826D01*
X154242834Y-128046600D01*
X154242839Y-128046600D01*
X154439565Y-128046600D01*
X154439566Y-128046600D01*
X154633862Y-128015826D01*
X154635367Y-128015337D01*
X154820957Y-127955035D01*
X154996238Y-127865725D01*
X155155390Y-127750094D01*
X155294494Y-127610990D01*
X155410125Y-127451838D01*
X155499435Y-127276557D01*
X155552959Y-127111829D01*
X159500702Y-127111829D01*
X159500702Y-127294570D01*
X159511519Y-127362865D01*
X159529267Y-127474922D01*
X159529286Y-127475043D01*
X159585755Y-127648835D01*
X159668575Y-127811378D01*
X159668711Y-127811644D01*
X159776117Y-127959476D01*
X159905326Y-128088685D01*
X160053158Y-128196091D01*
X160130080Y-128235284D01*
X160215966Y-128279046D01*
X160215968Y-128279046D01*
X160215971Y-128279048D01*
X160316353Y-128311664D01*
X160389750Y-128335513D01*
X160389751Y-128335513D01*
X160389757Y-128335515D01*
X160457437Y-128346234D01*
X160570232Y-128364100D01*
X160570237Y-128364100D01*
X160752970Y-128364100D01*
X160752972Y-128364100D01*
X160853233Y-128348219D01*
X160853234Y-128348219D01*
X160879971Y-128343984D01*
X160933447Y-128335515D01*
X161107233Y-128279048D01*
X161270046Y-128196091D01*
X161417878Y-128088685D01*
X161547087Y-127959476D01*
X161550808Y-127954352D01*
X161575391Y-127929056D01*
X161586394Y-127920571D01*
X161651498Y-127895224D01*
X161719973Y-127909097D01*
X161726152Y-127912357D01*
X161768610Y-127949147D01*
X161776109Y-127959469D01*
X161776113Y-127959474D01*
X161776115Y-127959476D01*
X161905324Y-128088685D01*
X162053156Y-128196091D01*
X162130078Y-128235284D01*
X162215964Y-128279046D01*
X162215966Y-128279046D01*
X162215969Y-128279048D01*
X162316351Y-128311664D01*
X162389748Y-128335513D01*
X162389749Y-128335513D01*
X162389755Y-128335515D01*
X162457435Y-128346234D01*
X162570230Y-128364100D01*
X162570235Y-128364100D01*
X162752968Y-128364100D01*
X162752970Y-128364100D01*
X162853231Y-128348219D01*
X162853232Y-128348219D01*
X162879969Y-128343984D01*
X162933445Y-128335515D01*
X163107231Y-128279048D01*
X163270044Y-128196091D01*
X163417876Y-128088685D01*
X163547085Y-127959476D01*
X163550807Y-127954352D01*
X163575393Y-127929052D01*
X163586391Y-127920570D01*
X163651498Y-127895222D01*
X163719974Y-127909096D01*
X163726160Y-127912360D01*
X163768604Y-127949138D01*
X163775462Y-127958576D01*
X163776116Y-127959476D01*
X163905325Y-128088685D01*
X164053157Y-128196091D01*
X164130079Y-128235284D01*
X164215965Y-128279046D01*
X164215967Y-128279046D01*
X164215970Y-128279048D01*
X164316352Y-128311664D01*
X164389749Y-128335513D01*
X164389750Y-128335513D01*
X164389756Y-128335515D01*
X164457436Y-128346234D01*
X164570231Y-128364100D01*
X164570236Y-128364100D01*
X164752969Y-128364100D01*
X164752971Y-128364100D01*
X164853232Y-128348219D01*
X164853233Y-128348219D01*
X164879970Y-128343984D01*
X164933446Y-128335515D01*
X165107232Y-128279048D01*
X165270045Y-128196091D01*
X165417877Y-128088685D01*
X165547086Y-127959476D01*
X165595033Y-127893480D01*
X165598405Y-127890206D01*
X165599434Y-127887779D01*
X165616796Y-127872350D01*
X165625459Y-127863940D01*
X165626976Y-127862904D01*
X165634934Y-127857819D01*
X165638814Y-127854826D01*
X165641795Y-127852793D01*
X165645183Y-127851695D01*
X165664380Y-127840598D01*
X165675052Y-127836193D01*
X165675052Y-127836192D01*
X165675053Y-127836193D01*
X166120418Y-127390827D01*
X166181739Y-127357344D01*
X166251430Y-127362328D01*
X166307364Y-127404199D01*
X166315482Y-127416507D01*
X166336399Y-127452736D01*
X166412064Y-127528401D01*
X166412067Y-127528402D01*
X166412070Y-127528405D01*
X166448288Y-127549316D01*
X166496503Y-127599883D01*
X166509725Y-127668490D01*
X166483757Y-127733355D01*
X166473968Y-127744383D01*
X166035618Y-128182730D01*
X166035619Y-128182730D01*
X166035619Y-128182731D01*
X166053417Y-128195662D01*
X166216156Y-128278583D01*
X166389871Y-128335027D01*
X166570270Y-128363600D01*
X166752929Y-128363600D01*
X166752930Y-128363600D01*
X166933328Y-128335027D01*
X167107043Y-128278583D01*
X167269778Y-128195665D01*
X167287579Y-128182731D01*
X166849231Y-127744383D01*
X166815746Y-127683060D01*
X166820730Y-127613368D01*
X166862602Y-127557435D01*
X166874912Y-127549315D01*
X166911136Y-127528401D01*
X166986801Y-127452736D01*
X167007716Y-127416509D01*
X167058281Y-127368296D01*
X167126888Y-127355072D01*
X167191753Y-127381040D01*
X167202783Y-127390830D01*
X167641131Y-127829178D01*
X167654065Y-127811378D01*
X167736983Y-127648643D01*
X167793427Y-127474928D01*
X167822000Y-127294530D01*
X167822000Y-127111869D01*
X167793427Y-126931471D01*
X167736983Y-126757756D01*
X167654645Y-126596162D01*
X167651087Y-126581343D01*
X167641130Y-126577218D01*
X167202782Y-127015567D01*
X167141459Y-127049052D01*
X167071767Y-127044068D01*
X167015834Y-127002196D01*
X167007714Y-126989886D01*
X166986803Y-126953667D01*
X166986798Y-126953661D01*
X166911138Y-126878001D01*
X166911136Y-126877999D01*
X166874909Y-126857083D01*
X166826695Y-126806516D01*
X166813473Y-126737909D01*
X166839441Y-126673044D01*
X166849225Y-126662020D01*
X167287578Y-126223667D01*
X167287575Y-126223665D01*
X167269774Y-126210732D01*
X167107054Y-126127821D01*
X167107041Y-126127815D01*
X166945352Y-126075279D01*
X166933328Y-126071372D01*
X166933326Y-126071371D01*
X166933324Y-126071371D01*
X166752935Y-126042800D01*
X166752930Y-126042800D01*
X166570270Y-126042800D01*
X166570265Y-126042800D01*
X166389874Y-126071371D01*
X166389871Y-126071372D01*
X166216156Y-126127816D01*
X166188227Y-126142047D01*
X166053410Y-126210740D01*
X166052683Y-126211209D01*
X166051079Y-126212433D01*
X166035620Y-126223663D01*
X166035620Y-126223668D01*
X166473969Y-126662016D01*
X166507454Y-126723339D01*
X166502470Y-126793030D01*
X166460599Y-126848964D01*
X166448290Y-126857083D01*
X166412067Y-126877997D01*
X166412061Y-126878001D01*
X166336401Y-126953661D01*
X166336394Y-126953670D01*
X166315482Y-126989890D01*
X166264914Y-127038104D01*
X166196306Y-127051325D01*
X166131442Y-127025355D01*
X166120416Y-127015568D01*
X165670701Y-126565853D01*
X165670700Y-126565852D01*
X165670698Y-126565851D01*
X165661489Y-126560866D01*
X165652256Y-126559923D01*
X165621809Y-126542077D01*
X165621666Y-126541962D01*
X165598644Y-126517888D01*
X165561285Y-126466467D01*
X165547089Y-126446927D01*
X165417879Y-126317717D01*
X165417878Y-126317716D01*
X165417877Y-126317715D01*
X165270045Y-126210309D01*
X165252886Y-126201566D01*
X165107236Y-126127353D01*
X164946972Y-126075279D01*
X164946961Y-126075276D01*
X164933446Y-126070885D01*
X164933444Y-126070884D01*
X164933442Y-126070884D01*
X164919045Y-126068603D01*
X164919038Y-126068602D01*
X164787005Y-126047690D01*
X164752971Y-126042300D01*
X164752970Y-126042300D01*
X164570232Y-126042300D01*
X164570231Y-126042300D01*
X164528395Y-126048926D01*
X164389762Y-126070883D01*
X164215964Y-126127354D01*
X164053155Y-126210309D01*
X163905323Y-126317716D01*
X163776114Y-126446924D01*
X163772394Y-126452045D01*
X163772392Y-126452046D01*
X163772392Y-126452048D01*
X163747793Y-126477357D01*
X163736804Y-126485830D01*
X163671694Y-126511177D01*
X163603217Y-126497298D01*
X163597033Y-126494035D01*
X163554590Y-126457254D01*
X163550806Y-126452046D01*
X163547085Y-126446924D01*
X163417876Y-126317715D01*
X163270044Y-126210309D01*
X163252885Y-126201566D01*
X163107235Y-126127353D01*
X162946971Y-126075279D01*
X162946960Y-126075276D01*
X162933445Y-126070885D01*
X162933443Y-126070884D01*
X162933441Y-126070884D01*
X162919044Y-126068603D01*
X162919037Y-126068602D01*
X162787004Y-126047690D01*
X162752970Y-126042300D01*
X162752969Y-126042300D01*
X162570231Y-126042300D01*
X162570230Y-126042300D01*
X162528394Y-126048926D01*
X162389761Y-126070883D01*
X162215963Y-126127354D01*
X162053154Y-126210309D01*
X161995965Y-126251860D01*
X161905321Y-126317717D01*
X161905319Y-126317719D01*
X161905318Y-126317719D01*
X161769679Y-126453358D01*
X161769297Y-126454430D01*
X161744700Y-126479741D01*
X161736813Y-126485823D01*
X161671704Y-126511173D01*
X161603226Y-126497299D01*
X161603224Y-126497297D01*
X161597040Y-126494034D01*
X161554588Y-126457249D01*
X161547087Y-126446924D01*
X161417878Y-126317715D01*
X161270046Y-126210309D01*
X161252887Y-126201566D01*
X161107237Y-126127353D01*
X160946973Y-126075279D01*
X160946962Y-126075276D01*
X160933447Y-126070885D01*
X160933445Y-126070884D01*
X160933443Y-126070884D01*
X160919046Y-126068603D01*
X160919039Y-126068602D01*
X160787006Y-126047690D01*
X160752972Y-126042300D01*
X160752971Y-126042300D01*
X160570233Y-126042300D01*
X160570232Y-126042300D01*
X160528396Y-126048926D01*
X160389763Y-126070883D01*
X160215965Y-126127354D01*
X160053156Y-126210309D01*
X159995967Y-126251860D01*
X159905323Y-126317717D01*
X159905321Y-126317719D01*
X159905320Y-126317719D01*
X159776121Y-126446918D01*
X159776121Y-126446919D01*
X159776119Y-126446921D01*
X159742874Y-126492679D01*
X159668711Y-126594754D01*
X159585756Y-126757563D01*
X159529285Y-126931361D01*
X159502429Y-127100923D01*
X159500702Y-127111829D01*
X155552959Y-127111829D01*
X155560226Y-127089462D01*
X155566554Y-127049509D01*
X155567057Y-127046336D01*
X155567057Y-127046335D01*
X155591000Y-126895165D01*
X155591000Y-126698433D01*
X155574620Y-126595017D01*
X155560226Y-126504137D01*
X155511958Y-126355586D01*
X155505239Y-126334907D01*
X155500937Y-126321664D01*
X155499875Y-126317899D01*
X155498877Y-126315891D01*
X155497085Y-126312192D01*
X155496147Y-126310589D01*
X155451857Y-126223665D01*
X155434977Y-126190537D01*
X155410125Y-126141762D01*
X155294494Y-125982610D01*
X155155390Y-125843506D01*
X155031676Y-125753622D01*
X154996240Y-125727876D01*
X154934251Y-125696290D01*
X154922835Y-125689686D01*
X154918078Y-125686585D01*
X154896238Y-125672348D01*
X154823521Y-125638566D01*
X153761715Y-125145286D01*
X153726278Y-125120510D01*
X149639416Y-121033648D01*
X155434899Y-121033648D01*
X155465657Y-121188271D01*
X155465664Y-121188302D01*
X155525998Y-121333965D01*
X155526003Y-121333974D01*
X155526013Y-121333991D01*
X155613611Y-121465090D01*
X155613612Y-121465091D01*
X155613617Y-121465097D01*
X155725101Y-121576581D01*
X155725107Y-121576586D01*
X155725111Y-121576589D01*
X155856214Y-121664190D01*
X155856227Y-121664197D01*
X156001898Y-121724535D01*
X156001903Y-121724537D01*
X156148913Y-121753779D01*
X156151647Y-121754503D01*
X156156555Y-121755300D01*
X156156556Y-121755300D01*
X156156558Y-121755300D01*
X159397990Y-121755300D01*
X159432922Y-121760321D01*
X159446241Y-121764232D01*
X159505019Y-121802006D01*
X159534045Y-121865561D01*
X159534045Y-121865564D01*
X159535039Y-121872478D01*
X159530393Y-121926624D01*
X159530420Y-121926631D01*
X159530377Y-121926808D01*
X159530239Y-121928422D01*
X159529283Y-121931364D01*
X159500702Y-122111823D01*
X159500702Y-122111829D01*
X159500702Y-122294570D01*
X159517450Y-122400311D01*
X159529287Y-122475045D01*
X159585754Y-122648831D01*
X159668711Y-122811644D01*
X159776117Y-122959476D01*
X159905326Y-123088685D01*
X160053158Y-123196091D01*
X160130080Y-123235284D01*
X160215966Y-123279046D01*
X160215968Y-123279046D01*
X160215971Y-123279048D01*
X160316353Y-123311664D01*
X160389750Y-123335513D01*
X160389751Y-123335513D01*
X160389757Y-123335515D01*
X160457437Y-123346234D01*
X160570232Y-123364100D01*
X160570237Y-123364100D01*
X160752970Y-123364100D01*
X160752972Y-123364100D01*
X160853233Y-123348219D01*
X160853234Y-123348219D01*
X160879971Y-123343984D01*
X160933447Y-123335515D01*
X161107233Y-123279048D01*
X161270046Y-123196091D01*
X161417878Y-123088685D01*
X161547087Y-122959476D01*
X161550808Y-122954352D01*
X161575391Y-122929056D01*
X161586394Y-122920571D01*
X161651498Y-122895224D01*
X161719976Y-122909099D01*
X161719987Y-122909104D01*
X161726166Y-122912365D01*
X161768606Y-122949142D01*
X161776112Y-122959473D01*
X161776114Y-122959475D01*
X161776115Y-122959476D01*
X161905324Y-123088685D01*
X162053156Y-123196091D01*
X162130078Y-123235284D01*
X162215964Y-123279046D01*
X162215966Y-123279046D01*
X162215969Y-123279048D01*
X162316351Y-123311664D01*
X162389748Y-123335513D01*
X162389749Y-123335513D01*
X162389755Y-123335515D01*
X162457435Y-123346234D01*
X162570230Y-123364100D01*
X162570235Y-123364100D01*
X162752968Y-123364100D01*
X162752970Y-123364100D01*
X162853231Y-123348219D01*
X162853232Y-123348219D01*
X162879969Y-123343984D01*
X162933445Y-123335515D01*
X163107231Y-123279048D01*
X163270044Y-123196091D01*
X163417876Y-123088685D01*
X163547085Y-122959476D01*
X163550807Y-122954352D01*
X163575393Y-122929052D01*
X163586391Y-122920570D01*
X163651498Y-122895222D01*
X163719974Y-122909096D01*
X163726160Y-122912360D01*
X163768604Y-122949138D01*
X163774487Y-122957234D01*
X163776116Y-122959476D01*
X163905325Y-123088685D01*
X164053157Y-123196091D01*
X164130079Y-123235284D01*
X164215965Y-123279046D01*
X164215967Y-123279046D01*
X164215970Y-123279048D01*
X164316352Y-123311664D01*
X164389749Y-123335513D01*
X164389750Y-123335513D01*
X164389756Y-123335515D01*
X164457436Y-123346234D01*
X164570231Y-123364100D01*
X164570236Y-123364100D01*
X164752969Y-123364100D01*
X164752971Y-123364100D01*
X164853232Y-123348219D01*
X164853233Y-123348219D01*
X164879970Y-123343984D01*
X164933446Y-123335515D01*
X165107232Y-123279048D01*
X165270045Y-123196091D01*
X165417877Y-123088685D01*
X165547086Y-122959476D01*
X165550807Y-122954352D01*
X165575390Y-122929056D01*
X165586393Y-122920571D01*
X165651497Y-122895224D01*
X165719975Y-122909099D01*
X165719985Y-122909104D01*
X165726166Y-122912366D01*
X165768602Y-122949136D01*
X165774470Y-122957211D01*
X165774478Y-122957234D01*
X165774484Y-122957231D01*
X165774485Y-122957232D01*
X165776115Y-122959476D01*
X165905324Y-123088685D01*
X166053156Y-123196091D01*
X166130078Y-123235284D01*
X166215964Y-123279046D01*
X166215966Y-123279046D01*
X166215969Y-123279048D01*
X166316351Y-123311664D01*
X166389748Y-123335513D01*
X166389749Y-123335513D01*
X166389755Y-123335515D01*
X166457435Y-123346234D01*
X166570230Y-123364100D01*
X166570235Y-123364100D01*
X166752968Y-123364100D01*
X166752970Y-123364100D01*
X166853231Y-123348219D01*
X166853232Y-123348219D01*
X166879969Y-123343984D01*
X166933445Y-123335515D01*
X167107231Y-123279048D01*
X167270044Y-123196091D01*
X167417876Y-123088685D01*
X167547085Y-122959476D01*
X167654491Y-122811644D01*
X167737448Y-122648831D01*
X167793915Y-122475045D01*
X167798996Y-122442959D01*
X167806619Y-122394834D01*
X167806619Y-122394831D01*
X167822500Y-122294570D01*
X167822500Y-122111829D01*
X167803443Y-121991515D01*
X167793915Y-121931355D01*
X167737448Y-121757569D01*
X167737446Y-121757566D01*
X167737446Y-121757564D01*
X167654490Y-121594754D01*
X167644175Y-121580558D01*
X167639002Y-121568006D01*
X167632254Y-121560385D01*
X167627704Y-121549344D01*
X167623902Y-121538689D01*
X167623416Y-121530188D01*
X167621949Y-121526628D01*
X167620282Y-121515853D01*
X167621899Y-121503678D01*
X167619912Y-121468936D01*
X167628548Y-121453641D01*
X167629485Y-121446593D01*
X167638595Y-121435848D01*
X167654267Y-121408096D01*
X167668496Y-121400586D01*
X167674673Y-121393302D01*
X167692762Y-121387779D01*
X167716043Y-121375493D01*
X167717493Y-121375199D01*
X167732987Y-121375499D01*
X167741498Y-121372902D01*
X167752018Y-121375869D01*
X167771466Y-121376246D01*
X167772173Y-121376419D01*
X167790263Y-121382329D01*
X167879242Y-121419187D01*
X168033139Y-121449799D01*
X168033142Y-121449800D01*
X168033144Y-121449800D01*
X168190062Y-121449800D01*
X168190063Y-121449799D01*
X168343962Y-121419187D01*
X168488933Y-121359137D01*
X168619405Y-121271959D01*
X168730361Y-121161003D01*
X168817539Y-121030531D01*
X168877589Y-120885560D01*
X168908202Y-120731658D01*
X168908202Y-120574742D01*
X168908202Y-120574739D01*
X168908202Y-120574555D01*
X168907766Y-120572550D01*
X168906225Y-120564804D01*
X168877589Y-120420840D01*
X168817539Y-120275869D01*
X168817537Y-120275866D01*
X168817535Y-120275862D01*
X168730361Y-120145396D01*
X168730359Y-120145393D01*
X168619407Y-120034441D01*
X168488936Y-119947264D01*
X168488934Y-119947263D01*
X168467697Y-119938466D01*
X168343962Y-119887213D01*
X168343954Y-119887211D01*
X168343946Y-119887209D01*
X168343936Y-119887207D01*
X168190065Y-119856600D01*
X168190063Y-119856600D01*
X168190060Y-119856600D01*
X168033144Y-119856600D01*
X168033141Y-119856600D01*
X168033139Y-119856600D01*
X167879266Y-119887207D01*
X167879241Y-119887213D01*
X167734268Y-119947263D01*
X167734266Y-119947264D01*
X167603795Y-120034441D01*
X167492843Y-120145393D01*
X167405666Y-120275864D01*
X167405665Y-120275866D01*
X167345615Y-120420839D01*
X167345609Y-120420864D01*
X167315002Y-120574734D01*
X167315002Y-120574737D01*
X167315002Y-120731662D01*
X167315002Y-120731664D01*
X167315001Y-120731664D01*
X167345609Y-120885534D01*
X167345613Y-120885552D01*
X167345615Y-120885560D01*
X167352296Y-120901691D01*
X167400882Y-121018988D01*
X167402501Y-121027114D01*
X167405273Y-121031420D01*
X167409610Y-121053182D01*
X167410819Y-121064425D01*
X167410321Y-121067182D01*
X167410329Y-121077551D01*
X167405438Y-121094249D01*
X167398415Y-121133185D01*
X167392026Y-121140046D01*
X167390692Y-121144605D01*
X167375550Y-121157744D01*
X167350806Y-121184323D01*
X167342469Y-121186451D01*
X167337921Y-121190398D01*
X167312769Y-121194032D01*
X167283107Y-121201604D01*
X167283093Y-121201604D01*
X167281892Y-121201561D01*
X167275467Y-121199422D01*
X167268770Y-121200390D01*
X167242744Y-121188527D01*
X167215600Y-121179490D01*
X167212133Y-121176993D01*
X167204541Y-121171323D01*
X167204537Y-121171320D01*
X167204536Y-121171320D01*
X166248075Y-120650438D01*
X166219702Y-120629224D01*
X165923492Y-120333013D01*
X165923491Y-120333012D01*
X165923490Y-120333011D01*
X165792391Y-120245413D01*
X165792390Y-120245412D01*
X165792385Y-120245409D01*
X165792372Y-120245402D01*
X165792365Y-120245398D01*
X165646702Y-120185064D01*
X165646671Y-120185057D01*
X165492047Y-120154300D01*
X165492045Y-120154300D01*
X165492042Y-120154300D01*
X156156558Y-120154300D01*
X156156555Y-120154300D01*
X156156553Y-120154300D01*
X156001927Y-120185057D01*
X156001896Y-120185064D01*
X155856233Y-120245398D01*
X155856224Y-120245403D01*
X155856207Y-120245413D01*
X155725108Y-120333011D01*
X155725107Y-120333012D01*
X155725101Y-120333017D01*
X155613617Y-120444501D01*
X155613612Y-120444507D01*
X155613611Y-120444508D01*
X155526013Y-120575607D01*
X155526003Y-120575624D01*
X155525998Y-120575633D01*
X155465664Y-120721296D01*
X155465657Y-120721327D01*
X155434900Y-120875950D01*
X155434900Y-120875953D01*
X155434900Y-121033646D01*
X155434900Y-121033648D01*
X155434899Y-121033648D01*
X149639416Y-121033648D01*
X145427026Y-116821258D01*
X145427021Y-116821253D01*
X145405874Y-116793002D01*
X145393267Y-116769913D01*
X145378100Y-116710488D01*
X145378100Y-115073674D01*
X148521800Y-115073674D01*
X148521800Y-115304324D01*
X148557876Y-115532098D01*
X148557877Y-115532102D01*
X148629147Y-115751446D01*
X148733850Y-115956935D01*
X148733852Y-115956938D01*
X148789247Y-116033185D01*
X148789253Y-116033191D01*
X148789254Y-116033192D01*
X148789255Y-116033192D01*
X149371439Y-115451006D01*
X149432762Y-115417521D01*
X149502453Y-115422505D01*
X149558387Y-115464376D01*
X149566506Y-115476685D01*
X149580498Y-115500920D01*
X149675080Y-115595502D01*
X149675081Y-115595503D01*
X149675083Y-115595504D01*
X149699308Y-115609490D01*
X149747525Y-115660056D01*
X149760749Y-115728663D01*
X149734782Y-115793528D01*
X149724991Y-115804559D01*
X149142805Y-116386743D01*
X149142806Y-116386743D01*
X149142806Y-116386744D01*
X149219067Y-116442151D01*
X149424553Y-116546852D01*
X149643897Y-116618122D01*
X149871681Y-116654200D01*
X150102318Y-116654200D01*
X150102319Y-116654200D01*
X150330102Y-116618122D01*
X150549446Y-116546852D01*
X150754924Y-116442155D01*
X150754930Y-116442151D01*
X150798596Y-116410426D01*
X150825334Y-116400885D01*
X150831192Y-116386743D01*
X150249007Y-115804560D01*
X150215522Y-115743237D01*
X150220506Y-115673546D01*
X150262377Y-115617612D01*
X150274690Y-115609491D01*
X150274692Y-115609490D01*
X150298920Y-115595502D01*
X150393502Y-115500920D01*
X150407491Y-115476690D01*
X150458055Y-115428475D01*
X150526661Y-115415250D01*
X150591527Y-115441216D01*
X150602559Y-115451008D01*
X151184743Y-116033192D01*
X151184743Y-116033191D01*
X151184744Y-116033192D01*
X151184744Y-116033191D01*
X151198212Y-116027613D01*
X151204429Y-116006441D01*
X151208407Y-116000621D01*
X151240151Y-115956930D01*
X151240155Y-115956924D01*
X151344852Y-115751446D01*
X151416122Y-115532102D01*
X151452200Y-115304319D01*
X151452200Y-115073681D01*
X151434386Y-114961213D01*
X151434387Y-114961212D01*
X151434385Y-114961206D01*
X151433480Y-114955491D01*
X151432083Y-114946674D01*
X154998800Y-114946674D01*
X154998800Y-115177324D01*
X155034876Y-115405098D01*
X155034877Y-115405102D01*
X155106147Y-115624446D01*
X155209820Y-115827913D01*
X155210852Y-115829938D01*
X155266247Y-115906185D01*
X155266253Y-115906191D01*
X155266254Y-115906192D01*
X155266255Y-115906192D01*
X155848439Y-115324006D01*
X155909762Y-115290521D01*
X155979453Y-115295505D01*
X156035387Y-115337376D01*
X156043506Y-115349685D01*
X156057498Y-115373920D01*
X156152080Y-115468502D01*
X156152081Y-115468503D01*
X156152083Y-115468504D01*
X156176308Y-115482490D01*
X156224525Y-115533056D01*
X156237749Y-115601663D01*
X156211782Y-115666528D01*
X156201991Y-115677559D01*
X155619805Y-116259743D01*
X155619806Y-116259743D01*
X155619806Y-116259744D01*
X155696067Y-116315151D01*
X155901553Y-116419852D01*
X156120897Y-116491122D01*
X156348681Y-116527200D01*
X156419729Y-116527200D01*
X156454656Y-116532221D01*
X156465509Y-116535407D01*
X156524290Y-116573177D01*
X156553319Y-116636731D01*
X156543380Y-116705890D01*
X156543379Y-116705892D01*
X156540194Y-116712867D01*
X156515078Y-116749042D01*
X155359617Y-117904501D01*
X155359612Y-117904507D01*
X155359611Y-117904508D01*
X155272013Y-118035607D01*
X155272003Y-118035624D01*
X155271998Y-118035633D01*
X155211664Y-118181296D01*
X155211657Y-118181327D01*
X155180900Y-118335950D01*
X155180900Y-118335953D01*
X155180900Y-118493646D01*
X155180900Y-118493648D01*
X155180899Y-118493648D01*
X155211657Y-118648271D01*
X155211664Y-118648302D01*
X155271998Y-118793965D01*
X155272003Y-118793974D01*
X155272013Y-118793991D01*
X155359611Y-118925090D01*
X155359612Y-118925091D01*
X155359617Y-118925097D01*
X155471101Y-119036581D01*
X155471107Y-119036586D01*
X155471111Y-119036589D01*
X155602214Y-119124190D01*
X155602227Y-119124197D01*
X155714613Y-119170748D01*
X155747903Y-119184537D01*
X155747905Y-119184537D01*
X155747910Y-119184539D01*
X155810020Y-119196893D01*
X155902553Y-119215299D01*
X155902556Y-119215300D01*
X155902558Y-119215300D01*
X156060244Y-119215300D01*
X156060245Y-119215299D01*
X156214897Y-119184537D01*
X156360579Y-119124194D01*
X156491689Y-119036589D01*
X157492664Y-118035614D01*
X158497322Y-117030957D01*
X160471786Y-115056492D01*
X160471789Y-115056489D01*
X160485774Y-115035559D01*
X160547006Y-114943917D01*
X160570587Y-114917665D01*
X160581239Y-114908764D01*
X160645300Y-114880879D01*
X160714269Y-114892055D01*
X160716123Y-114892942D01*
X160760941Y-114929257D01*
X160763533Y-114932631D01*
X160775685Y-114951878D01*
X160837743Y-115073675D01*
X160837747Y-115073682D01*
X160844951Y-115087819D01*
X160969890Y-115259786D01*
X161071212Y-115361108D01*
X161092361Y-115389359D01*
X161099013Y-115401541D01*
X161113865Y-115469814D01*
X161089449Y-115535279D01*
X161089433Y-115535300D01*
X161086683Y-115538972D01*
X161030766Y-115580822D01*
X160907917Y-115626643D01*
X160907909Y-115626647D01*
X160907906Y-115626648D01*
X160907906Y-115626649D01*
X160863280Y-115660056D01*
X160792813Y-115712808D01*
X160792810Y-115712810D01*
X160792807Y-115712813D01*
X160706648Y-115827907D01*
X160706646Y-115827910D01*
X160656402Y-115962621D01*
X160656400Y-115962628D01*
X160650000Y-116022146D01*
X160650000Y-116022155D01*
X160650000Y-116670000D01*
X161387750Y-116670000D01*
X161454789Y-116689685D01*
X161500544Y-116742489D01*
X161510488Y-116811647D01*
X161507524Y-116826095D01*
X161500000Y-116854171D01*
X161500000Y-116985825D01*
X161507524Y-117013905D01*
X161505863Y-117083755D01*
X161466701Y-117141618D01*
X161402473Y-117169123D01*
X161387750Y-117170000D01*
X160650000Y-117170000D01*
X160650000Y-117817852D01*
X160656400Y-117877370D01*
X160656402Y-117877377D01*
X160666519Y-117904501D01*
X160706645Y-118012086D01*
X160706649Y-118012093D01*
X160724267Y-118035627D01*
X160792807Y-118127185D01*
X160792809Y-118127187D01*
X160792812Y-118127190D01*
X160907906Y-118213350D01*
X160907913Y-118213354D01*
X161042620Y-118263596D01*
X161042627Y-118263598D01*
X161049468Y-118264333D01*
X161102138Y-118269998D01*
X161102155Y-118269999D01*
X161102172Y-118270000D01*
X161750000Y-118270000D01*
X161750000Y-117532250D01*
X161769685Y-117465211D01*
X161822489Y-117419456D01*
X161891647Y-117409512D01*
X161906093Y-117412475D01*
X161934174Y-117420000D01*
X162065825Y-117420000D01*
X162065826Y-117420000D01*
X162093905Y-117412476D01*
X162163755Y-117414137D01*
X162221618Y-117453299D01*
X162249123Y-117517527D01*
X162250000Y-117532250D01*
X162250000Y-118270000D01*
X162897828Y-118270000D01*
X162897836Y-118270000D01*
X162897847Y-118269999D01*
X162933560Y-118266158D01*
X162957372Y-118263598D01*
X162957379Y-118263596D01*
X163092086Y-118213354D01*
X163092093Y-118213350D01*
X163207187Y-118127190D01*
X163207190Y-118127187D01*
X163293350Y-118012093D01*
X163293354Y-118012086D01*
X163343596Y-117877379D01*
X163343598Y-117877372D01*
X163346851Y-117847124D01*
X163349998Y-117817860D01*
X163350000Y-117817827D01*
X163350000Y-117170000D01*
X162612250Y-117170000D01*
X162545211Y-117150315D01*
X162499456Y-117097511D01*
X162489512Y-117028353D01*
X162492476Y-117013905D01*
X162500000Y-116985825D01*
X162500000Y-116854175D01*
X162499999Y-116854171D01*
X162492476Y-116826095D01*
X162494137Y-116756245D01*
X162533299Y-116698382D01*
X162597527Y-116670877D01*
X162612250Y-116670000D01*
X163350000Y-116670000D01*
X163350000Y-116022172D01*
X163349998Y-116022138D01*
X163344333Y-115969468D01*
X163343598Y-115962627D01*
X163343596Y-115962620D01*
X163293354Y-115827913D01*
X163293350Y-115827906D01*
X163207190Y-115712812D01*
X163207187Y-115712809D01*
X163207186Y-115712808D01*
X163207185Y-115712807D01*
X163139824Y-115662381D01*
X163092093Y-115626649D01*
X163092088Y-115626646D01*
X163020607Y-115599985D01*
X162977232Y-115583807D01*
X162946255Y-115566891D01*
X162935145Y-115558574D01*
X162893274Y-115502640D01*
X162890542Y-115464438D01*
X162888290Y-115432950D01*
X162889265Y-115428467D01*
X162922750Y-115367145D01*
X163030104Y-115259792D01*
X163092424Y-115174016D01*
X163155048Y-115087820D01*
X163155049Y-115087819D01*
X163155051Y-115087816D01*
X163251557Y-114898412D01*
X163317246Y-114696243D01*
X163350500Y-114486287D01*
X163350500Y-114273713D01*
X163317246Y-114063757D01*
X163251557Y-113861588D01*
X163155051Y-113672184D01*
X163155049Y-113672181D01*
X163155048Y-113672179D01*
X163154702Y-113671703D01*
X163154700Y-113671699D01*
X163030112Y-113500216D01*
X162879782Y-113349886D01*
X162707824Y-113224953D01*
X162707258Y-113224606D01*
X162705627Y-113223357D01*
X162703901Y-113222103D01*
X162703932Y-113222059D01*
X162686960Y-113209062D01*
X162676683Y-113199357D01*
X162641457Y-113139017D01*
X162644445Y-113069212D01*
X162680613Y-113015493D01*
X162687783Y-113009281D01*
X162704187Y-112997275D01*
X162707816Y-112995051D01*
X162707817Y-112995050D01*
X162729789Y-112979086D01*
X162879786Y-112870109D01*
X162879787Y-112870106D01*
X162879790Y-112870105D01*
X162879792Y-112870104D01*
X162879793Y-112870102D01*
X162879847Y-112870063D01*
X162880605Y-112869290D01*
X163030104Y-112719792D01*
X163030106Y-112719788D01*
X163030109Y-112719786D01*
X163155048Y-112547820D01*
X163155047Y-112547820D01*
X163155051Y-112547816D01*
X163155053Y-112547810D01*
X163175445Y-112519744D01*
X163183730Y-112491529D01*
X163251557Y-112358412D01*
X163317246Y-112156243D01*
X163350500Y-111946287D01*
X163350500Y-111733713D01*
X163317246Y-111523757D01*
X163251557Y-111321588D01*
X163155051Y-111132184D01*
X163155049Y-111132181D01*
X163155048Y-111132179D01*
X163154702Y-111131703D01*
X163154700Y-111131699D01*
X163030112Y-110960216D01*
X162879782Y-110809886D01*
X162707824Y-110684953D01*
X162707258Y-110684606D01*
X162705627Y-110683357D01*
X162703901Y-110682103D01*
X162703932Y-110682059D01*
X162686960Y-110669062D01*
X162676683Y-110659357D01*
X162641457Y-110599017D01*
X162644445Y-110529212D01*
X162680612Y-110475495D01*
X162687783Y-110469281D01*
X162704194Y-110457269D01*
X162707792Y-110455063D01*
X162707816Y-110455051D01*
X162804281Y-110384966D01*
X162813905Y-110377974D01*
X162851582Y-110350600D01*
X162879786Y-110330109D01*
X162879787Y-110330107D01*
X162879846Y-110330064D01*
X162880605Y-110329290D01*
X163030104Y-110179792D01*
X163030105Y-110179790D01*
X163030110Y-110179785D01*
X163030124Y-110179765D01*
X163071870Y-110122306D01*
X163155048Y-110007820D01*
X163155047Y-110007820D01*
X163155051Y-110007816D01*
X163155053Y-110007810D01*
X163175445Y-109979744D01*
X163183730Y-109951529D01*
X163251557Y-109818412D01*
X163317246Y-109616243D01*
X163350500Y-109406287D01*
X163350500Y-109193713D01*
X163317246Y-108983757D01*
X163251557Y-108781588D01*
X163155051Y-108592184D01*
X163155049Y-108592181D01*
X163155048Y-108592179D01*
X163154702Y-108591703D01*
X163154700Y-108591699D01*
X163030112Y-108420216D01*
X162879788Y-108269892D01*
X162879786Y-108269890D01*
X162707820Y-108144951D01*
X162627881Y-108104220D01*
X162540245Y-108059567D01*
X162540240Y-108059565D01*
X162518414Y-108048444D01*
X162518413Y-108048443D01*
X162518412Y-108048443D01*
X162421550Y-108016970D01*
X162325074Y-107985623D01*
X162320552Y-107983770D01*
X162311362Y-107981600D01*
X162306599Y-107981226D01*
X162154957Y-107957208D01*
X162135489Y-107954124D01*
X162106290Y-107949500D01*
X162106287Y-107949500D01*
X161893713Y-107949500D01*
X161893709Y-107949500D01*
X161854776Y-107955666D01*
X161845042Y-107957208D01*
X161807654Y-107963129D01*
X161683763Y-107982752D01*
X161481582Y-108048445D01*
X161292182Y-108144949D01*
X161120210Y-108269892D01*
X160969886Y-108420216D01*
X160844954Y-108592173D01*
X160844952Y-108592177D01*
X160844951Y-108592179D01*
X160807891Y-108664912D01*
X160807890Y-108664913D01*
X160807889Y-108664912D01*
X160805187Y-108670214D01*
X160784490Y-108702723D01*
X160752253Y-108774105D01*
X160750940Y-108776683D01*
X160750926Y-108776713D01*
X160748444Y-108781585D01*
X160746583Y-108786077D01*
X160746525Y-108786053D01*
X160744532Y-108791200D01*
X160193566Y-110011237D01*
X160168236Y-110047883D01*
X159717566Y-110498556D01*
X159439711Y-110776411D01*
X159406707Y-110809415D01*
X159406706Y-110809416D01*
X159406705Y-110809415D01*
X159328206Y-110887914D01*
X159240613Y-111019007D01*
X159240604Y-111019023D01*
X159240599Y-111019031D01*
X159180264Y-111164696D01*
X159180257Y-111164727D01*
X159149500Y-111319350D01*
X159149500Y-111462471D01*
X159147117Y-111486666D01*
X159142443Y-111510160D01*
X159135387Y-111533417D01*
X159080264Y-111666496D01*
X159080257Y-111666527D01*
X159049500Y-111821150D01*
X159049500Y-114145429D01*
X159049499Y-114145431D01*
X159049500Y-114145432D01*
X159044476Y-114180366D01*
X159037064Y-114205607D01*
X159005769Y-114258351D01*
X158153488Y-115110632D01*
X158125238Y-115131781D01*
X158115311Y-115137202D01*
X158047038Y-115152056D01*
X157981573Y-115127642D01*
X157939700Y-115071710D01*
X157937013Y-115064504D01*
X157929200Y-115021184D01*
X157929200Y-114946680D01*
X157924604Y-114917663D01*
X157893122Y-114718897D01*
X157821852Y-114499553D01*
X157717151Y-114294067D01*
X157685425Y-114250401D01*
X157675885Y-114223663D01*
X157661743Y-114217805D01*
X157079559Y-114799991D01*
X157018236Y-114833476D01*
X156948545Y-114828492D01*
X156892611Y-114786621D01*
X156884490Y-114774308D01*
X156870504Y-114750083D01*
X156870500Y-114750078D01*
X156775921Y-114655499D01*
X156775920Y-114655498D01*
X156751687Y-114641507D01*
X156703472Y-114590941D01*
X156690248Y-114522334D01*
X156716216Y-114457469D01*
X156726006Y-114446439D01*
X156954639Y-114217807D01*
X157308192Y-113864254D01*
X157308191Y-113864253D01*
X157308185Y-113864247D01*
X157231938Y-113808852D01*
X157231937Y-113808851D01*
X157231935Y-113808850D01*
X157026446Y-113704147D01*
X156807102Y-113632877D01*
X156807100Y-113632876D01*
X156807098Y-113632876D01*
X156579324Y-113596800D01*
X156579319Y-113596800D01*
X156348681Y-113596800D01*
X156348676Y-113596800D01*
X156120900Y-113632876D01*
X155901555Y-113704146D01*
X155696065Y-113808849D01*
X155619807Y-113864253D01*
X155619807Y-113864255D01*
X156201993Y-114446439D01*
X156235478Y-114507762D01*
X156230494Y-114577453D01*
X156188623Y-114633387D01*
X156176313Y-114641507D01*
X156152080Y-114655497D01*
X156057499Y-114750078D01*
X156057495Y-114750083D01*
X156043506Y-114774313D01*
X155992938Y-114822528D01*
X155924331Y-114835749D01*
X155859466Y-114809780D01*
X155848439Y-114799992D01*
X155266255Y-114217807D01*
X155266253Y-114217807D01*
X155210849Y-114294065D01*
X155210848Y-114294067D01*
X155210847Y-114294069D01*
X155106147Y-114499553D01*
X155042239Y-114696239D01*
X155034876Y-114718900D01*
X154998800Y-114946674D01*
X151432083Y-114946674D01*
X151416121Y-114845897D01*
X151344852Y-114626553D01*
X151240151Y-114421067D01*
X151208425Y-114377401D01*
X151198885Y-114350663D01*
X151184743Y-114344805D01*
X150602559Y-114926990D01*
X150541236Y-114960475D01*
X150471544Y-114955491D01*
X150415611Y-114913619D01*
X150407491Y-114901309D01*
X150393504Y-114877083D01*
X150393500Y-114877078D01*
X150298921Y-114782499D01*
X150298920Y-114782498D01*
X150274687Y-114768507D01*
X150226472Y-114717941D01*
X150213248Y-114649334D01*
X150239216Y-114584469D01*
X150249006Y-114573439D01*
X150477639Y-114344807D01*
X150831192Y-113991254D01*
X150831191Y-113991253D01*
X150831185Y-113991247D01*
X150754938Y-113935852D01*
X150754937Y-113935851D01*
X150754935Y-113935850D01*
X150549446Y-113831147D01*
X150330102Y-113759877D01*
X150330100Y-113759876D01*
X150330098Y-113759876D01*
X150102324Y-113723800D01*
X150102319Y-113723800D01*
X149871681Y-113723800D01*
X149871676Y-113723800D01*
X149643900Y-113759876D01*
X149424555Y-113831146D01*
X149219065Y-113935849D01*
X149142807Y-113991253D01*
X149142807Y-113991255D01*
X149724993Y-114573439D01*
X149758478Y-114634762D01*
X149753494Y-114704453D01*
X149711623Y-114760387D01*
X149699313Y-114768507D01*
X149675080Y-114782497D01*
X149580499Y-114877078D01*
X149580495Y-114877083D01*
X149566506Y-114901313D01*
X149515938Y-114949528D01*
X149447331Y-114962749D01*
X149382466Y-114936780D01*
X149371439Y-114926992D01*
X148789255Y-114344807D01*
X148789253Y-114344807D01*
X148733849Y-114421065D01*
X148629146Y-114626555D01*
X148557876Y-114845900D01*
X148521800Y-115073674D01*
X145378100Y-115073674D01*
X145378100Y-109993641D01*
X148521300Y-109993641D01*
X148521300Y-110224357D01*
X148557389Y-110452215D01*
X148583248Y-110531802D01*
X148583268Y-110531861D01*
X148583516Y-110532624D01*
X148628683Y-110671633D01*
X148628684Y-110671636D01*
X148628685Y-110671637D01*
X148635044Y-110684117D01*
X148635047Y-110684126D01*
X148658753Y-110730650D01*
X148658754Y-110730651D01*
X148733421Y-110877194D01*
X148869027Y-111063839D01*
X149032161Y-111226973D01*
X149218806Y-111362579D01*
X149424367Y-111467317D01*
X149598071Y-111523757D01*
X149643780Y-111538609D01*
X149757714Y-111556654D01*
X149871647Y-111574700D01*
X149871648Y-111574700D01*
X150102352Y-111574700D01*
X150102353Y-111574700D01*
X150330219Y-111538609D01*
X150549633Y-111467317D01*
X150755194Y-111362579D01*
X150941839Y-111226973D01*
X151104973Y-111063839D01*
X151240579Y-110877194D01*
X151345317Y-110671633D01*
X151416609Y-110452219D01*
X151416609Y-110452215D01*
X151416611Y-110452211D01*
X151417748Y-110447477D01*
X151419449Y-110447885D01*
X151421445Y-110443671D01*
X151422241Y-110431467D01*
X151426643Y-110420958D01*
X151430085Y-110413697D01*
X151441922Y-110400426D01*
X151446112Y-110391578D01*
X151455710Y-110384966D01*
X151476592Y-110361555D01*
X151543907Y-110342834D01*
X151569021Y-110350600D01*
X151570138Y-110350514D01*
X151572028Y-110351530D01*
X151610657Y-110363477D01*
X151625134Y-110380096D01*
X151631670Y-110383612D01*
X151637745Y-110394573D01*
X151653892Y-110413109D01*
X151656306Y-110418132D01*
X151664639Y-110443095D01*
X151665541Y-110444723D01*
X151665482Y-110445622D01*
X151666160Y-110447652D01*
X151683057Y-110532598D01*
X151683063Y-110532625D01*
X151743398Y-110678292D01*
X151743402Y-110678299D01*
X151743409Y-110678312D01*
X151808957Y-110776411D01*
X151831012Y-110809418D01*
X151831017Y-110809424D01*
X151942501Y-110920908D01*
X151942507Y-110920913D01*
X151942511Y-110920916D01*
X152073614Y-111008517D01*
X152073627Y-111008524D01*
X152073629Y-111008524D01*
X152073633Y-111008527D01*
X152207166Y-111063838D01*
X152207167Y-111063838D01*
X152215135Y-111067137D01*
X152219303Y-111068864D01*
X152219304Y-111068864D01*
X152219306Y-111068865D01*
X152289595Y-111082846D01*
X152373953Y-111099626D01*
X152373956Y-111099627D01*
X152373958Y-111099627D01*
X152531644Y-111099627D01*
X152531645Y-111099626D01*
X152686297Y-111068864D01*
X152756788Y-111039666D01*
X152806631Y-111019021D01*
X152811331Y-111017073D01*
X152831972Y-111008524D01*
X152831972Y-111008523D01*
X152831979Y-111008521D01*
X152831985Y-111008516D01*
X152834324Y-111007548D01*
X152834325Y-111007547D01*
X152834332Y-111007545D01*
X152843592Y-111003709D01*
X152852477Y-110994825D01*
X152925087Y-110946308D01*
X152963089Y-110920916D01*
X153074589Y-110809416D01*
X153074590Y-110809415D01*
X153074591Y-110809414D01*
X153162190Y-110678312D01*
X153162190Y-110678311D01*
X153162194Y-110678306D01*
X153222537Y-110532624D01*
X153253300Y-110377969D01*
X153253300Y-110220285D01*
X153253300Y-110220282D01*
X153253300Y-110220100D01*
X153252865Y-110218098D01*
X153245244Y-110179785D01*
X153222538Y-110065635D01*
X153222536Y-110065628D01*
X153215186Y-110047883D01*
X153162194Y-109919948D01*
X153162193Y-109919946D01*
X153162192Y-109919944D01*
X153126580Y-109866647D01*
X154998300Y-109866647D01*
X154998300Y-110097353D01*
X155002252Y-110122305D01*
X155034389Y-110325216D01*
X155068862Y-110431312D01*
X155068875Y-110431350D01*
X155069173Y-110432267D01*
X155105683Y-110544633D01*
X155105684Y-110544636D01*
X155105685Y-110544637D01*
X155111971Y-110556975D01*
X155111973Y-110556979D01*
X155118607Y-110570000D01*
X155118608Y-110570000D01*
X155210421Y-110750194D01*
X155346027Y-110936839D01*
X155509161Y-111099973D01*
X155695806Y-111235579D01*
X155901367Y-111340317D01*
X155901369Y-111340317D01*
X155901372Y-111340319D01*
X155969880Y-111362578D01*
X156078850Y-111397984D01*
X156120780Y-111411609D01*
X156234714Y-111429654D01*
X156348647Y-111447700D01*
X156348648Y-111447700D01*
X156579352Y-111447700D01*
X156579353Y-111447700D01*
X156807219Y-111411609D01*
X157026633Y-111340317D01*
X157232194Y-111235579D01*
X157418839Y-111099973D01*
X157581973Y-110936839D01*
X157717579Y-110750194D01*
X157822317Y-110544633D01*
X157893609Y-110325219D01*
X157929700Y-110097353D01*
X157929700Y-109866647D01*
X157913724Y-109765780D01*
X157893609Y-109638780D01*
X157865278Y-109551588D01*
X157848070Y-109498627D01*
X157822318Y-109419369D01*
X157822316Y-109419366D01*
X157822312Y-109419357D01*
X157717579Y-109213806D01*
X157581973Y-109027161D01*
X157418839Y-108864027D01*
X157232194Y-108728421D01*
X157074817Y-108648234D01*
X157026637Y-108623685D01*
X157026636Y-108623684D01*
X157026633Y-108623683D01*
X156929674Y-108592179D01*
X156929672Y-108592178D01*
X156929671Y-108592177D01*
X156834915Y-108561389D01*
X156807219Y-108552390D01*
X156807217Y-108552389D01*
X156807216Y-108552389D01*
X156656107Y-108528456D01*
X156610508Y-108521234D01*
X156598046Y-108519260D01*
X156579356Y-108516300D01*
X156579353Y-108516300D01*
X156348647Y-108516300D01*
X156321238Y-108520641D01*
X156120784Y-108552388D01*
X156120783Y-108552389D01*
X155949804Y-108607944D01*
X155901362Y-108623684D01*
X155901361Y-108623685D01*
X155695812Y-108728417D01*
X155695799Y-108728425D01*
X155622631Y-108781584D01*
X155622632Y-108781585D01*
X155521032Y-108855402D01*
X155513651Y-108859535D01*
X155341533Y-109031653D01*
X155337404Y-109039027D01*
X155324213Y-109057184D01*
X155324211Y-109057188D01*
X155210421Y-109213804D01*
X155105686Y-109419357D01*
X155034388Y-109638785D01*
X155010624Y-109788835D01*
X155010624Y-109788838D01*
X154998300Y-109866647D01*
X153126580Y-109866647D01*
X153074589Y-109788838D01*
X153074586Y-109788834D01*
X153074581Y-109788828D01*
X152963097Y-109677344D01*
X152963091Y-109677339D01*
X152963090Y-109677338D01*
X152831991Y-109589740D01*
X152831990Y-109589739D01*
X152831985Y-109589736D01*
X152831972Y-109589729D01*
X152831965Y-109589725D01*
X152686302Y-109529391D01*
X152686271Y-109529384D01*
X152531647Y-109498627D01*
X152531645Y-109498627D01*
X152531642Y-109498627D01*
X152373958Y-109498627D01*
X152373955Y-109498627D01*
X152373953Y-109498627D01*
X152219327Y-109529384D01*
X152219296Y-109529391D01*
X152073633Y-109589725D01*
X152073624Y-109589730D01*
X152073607Y-109589740D01*
X151942508Y-109677338D01*
X151942507Y-109677339D01*
X151942501Y-109677344D01*
X151831017Y-109788828D01*
X151831012Y-109788834D01*
X151831011Y-109788835D01*
X151743413Y-109919934D01*
X151743404Y-109919949D01*
X151743399Y-109919960D01*
X151698082Y-110029367D01*
X151689016Y-110040616D01*
X151680075Y-110059717D01*
X151674432Y-110066720D01*
X151659785Y-110076890D01*
X151654241Y-110083770D01*
X151645859Y-110086559D01*
X151617041Y-110106570D01*
X151547216Y-110109066D01*
X151487126Y-110073416D01*
X151465558Y-110033071D01*
X151460690Y-110026791D01*
X151460390Y-110023404D01*
X151457204Y-110017444D01*
X151455453Y-110010037D01*
X151453637Y-109998431D01*
X151453462Y-109998459D01*
X151424945Y-109818414D01*
X151416609Y-109765780D01*
X151389350Y-109681886D01*
X151345317Y-109546367D01*
X151240579Y-109340806D01*
X151104973Y-109154161D01*
X150941839Y-108991027D01*
X150755194Y-108855421D01*
X150574472Y-108763339D01*
X150574469Y-108763337D01*
X150554183Y-108753000D01*
X150550687Y-108751033D01*
X150549642Y-108750685D01*
X150459264Y-108721320D01*
X150459263Y-108721319D01*
X150369891Y-108692280D01*
X150330219Y-108679390D01*
X150330217Y-108679389D01*
X150330216Y-108679389D01*
X150179107Y-108655456D01*
X150133508Y-108648234D01*
X150121046Y-108646260D01*
X150102356Y-108643300D01*
X150102353Y-108643300D01*
X149871647Y-108643300D01*
X149844238Y-108647641D01*
X149643785Y-108679388D01*
X149492882Y-108728421D01*
X149492881Y-108728421D01*
X149424440Y-108750658D01*
X149424365Y-108750683D01*
X149424361Y-108750685D01*
X149218801Y-108855423D01*
X149112316Y-108932789D01*
X149044028Y-108982403D01*
X149036653Y-108986533D01*
X148864534Y-109158652D01*
X148860404Y-109166028D01*
X148840293Y-109193710D01*
X148840291Y-109193713D01*
X148733421Y-109340804D01*
X148628686Y-109546357D01*
X148598656Y-109638780D01*
X148557390Y-109765780D01*
X148557389Y-109765783D01*
X148557389Y-109765785D01*
X148521300Y-109993641D01*
X145378100Y-109993641D01*
X145378100Y-109144770D01*
X145381296Y-109116798D01*
X145382195Y-109112918D01*
X145404869Y-108846032D01*
X145430158Y-108780902D01*
X145433614Y-108776612D01*
X145606315Y-108571841D01*
X145623533Y-108550030D01*
X145633154Y-108539211D01*
X148191548Y-105980818D01*
X148219793Y-105959675D01*
X148242885Y-105947067D01*
X148302310Y-105931900D01*
X151078229Y-105931900D01*
X151106203Y-105935097D01*
X151110074Y-105935993D01*
X151110077Y-105935993D01*
X151110080Y-105935994D01*
X151646643Y-105981583D01*
X151686108Y-105983387D01*
X151688578Y-105983048D01*
X151701456Y-105981963D01*
X151703428Y-105981900D01*
X151818444Y-105981900D01*
X151818445Y-105981899D01*
X151841323Y-105977347D01*
X151861504Y-105975030D01*
X151878879Y-105974469D01*
X152395824Y-105882996D01*
X152417430Y-105881100D01*
X157529829Y-105881100D01*
X157557803Y-105884297D01*
X157561674Y-105885193D01*
X157561677Y-105885193D01*
X157561680Y-105885194D01*
X158098243Y-105930783D01*
X158137708Y-105932587D01*
X158140178Y-105932248D01*
X158156160Y-105931103D01*
X158156595Y-105931100D01*
X158270044Y-105931100D01*
X158270045Y-105931099D01*
X158274108Y-105930289D01*
X158275515Y-105930280D01*
X158284155Y-105930783D01*
X158820719Y-105885194D01*
X158832352Y-105883824D01*
X158848290Y-105881950D01*
X158862782Y-105881100D01*
X161443341Y-105881100D01*
X161478273Y-105886121D01*
X161503517Y-105893534D01*
X161556263Y-105924830D01*
X161613332Y-105981899D01*
X161675185Y-106043752D01*
X161706527Y-106064694D01*
X161730326Y-106085428D01*
X161750779Y-106108444D01*
X161768573Y-106134516D01*
X161785949Y-106168618D01*
X161910886Y-106340582D01*
X162061216Y-106490912D01*
X162233169Y-106615842D01*
X162233177Y-106615847D01*
X162233179Y-106615848D01*
X162233181Y-106615849D01*
X162233182Y-106615850D01*
X162233200Y-106615860D01*
X162233442Y-106615982D01*
X162422588Y-106712357D01*
X162624757Y-106778046D01*
X162834713Y-106811300D01*
X162834714Y-106811300D01*
X163047286Y-106811300D01*
X163047287Y-106811300D01*
X163257243Y-106778046D01*
X163459412Y-106712357D01*
X163648816Y-106615851D01*
X163670789Y-106599886D01*
X163820786Y-106490909D01*
X163820786Y-106490908D01*
X163820844Y-106490866D01*
X163821605Y-106490090D01*
X163971104Y-106340592D01*
X163971106Y-106340588D01*
X163971109Y-106340586D01*
X163980413Y-106327781D01*
X164092182Y-106173941D01*
X164092181Y-106173941D01*
X164096048Y-106168620D01*
X164096050Y-106168617D01*
X164096051Y-106168616D01*
X164135886Y-106090432D01*
X164136184Y-106089864D01*
X164136324Y-106089718D01*
X164140821Y-106081762D01*
X164158362Y-106053624D01*
X164181949Y-106000030D01*
X164192557Y-105979212D01*
X164196632Y-105966668D01*
X164737635Y-104737444D01*
X164763444Y-104699720D01*
X166382151Y-103081016D01*
X166434139Y-103003210D01*
X166487750Y-102958405D01*
X166557075Y-102949698D01*
X166582169Y-102956527D01*
X167008900Y-103122428D01*
X167064248Y-103165066D01*
X167087760Y-103230860D01*
X167071968Y-103298922D01*
X167036851Y-103338318D01*
X166861816Y-103465486D01*
X166711492Y-103615810D01*
X166586549Y-103787782D01*
X166490045Y-103977180D01*
X166424352Y-104179359D01*
X166391100Y-104389307D01*
X166391100Y-104601891D01*
X166424352Y-104811839D01*
X166490045Y-105014018D01*
X166583132Y-105196711D01*
X166586551Y-105203420D01*
X166711490Y-105375386D01*
X166861813Y-105525709D01*
X167033782Y-105650650D01*
X167033790Y-105650654D01*
X167034293Y-105650963D01*
X167035774Y-105652096D01*
X167037722Y-105653512D01*
X167037686Y-105653560D01*
X167054634Y-105666534D01*
X167064915Y-105676243D01*
X167100141Y-105736583D01*
X167097152Y-105806389D01*
X167060983Y-105860107D01*
X167053827Y-105866308D01*
X167037414Y-105878323D01*
X167033790Y-105880543D01*
X166861810Y-106005492D01*
X166711492Y-106155810D01*
X166586549Y-106327782D01*
X166490045Y-106517180D01*
X166424352Y-106719359D01*
X166391100Y-106929307D01*
X166391100Y-107141891D01*
X166424352Y-107351839D01*
X166490045Y-107554018D01*
X166583132Y-107736711D01*
X166586551Y-107743420D01*
X166711490Y-107915386D01*
X166861813Y-108065709D01*
X167033782Y-108190650D01*
X167033790Y-108190654D01*
X167034293Y-108190963D01*
X167035774Y-108192096D01*
X167037722Y-108193512D01*
X167037686Y-108193560D01*
X167054634Y-108206534D01*
X167064915Y-108216243D01*
X167100141Y-108276583D01*
X167097152Y-108346389D01*
X167060983Y-108400107D01*
X167053827Y-108406308D01*
X167037414Y-108418323D01*
X167033790Y-108420543D01*
X166861810Y-108545492D01*
X166711492Y-108695810D01*
X166692959Y-108721319D01*
X166589276Y-108864029D01*
X166586549Y-108867782D01*
X166490045Y-109057180D01*
X166424352Y-109259359D01*
X166391100Y-109469307D01*
X166391100Y-109681886D01*
X166391099Y-109681889D01*
X166412723Y-109818412D01*
X166424353Y-109891839D01*
X166480822Y-110065635D01*
X166487621Y-110086559D01*
X166490044Y-110094014D01*
X166533747Y-110179786D01*
X166572245Y-110255344D01*
X166586551Y-110283420D01*
X166711490Y-110455386D01*
X166861813Y-110605709D01*
X167033782Y-110730650D01*
X167033790Y-110730654D01*
X167034293Y-110730963D01*
X167035774Y-110732096D01*
X167037722Y-110733512D01*
X167037686Y-110733560D01*
X167054634Y-110746534D01*
X167064915Y-110756243D01*
X167100141Y-110816583D01*
X167097152Y-110886389D01*
X167060983Y-110940107D01*
X167053827Y-110946308D01*
X167037414Y-110958323D01*
X167033790Y-110960543D01*
X166861810Y-111085492D01*
X166711492Y-111235810D01*
X166711490Y-111235813D01*
X166593668Y-111397984D01*
X166586549Y-111407782D01*
X166490045Y-111597180D01*
X166424352Y-111799359D01*
X166391100Y-112009307D01*
X166391100Y-112221890D01*
X166412723Y-112358412D01*
X166424354Y-112431843D01*
X166449621Y-112509608D01*
X166479147Y-112600480D01*
X166490042Y-112634010D01*
X166490043Y-112634012D01*
X166572245Y-112795344D01*
X166586551Y-112823420D01*
X166711490Y-112995386D01*
X166861813Y-113145709D01*
X167033782Y-113270650D01*
X167033790Y-113270654D01*
X167034293Y-113270963D01*
X167035774Y-113272096D01*
X167037722Y-113273512D01*
X167037686Y-113273560D01*
X167054634Y-113286534D01*
X167064915Y-113296243D01*
X167100141Y-113356583D01*
X167097152Y-113426389D01*
X167060983Y-113480107D01*
X167053827Y-113486308D01*
X167037414Y-113498323D01*
X167033790Y-113500543D01*
X166861810Y-113625492D01*
X166711492Y-113775810D01*
X166687486Y-113808852D01*
X166595217Y-113935852D01*
X166586549Y-113947782D01*
X166490045Y-114137182D01*
X166424352Y-114339362D01*
X166398981Y-114499553D01*
X166398981Y-114499554D01*
X166391100Y-114549308D01*
X166391100Y-114761891D01*
X166397135Y-114799992D01*
X166401134Y-114825244D01*
X166409108Y-114875586D01*
X166420368Y-114946680D01*
X166424352Y-114971835D01*
X166424354Y-114971842D01*
X166473181Y-115122119D01*
X166490041Y-115174007D01*
X166490043Y-115174012D01*
X166490044Y-115174014D01*
X166586551Y-115363420D01*
X166711490Y-115535386D01*
X166861813Y-115685709D01*
X167033782Y-115810650D01*
X167033790Y-115810654D01*
X167034293Y-115810963D01*
X167035774Y-115812096D01*
X167037722Y-115813512D01*
X167037686Y-115813560D01*
X167054634Y-115826534D01*
X167064915Y-115836243D01*
X167100141Y-115896583D01*
X167097152Y-115966389D01*
X167060983Y-116020107D01*
X167053827Y-116026308D01*
X167037414Y-116038323D01*
X167033790Y-116040543D01*
X166861810Y-116165492D01*
X166711492Y-116315810D01*
X166586549Y-116487782D01*
X166490045Y-116677180D01*
X166424354Y-116879355D01*
X166424352Y-116879362D01*
X166407491Y-116985825D01*
X166407491Y-116985826D01*
X166391100Y-117089313D01*
X166391100Y-117301887D01*
X166391137Y-117302119D01*
X166393985Y-117320101D01*
X166393985Y-117320102D01*
X166420487Y-117487432D01*
X166424352Y-117511834D01*
X166424355Y-117511846D01*
X166440525Y-117561615D01*
X166440526Y-117561615D01*
X166440526Y-117561616D01*
X166440528Y-117561621D01*
X166490045Y-117714018D01*
X166573278Y-117877370D01*
X166586551Y-117903420D01*
X166711490Y-118075386D01*
X166711492Y-118075388D01*
X166861816Y-118225712D01*
X167033769Y-118350642D01*
X167033777Y-118350647D01*
X167033779Y-118350648D01*
X167033781Y-118350649D01*
X167033782Y-118350650D01*
X167033800Y-118350660D01*
X167034042Y-118350782D01*
X167223188Y-118447157D01*
X167425357Y-118512846D01*
X167635313Y-118546100D01*
X167635314Y-118546100D01*
X167847886Y-118546100D01*
X167847887Y-118546100D01*
X168057843Y-118512846D01*
X168260012Y-118447157D01*
X168449416Y-118350651D01*
X168471389Y-118334686D01*
X168621386Y-118225709D01*
X168621386Y-118225708D01*
X168621444Y-118225666D01*
X168622205Y-118224890D01*
X168771704Y-118075392D01*
X168771706Y-118075388D01*
X168771709Y-118075386D01*
X168896648Y-117903420D01*
X168896647Y-117903420D01*
X168896651Y-117903416D01*
X168896653Y-117903410D01*
X168917045Y-117875344D01*
X168925330Y-117847129D01*
X168993157Y-117714012D01*
X169058846Y-117511843D01*
X169092100Y-117301887D01*
X169092100Y-117089313D01*
X169058846Y-116879357D01*
X168993157Y-116677188D01*
X168896651Y-116487784D01*
X168896649Y-116487781D01*
X168896648Y-116487779D01*
X168896302Y-116487303D01*
X168896300Y-116487299D01*
X168771712Y-116315816D01*
X168621382Y-116165486D01*
X168449424Y-116040553D01*
X168448858Y-116040206D01*
X168447227Y-116038957D01*
X168445501Y-116037703D01*
X168445532Y-116037659D01*
X168428560Y-116024662D01*
X168418283Y-116014957D01*
X168383057Y-115954617D01*
X168386045Y-115884812D01*
X168422213Y-115831093D01*
X168429383Y-115824881D01*
X168445787Y-115812875D01*
X168449416Y-115810651D01*
X168457799Y-115804560D01*
X168471389Y-115794686D01*
X168621386Y-115685709D01*
X168621387Y-115685706D01*
X168621390Y-115685705D01*
X168621392Y-115685704D01*
X168621393Y-115685702D01*
X168621447Y-115685663D01*
X168622205Y-115684890D01*
X168771704Y-115535392D01*
X168771706Y-115535388D01*
X168771709Y-115535386D01*
X168820301Y-115468504D01*
X168893934Y-115367157D01*
X168896645Y-115363424D01*
X168896644Y-115363424D01*
X168896648Y-115363420D01*
X168896647Y-115363420D01*
X168896651Y-115363416D01*
X168993157Y-115174012D01*
X169058846Y-114971843D01*
X169092100Y-114761887D01*
X169092100Y-114549313D01*
X169058846Y-114339357D01*
X168993157Y-114137188D01*
X168896651Y-113947784D01*
X168896649Y-113947781D01*
X168896648Y-113947779D01*
X168896302Y-113947303D01*
X168896300Y-113947299D01*
X168771712Y-113775816D01*
X168621382Y-113625486D01*
X168449424Y-113500553D01*
X168448858Y-113500206D01*
X168447227Y-113498957D01*
X168445501Y-113497703D01*
X168445532Y-113497659D01*
X168428560Y-113484662D01*
X168418283Y-113474957D01*
X168383057Y-113414617D01*
X168386045Y-113344812D01*
X168422212Y-113291095D01*
X168429383Y-113284881D01*
X168445794Y-113272869D01*
X168449392Y-113270663D01*
X168449416Y-113270651D01*
X168512315Y-113224953D01*
X168518462Y-113220487D01*
X168572196Y-113181447D01*
X168621386Y-113145709D01*
X168621387Y-113145707D01*
X168621447Y-113145663D01*
X168622205Y-113144890D01*
X168771704Y-112995392D01*
X168771706Y-112995388D01*
X168771709Y-112995386D01*
X168896648Y-112823420D01*
X168896647Y-112823420D01*
X168896651Y-112823416D01*
X168896653Y-112823410D01*
X168917045Y-112795344D01*
X168925330Y-112767129D01*
X168993157Y-112634012D01*
X169058846Y-112431843D01*
X169092100Y-112221887D01*
X169092100Y-112009313D01*
X169058846Y-111799357D01*
X168993157Y-111597188D01*
X168896651Y-111407784D01*
X168896649Y-111407781D01*
X168896648Y-111407779D01*
X168896302Y-111407303D01*
X168896300Y-111407299D01*
X168771712Y-111235816D01*
X168621382Y-111085486D01*
X168449424Y-110960553D01*
X168448858Y-110960206D01*
X168447227Y-110958957D01*
X168445501Y-110957703D01*
X168445532Y-110957659D01*
X168428560Y-110944662D01*
X168418283Y-110934957D01*
X168383057Y-110874617D01*
X168386045Y-110804812D01*
X168422212Y-110751095D01*
X168429383Y-110744881D01*
X168445801Y-110732866D01*
X168449406Y-110730655D01*
X168449416Y-110730651D01*
X168521455Y-110678312D01*
X168621386Y-110605709D01*
X168621386Y-110605707D01*
X168621446Y-110605664D01*
X168622205Y-110604890D01*
X168771704Y-110455392D01*
X168771706Y-110455388D01*
X168771709Y-110455386D01*
X168896648Y-110283420D01*
X168896647Y-110283420D01*
X168896651Y-110283416D01*
X168896653Y-110283410D01*
X168917045Y-110255344D01*
X168925330Y-110227129D01*
X168993157Y-110094012D01*
X169058846Y-109891843D01*
X169092100Y-109681887D01*
X169092100Y-109469313D01*
X169058846Y-109259357D01*
X168993157Y-109057188D01*
X168896651Y-108867784D01*
X168896649Y-108867781D01*
X168896648Y-108867779D01*
X168896302Y-108867303D01*
X168896300Y-108867299D01*
X168771712Y-108695816D01*
X168621382Y-108545486D01*
X168449424Y-108420553D01*
X168448858Y-108420206D01*
X168447227Y-108418957D01*
X168445501Y-108417703D01*
X168445532Y-108417659D01*
X168428560Y-108404662D01*
X168418283Y-108394957D01*
X168383057Y-108334617D01*
X168386045Y-108264812D01*
X168422212Y-108211095D01*
X168429383Y-108204881D01*
X168445794Y-108192869D01*
X168449394Y-108190662D01*
X168449416Y-108190651D01*
X168568378Y-108104221D01*
X168621386Y-108065709D01*
X168621386Y-108065707D01*
X168621447Y-108065664D01*
X168622209Y-108064886D01*
X168771704Y-107915392D01*
X168771706Y-107915388D01*
X168771709Y-107915386D01*
X168896648Y-107743420D01*
X168896647Y-107743420D01*
X168896651Y-107743416D01*
X168896653Y-107743410D01*
X168917045Y-107715344D01*
X168925330Y-107687129D01*
X168993157Y-107554012D01*
X169058846Y-107351843D01*
X169092100Y-107141887D01*
X169092100Y-106929313D01*
X169058846Y-106719357D01*
X168993157Y-106517188D01*
X168896651Y-106327784D01*
X168896649Y-106327781D01*
X168896648Y-106327779D01*
X168896302Y-106327303D01*
X168896300Y-106327299D01*
X168771712Y-106155816D01*
X168621382Y-106005486D01*
X168449424Y-105880553D01*
X168448858Y-105880206D01*
X168447227Y-105878957D01*
X168445501Y-105877703D01*
X168445532Y-105877659D01*
X168428560Y-105864662D01*
X168418283Y-105854957D01*
X168383057Y-105794617D01*
X168386045Y-105724812D01*
X168422212Y-105671095D01*
X168429383Y-105664881D01*
X168445794Y-105652869D01*
X168449394Y-105650662D01*
X168449416Y-105650651D01*
X168564433Y-105567087D01*
X168621386Y-105525709D01*
X168621388Y-105525706D01*
X168621392Y-105525704D01*
X168621396Y-105525699D01*
X168621450Y-105525660D01*
X168622206Y-105524890D01*
X168771704Y-105375392D01*
X168771706Y-105375388D01*
X168771709Y-105375386D01*
X168896648Y-105203420D01*
X168896647Y-105203420D01*
X168896651Y-105203416D01*
X168896653Y-105203410D01*
X168917045Y-105175344D01*
X168925330Y-105147129D01*
X168993157Y-105014012D01*
X169058846Y-104811843D01*
X169092100Y-104601887D01*
X169092100Y-104389313D01*
X169058846Y-104179357D01*
X168993157Y-103977188D01*
X168896651Y-103787784D01*
X168896649Y-103787781D01*
X168896648Y-103787779D01*
X168896302Y-103787303D01*
X168896300Y-103787299D01*
X168771712Y-103615816D01*
X168621382Y-103465486D01*
X168449424Y-103340553D01*
X168448858Y-103340206D01*
X168447227Y-103338957D01*
X168445501Y-103337703D01*
X168445532Y-103337659D01*
X168428560Y-103324662D01*
X168418283Y-103314957D01*
X168383057Y-103254617D01*
X168386045Y-103184812D01*
X168422212Y-103131095D01*
X168429383Y-103124881D01*
X168445794Y-103112869D01*
X168449397Y-103110660D01*
X168449416Y-103110651D01*
X168479144Y-103089052D01*
X168490206Y-103081016D01*
X168504003Y-103070991D01*
X168621386Y-102985709D01*
X168621388Y-102985706D01*
X168621392Y-102985704D01*
X168621399Y-102985696D01*
X168621451Y-102985659D01*
X168622193Y-102984903D01*
X168771704Y-102835392D01*
X168771706Y-102835388D01*
X168771709Y-102835386D01*
X168896648Y-102663420D01*
X168896647Y-102663420D01*
X168896651Y-102663416D01*
X168896653Y-102663410D01*
X168917045Y-102635344D01*
X168925330Y-102607129D01*
X168993157Y-102474012D01*
X169058846Y-102271843D01*
X169092100Y-102061887D01*
X169092100Y-101849313D01*
X169058846Y-101639357D01*
X168993157Y-101437188D01*
X168896651Y-101247784D01*
X168896649Y-101247781D01*
X168896648Y-101247779D01*
X168896302Y-101247303D01*
X168896300Y-101247299D01*
X168771712Y-101075816D01*
X168621382Y-100925486D01*
X168449424Y-100800553D01*
X168448858Y-100800206D01*
X168447227Y-100798957D01*
X168445501Y-100797703D01*
X168445532Y-100797659D01*
X168428560Y-100784662D01*
X168418283Y-100774957D01*
X168383057Y-100714617D01*
X168386045Y-100644812D01*
X168422212Y-100591095D01*
X168429383Y-100584881D01*
X168445794Y-100572869D01*
X168449394Y-100570662D01*
X168449416Y-100570651D01*
X168564433Y-100487087D01*
X168621386Y-100445709D01*
X168621388Y-100445706D01*
X168621392Y-100445704D01*
X168621396Y-100445699D01*
X168621450Y-100445660D01*
X168622206Y-100444890D01*
X168771704Y-100295392D01*
X168771706Y-100295388D01*
X168771709Y-100295386D01*
X168896648Y-100123420D01*
X168896647Y-100123420D01*
X168896651Y-100123416D01*
X168896653Y-100123410D01*
X168917045Y-100095344D01*
X168925330Y-100067129D01*
X168993157Y-99934012D01*
X169058846Y-99731843D01*
X169092100Y-99521887D01*
X169092100Y-99309313D01*
X169058846Y-99099357D01*
X168993157Y-98897188D01*
X168896651Y-98707784D01*
X168896649Y-98707781D01*
X168896648Y-98707779D01*
X168896302Y-98707303D01*
X168896300Y-98707299D01*
X168771712Y-98535816D01*
X168621382Y-98385486D01*
X168449424Y-98260553D01*
X168448858Y-98260206D01*
X168447227Y-98258957D01*
X168445501Y-98257703D01*
X168445532Y-98257659D01*
X168428560Y-98244662D01*
X168418283Y-98234957D01*
X168383057Y-98174617D01*
X168386045Y-98104812D01*
X168422212Y-98051095D01*
X168429383Y-98044881D01*
X168445794Y-98032869D01*
X168449394Y-98030662D01*
X168449416Y-98030651D01*
X168564433Y-97947087D01*
X168621386Y-97905709D01*
X168621388Y-97905706D01*
X168621392Y-97905704D01*
X168621396Y-97905699D01*
X168621450Y-97905660D01*
X168622206Y-97904890D01*
X168771704Y-97755392D01*
X168771706Y-97755388D01*
X168771709Y-97755386D01*
X168896648Y-97583420D01*
X168896647Y-97583420D01*
X168896651Y-97583416D01*
X168896653Y-97583410D01*
X168917045Y-97555344D01*
X168925330Y-97527129D01*
X168993157Y-97394012D01*
X169058846Y-97191843D01*
X169092100Y-96981887D01*
X169092100Y-96769313D01*
X169058846Y-96559357D01*
X168993157Y-96357188D01*
X168896651Y-96167784D01*
X168896649Y-96167781D01*
X168896648Y-96167779D01*
X168896302Y-96167303D01*
X168896300Y-96167299D01*
X168771712Y-95995816D01*
X168621382Y-95845486D01*
X168449424Y-95720553D01*
X168448858Y-95720206D01*
X168447227Y-95718957D01*
X168445501Y-95717703D01*
X168445532Y-95717659D01*
X168428560Y-95704662D01*
X168418283Y-95694957D01*
X168383057Y-95634617D01*
X168386045Y-95564812D01*
X168422213Y-95511093D01*
X168429383Y-95504881D01*
X168445787Y-95492875D01*
X168449416Y-95490651D01*
X168449420Y-95490648D01*
X168471389Y-95474686D01*
X168621386Y-95365709D01*
X168621387Y-95365706D01*
X168621390Y-95365705D01*
X168621392Y-95365704D01*
X168621393Y-95365702D01*
X168621447Y-95365663D01*
X168622205Y-95364890D01*
X168771704Y-95215392D01*
X168771706Y-95215388D01*
X168771709Y-95215386D01*
X168896648Y-95043420D01*
X168896647Y-95043420D01*
X168896651Y-95043416D01*
X168896653Y-95043410D01*
X168917045Y-95015344D01*
X168925330Y-94987129D01*
X168993157Y-94854012D01*
X169058846Y-94651843D01*
X169092100Y-94441887D01*
X169092100Y-94229313D01*
X169058846Y-94019357D01*
X168993157Y-93817188D01*
X168896651Y-93627784D01*
X168896649Y-93627781D01*
X168896648Y-93627779D01*
X168896302Y-93627303D01*
X168896300Y-93627299D01*
X168771712Y-93455816D01*
X168621382Y-93305486D01*
X168449424Y-93180553D01*
X168448858Y-93180206D01*
X168447227Y-93178957D01*
X168445501Y-93177703D01*
X168445532Y-93177659D01*
X168428560Y-93164662D01*
X168418283Y-93154957D01*
X168383057Y-93094617D01*
X168386045Y-93024812D01*
X168422212Y-92971095D01*
X168429383Y-92964881D01*
X168445794Y-92952869D01*
X168449394Y-92950662D01*
X168449416Y-92950651D01*
X168564433Y-92867087D01*
X168621386Y-92825709D01*
X168621388Y-92825706D01*
X168621392Y-92825704D01*
X168621396Y-92825699D01*
X168621450Y-92825660D01*
X168622206Y-92824890D01*
X168771704Y-92675392D01*
X168771706Y-92675388D01*
X168771709Y-92675386D01*
X168896648Y-92503420D01*
X168896647Y-92503420D01*
X168896651Y-92503416D01*
X168896654Y-92503408D01*
X168917046Y-92475342D01*
X168925330Y-92447129D01*
X168993157Y-92314012D01*
X169058846Y-92111843D01*
X169092100Y-91901887D01*
X169092100Y-91689313D01*
X169058846Y-91479357D01*
X168993157Y-91277188D01*
X168896651Y-91087784D01*
X168896649Y-91087781D01*
X168896648Y-91087779D01*
X168896302Y-91087303D01*
X168896300Y-91087299D01*
X168771712Y-90915816D01*
X168621382Y-90765486D01*
X168449424Y-90640553D01*
X168448858Y-90640206D01*
X168447227Y-90638957D01*
X168445501Y-90637703D01*
X168445532Y-90637659D01*
X168428560Y-90624662D01*
X168418283Y-90614957D01*
X168383057Y-90554617D01*
X168386045Y-90484812D01*
X168422213Y-90431093D01*
X168429383Y-90424881D01*
X168445787Y-90412875D01*
X168449416Y-90410651D01*
X168449417Y-90410650D01*
X168471389Y-90394686D01*
X168621386Y-90285709D01*
X168621387Y-90285706D01*
X168621390Y-90285705D01*
X168621392Y-90285704D01*
X168621393Y-90285702D01*
X168621447Y-90285663D01*
X168622205Y-90284890D01*
X168771704Y-90135392D01*
X168771706Y-90135388D01*
X168771709Y-90135386D01*
X168896648Y-89963420D01*
X168896647Y-89963420D01*
X168896651Y-89963416D01*
X168896653Y-89963410D01*
X168917045Y-89935344D01*
X168925330Y-89907129D01*
X168993157Y-89774012D01*
X169058846Y-89571843D01*
X169092100Y-89361887D01*
X169092100Y-89149313D01*
X169058846Y-88939357D01*
X168993157Y-88737188D01*
X168896651Y-88547784D01*
X168896649Y-88547781D01*
X168896648Y-88547779D01*
X168896302Y-88547303D01*
X168896300Y-88547299D01*
X168771712Y-88375816D01*
X168621388Y-88225492D01*
X168621387Y-88225491D01*
X168621386Y-88225490D01*
X168449417Y-88100549D01*
X168449412Y-88100546D01*
X168448184Y-88099794D01*
X168427842Y-88084224D01*
X168417727Y-88074671D01*
X168382506Y-88014334D01*
X168385496Y-87944529D01*
X168421666Y-87890810D01*
X168428722Y-87884696D01*
X168445137Y-87872683D01*
X168449142Y-87870228D01*
X168449155Y-87870222D01*
X168470719Y-87854553D01*
X168497458Y-87845012D01*
X168503317Y-87830869D01*
X167997749Y-87325302D01*
X167964264Y-87263979D01*
X167969248Y-87194288D01*
X168011119Y-87138354D01*
X168023422Y-87130239D01*
X168048607Y-87115699D01*
X168141699Y-87022607D01*
X168156234Y-86997430D01*
X168206799Y-86949216D01*
X168275405Y-86935991D01*
X168340271Y-86961958D01*
X168351302Y-86971749D01*
X168856869Y-87477317D01*
X168856869Y-87477316D01*
X168856870Y-87477317D01*
X168856870Y-87477316D01*
X168870338Y-87471737D01*
X168876555Y-87450567D01*
X168880554Y-87444718D01*
X168896221Y-87423155D01*
X168926077Y-87364560D01*
X168992695Y-87233817D01*
X169058357Y-87031730D01*
X169058357Y-87031727D01*
X169091600Y-86821846D01*
X169091600Y-86609353D01*
X169073375Y-86494291D01*
X169059884Y-86409111D01*
X169059883Y-86409105D01*
X169059883Y-86409106D01*
X169058356Y-86399465D01*
X169031074Y-86315501D01*
X168992695Y-86197382D01*
X168896224Y-86008049D01*
X168856870Y-85953882D01*
X168856869Y-85953882D01*
X168856868Y-85953882D01*
X168351302Y-86459449D01*
X168289979Y-86492934D01*
X168220287Y-86487950D01*
X168164354Y-86446078D01*
X168156234Y-86433769D01*
X168141699Y-86408593D01*
X168048607Y-86315501D01*
X168048604Y-86315499D01*
X168048600Y-86315496D01*
X168023428Y-86300963D01*
X167975213Y-86250396D01*
X167961991Y-86181789D01*
X167987959Y-86116924D01*
X167997740Y-86105904D01*
X168528627Y-85575017D01*
X168556872Y-85553874D01*
X168579964Y-85541266D01*
X168636198Y-85526913D01*
X168636176Y-85526500D01*
X168636171Y-85526454D01*
X168636173Y-85526453D01*
X168636164Y-85526276D01*
X168639367Y-85526104D01*
X168639389Y-85526099D01*
X168639471Y-85526099D01*
X168639472Y-85526099D01*
X168699083Y-85519691D01*
X168833931Y-85469396D01*
X168949146Y-85383146D01*
X169035396Y-85267931D01*
X169085691Y-85133083D01*
X169092100Y-85073473D01*
X169092099Y-83277728D01*
X169089793Y-83256275D01*
X169091052Y-83221013D01*
X169093648Y-83206626D01*
X169124922Y-83144151D01*
X169182877Y-83109063D01*
X169195080Y-83105715D01*
X169227877Y-83101300D01*
X170096470Y-83101300D01*
X170131406Y-83106323D01*
X170146404Y-83110727D01*
X170161394Y-83120357D01*
X170178475Y-83125367D01*
X170205155Y-83148472D01*
X170206342Y-83149841D01*
X170233818Y-83204702D01*
X170235463Y-83212260D01*
X170238300Y-83238631D01*
X170238300Y-130929670D01*
X170233275Y-130964614D01*
X170228870Y-130979612D01*
X170219239Y-130994601D01*
X170214232Y-131011675D01*
X170191127Y-131038355D01*
X170189758Y-131039542D01*
X170134897Y-131067018D01*
X170127339Y-131068663D01*
X170100968Y-131071500D01*
X136710130Y-131071500D01*
X136675189Y-131066475D01*
X136660190Y-131062070D01*
X136645202Y-131052440D01*
X136628124Y-131047432D01*
X136601444Y-131024327D01*
X136600257Y-131022958D01*
X136572777Y-130968083D01*
X136571132Y-130960521D01*
X136568300Y-130934168D01*
X136568300Y-120978680D01*
X136573322Y-120943747D01*
X136577233Y-120930428D01*
X136586871Y-120915430D01*
X136591894Y-120898325D01*
X136605366Y-120886650D01*
X136615006Y-120871651D01*
X136631223Y-120864244D01*
X136644697Y-120852569D01*
X136678551Y-120842627D01*
X136689464Y-120841058D01*
X136731295Y-120842178D01*
X136798682Y-120855582D01*
X136798683Y-120855583D01*
X136798684Y-120855583D01*
X136852555Y-120866300D01*
X137010244Y-120866300D01*
X137014364Y-120866300D01*
X137022214Y-120863918D01*
X137164897Y-120835537D01*
X137310579Y-120775194D01*
X137441689Y-120687589D01*
X137553189Y-120576089D01*
X137640794Y-120444979D01*
X137701137Y-120299297D01*
X137731900Y-120144642D01*
X137731900Y-119986958D01*
X137731900Y-119986955D01*
X137731900Y-119986773D01*
X137731465Y-119984772D01*
X137701795Y-119835616D01*
X137701394Y-119833267D01*
X137701138Y-119832308D01*
X137701137Y-119832306D01*
X137701137Y-119832303D01*
X137701135Y-119832298D01*
X137640797Y-119686627D01*
X137640790Y-119686614D01*
X137553189Y-119555511D01*
X137553186Y-119555507D01*
X137553181Y-119555501D01*
X137441697Y-119444017D01*
X137441691Y-119444012D01*
X137441690Y-119444011D01*
X137310591Y-119356413D01*
X137310590Y-119356412D01*
X137310585Y-119356409D01*
X137310572Y-119356402D01*
X137310565Y-119356398D01*
X137164902Y-119296064D01*
X137164871Y-119296057D01*
X137010247Y-119265300D01*
X137010245Y-119265300D01*
X137010242Y-119265300D01*
X136852558Y-119265300D01*
X136852555Y-119265300D01*
X136852552Y-119265300D01*
X136733981Y-119288885D01*
X136733980Y-119288886D01*
X136698736Y-119290776D01*
X136684911Y-119289539D01*
X136619893Y-119263958D01*
X136579026Y-119207286D01*
X136575360Y-119196893D01*
X136568300Y-119155649D01*
X136568300Y-99748448D01*
X141871299Y-99748448D01*
X141902057Y-99903071D01*
X141902064Y-99903102D01*
X141962398Y-100048765D01*
X141962403Y-100048774D01*
X141962413Y-100048791D01*
X142050011Y-100179890D01*
X142050012Y-100179891D01*
X142050017Y-100179897D01*
X142161501Y-100291381D01*
X142161507Y-100291386D01*
X142161511Y-100291389D01*
X142292614Y-100378990D01*
X142292627Y-100378997D01*
X142438298Y-100439335D01*
X142438303Y-100439337D01*
X142592953Y-100470099D01*
X142592956Y-100470100D01*
X142592958Y-100470100D01*
X142750644Y-100470100D01*
X142750645Y-100470099D01*
X142905297Y-100439337D01*
X143050979Y-100378994D01*
X143182089Y-100291389D01*
X143293589Y-100179889D01*
X143381194Y-100048779D01*
X143441537Y-99903097D01*
X143472300Y-99748442D01*
X143472300Y-99590758D01*
X143472300Y-99590755D01*
X143472300Y-99590571D01*
X143471864Y-99588566D01*
X143470101Y-99579706D01*
X143441537Y-99436103D01*
X143406158Y-99350690D01*
X143406156Y-99350686D01*
X143397837Y-99330602D01*
X143381197Y-99290427D01*
X143381190Y-99290414D01*
X143293589Y-99159311D01*
X143293586Y-99159307D01*
X143293581Y-99159301D01*
X143182097Y-99047817D01*
X143182091Y-99047812D01*
X143182090Y-99047811D01*
X143050991Y-98960213D01*
X143050990Y-98960212D01*
X143050985Y-98960209D01*
X143050972Y-98960202D01*
X143050965Y-98960198D01*
X142905302Y-98899864D01*
X142905271Y-98899857D01*
X142750647Y-98869100D01*
X142750645Y-98869100D01*
X142750642Y-98869100D01*
X142592958Y-98869100D01*
X142592955Y-98869100D01*
X142592953Y-98869100D01*
X142438327Y-98899857D01*
X142438296Y-98899864D01*
X142292633Y-98960198D01*
X142292624Y-98960203D01*
X142292607Y-98960213D01*
X142161508Y-99047811D01*
X142161507Y-99047812D01*
X142161501Y-99047817D01*
X142050017Y-99159301D01*
X142050012Y-99159307D01*
X142050011Y-99159308D01*
X141962413Y-99290407D01*
X141962403Y-99290424D01*
X141962398Y-99290433D01*
X141902064Y-99436096D01*
X141902057Y-99436127D01*
X141871300Y-99590750D01*
X141871300Y-99590753D01*
X141871300Y-99748446D01*
X141871300Y-99748448D01*
X141871299Y-99748448D01*
X136568300Y-99748448D01*
X136568300Y-94228848D01*
X139499499Y-94228848D01*
X139530257Y-94383471D01*
X139530264Y-94383502D01*
X139590598Y-94529165D01*
X139590603Y-94529174D01*
X139590613Y-94529191D01*
X139678211Y-94660290D01*
X139678217Y-94660297D01*
X139789701Y-94771781D01*
X139789707Y-94771786D01*
X139789711Y-94771789D01*
X139920814Y-94859390D01*
X139920827Y-94859397D01*
X140066498Y-94919735D01*
X140066503Y-94919737D01*
X140221153Y-94950499D01*
X140221156Y-94950500D01*
X140221158Y-94950500D01*
X140378844Y-94950500D01*
X140378845Y-94950499D01*
X140533497Y-94919737D01*
X140679179Y-94859394D01*
X140810289Y-94771789D01*
X140921789Y-94660289D01*
X141009394Y-94529179D01*
X141069737Y-94383497D01*
X141100500Y-94228842D01*
X141100500Y-94071158D01*
X141100500Y-94071155D01*
X141100500Y-94070971D01*
X141100064Y-94068966D01*
X141092832Y-94032607D01*
X141083220Y-93984287D01*
X141081332Y-93949044D01*
X141082726Y-93933471D01*
X141089253Y-93916876D01*
X141089448Y-93914700D01*
X141090787Y-93912975D01*
X141108290Y-93868479D01*
X141109399Y-93867050D01*
X141157849Y-93829404D01*
X141165573Y-93826043D01*
X141179067Y-93821080D01*
X141183488Y-93819738D01*
X141183497Y-93819737D01*
X141301584Y-93770824D01*
X141329172Y-93759397D01*
X141329172Y-93759396D01*
X141329179Y-93759394D01*
X141460289Y-93671789D01*
X141571789Y-93560289D01*
X141659394Y-93429179D01*
X141665488Y-93414468D01*
X141682200Y-93374121D01*
X141719737Y-93283497D01*
X141750500Y-93128842D01*
X141750500Y-92971158D01*
X141750500Y-92971155D01*
X141750499Y-92971153D01*
X141719737Y-92816503D01*
X141700319Y-92769624D01*
X141659397Y-92670827D01*
X141659390Y-92670814D01*
X141571789Y-92539711D01*
X141571786Y-92539707D01*
X141571781Y-92539701D01*
X141460297Y-92428217D01*
X141460291Y-92428212D01*
X141460290Y-92428211D01*
X141329191Y-92340613D01*
X141329190Y-92340612D01*
X141329185Y-92340609D01*
X141329172Y-92340602D01*
X141329165Y-92340598D01*
X141183502Y-92280264D01*
X141183471Y-92280257D01*
X141028847Y-92249500D01*
X141028845Y-92249500D01*
X141028842Y-92249500D01*
X140871158Y-92249500D01*
X140871155Y-92249500D01*
X140871153Y-92249500D01*
X140716527Y-92280257D01*
X140716496Y-92280264D01*
X140570833Y-92340598D01*
X140570824Y-92340603D01*
X140570807Y-92340613D01*
X140439708Y-92428211D01*
X140439707Y-92428212D01*
X140439701Y-92428217D01*
X140328217Y-92539701D01*
X140328212Y-92539707D01*
X140328211Y-92539708D01*
X140240613Y-92670807D01*
X140240603Y-92670824D01*
X140240598Y-92670833D01*
X140180264Y-92816496D01*
X140180257Y-92816527D01*
X140149500Y-92971150D01*
X140149500Y-93128850D01*
X140166776Y-93215702D01*
X140166777Y-93215704D01*
X140168667Y-93250947D01*
X140167274Y-93266518D01*
X140141694Y-93331537D01*
X140141665Y-93331574D01*
X140140551Y-93333007D01*
X140092152Y-93370594D01*
X140084051Y-93374121D01*
X140068637Y-93379652D01*
X140066507Y-93380260D01*
X140066486Y-93380268D01*
X139920833Y-93440598D01*
X139920824Y-93440603D01*
X139920807Y-93440613D01*
X139789708Y-93528211D01*
X139789707Y-93528212D01*
X139789701Y-93528217D01*
X139678217Y-93639701D01*
X139678215Y-93639704D01*
X139678213Y-93639707D01*
X139678210Y-93639711D01*
X139676640Y-93642061D01*
X139590613Y-93770807D01*
X139590603Y-93770824D01*
X139590598Y-93770833D01*
X139530264Y-93916496D01*
X139530257Y-93916527D01*
X139499500Y-94071150D01*
X139499500Y-94071153D01*
X139499500Y-94228846D01*
X139499500Y-94228848D01*
X139499499Y-94228848D01*
X136568300Y-94228848D01*
X136568300Y-83243129D01*
X136569107Y-83237519D01*
X136573323Y-83208193D01*
X136577727Y-83193195D01*
X136615472Y-83134444D01*
X136615500Y-83134419D01*
X136615499Y-83134419D01*
X136616841Y-83133256D01*
X136671720Y-83105777D01*
X136672001Y-83105716D01*
X136673578Y-83105373D01*
X136679279Y-83104133D01*
X136705632Y-83101300D01*
X166254197Y-83101300D01*
X166276313Y-83104479D01*
G37*
%TD.AperFunction*%
%TA.AperFunction,Conductor*%
G36*
X167262911Y-86943247D02*
G01*
X167318844Y-86985119D01*
X167326963Y-86997428D01*
X167341496Y-87022600D01*
X167341499Y-87022604D01*
X167341501Y-87022607D01*
X167434593Y-87115699D01*
X167459769Y-87130234D01*
X167507984Y-87180802D01*
X167521206Y-87249409D01*
X167495238Y-87314273D01*
X167485449Y-87325302D01*
X166979921Y-87830829D01*
X166979882Y-87830869D01*
X166979882Y-87830870D01*
X167034052Y-87870226D01*
X167034051Y-87870226D01*
X167035715Y-87871074D01*
X167043457Y-87876658D01*
X167046090Y-87880048D01*
X167056050Y-87887069D01*
X167065468Y-87895963D01*
X167100692Y-87956300D01*
X167097704Y-88026105D01*
X167061532Y-88079829D01*
X167054529Y-88085897D01*
X167037544Y-88097376D01*
X167037931Y-88098007D01*
X167033772Y-88100555D01*
X166861816Y-88225486D01*
X166861811Y-88225491D01*
X166861811Y-88225492D01*
X166861809Y-88225494D01*
X166814956Y-88272346D01*
X166773985Y-88313318D01*
X166745732Y-88334468D01*
X166735808Y-88339887D01*
X166718383Y-88343677D01*
X166712661Y-88346802D01*
X166706158Y-88346336D01*
X166667535Y-88354739D01*
X166602070Y-88330323D01*
X166560199Y-88274389D01*
X166560197Y-88274385D01*
X166557513Y-88267187D01*
X166549700Y-88223867D01*
X166549700Y-87623136D01*
X166554722Y-87588203D01*
X166558742Y-87574513D01*
X166562134Y-87562958D01*
X166593428Y-87510216D01*
X167131898Y-86971746D01*
X167193219Y-86938263D01*
X167262911Y-86943247D01*
G37*
%TD.AperFunction*%
%TD*%
%TA.AperFunction,Conductor*%
%TO.N,/USB_5V*%
G36*
X161260667Y-108904929D02*
G01*
X161261422Y-108905303D01*
X162024512Y-109318771D01*
X162029353Y-109323729D01*
X162395321Y-110039144D01*
X162396038Y-110048070D01*
X162390233Y-110054888D01*
X162390162Y-110054925D01*
X161044597Y-110731621D01*
X161035666Y-110732276D01*
X161031067Y-110729441D01*
X160618499Y-110316873D01*
X160615072Y-110308600D01*
X160616109Y-110303785D01*
X160728494Y-110054925D01*
X161245190Y-108910775D01*
X161251717Y-108904647D01*
X161260667Y-108904929D01*
G37*
%TD.AperFunction*%
%TD*%
%TA.AperFunction,Conductor*%
%TO.N,+3.3V*%
G36*
X144914104Y-108520988D02*
G01*
X144921805Y-108525556D01*
X144924098Y-108533559D01*
X144878510Y-109070123D01*
X144874395Y-109078077D01*
X144866852Y-109080833D01*
X144388348Y-109080833D01*
X144380075Y-109077406D01*
X144376690Y-109070124D01*
X144376690Y-109070123D01*
X144331101Y-108533558D01*
X144333815Y-108525026D01*
X144341094Y-108520988D01*
X144625936Y-108480072D01*
X144629264Y-108480072D01*
X144914104Y-108520988D01*
G37*
%TD.AperFunction*%
%TD*%
%TA.AperFunction,Conductor*%
%TO.N,+3.3V*%
G36*
X144880872Y-107891775D02*
G01*
X145219224Y-108230127D01*
X145222651Y-108238400D01*
X145219895Y-108245943D01*
X144872724Y-108657587D01*
X144864771Y-108661702D01*
X144856767Y-108659409D01*
X144765518Y-108591082D01*
X144626419Y-108486926D01*
X144624073Y-108484580D01*
X144451590Y-108254232D01*
X144449374Y-108245555D01*
X144453411Y-108238276D01*
X144865056Y-107891103D01*
X144873590Y-107888390D01*
X144880872Y-107891775D01*
G37*
%TD.AperFunction*%
%TD*%
%TA.AperFunction,Conductor*%
%TO.N,+3.3V*%
G36*
X158777924Y-104879690D02*
G01*
X158785877Y-104883805D01*
X158788633Y-104891348D01*
X158788633Y-105369851D01*
X158785206Y-105378124D01*
X158777924Y-105381509D01*
X158241360Y-105427098D01*
X158232826Y-105424384D01*
X158228788Y-105417104D01*
X158187872Y-105132264D01*
X158187872Y-105128936D01*
X158228788Y-104844094D01*
X158233356Y-104836394D01*
X158241357Y-104834101D01*
X158777924Y-104879690D01*
G37*
%TD.AperFunction*%
%TD*%
%TA.AperFunction,Conductor*%
%TO.N,+3.3V*%
G36*
X163969071Y-104090496D02*
G01*
X164311303Y-104432728D01*
X164314730Y-104441001D01*
X164313739Y-104445714D01*
X163695690Y-105849994D01*
X163689221Y-105856186D01*
X163680268Y-105855990D01*
X163679525Y-105855631D01*
X162940603Y-105466090D01*
X162935709Y-105461196D01*
X162546168Y-104722274D01*
X162545341Y-104713358D01*
X162551062Y-104706468D01*
X162551805Y-104706109D01*
X163956085Y-104088059D01*
X163965038Y-104087864D01*
X163969071Y-104090496D01*
G37*
%TD.AperFunction*%
%TD*%
%TA.AperFunction,Conductor*%
%TO.N,+3.3V*%
G36*
X140579731Y-85145551D02*
G01*
X140579938Y-85145836D01*
X140893214Y-85591580D01*
X140895168Y-85600320D01*
X140891915Y-85606581D01*
X140622981Y-85875515D01*
X140614708Y-85878942D01*
X140607980Y-85876814D01*
X140162236Y-85563538D01*
X140157438Y-85555978D01*
X140159392Y-85547238D01*
X140159563Y-85547002D01*
X140331476Y-85317415D01*
X140333815Y-85315076D01*
X140563355Y-85143198D01*
X140572030Y-85140983D01*
X140579731Y-85145551D01*
G37*
%TD.AperFunction*%
%TD*%
%TA.AperFunction,Conductor*%
%TO.N,+3.3V*%
G36*
X144938497Y-106742843D02*
G01*
X144946198Y-106747411D01*
X144948414Y-106756088D01*
X144948359Y-106756436D01*
X144854691Y-107293145D01*
X144849893Y-107300705D01*
X144843165Y-107302833D01*
X144462835Y-107302833D01*
X144454562Y-107299406D01*
X144451309Y-107293145D01*
X144357640Y-106756436D01*
X144359594Y-106747696D01*
X144367154Y-106742898D01*
X144367461Y-106742849D01*
X144651336Y-106702072D01*
X144654664Y-106702072D01*
X144938497Y-106742843D01*
G37*
%TD.AperFunction*%
%TD*%
%TA.AperFunction,Conductor*%
%TO.N,+3.3V*%
G36*
X144850985Y-107889394D02*
G01*
X144854316Y-107896170D01*
X144923576Y-108432953D01*
X144921236Y-108441596D01*
X144913787Y-108446008D01*
X144654673Y-108486704D01*
X144651323Y-108486745D01*
X144342796Y-108445913D01*
X144335044Y-108441430D01*
X144332732Y-108432779D01*
X144332901Y-108431811D01*
X144450979Y-107895153D01*
X144456104Y-107887809D01*
X144462406Y-107885967D01*
X144842712Y-107885967D01*
X144850985Y-107889394D01*
G37*
%TD.AperFunction*%
%TD*%
%TA.AperFunction,Conductor*%
%TO.N,+3.3V*%
G36*
X153468275Y-125566351D02*
G01*
X153473308Y-125568689D01*
X154683260Y-126130792D01*
X154689320Y-126137386D01*
X154688942Y-126146332D01*
X154688682Y-126146858D01*
X154346147Y-126796851D01*
X154341251Y-126801747D01*
X153691258Y-127144282D01*
X153682341Y-127145107D01*
X153675452Y-127139386D01*
X153675192Y-127138860D01*
X153110751Y-125923875D01*
X153110373Y-125914929D01*
X153113087Y-125910675D01*
X153455074Y-125568688D01*
X153463346Y-125565262D01*
X153468275Y-125566351D01*
G37*
%TD.AperFunction*%
%TD*%
%TA.AperFunction,Conductor*%
%TO.N,+3.3V*%
G36*
X167492107Y-101146946D02*
G01*
X167498299Y-101153415D01*
X167498571Y-101154195D01*
X167745621Y-101952140D01*
X167745621Y-101959060D01*
X167498571Y-102757004D01*
X167492850Y-102763894D01*
X167483934Y-102764721D01*
X167483159Y-102764450D01*
X166826334Y-102509093D01*
X166053153Y-102208500D01*
X166046684Y-102202308D01*
X166045693Y-102197595D01*
X166045693Y-101713604D01*
X166049120Y-101705331D01*
X166053150Y-101702700D01*
X167483156Y-101146750D01*
X167492107Y-101146946D01*
G37*
%TD.AperFunction*%
%TD*%
%TA.AperFunction,Conductor*%
%TO.N,+3.3V*%
G36*
X166901841Y-83827748D02*
G01*
X167737816Y-84173038D01*
X167744153Y-84179363D01*
X167744162Y-84179384D01*
X168089451Y-85015358D01*
X168089442Y-85024313D01*
X168083685Y-85030380D01*
X166474803Y-85799845D01*
X166465861Y-85800323D01*
X166461482Y-85797563D01*
X166119636Y-85455717D01*
X166116209Y-85447444D01*
X166117353Y-85442398D01*
X166886819Y-83833513D01*
X166893480Y-83827529D01*
X166901841Y-83827748D01*
G37*
%TD.AperFunction*%
%TD*%
%TA.AperFunction,Conductor*%
%TO.N,+3.3V*%
G36*
X151697973Y-104887615D02*
G01*
X151702011Y-104894895D01*
X151742927Y-105179736D01*
X151742927Y-105183064D01*
X151702011Y-105467904D01*
X151697443Y-105475605D01*
X151689439Y-105477898D01*
X151152876Y-105432309D01*
X151144923Y-105428194D01*
X151142167Y-105420651D01*
X151142167Y-104942148D01*
X151145594Y-104933875D01*
X151152875Y-104930490D01*
X151689441Y-104884901D01*
X151697973Y-104887615D01*
G37*
%TD.AperFunction*%
%TD*%
%TA.AperFunction,Conductor*%
%TO.N,+3.3V*%
G36*
X144851438Y-106111394D02*
G01*
X144854691Y-106117655D01*
X144948359Y-106654363D01*
X144946405Y-106663103D01*
X144938845Y-106667901D01*
X144938497Y-106667956D01*
X144654664Y-106708727D01*
X144651336Y-106708727D01*
X144367502Y-106667956D01*
X144359801Y-106663388D01*
X144357585Y-106654711D01*
X144357640Y-106654363D01*
X144451309Y-106117655D01*
X144456107Y-106110095D01*
X144462835Y-106107967D01*
X144843165Y-106107967D01*
X144851438Y-106111394D01*
G37*
%TD.AperFunction*%
%TD*%
%TA.AperFunction,Conductor*%
%TO.N,+3.3V*%
G36*
X152330443Y-104884045D02*
G01*
X152333914Y-104892300D01*
X152333914Y-105370788D01*
X152330487Y-105379061D01*
X152324253Y-105382309D01*
X151790800Y-105476702D01*
X151782056Y-105474769D01*
X151777240Y-105467220D01*
X151777166Y-105466742D01*
X151732914Y-105130600D01*
X151702174Y-104897122D01*
X151704492Y-104888474D01*
X151712247Y-104883996D01*
X151713704Y-104883896D01*
X152322153Y-104880662D01*
X152330443Y-104884045D01*
G37*
%TD.AperFunction*%
%TD*%
%TA.AperFunction,Conductor*%
%TO.N,+3.3V*%
G36*
X158149573Y-104836815D02*
G01*
X158153611Y-104844095D01*
X158194527Y-105128936D01*
X158194527Y-105132264D01*
X158153611Y-105417104D01*
X158149043Y-105424805D01*
X158141039Y-105427098D01*
X157604476Y-105381509D01*
X157596523Y-105377394D01*
X157593767Y-105369851D01*
X157593767Y-104891348D01*
X157597194Y-104883075D01*
X157604475Y-104879690D01*
X158141041Y-104834101D01*
X158149573Y-104836815D01*
G37*
%TD.AperFunction*%
%TD*%
%TA.AperFunction,Conductor*%
%TO.N,/Terminal_5V*%
G36*
X165949716Y-121063554D02*
G01*
X166962776Y-121615260D01*
X166968402Y-121622226D01*
X166967532Y-121630988D01*
X166666245Y-122202946D01*
X166661346Y-122207845D01*
X166089388Y-122509132D01*
X166080471Y-122509955D01*
X166073660Y-122504376D01*
X165521954Y-121491316D01*
X165521007Y-121482411D01*
X165523954Y-121477449D01*
X165935848Y-121065555D01*
X165944120Y-121062129D01*
X165949716Y-121063554D01*
G37*
%TD.AperFunction*%
%TD*%
M02*
