M48
; DRILL file KiCad 10.0.2-10.0.2~ubuntu24.04.1 date 2026-05-24T09:47:25
; FORMAT={-:-/ absolute / metric / decimal}
; #@! TF.CreationDate,2026-05-24T09:47:25-05:00
; #@! TF.GenerationSoftware,Kicad,Pcbnew,10.0.2-10.0.2~ubuntu24.04.1
; #@! TF.FileFunction,Plated,1,4,PTH
FMAT,2
METRIC
; #@! TA.AperFunction,Plated,PTH,ViaDrill
T1C0.300
; #@! TA.AperFunction,Plated,PTH,ComponentDrill
T2C0.813
; #@! TA.AperFunction,Plated,PTH,ComponentDrill
T3C0.991
; #@! TA.AperFunction,Plated,PTH,ComponentDrill
T4C1.000
; #@! TA.AperFunction,Plated,PTH,ComponentDrill
T5C1.016
%
G90
G05
T1
X136.931Y-120.066
X137.77Y-129.743
X138.608Y-103.48
X138.684Y-108.026
X138.735Y-112.573
X138.811Y-117.577
X140.3Y-94.15
X140.335Y-85.319
X140.767Y-121.387
X140.95Y-93.05
X141.021Y-90.449
X141.021Y-124.866
X141.046Y-123.825
X141.097Y-95.174
X141.529Y-122.911
X142.316Y-129.667
X142.672Y-99.67
X143.027Y-103.632
X144.628Y-108.483
X144.653Y-106.705
X144.653Y-121.539
X145.186Y-84.176
X145.186Y-86.512
X146.228Y-129.692
X146.558Y-95.021
X146.609Y-100.127
X147.015Y-121.488
X148.311Y-112.624
X149.352Y-123.571
X149.733Y-86.462
X149.784Y-83.871
X149.911Y-90.348
X149.987Y-94.894
X150.012Y-100.127
X150.774Y-129.642
X151.028Y-112.573
X151.74Y-105.181
X152.453Y-110.299
X152.806Y-94.971
X153.035Y-100.076
X153.111Y-103.327
X153.111Y-123.52
X153.391Y-107.061
X153.416Y-116.205
X154.127Y-89.433
X154.28Y-86.385
X154.356Y-83.922
X154.559Y-92.024
X154.635Y-112.522
X155.321Y-129.565
X155.981Y-118.415
X156.235Y-120.955
X158.064Y-99.314
X158.115Y-94.412
X158.14Y-90.297
X158.14Y-102.895
X158.191Y-105.131
X158.267Y-112.547
X158.394Y-118.593
X158.928Y-92.888
X159.073Y-95.791
X159.461Y-129.591
X159.487Y-124.308
X164.008Y-129.54
X164.059Y-124.384
X164.821Y-83.591
X164.897Y-88.138
X164.948Y-92.685
X164.973Y-96.114
X165.049Y-100.66
X165.1Y-105.207
X165.125Y-109.195
X165.202Y-113.741
X165.252Y-118.288
X168.554Y-129.464
X169.723Y-83.642
X169.799Y-88.189
X169.799Y-96.215
X169.85Y-92.735
X169.85Y-118.339
X169.875Y-100.762
X169.875Y-109.22
X169.875Y-113.767
X169.926Y-105.308
T2
X160.662Y-122.203
X160.662Y-127.203
X162.662Y-122.203
X162.662Y-127.203
X164.662Y-122.203
X164.662Y-127.203
X166.662Y-122.203
X166.662Y-127.203
T3
X141.841Y-126.797
X144.341Y-126.797
X146.841Y-126.797
X149.341Y-126.797
X151.841Y-126.797
X154.341Y-126.797
T4
X162.0Y-109.3
X162.0Y-111.84
X162.0Y-114.38
X162.0Y-116.92
X162.941Y-85.141
X162.941Y-87.681
X162.941Y-90.221
X162.941Y-92.761
X162.941Y-95.301
X162.941Y-97.841
X162.941Y-100.381
X162.941Y-102.921
X162.941Y-105.461
X167.742Y-84.176
X167.742Y-86.716
X167.742Y-89.256
X167.742Y-91.796
X167.742Y-94.336
X167.742Y-96.876
X167.742Y-99.416
X167.742Y-101.956
X167.742Y-104.496
X167.742Y-107.036
X167.742Y-109.576
X167.742Y-112.116
X167.742Y-114.656
X167.742Y-117.196
T5
X149.987Y-110.109
X149.987Y-115.189
X156.464Y-109.982
X156.464Y-115.062
M30
