%TF.GenerationSoftware,KiCad,Pcbnew,10.0.2-10.0.2~ubuntu24.04.1*%
%TF.CreationDate,2026-05-24T09:49:08-05:00*%
%TF.ProjectId,EE327 - UI + GPS,45453332-3720-42d2-9055-49202b204750,rev?*%
%TF.SameCoordinates,Original*%
%TF.FileFunction,Copper,L2,Inr*%
%TF.FilePolarity,Positive*%
%FSLAX46Y46*%
G04 Gerber Fmt 4.6, Leading zero omitted, Abs format (unit mm)*
G04 Created by KiCad (PCBNEW 10.0.2-10.0.2~ubuntu24.04.1) date 2026-05-24 09:49:08*
%MOMM*%
%LPD*%
G01*
G04 APERTURE LIST*
%TA.AperFunction,ComponentPad*%
%ADD10R,1.700000X1.700000*%
%TD*%
%TA.AperFunction,ComponentPad*%
%ADD11C,1.700000*%
%TD*%
%TA.AperFunction,ComponentPad*%
%ADD12C,1.930400*%
%TD*%
%TA.AperFunction,ComponentPad*%
%ADD13C,1.320800*%
%TD*%
%TA.AperFunction,ComponentPad*%
%ADD14C,1.498600*%
%TD*%
%TA.AperFunction,ViaPad*%
%ADD15C,0.600000*%
%TD*%
G04 APERTURE END LIST*
D10*
%TO.N,+3.3V*%
%TO.C,J2*%
X167741600Y-84175600D03*
D11*
%TO.N,GND*%
X167741600Y-86715600D03*
%TO.N,/TFT_CS*%
X167741600Y-89255600D03*
%TO.N,/TFT_RST*%
X167741600Y-91795600D03*
%TO.N,/TFT_DC*%
X167741600Y-94335600D03*
%TO.N,/TFT_MOSI*%
X167741600Y-96875600D03*
%TO.N,/TFT_SCK*%
X167741600Y-99415600D03*
%TO.N,+3.3V*%
X167741600Y-101955600D03*
%TO.N,unconnected-(J2-Pin_9-Pad9)*%
X167741600Y-104495600D03*
%TO.N,unconnected-(J2-Pin_10-Pad10)*%
X167741600Y-107035600D03*
%TO.N,unconnected-(J2-Pin_11-Pad11)*%
X167741600Y-109575600D03*
%TO.N,unconnected-(J2-Pin_12-Pad12)*%
X167741600Y-112115600D03*
%TO.N,unconnected-(J2-Pin_13-Pad13)*%
X167741600Y-114655600D03*
%TO.N,unconnected-(J2-Pin_14-Pad14)*%
X167741600Y-117195600D03*
%TD*%
D12*
%TO.N,GND*%
%TO.C,SW2*%
X149987000Y-115189000D03*
%TO.N,/BOOT*%
X149987000Y-110109000D03*
%TD*%
D10*
%TO.N,unconnected-(J1-Pin_1-Pad1)*%
%TO.C,J1*%
X162941000Y-85140800D03*
D11*
%TO.N,unconnected-(J1-Pin_2-Pad2)*%
X162941000Y-87680800D03*
%TO.N,GND*%
X162941000Y-90220800D03*
%TO.N,/GPS_RX*%
X162941000Y-92760800D03*
%TO.N,/GPS_TX*%
X162941000Y-95300800D03*
%TO.N,unconnected-(J1-Pin_6-Pad6)*%
X162941000Y-97840800D03*
%TO.N,unconnected-(J1-Pin_7-Pad7)*%
X162941000Y-100380800D03*
%TO.N,unconnected-(J1-Pin_8-Pad8)*%
X162941000Y-102920800D03*
%TO.N,+3.3V*%
X162941000Y-105460800D03*
%TD*%
D10*
%TO.N,GND*%
%TO.C,J4*%
X162000000Y-116920000D03*
D11*
%TO.N,/RX0*%
X162000000Y-114380000D03*
%TO.N,/TX0*%
X162000000Y-111840000D03*
%TO.N,/USB_5V*%
X162000000Y-109300000D03*
%TD*%
D12*
%TO.N,GND*%
%TO.C,SW1*%
X156464000Y-115062000D03*
%TO.N,/ESP_RST*%
X156464000Y-109982000D03*
%TD*%
D13*
%TO.N,/Terminal_5V*%
%TO.C,J5*%
X166661600Y-122203200D03*
%TO.N,GND*%
X166661600Y-127203200D03*
%TO.N,/SDA*%
X164661601Y-122203200D03*
%TO.N,/SCL*%
X164661601Y-127203200D03*
%TO.N,/PMIC_~{INT}*%
X162661600Y-122203200D03*
%TO.N,/PMIC_STAT1*%
X162661600Y-127203200D03*
%TO.N,/PMIC_STAT2*%
X160661602Y-122203200D03*
%TO.N,/PMIC_~{PG}*%
X160661602Y-127203200D03*
%TD*%
D14*
%TO.N,+3.3V*%
%TO.C,J3*%
X154341200Y-126796800D03*
%TO.N,/MIC_SD*%
X151841200Y-126796800D03*
%TO.N,/MIC_SCK*%
X149341200Y-126796800D03*
%TO.N,/WS*%
X146841200Y-126796800D03*
%TO.N,GND*%
X144341200Y-126796800D03*
X141841200Y-126796800D03*
%TD*%
D15*
%TO.N,GND*%
X148310600Y-112623600D03*
X165201600Y-113741200D03*
X158140400Y-102895400D03*
X147015200Y-121488200D03*
X169849800Y-92735400D03*
X169722800Y-83642200D03*
X140766800Y-121386600D03*
X165252400Y-118287800D03*
X153416000Y-116205000D03*
X158140400Y-90297000D03*
X169926000Y-105308400D03*
X169849800Y-118338600D03*
X138684000Y-108026200D03*
X164058600Y-124383800D03*
X153035000Y-100076000D03*
X145186400Y-84175600D03*
X165100000Y-105206800D03*
X138607800Y-103479600D03*
X149987000Y-94894400D03*
X154355800Y-83921600D03*
X150012400Y-100126800D03*
X149352000Y-123571000D03*
X144653000Y-121539000D03*
X164820600Y-83591400D03*
X143027400Y-103632000D03*
X146227800Y-129692400D03*
X142316200Y-129667000D03*
X164007800Y-129540000D03*
X164896800Y-88138000D03*
X158267400Y-112547400D03*
X165049200Y-100660200D03*
X138734800Y-112572800D03*
X169875200Y-109220000D03*
X169875200Y-100761800D03*
X169875200Y-113766600D03*
X150774400Y-129641600D03*
X164973000Y-96113600D03*
X153111200Y-123520200D03*
X151028400Y-112572800D03*
X154635200Y-112522000D03*
X169799000Y-88188800D03*
X141020800Y-90449400D03*
X158064200Y-99314000D03*
X158394400Y-118592600D03*
X152806400Y-94970600D03*
X145186400Y-86512400D03*
X141097000Y-95173800D03*
X159461200Y-129590800D03*
X168554400Y-129463800D03*
X153390600Y-107061000D03*
X164947600Y-92684600D03*
X146608800Y-100126800D03*
X155321000Y-129565400D03*
X165125400Y-109194600D03*
X149733000Y-86461600D03*
X159486600Y-124307600D03*
X146558000Y-95021400D03*
X138811000Y-117576600D03*
X149910800Y-90347800D03*
X169799000Y-96215200D03*
X149783800Y-83870800D03*
X154279600Y-86385400D03*
X137769600Y-129743200D03*
%TO.N,/USB_5V*%
X155981400Y-118414800D03*
%TO.N,+3.3V*%
X144653000Y-106705400D03*
X158191200Y-105130600D03*
X144627600Y-108483400D03*
X140335000Y-85318600D03*
X151739600Y-105181400D03*
%TO.N,/TFT_CS*%
X154127200Y-89433400D03*
%TO.N,/TFT_RST*%
X154559000Y-92024200D03*
%TO.N,/TFT_DC*%
X153111200Y-103327200D03*
%TO.N,/TFT_SCK*%
X158115000Y-94411800D03*
%TO.N,/BOOT*%
X152452800Y-110299127D03*
%TO.N,/ESP_RST*%
X142671800Y-99669600D03*
%TO.N,/GPS_RX*%
X158927800Y-92887800D03*
%TO.N,/GPS_TX*%
X159072665Y-95790935D03*
%TO.N,/MIC_SD*%
X140950000Y-93050000D03*
%TO.N,/MIC_SCK*%
X140300000Y-94150000D03*
%TO.N,/PMIC_~{INT}*%
X136931400Y-120065800D03*
%TO.N,/PMIC_STAT1*%
X141020800Y-124866400D03*
%TO.N,/PMIC_STAT2*%
X141528800Y-122910600D03*
%TO.N,/PMIC_~{PG}*%
X141046200Y-123825000D03*
%TO.N,/Terminal_5V*%
X156235400Y-120954800D03*
%TD*%
%TA.AperFunction,Conductor*%
%TO.N,GND*%
G36*
X166339061Y-83120985D02*
G01*
X166384816Y-83173789D01*
X166395311Y-83238552D01*
X166391100Y-83277727D01*
X166391100Y-83277728D01*
X166391100Y-83277732D01*
X166391100Y-85073470D01*
X166391101Y-85073476D01*
X166397508Y-85133083D01*
X166447802Y-85267928D01*
X166447806Y-85267935D01*
X166534052Y-85383144D01*
X166534055Y-85383147D01*
X166649264Y-85469393D01*
X166649271Y-85469397D01*
X166694218Y-85486161D01*
X166784117Y-85519691D01*
X166843727Y-85526100D01*
X166854285Y-85526099D01*
X166921323Y-85545779D01*
X166941972Y-85562418D01*
X167612191Y-86232637D01*
X167548607Y-86249675D01*
X167434593Y-86315501D01*
X167341501Y-86408593D01*
X167275675Y-86522607D01*
X167258637Y-86586191D01*
X166626328Y-85953882D01*
X166626327Y-85953882D01*
X166586980Y-86008039D01*
X166490504Y-86197382D01*
X166424842Y-86399469D01*
X166424842Y-86399472D01*
X166391600Y-86609353D01*
X166391600Y-86821846D01*
X166424842Y-87031727D01*
X166424842Y-87031730D01*
X166490504Y-87233817D01*
X166586975Y-87423150D01*
X166626328Y-87477316D01*
X167258637Y-86845008D01*
X167275675Y-86908593D01*
X167341501Y-87022607D01*
X167434593Y-87115699D01*
X167548607Y-87181525D01*
X167612190Y-87198562D01*
X166979882Y-87830869D01*
X166979882Y-87830870D01*
X167034052Y-87870226D01*
X167034051Y-87870226D01*
X167043095Y-87874834D01*
X167093892Y-87922808D01*
X167110687Y-87990629D01*
X167088150Y-88056764D01*
X167043099Y-88095802D01*
X167033782Y-88100549D01*
X166861813Y-88225490D01*
X166711490Y-88375813D01*
X166586551Y-88547779D01*
X166490044Y-88737185D01*
X166424353Y-88939360D01*
X166391100Y-89149313D01*
X166391100Y-89361886D01*
X166415073Y-89513249D01*
X166424354Y-89571843D01*
X166472753Y-89720800D01*
X166490044Y-89774014D01*
X166586551Y-89963420D01*
X166711490Y-90135386D01*
X166861813Y-90285709D01*
X167033782Y-90410650D01*
X167042546Y-90415116D01*
X167093342Y-90463091D01*
X167110136Y-90530912D01*
X167087598Y-90597047D01*
X167042546Y-90636084D01*
X167033782Y-90640549D01*
X166861813Y-90765490D01*
X166711490Y-90915813D01*
X166586551Y-91087779D01*
X166490044Y-91277185D01*
X166424353Y-91479360D01*
X166391100Y-91689313D01*
X166391100Y-91901886D01*
X166422960Y-92103046D01*
X166424354Y-92111843D01*
X166479077Y-92280263D01*
X166490044Y-92314014D01*
X166586551Y-92503420D01*
X166711490Y-92675386D01*
X166861813Y-92825709D01*
X167033782Y-92950650D01*
X167042546Y-92955116D01*
X167093342Y-93003091D01*
X167110136Y-93070912D01*
X167087598Y-93137047D01*
X167042546Y-93176084D01*
X167033782Y-93180549D01*
X166861813Y-93305490D01*
X166711490Y-93455813D01*
X166586551Y-93627779D01*
X166490044Y-93817185D01*
X166424353Y-94019360D01*
X166391100Y-94229313D01*
X166391100Y-94441886D01*
X166423317Y-94645301D01*
X166424354Y-94651843D01*
X166469564Y-94790985D01*
X166490044Y-94854014D01*
X166586551Y-95043420D01*
X166711490Y-95215386D01*
X166861813Y-95365709D01*
X167033782Y-95490650D01*
X167042546Y-95495116D01*
X167093342Y-95543091D01*
X167110136Y-95610912D01*
X167087598Y-95677047D01*
X167042546Y-95716084D01*
X167033782Y-95720549D01*
X166861813Y-95845490D01*
X166711490Y-95995813D01*
X166586551Y-96167779D01*
X166490044Y-96357185D01*
X166424353Y-96559360D01*
X166391100Y-96769313D01*
X166391100Y-96981886D01*
X166424353Y-97191839D01*
X166490044Y-97394014D01*
X166586551Y-97583420D01*
X166711490Y-97755386D01*
X166861813Y-97905709D01*
X167033782Y-98030650D01*
X167042546Y-98035116D01*
X167093342Y-98083091D01*
X167110136Y-98150912D01*
X167087598Y-98217047D01*
X167042546Y-98256084D01*
X167033782Y-98260549D01*
X166861813Y-98385490D01*
X166711490Y-98535813D01*
X166586551Y-98707779D01*
X166490044Y-98897185D01*
X166490043Y-98897187D01*
X166490043Y-98897188D01*
X166489174Y-98899863D01*
X166424353Y-99099360D01*
X166391100Y-99309313D01*
X166391100Y-99521886D01*
X166415031Y-99672984D01*
X166424354Y-99731843D01*
X166479999Y-99903101D01*
X166490044Y-99934014D01*
X166586551Y-100123420D01*
X166711490Y-100295386D01*
X166861813Y-100445709D01*
X167033782Y-100570650D01*
X167042546Y-100575116D01*
X167093342Y-100623091D01*
X167110136Y-100690912D01*
X167087598Y-100757047D01*
X167042546Y-100796084D01*
X167033782Y-100800549D01*
X166861813Y-100925490D01*
X166711490Y-101075813D01*
X166586551Y-101247779D01*
X166490044Y-101437185D01*
X166424353Y-101639360D01*
X166391100Y-101849313D01*
X166391100Y-102061886D01*
X166424353Y-102271839D01*
X166490044Y-102474014D01*
X166586551Y-102663420D01*
X166711490Y-102835386D01*
X166861813Y-102985709D01*
X167033782Y-103110650D01*
X167042546Y-103115116D01*
X167093342Y-103163091D01*
X167110136Y-103230912D01*
X167087598Y-103297047D01*
X167042546Y-103336084D01*
X167033782Y-103340549D01*
X166861813Y-103465490D01*
X166711490Y-103615813D01*
X166586551Y-103787779D01*
X166490044Y-103977185D01*
X166424353Y-104179360D01*
X166405042Y-104301286D01*
X166391100Y-104389313D01*
X166391100Y-104601887D01*
X166394018Y-104620311D01*
X166415031Y-104752984D01*
X166424354Y-104811843D01*
X166468564Y-104947908D01*
X166490044Y-105014014D01*
X166586551Y-105203420D01*
X166711490Y-105375386D01*
X166861813Y-105525709D01*
X167033782Y-105650650D01*
X167042546Y-105655116D01*
X167093342Y-105703091D01*
X167110136Y-105770912D01*
X167087598Y-105837047D01*
X167042546Y-105876084D01*
X167033782Y-105880549D01*
X166861813Y-106005490D01*
X166711490Y-106155813D01*
X166586551Y-106327779D01*
X166490044Y-106517185D01*
X166424353Y-106719360D01*
X166391100Y-106929313D01*
X166391100Y-107141886D01*
X166420448Y-107327186D01*
X166424354Y-107351843D01*
X166474410Y-107505900D01*
X166490044Y-107554014D01*
X166586551Y-107743420D01*
X166711490Y-107915386D01*
X166861813Y-108065709D01*
X167033782Y-108190650D01*
X167042546Y-108195116D01*
X167093342Y-108243091D01*
X167110136Y-108310912D01*
X167087598Y-108377047D01*
X167042546Y-108416084D01*
X167033782Y-108420549D01*
X166861813Y-108545490D01*
X166711490Y-108695813D01*
X166586551Y-108867779D01*
X166490044Y-109057185D01*
X166424353Y-109259360D01*
X166391100Y-109469313D01*
X166391100Y-109681886D01*
X166412723Y-109818412D01*
X166424354Y-109891843D01*
X166480823Y-110065637D01*
X166490044Y-110094014D01*
X166586551Y-110283420D01*
X166711490Y-110455386D01*
X166861813Y-110605709D01*
X167033782Y-110730650D01*
X167042546Y-110735116D01*
X167093342Y-110783091D01*
X167110136Y-110850912D01*
X167087598Y-110917047D01*
X167042546Y-110956084D01*
X167033782Y-110960549D01*
X166861813Y-111085490D01*
X166711490Y-111235813D01*
X166586551Y-111407779D01*
X166490044Y-111597185D01*
X166424353Y-111799360D01*
X166391100Y-112009313D01*
X166391100Y-112221886D01*
X166412723Y-112358412D01*
X166424354Y-112431843D01*
X166462037Y-112547820D01*
X166490044Y-112634014D01*
X166586551Y-112823420D01*
X166711490Y-112995386D01*
X166861813Y-113145709D01*
X167033782Y-113270650D01*
X167042546Y-113275116D01*
X167093342Y-113323091D01*
X167110136Y-113390912D01*
X167087598Y-113457047D01*
X167042546Y-113496084D01*
X167033782Y-113500549D01*
X166861813Y-113625490D01*
X166711490Y-113775813D01*
X166586551Y-113947779D01*
X166490044Y-114137185D01*
X166424353Y-114339360D01*
X166401082Y-114486287D01*
X166391100Y-114549313D01*
X166391100Y-114761887D01*
X166401134Y-114825244D01*
X166420368Y-114946680D01*
X166424354Y-114971843D01*
X166473182Y-115122120D01*
X166490044Y-115174014D01*
X166586551Y-115363420D01*
X166711490Y-115535386D01*
X166861813Y-115685709D01*
X167033782Y-115810650D01*
X167042546Y-115815116D01*
X167093342Y-115863091D01*
X167110136Y-115930912D01*
X167087598Y-115997047D01*
X167042546Y-116036084D01*
X167033782Y-116040549D01*
X166861813Y-116165490D01*
X166711490Y-116315813D01*
X166586551Y-116487779D01*
X166490044Y-116677185D01*
X166424353Y-116879360D01*
X166407491Y-116985826D01*
X166391100Y-117089313D01*
X166391100Y-117301887D01*
X166424354Y-117511843D01*
X166487245Y-117705402D01*
X166490044Y-117714014D01*
X166586551Y-117903420D01*
X166711490Y-118075386D01*
X166861813Y-118225709D01*
X167033779Y-118350648D01*
X167033781Y-118350649D01*
X167033784Y-118350651D01*
X167223188Y-118447157D01*
X167425357Y-118512846D01*
X167635313Y-118546100D01*
X167635314Y-118546100D01*
X167847886Y-118546100D01*
X167847887Y-118546100D01*
X168057843Y-118512846D01*
X168260012Y-118447157D01*
X168449416Y-118350651D01*
X168471389Y-118334686D01*
X168621386Y-118225709D01*
X168621388Y-118225706D01*
X168621392Y-118225704D01*
X168771704Y-118075392D01*
X168771706Y-118075388D01*
X168771709Y-118075386D01*
X168896648Y-117903420D01*
X168896647Y-117903420D01*
X168896651Y-117903416D01*
X168993157Y-117714012D01*
X169058846Y-117511843D01*
X169092100Y-117301887D01*
X169092100Y-117089313D01*
X169058846Y-116879357D01*
X168993157Y-116677188D01*
X168896651Y-116487784D01*
X168896649Y-116487781D01*
X168896648Y-116487779D01*
X168771709Y-116315813D01*
X168621386Y-116165490D01*
X168449420Y-116040551D01*
X168448715Y-116040191D01*
X168440654Y-116036085D01*
X168389859Y-115988112D01*
X168373063Y-115920292D01*
X168395599Y-115854156D01*
X168440654Y-115815115D01*
X168449416Y-115810651D01*
X168471389Y-115794686D01*
X168621386Y-115685709D01*
X168621388Y-115685706D01*
X168621392Y-115685704D01*
X168771704Y-115535392D01*
X168771706Y-115535388D01*
X168771709Y-115535386D01*
X168896648Y-115363420D01*
X168896647Y-115363420D01*
X168896651Y-115363416D01*
X168993157Y-115174012D01*
X169058846Y-114971843D01*
X169092100Y-114761887D01*
X169092100Y-114549313D01*
X169058846Y-114339357D01*
X168993157Y-114137188D01*
X168896651Y-113947784D01*
X168896649Y-113947781D01*
X168896648Y-113947779D01*
X168771709Y-113775813D01*
X168621386Y-113625490D01*
X168449420Y-113500551D01*
X168448715Y-113500191D01*
X168440654Y-113496085D01*
X168389859Y-113448112D01*
X168373063Y-113380292D01*
X168395599Y-113314156D01*
X168440654Y-113275115D01*
X168449416Y-113270651D01*
X168518463Y-113220486D01*
X168621386Y-113145709D01*
X168621388Y-113145706D01*
X168621392Y-113145704D01*
X168771704Y-112995392D01*
X168771706Y-112995388D01*
X168771709Y-112995386D01*
X168896648Y-112823420D01*
X168896647Y-112823420D01*
X168896651Y-112823416D01*
X168993157Y-112634012D01*
X169058846Y-112431843D01*
X169092100Y-112221887D01*
X169092100Y-112009313D01*
X169058846Y-111799357D01*
X168993157Y-111597188D01*
X168896651Y-111407784D01*
X168896649Y-111407781D01*
X168896648Y-111407779D01*
X168771709Y-111235813D01*
X168621386Y-111085490D01*
X168449420Y-110960551D01*
X168448715Y-110960191D01*
X168440654Y-110956085D01*
X168389859Y-110908112D01*
X168373063Y-110840292D01*
X168395599Y-110774156D01*
X168440654Y-110735115D01*
X168449416Y-110730651D01*
X168518463Y-110680486D01*
X168621386Y-110605709D01*
X168621388Y-110605706D01*
X168621392Y-110605704D01*
X168771704Y-110455392D01*
X168771706Y-110455388D01*
X168771709Y-110455386D01*
X168896648Y-110283420D01*
X168896647Y-110283420D01*
X168896651Y-110283416D01*
X168993157Y-110094012D01*
X169058846Y-109891843D01*
X169092100Y-109681887D01*
X169092100Y-109469313D01*
X169058846Y-109259357D01*
X168993157Y-109057188D01*
X168896651Y-108867784D01*
X168896649Y-108867781D01*
X168896648Y-108867779D01*
X168771709Y-108695813D01*
X168621386Y-108545490D01*
X168449420Y-108420551D01*
X168448715Y-108420191D01*
X168440654Y-108416085D01*
X168389859Y-108368112D01*
X168373063Y-108300292D01*
X168395599Y-108234156D01*
X168440654Y-108195115D01*
X168449416Y-108190651D01*
X168512320Y-108144949D01*
X168621386Y-108065709D01*
X168621388Y-108065706D01*
X168621392Y-108065704D01*
X168771704Y-107915392D01*
X168771706Y-107915388D01*
X168771709Y-107915386D01*
X168896648Y-107743420D01*
X168896647Y-107743420D01*
X168896651Y-107743416D01*
X168993157Y-107554012D01*
X169058846Y-107351843D01*
X169092100Y-107141887D01*
X169092100Y-106929313D01*
X169058846Y-106719357D01*
X168993157Y-106517188D01*
X168896651Y-106327784D01*
X168896649Y-106327781D01*
X168896648Y-106327779D01*
X168771709Y-106155813D01*
X168621386Y-106005490D01*
X168449420Y-105880551D01*
X168448715Y-105880191D01*
X168440654Y-105876085D01*
X168389859Y-105828112D01*
X168373063Y-105760292D01*
X168395599Y-105694156D01*
X168440654Y-105655115D01*
X168449416Y-105650651D01*
X168564433Y-105567087D01*
X168621386Y-105525709D01*
X168621388Y-105525706D01*
X168621392Y-105525704D01*
X168771704Y-105375392D01*
X168771706Y-105375388D01*
X168771709Y-105375386D01*
X168896648Y-105203420D01*
X168896647Y-105203420D01*
X168896651Y-105203416D01*
X168993157Y-105014012D01*
X169058846Y-104811843D01*
X169092100Y-104601887D01*
X169092100Y-104389313D01*
X169058846Y-104179357D01*
X168993157Y-103977188D01*
X168896651Y-103787784D01*
X168896649Y-103787781D01*
X168896648Y-103787779D01*
X168771709Y-103615813D01*
X168621386Y-103465490D01*
X168449420Y-103340551D01*
X168448715Y-103340191D01*
X168440654Y-103336085D01*
X168389859Y-103288112D01*
X168373063Y-103220292D01*
X168395599Y-103154156D01*
X168440654Y-103115115D01*
X168449416Y-103110651D01*
X168564433Y-103027087D01*
X168621386Y-102985709D01*
X168621388Y-102985706D01*
X168621392Y-102985704D01*
X168771704Y-102835392D01*
X168771706Y-102835388D01*
X168771709Y-102835386D01*
X168896648Y-102663420D01*
X168896647Y-102663420D01*
X168896651Y-102663416D01*
X168993157Y-102474012D01*
X169058846Y-102271843D01*
X169092100Y-102061887D01*
X169092100Y-101849313D01*
X169058846Y-101639357D01*
X168993157Y-101437188D01*
X168896651Y-101247784D01*
X168896649Y-101247781D01*
X168896648Y-101247779D01*
X168771709Y-101075813D01*
X168621386Y-100925490D01*
X168449420Y-100800551D01*
X168448715Y-100800191D01*
X168440654Y-100796085D01*
X168389859Y-100748112D01*
X168373063Y-100680292D01*
X168395599Y-100614156D01*
X168440654Y-100575115D01*
X168449416Y-100570651D01*
X168564433Y-100487087D01*
X168621386Y-100445709D01*
X168621388Y-100445706D01*
X168621392Y-100445704D01*
X168771704Y-100295392D01*
X168771706Y-100295388D01*
X168771709Y-100295386D01*
X168896648Y-100123420D01*
X168896647Y-100123420D01*
X168896651Y-100123416D01*
X168993157Y-99934012D01*
X169058846Y-99731843D01*
X169092100Y-99521887D01*
X169092100Y-99309313D01*
X169058846Y-99099357D01*
X168993157Y-98897188D01*
X168896651Y-98707784D01*
X168896649Y-98707781D01*
X168896648Y-98707779D01*
X168771709Y-98535813D01*
X168621386Y-98385490D01*
X168449420Y-98260551D01*
X168448715Y-98260191D01*
X168440654Y-98256085D01*
X168389859Y-98208112D01*
X168373063Y-98140292D01*
X168395599Y-98074156D01*
X168440654Y-98035115D01*
X168449416Y-98030651D01*
X168564433Y-97947087D01*
X168621386Y-97905709D01*
X168621388Y-97905706D01*
X168621392Y-97905704D01*
X168771704Y-97755392D01*
X168771706Y-97755388D01*
X168771709Y-97755386D01*
X168896648Y-97583420D01*
X168896647Y-97583420D01*
X168896651Y-97583416D01*
X168993157Y-97394012D01*
X169058846Y-97191843D01*
X169092100Y-96981887D01*
X169092100Y-96769313D01*
X169058846Y-96559357D01*
X168993157Y-96357188D01*
X168896651Y-96167784D01*
X168896649Y-96167781D01*
X168896648Y-96167779D01*
X168771709Y-95995813D01*
X168621386Y-95845490D01*
X168449420Y-95720551D01*
X168448715Y-95720191D01*
X168440654Y-95716085D01*
X168389859Y-95668112D01*
X168373063Y-95600292D01*
X168395599Y-95534156D01*
X168440654Y-95495115D01*
X168449416Y-95490651D01*
X168471389Y-95474686D01*
X168621386Y-95365709D01*
X168621388Y-95365706D01*
X168621392Y-95365704D01*
X168771704Y-95215392D01*
X168771706Y-95215388D01*
X168771709Y-95215386D01*
X168896648Y-95043420D01*
X168896647Y-95043420D01*
X168896651Y-95043416D01*
X168993157Y-94854012D01*
X169058846Y-94651843D01*
X169092100Y-94441887D01*
X169092100Y-94229313D01*
X169058846Y-94019357D01*
X168993157Y-93817188D01*
X168896651Y-93627784D01*
X168896649Y-93627781D01*
X168896648Y-93627779D01*
X168771709Y-93455813D01*
X168621386Y-93305490D01*
X168449420Y-93180551D01*
X168448715Y-93180191D01*
X168440654Y-93176085D01*
X168389859Y-93128112D01*
X168373063Y-93060292D01*
X168395599Y-92994156D01*
X168440654Y-92955115D01*
X168449416Y-92950651D01*
X168564433Y-92867087D01*
X168621386Y-92825709D01*
X168621388Y-92825706D01*
X168621392Y-92825704D01*
X168771704Y-92675392D01*
X168771706Y-92675388D01*
X168771709Y-92675386D01*
X168896648Y-92503420D01*
X168896647Y-92503420D01*
X168896651Y-92503416D01*
X168993157Y-92314012D01*
X169058846Y-92111843D01*
X169092100Y-91901887D01*
X169092100Y-91689313D01*
X169058846Y-91479357D01*
X168993157Y-91277188D01*
X168896651Y-91087784D01*
X168896649Y-91087781D01*
X168896648Y-91087779D01*
X168771709Y-90915813D01*
X168621386Y-90765490D01*
X168449420Y-90640551D01*
X168448715Y-90640191D01*
X168440654Y-90636085D01*
X168389859Y-90588112D01*
X168373063Y-90520292D01*
X168395599Y-90454156D01*
X168440654Y-90415115D01*
X168449416Y-90410651D01*
X168471389Y-90394686D01*
X168621386Y-90285709D01*
X168621388Y-90285706D01*
X168621392Y-90285704D01*
X168771704Y-90135392D01*
X168771706Y-90135388D01*
X168771709Y-90135386D01*
X168896648Y-89963420D01*
X168896647Y-89963420D01*
X168896651Y-89963416D01*
X168993157Y-89774012D01*
X169058846Y-89571843D01*
X169092100Y-89361887D01*
X169092100Y-89149313D01*
X169058846Y-88939357D01*
X168993157Y-88737188D01*
X168896651Y-88547784D01*
X168896649Y-88547781D01*
X168896648Y-88547779D01*
X168771709Y-88375813D01*
X168621386Y-88225490D01*
X168449417Y-88100549D01*
X168440104Y-88095804D01*
X168389307Y-88047830D01*
X168372512Y-87980009D01*
X168395049Y-87913874D01*
X168440107Y-87874832D01*
X168449155Y-87870222D01*
X168503316Y-87830870D01*
X168503317Y-87830870D01*
X167871008Y-87198562D01*
X167934593Y-87181525D01*
X168048607Y-87115699D01*
X168141699Y-87022607D01*
X168207525Y-86908593D01*
X168224562Y-86845009D01*
X168856870Y-87477317D01*
X168856870Y-87477316D01*
X168896222Y-87423154D01*
X168992695Y-87233817D01*
X169058357Y-87031730D01*
X169058357Y-87031727D01*
X169091600Y-86821846D01*
X169091600Y-86609353D01*
X169058357Y-86399472D01*
X169058357Y-86399469D01*
X168992695Y-86197382D01*
X168896224Y-86008049D01*
X168856870Y-85953882D01*
X168856869Y-85953882D01*
X168224562Y-86586190D01*
X168207525Y-86522607D01*
X168141699Y-86408593D01*
X168048607Y-86315501D01*
X167934593Y-86249675D01*
X167871009Y-86232637D01*
X168541227Y-85562418D01*
X168602550Y-85528933D01*
X168628907Y-85526099D01*
X168639472Y-85526099D01*
X168699083Y-85519691D01*
X168833931Y-85469396D01*
X168949146Y-85383146D01*
X169035396Y-85267931D01*
X169085691Y-85133083D01*
X169092100Y-85073473D01*
X169092099Y-83277728D01*
X169087888Y-83238553D01*
X169100295Y-83169794D01*
X169147906Y-83118657D01*
X169211178Y-83101300D01*
X170114300Y-83101300D01*
X170181339Y-83120985D01*
X170227094Y-83173789D01*
X170238300Y-83225300D01*
X170238300Y-130947500D01*
X170218615Y-131014539D01*
X170165811Y-131060294D01*
X170114300Y-131071500D01*
X136692300Y-131071500D01*
X136625261Y-131051815D01*
X136579506Y-130999011D01*
X136568300Y-130947500D01*
X136568300Y-124787553D01*
X140220300Y-124787553D01*
X140220300Y-124945246D01*
X140251061Y-125099889D01*
X140251064Y-125099901D01*
X140311402Y-125245572D01*
X140311409Y-125245585D01*
X140399010Y-125376688D01*
X140399013Y-125376692D01*
X140510507Y-125488186D01*
X140510511Y-125488189D01*
X140641614Y-125575790D01*
X140641627Y-125575797D01*
X140787298Y-125636135D01*
X140787303Y-125636137D01*
X140941953Y-125666899D01*
X140941956Y-125666900D01*
X141024258Y-125666900D01*
X141091297Y-125686585D01*
X141135175Y-125737223D01*
X141715628Y-126317674D01*
X141650021Y-126335254D01*
X141537079Y-126400461D01*
X141444861Y-126492679D01*
X141379654Y-126605621D01*
X141362074Y-126671227D01*
X140798023Y-126107175D01*
X140798021Y-126107175D01*
X140772705Y-126142020D01*
X140683427Y-126317234D01*
X140683426Y-126317237D01*
X140622662Y-126504253D01*
X140591900Y-126698478D01*
X140591900Y-126895121D01*
X140622662Y-127089346D01*
X140683426Y-127276362D01*
X140683427Y-127276365D01*
X140772702Y-127451575D01*
X140798022Y-127486423D01*
X140798022Y-127486424D01*
X141362074Y-126922372D01*
X141379654Y-126987979D01*
X141444861Y-127100921D01*
X141537079Y-127193139D01*
X141650021Y-127258346D01*
X141715627Y-127275925D01*
X141151575Y-127839976D01*
X141151575Y-127839977D01*
X141186423Y-127865296D01*
X141361634Y-127954572D01*
X141361637Y-127954573D01*
X141548653Y-128015337D01*
X141742879Y-128046100D01*
X141939521Y-128046100D01*
X142133746Y-128015337D01*
X142320762Y-127954573D01*
X142320775Y-127954567D01*
X142495969Y-127865300D01*
X142495974Y-127865297D01*
X142530824Y-127839976D01*
X141966773Y-127275925D01*
X142032379Y-127258346D01*
X142145321Y-127193139D01*
X142237539Y-127100921D01*
X142302746Y-126987979D01*
X142320325Y-126922372D01*
X142884376Y-127486423D01*
X142909695Y-127451576D01*
X142980714Y-127312196D01*
X143028689Y-127261400D01*
X143096510Y-127244605D01*
X143162644Y-127267142D01*
X143201683Y-127312195D01*
X143272700Y-127451572D01*
X143298022Y-127486423D01*
X143298022Y-127486424D01*
X143862074Y-126922372D01*
X143879654Y-126987979D01*
X143944861Y-127100921D01*
X144037079Y-127193139D01*
X144150021Y-127258346D01*
X144215627Y-127275925D01*
X143651575Y-127839976D01*
X143651575Y-127839977D01*
X143686423Y-127865296D01*
X143861634Y-127954572D01*
X143861637Y-127954573D01*
X144048653Y-128015337D01*
X144242879Y-128046100D01*
X144439521Y-128046100D01*
X144633746Y-128015337D01*
X144820762Y-127954573D01*
X144820775Y-127954567D01*
X144995969Y-127865300D01*
X144995974Y-127865297D01*
X145030824Y-127839976D01*
X144466773Y-127275925D01*
X144532379Y-127258346D01*
X144645321Y-127193139D01*
X144737539Y-127100921D01*
X144802746Y-126987979D01*
X144820325Y-126922372D01*
X145384376Y-127486423D01*
X145409695Y-127451576D01*
X145480434Y-127312746D01*
X145528409Y-127261950D01*
X145596230Y-127245155D01*
X145662365Y-127267692D01*
X145701404Y-127312746D01*
X145772275Y-127451838D01*
X145887906Y-127610990D01*
X146027010Y-127750094D01*
X146186162Y-127865725D01*
X146248071Y-127897269D01*
X146361438Y-127955033D01*
X146361440Y-127955033D01*
X146361443Y-127955035D01*
X146461730Y-127987620D01*
X146548537Y-128015826D01*
X146742834Y-128046600D01*
X146742839Y-128046600D01*
X146939566Y-128046600D01*
X147133862Y-128015826D01*
X147135367Y-128015337D01*
X147320957Y-127955035D01*
X147496238Y-127865725D01*
X147655390Y-127750094D01*
X147794494Y-127610990D01*
X147910125Y-127451838D01*
X147980715Y-127313296D01*
X148028690Y-127262501D01*
X148096511Y-127245706D01*
X148162645Y-127268243D01*
X148201684Y-127313296D01*
X148272275Y-127451838D01*
X148387906Y-127610990D01*
X148527010Y-127750094D01*
X148686162Y-127865725D01*
X148748071Y-127897269D01*
X148861438Y-127955033D01*
X148861440Y-127955033D01*
X148861443Y-127955035D01*
X148961730Y-127987620D01*
X149048537Y-128015826D01*
X149242834Y-128046600D01*
X149242839Y-128046600D01*
X149439566Y-128046600D01*
X149633862Y-128015826D01*
X149635367Y-128015337D01*
X149820957Y-127955035D01*
X149996238Y-127865725D01*
X150155390Y-127750094D01*
X150294494Y-127610990D01*
X150410125Y-127451838D01*
X150480715Y-127313296D01*
X150528690Y-127262501D01*
X150596511Y-127245706D01*
X150662645Y-127268243D01*
X150701684Y-127313296D01*
X150772275Y-127451838D01*
X150887906Y-127610990D01*
X151027010Y-127750094D01*
X151186162Y-127865725D01*
X151248071Y-127897269D01*
X151361438Y-127955033D01*
X151361440Y-127955033D01*
X151361443Y-127955035D01*
X151461730Y-127987620D01*
X151548537Y-128015826D01*
X151742834Y-128046600D01*
X151742839Y-128046600D01*
X151939566Y-128046600D01*
X152133862Y-128015826D01*
X152135367Y-128015337D01*
X152320957Y-127955035D01*
X152496238Y-127865725D01*
X152655390Y-127750094D01*
X152794494Y-127610990D01*
X152910125Y-127451838D01*
X152980715Y-127313296D01*
X153028690Y-127262501D01*
X153096511Y-127245706D01*
X153162645Y-127268243D01*
X153201684Y-127313296D01*
X153272275Y-127451838D01*
X153387906Y-127610990D01*
X153527010Y-127750094D01*
X153686162Y-127865725D01*
X153748071Y-127897269D01*
X153861438Y-127955033D01*
X153861440Y-127955033D01*
X153861443Y-127955035D01*
X153961730Y-127987620D01*
X154048537Y-128015826D01*
X154242834Y-128046600D01*
X154242839Y-128046600D01*
X154439566Y-128046600D01*
X154633862Y-128015826D01*
X154635367Y-128015337D01*
X154820957Y-127955035D01*
X154996238Y-127865725D01*
X155155390Y-127750094D01*
X155294494Y-127610990D01*
X155410125Y-127451838D01*
X155499435Y-127276557D01*
X155552959Y-127111829D01*
X159500702Y-127111829D01*
X159500702Y-127294570D01*
X159529268Y-127474928D01*
X159529287Y-127475045D01*
X159585754Y-127648831D01*
X159668711Y-127811644D01*
X159776117Y-127959476D01*
X159905326Y-128088685D01*
X160053158Y-128196091D01*
X160215971Y-128279048D01*
X160389757Y-128335515D01*
X160457437Y-128346234D01*
X160570232Y-128364100D01*
X160570237Y-128364100D01*
X160752972Y-128364100D01*
X160853233Y-128348219D01*
X160933447Y-128335515D01*
X161107233Y-128279048D01*
X161270046Y-128196091D01*
X161417878Y-128088685D01*
X161547087Y-127959476D01*
X161561282Y-127939937D01*
X161616611Y-127897271D01*
X161686224Y-127891290D01*
X161748020Y-127923895D01*
X161761917Y-127939934D01*
X161776115Y-127959476D01*
X161905324Y-128088685D01*
X162053156Y-128196091D01*
X162215969Y-128279048D01*
X162389755Y-128335515D01*
X162457435Y-128346234D01*
X162570230Y-128364100D01*
X162570235Y-128364100D01*
X162752970Y-128364100D01*
X162853231Y-128348219D01*
X162933445Y-128335515D01*
X163107231Y-128279048D01*
X163270044Y-128196091D01*
X163417876Y-128088685D01*
X163547085Y-127959476D01*
X163561282Y-127939935D01*
X163616608Y-127897269D01*
X163686221Y-127891288D01*
X163748017Y-127923892D01*
X163761917Y-127939933D01*
X163776116Y-127959476D01*
X163905325Y-128088685D01*
X164053157Y-128196091D01*
X164215970Y-128279048D01*
X164389756Y-128335515D01*
X164457436Y-128346234D01*
X164570231Y-128364100D01*
X164570236Y-128364100D01*
X164752971Y-128364100D01*
X164853232Y-128348219D01*
X164933446Y-128335515D01*
X165107232Y-128279048D01*
X165270045Y-128196091D01*
X165417877Y-128088685D01*
X165547086Y-127959476D01*
X165606341Y-127877917D01*
X165609928Y-127873800D01*
X165634934Y-127857819D01*
X165658442Y-127839692D01*
X165664758Y-127838760D01*
X165668802Y-127836177D01*
X165675053Y-127836193D01*
X166255200Y-127256046D01*
X166255200Y-127256704D01*
X166282895Y-127360065D01*
X166336399Y-127452736D01*
X166412064Y-127528401D01*
X166504735Y-127581905D01*
X166608096Y-127609600D01*
X166608753Y-127609600D01*
X166035619Y-128182731D01*
X166053417Y-128195662D01*
X166216156Y-128278583D01*
X166389871Y-128335027D01*
X166570270Y-128363600D01*
X166752930Y-128363600D01*
X166933328Y-128335027D01*
X167107043Y-128278583D01*
X167269778Y-128195665D01*
X167287579Y-128182731D01*
X166714448Y-127609600D01*
X166715104Y-127609600D01*
X166818465Y-127581905D01*
X166911136Y-127528401D01*
X166986801Y-127452736D01*
X167040305Y-127360065D01*
X167068000Y-127256704D01*
X167068000Y-127256047D01*
X167641131Y-127829178D01*
X167654065Y-127811378D01*
X167736983Y-127648643D01*
X167793427Y-127474928D01*
X167822000Y-127294530D01*
X167822000Y-127111869D01*
X167793427Y-126931471D01*
X167736983Y-126757756D01*
X167654062Y-126595017D01*
X167641131Y-126577220D01*
X167641131Y-126577219D01*
X167068000Y-127150351D01*
X167068000Y-127149696D01*
X167040305Y-127046335D01*
X166986801Y-126953664D01*
X166911136Y-126877999D01*
X166818465Y-126824495D01*
X166715104Y-126796800D01*
X166714447Y-126796800D01*
X167287578Y-126223667D01*
X167269778Y-126210735D01*
X167107043Y-126127816D01*
X166933328Y-126071372D01*
X166752930Y-126042800D01*
X166570270Y-126042800D01*
X166389871Y-126071372D01*
X166216156Y-126127816D01*
X166053413Y-126210739D01*
X166053408Y-126210743D01*
X166035620Y-126223665D01*
X166035620Y-126223668D01*
X166608754Y-126796800D01*
X166608096Y-126796800D01*
X166504735Y-126824495D01*
X166412064Y-126877999D01*
X166336399Y-126953664D01*
X166282895Y-127046335D01*
X166255200Y-127149696D01*
X166255200Y-127150352D01*
X165670700Y-126565852D01*
X165644783Y-126560408D01*
X165640040Y-126556624D01*
X165636660Y-126555641D01*
X165624767Y-126544437D01*
X165609927Y-126532597D01*
X165606333Y-126528471D01*
X165547086Y-126446924D01*
X165417877Y-126317715D01*
X165270045Y-126210309D01*
X165107232Y-126127352D01*
X164933446Y-126070885D01*
X164933444Y-126070884D01*
X164933442Y-126070884D01*
X164752971Y-126042300D01*
X164752966Y-126042300D01*
X164570236Y-126042300D01*
X164570231Y-126042300D01*
X164389759Y-126070884D01*
X164215967Y-126127353D01*
X164053156Y-126210309D01*
X163905322Y-126317717D01*
X163776115Y-126446924D01*
X163761917Y-126466467D01*
X163706586Y-126509132D01*
X163636973Y-126515110D01*
X163575178Y-126482503D01*
X163561282Y-126466465D01*
X163547085Y-126446924D01*
X163417876Y-126317715D01*
X163270044Y-126210309D01*
X163107231Y-126127352D01*
X162933445Y-126070885D01*
X162933443Y-126070884D01*
X162933441Y-126070884D01*
X162752970Y-126042300D01*
X162752965Y-126042300D01*
X162570235Y-126042300D01*
X162570230Y-126042300D01*
X162389758Y-126070884D01*
X162215966Y-126127353D01*
X162053155Y-126210309D01*
X161905321Y-126317717D01*
X161776118Y-126446920D01*
X161776115Y-126446923D01*
X161776115Y-126446924D01*
X161761919Y-126466464D01*
X161761918Y-126466465D01*
X161706587Y-126509129D01*
X161636973Y-126515107D01*
X161575179Y-126482499D01*
X161561284Y-126466465D01*
X161547087Y-126446924D01*
X161417878Y-126317715D01*
X161270046Y-126210309D01*
X161107233Y-126127352D01*
X160933447Y-126070885D01*
X160933445Y-126070884D01*
X160933443Y-126070884D01*
X160752972Y-126042300D01*
X160752967Y-126042300D01*
X160570237Y-126042300D01*
X160570232Y-126042300D01*
X160389760Y-126070884D01*
X160215968Y-126127353D01*
X160053157Y-126210309D01*
X159905323Y-126317717D01*
X159776119Y-126446921D01*
X159668711Y-126594755D01*
X159585755Y-126757566D01*
X159529286Y-126931358D01*
X159500702Y-127111829D01*
X155552959Y-127111829D01*
X155560226Y-127089462D01*
X155567057Y-127046335D01*
X155591000Y-126895166D01*
X155591000Y-126698433D01*
X155560226Y-126504137D01*
X155511958Y-126355586D01*
X155499435Y-126317043D01*
X155499433Y-126317040D01*
X155499433Y-126317038D01*
X155451857Y-126223665D01*
X155410125Y-126141762D01*
X155294494Y-125982610D01*
X155155390Y-125843506D01*
X154996238Y-125727875D01*
X154820961Y-125638566D01*
X154633862Y-125577773D01*
X154439566Y-125547000D01*
X154439561Y-125547000D01*
X154242839Y-125547000D01*
X154242834Y-125547000D01*
X154048537Y-125577773D01*
X153861438Y-125638566D01*
X153686161Y-125727875D01*
X153595359Y-125793847D01*
X153527010Y-125843506D01*
X153527008Y-125843508D01*
X153527007Y-125843508D01*
X153387908Y-125982607D01*
X153387908Y-125982608D01*
X153387906Y-125982610D01*
X153344539Y-126042300D01*
X153272275Y-126141761D01*
X153201685Y-126280302D01*
X153153710Y-126331098D01*
X153085889Y-126347893D01*
X153019754Y-126325355D01*
X152980715Y-126280302D01*
X152910258Y-126142024D01*
X152910125Y-126141762D01*
X152794494Y-125982610D01*
X152655390Y-125843506D01*
X152496238Y-125727875D01*
X152320961Y-125638566D01*
X152133862Y-125577773D01*
X151939566Y-125547000D01*
X151939561Y-125547000D01*
X151742839Y-125547000D01*
X151742834Y-125547000D01*
X151548537Y-125577773D01*
X151361438Y-125638566D01*
X151186161Y-125727875D01*
X151095359Y-125793847D01*
X151027010Y-125843506D01*
X151027008Y-125843508D01*
X151027007Y-125843508D01*
X150887908Y-125982607D01*
X150887908Y-125982608D01*
X150887906Y-125982610D01*
X150844539Y-126042300D01*
X150772275Y-126141761D01*
X150701685Y-126280302D01*
X150653710Y-126331098D01*
X150585889Y-126347893D01*
X150519754Y-126325355D01*
X150480715Y-126280302D01*
X150410258Y-126142024D01*
X150410125Y-126141762D01*
X150294494Y-125982610D01*
X150155390Y-125843506D01*
X149996238Y-125727875D01*
X149820961Y-125638566D01*
X149633862Y-125577773D01*
X149439566Y-125547000D01*
X149439561Y-125547000D01*
X149242839Y-125547000D01*
X149242834Y-125547000D01*
X149048537Y-125577773D01*
X148861438Y-125638566D01*
X148686161Y-125727875D01*
X148595359Y-125793847D01*
X148527010Y-125843506D01*
X148527008Y-125843508D01*
X148527007Y-125843508D01*
X148387908Y-125982607D01*
X148387908Y-125982608D01*
X148387906Y-125982610D01*
X148344539Y-126042300D01*
X148272275Y-126141761D01*
X148201685Y-126280302D01*
X148153710Y-126331098D01*
X148085889Y-126347893D01*
X148019754Y-126325355D01*
X147980715Y-126280302D01*
X147910258Y-126142024D01*
X147910125Y-126141762D01*
X147794494Y-125982610D01*
X147655390Y-125843506D01*
X147496238Y-125727875D01*
X147320961Y-125638566D01*
X147133862Y-125577773D01*
X146939566Y-125547000D01*
X146939561Y-125547000D01*
X146742839Y-125547000D01*
X146742834Y-125547000D01*
X146548537Y-125577773D01*
X146361438Y-125638566D01*
X146186161Y-125727875D01*
X146095359Y-125793847D01*
X146027010Y-125843506D01*
X146027008Y-125843508D01*
X146027007Y-125843508D01*
X145887908Y-125982607D01*
X145887908Y-125982608D01*
X145887906Y-125982610D01*
X145844539Y-126042300D01*
X145772275Y-126141761D01*
X145701404Y-126280853D01*
X145653429Y-126331649D01*
X145585608Y-126348444D01*
X145519473Y-126325906D01*
X145480434Y-126280853D01*
X145409696Y-126142023D01*
X145384376Y-126107175D01*
X144820324Y-126671226D01*
X144802746Y-126605621D01*
X144737539Y-126492679D01*
X144645321Y-126400461D01*
X144532379Y-126335254D01*
X144466772Y-126317674D01*
X145030824Y-125753622D01*
X144995975Y-125728302D01*
X144820765Y-125639027D01*
X144820762Y-125639026D01*
X144633746Y-125578262D01*
X144439521Y-125547500D01*
X144242879Y-125547500D01*
X144048653Y-125578262D01*
X143861637Y-125639026D01*
X143861634Y-125639027D01*
X143686420Y-125728305D01*
X143651575Y-125753621D01*
X143651575Y-125753623D01*
X144215628Y-126317674D01*
X144150021Y-126335254D01*
X144037079Y-126400461D01*
X143944861Y-126492679D01*
X143879654Y-126605621D01*
X143862074Y-126671227D01*
X143298023Y-126107175D01*
X143298021Y-126107175D01*
X143272702Y-126142024D01*
X143272701Y-126142025D01*
X143201684Y-126281403D01*
X143153710Y-126332199D01*
X143085889Y-126348994D01*
X143019754Y-126326456D01*
X142980716Y-126281403D01*
X142909701Y-126142031D01*
X142909698Y-126142025D01*
X142884376Y-126107175D01*
X142320324Y-126671226D01*
X142302746Y-126605621D01*
X142237539Y-126492679D01*
X142145321Y-126400461D01*
X142032379Y-126335254D01*
X141966772Y-126317674D01*
X142530824Y-125753622D01*
X142495975Y-125728302D01*
X142320765Y-125639027D01*
X142320762Y-125639026D01*
X142133746Y-125578262D01*
X141939521Y-125547500D01*
X141760445Y-125547500D01*
X141693406Y-125527815D01*
X141647651Y-125475011D01*
X141637707Y-125405853D01*
X141657343Y-125354609D01*
X141730190Y-125245585D01*
X141730190Y-125245584D01*
X141730194Y-125245579D01*
X141790537Y-125099897D01*
X141821300Y-124945242D01*
X141821300Y-124787558D01*
X141821300Y-124787555D01*
X141821299Y-124787553D01*
X141790538Y-124632910D01*
X141790537Y-124632903D01*
X141790535Y-124632898D01*
X141730197Y-124487227D01*
X141730190Y-124487214D01*
X141694364Y-124433597D01*
X141673486Y-124366920D01*
X141691970Y-124299539D01*
X141694329Y-124295868D01*
X141755594Y-124204179D01*
X141815937Y-124058497D01*
X141846700Y-123903842D01*
X141846700Y-123746158D01*
X141846700Y-123746155D01*
X141846103Y-123740093D01*
X141848954Y-123739812D01*
X141854027Y-123682451D01*
X141896832Y-123627229D01*
X141902937Y-123623416D01*
X141902913Y-123623379D01*
X142039089Y-123532389D01*
X142150586Y-123420892D01*
X142150589Y-123420889D01*
X142238194Y-123289779D01*
X142298537Y-123144097D01*
X142329300Y-122989442D01*
X142329300Y-122831758D01*
X142329300Y-122831755D01*
X142329299Y-122831753D01*
X142298538Y-122677110D01*
X142298537Y-122677103D01*
X142286827Y-122648833D01*
X142238197Y-122531427D01*
X142238190Y-122531414D01*
X142150589Y-122400311D01*
X142150586Y-122400307D01*
X142039092Y-122288813D01*
X142039088Y-122288810D01*
X141921238Y-122210065D01*
X141921237Y-122210064D01*
X141907987Y-122201210D01*
X141907972Y-122201202D01*
X141762301Y-122140864D01*
X141762289Y-122140861D01*
X141616337Y-122111829D01*
X159500702Y-122111829D01*
X159500702Y-122294570D01*
X159517450Y-122400311D01*
X159529287Y-122475045D01*
X159585754Y-122648831D01*
X159668711Y-122811644D01*
X159776117Y-122959476D01*
X159905326Y-123088685D01*
X160053158Y-123196091D01*
X160215971Y-123279048D01*
X160389757Y-123335515D01*
X160457437Y-123346234D01*
X160570232Y-123364100D01*
X160570237Y-123364100D01*
X160752972Y-123364100D01*
X160853233Y-123348219D01*
X160933447Y-123335515D01*
X161107233Y-123279048D01*
X161270046Y-123196091D01*
X161417878Y-123088685D01*
X161547087Y-122959476D01*
X161561282Y-122939937D01*
X161616611Y-122897271D01*
X161686224Y-122891290D01*
X161748020Y-122923895D01*
X161761919Y-122939936D01*
X161776115Y-122959476D01*
X161905324Y-123088685D01*
X162053156Y-123196091D01*
X162215969Y-123279048D01*
X162389755Y-123335515D01*
X162457435Y-123346234D01*
X162570230Y-123364100D01*
X162570235Y-123364100D01*
X162752970Y-123364100D01*
X162853231Y-123348219D01*
X162933445Y-123335515D01*
X163107231Y-123279048D01*
X163270044Y-123196091D01*
X163417876Y-123088685D01*
X163547085Y-122959476D01*
X163561282Y-122939935D01*
X163616608Y-122897269D01*
X163686221Y-122891288D01*
X163748017Y-122923892D01*
X163761917Y-122939933D01*
X163776116Y-122959476D01*
X163905325Y-123088685D01*
X164053157Y-123196091D01*
X164215970Y-123279048D01*
X164389756Y-123335515D01*
X164457436Y-123346234D01*
X164570231Y-123364100D01*
X164570236Y-123364100D01*
X164752971Y-123364100D01*
X164853232Y-123348219D01*
X164933446Y-123335515D01*
X165107232Y-123279048D01*
X165270045Y-123196091D01*
X165417877Y-123088685D01*
X165547086Y-122959476D01*
X165561281Y-122939937D01*
X165616610Y-122897271D01*
X165686223Y-122891290D01*
X165748019Y-122923895D01*
X165761917Y-122939935D01*
X165774485Y-122957232D01*
X165776115Y-122959476D01*
X165905324Y-123088685D01*
X166053156Y-123196091D01*
X166215969Y-123279048D01*
X166389755Y-123335515D01*
X166457435Y-123346234D01*
X166570230Y-123364100D01*
X166570235Y-123364100D01*
X166752970Y-123364100D01*
X166853231Y-123348219D01*
X166933445Y-123335515D01*
X167107231Y-123279048D01*
X167270044Y-123196091D01*
X167417876Y-123088685D01*
X167547085Y-122959476D01*
X167654491Y-122811644D01*
X167737448Y-122648831D01*
X167793915Y-122475045D01*
X167806619Y-122394831D01*
X167822500Y-122294570D01*
X167822500Y-122111829D01*
X167793915Y-121931358D01*
X167793915Y-121931355D01*
X167737448Y-121757569D01*
X167654491Y-121594756D01*
X167633694Y-121566132D01*
X167610215Y-121500326D01*
X167626040Y-121432272D01*
X167676146Y-121383577D01*
X167744624Y-121369702D01*
X167781465Y-121378685D01*
X167879242Y-121419187D01*
X168033139Y-121449799D01*
X168033142Y-121449800D01*
X168033144Y-121449800D01*
X168190062Y-121449800D01*
X168190063Y-121449799D01*
X168343962Y-121419187D01*
X168488933Y-121359137D01*
X168619405Y-121271959D01*
X168730361Y-121161003D01*
X168817539Y-121030531D01*
X168877589Y-120885560D01*
X168908202Y-120731658D01*
X168908202Y-120574742D01*
X168908202Y-120574739D01*
X168908201Y-120574737D01*
X168877589Y-120420840D01*
X168817539Y-120275869D01*
X168817537Y-120275866D01*
X168817535Y-120275862D01*
X168730361Y-120145396D01*
X168619405Y-120034440D01*
X168488939Y-119947266D01*
X168488929Y-119947261D01*
X168343962Y-119887213D01*
X168343954Y-119887211D01*
X168190063Y-119856600D01*
X168190060Y-119856600D01*
X168033144Y-119856600D01*
X168033141Y-119856600D01*
X167879249Y-119887211D01*
X167879241Y-119887213D01*
X167734274Y-119947261D01*
X167734264Y-119947266D01*
X167603798Y-120034440D01*
X167492842Y-120145396D01*
X167405668Y-120275862D01*
X167405663Y-120275872D01*
X167345615Y-120420839D01*
X167345613Y-120420847D01*
X167315002Y-120574737D01*
X167315002Y-120731662D01*
X167345613Y-120885552D01*
X167345615Y-120885560D01*
X167407705Y-121035457D01*
X167415174Y-121104926D01*
X167383899Y-121167406D01*
X167323810Y-121203058D01*
X167253985Y-121200565D01*
X167236850Y-121193395D01*
X167107236Y-121127354D01*
X167107233Y-121127353D01*
X167107231Y-121127352D01*
X166933445Y-121070885D01*
X166933443Y-121070884D01*
X166933441Y-121070884D01*
X166752970Y-121042300D01*
X166752965Y-121042300D01*
X166570235Y-121042300D01*
X166570230Y-121042300D01*
X166389758Y-121070884D01*
X166215966Y-121127353D01*
X166053155Y-121210309D01*
X165905321Y-121317717D01*
X165776117Y-121446921D01*
X165776112Y-121446927D01*
X165761916Y-121466466D01*
X165706585Y-121509130D01*
X165636971Y-121515108D01*
X165575177Y-121482500D01*
X165561283Y-121466465D01*
X165547086Y-121446924D01*
X165417877Y-121317715D01*
X165270045Y-121210309D01*
X165107232Y-121127352D01*
X164933446Y-121070885D01*
X164933444Y-121070884D01*
X164933442Y-121070884D01*
X164752971Y-121042300D01*
X164752966Y-121042300D01*
X164570236Y-121042300D01*
X164570231Y-121042300D01*
X164389759Y-121070884D01*
X164215967Y-121127353D01*
X164053156Y-121210309D01*
X163905322Y-121317717D01*
X163776115Y-121446924D01*
X163761917Y-121466467D01*
X163706586Y-121509132D01*
X163636973Y-121515110D01*
X163575178Y-121482503D01*
X163561282Y-121466465D01*
X163547085Y-121446924D01*
X163417876Y-121317715D01*
X163270044Y-121210309D01*
X163107231Y-121127352D01*
X162933445Y-121070885D01*
X162933443Y-121070884D01*
X162933441Y-121070884D01*
X162752970Y-121042300D01*
X162752965Y-121042300D01*
X162570235Y-121042300D01*
X162570230Y-121042300D01*
X162389758Y-121070884D01*
X162215966Y-121127353D01*
X162053155Y-121210309D01*
X161905321Y-121317717D01*
X161776118Y-121446920D01*
X161776115Y-121446923D01*
X161776115Y-121446924D01*
X161761919Y-121466464D01*
X161761918Y-121466465D01*
X161706587Y-121509129D01*
X161636973Y-121515107D01*
X161575179Y-121482499D01*
X161561284Y-121466465D01*
X161547087Y-121446924D01*
X161417878Y-121317715D01*
X161270046Y-121210309D01*
X161107233Y-121127352D01*
X160933447Y-121070885D01*
X160933445Y-121070884D01*
X160933443Y-121070884D01*
X160752972Y-121042300D01*
X160752967Y-121042300D01*
X160570237Y-121042300D01*
X160570232Y-121042300D01*
X160389760Y-121070884D01*
X160215968Y-121127353D01*
X160053157Y-121210309D01*
X159905323Y-121317717D01*
X159776119Y-121446921D01*
X159668711Y-121594755D01*
X159585755Y-121757566D01*
X159529286Y-121931358D01*
X159500702Y-122111829D01*
X141616337Y-122111829D01*
X141607645Y-122110100D01*
X141607642Y-122110100D01*
X141449958Y-122110100D01*
X141449955Y-122110100D01*
X141295310Y-122140861D01*
X141295298Y-122140864D01*
X141149627Y-122201202D01*
X141149614Y-122201209D01*
X141018511Y-122288810D01*
X141018507Y-122288813D01*
X140907013Y-122400307D01*
X140907010Y-122400311D01*
X140819409Y-122531414D01*
X140819402Y-122531427D01*
X140759064Y-122677098D01*
X140759061Y-122677110D01*
X140728300Y-122831753D01*
X140728300Y-122989443D01*
X140728897Y-122995506D01*
X140726130Y-122995778D01*
X140720805Y-123053572D01*
X140677796Y-123108636D01*
X140672071Y-123112198D01*
X140672086Y-123112221D01*
X140535911Y-123203210D01*
X140535907Y-123203213D01*
X140424413Y-123314707D01*
X140424410Y-123314711D01*
X140336809Y-123445814D01*
X140336802Y-123445827D01*
X140276464Y-123591498D01*
X140276461Y-123591510D01*
X140245700Y-123746153D01*
X140245700Y-123903846D01*
X140276461Y-124058489D01*
X140276464Y-124058501D01*
X140336802Y-124204172D01*
X140336809Y-124204185D01*
X140372635Y-124257802D01*
X140393513Y-124324480D01*
X140375028Y-124391860D01*
X140372635Y-124395584D01*
X140311409Y-124487214D01*
X140311402Y-124487227D01*
X140251064Y-124632898D01*
X140251061Y-124632910D01*
X140220300Y-124787553D01*
X136568300Y-124787553D01*
X136568300Y-120960851D01*
X136587985Y-120893812D01*
X136608595Y-120875953D01*
X155434900Y-120875953D01*
X155434900Y-121033646D01*
X155465661Y-121188289D01*
X155465664Y-121188301D01*
X155526002Y-121333972D01*
X155526009Y-121333985D01*
X155613610Y-121465088D01*
X155613613Y-121465092D01*
X155725107Y-121576586D01*
X155725111Y-121576589D01*
X155856214Y-121664190D01*
X155856227Y-121664197D01*
X156001898Y-121724535D01*
X156001903Y-121724537D01*
X156156553Y-121755299D01*
X156156556Y-121755300D01*
X156156558Y-121755300D01*
X156314244Y-121755300D01*
X156314245Y-121755299D01*
X156468897Y-121724537D01*
X156614579Y-121664194D01*
X156745689Y-121576589D01*
X156857189Y-121465089D01*
X156944794Y-121333979D01*
X157005137Y-121188297D01*
X157035900Y-121033642D01*
X157035900Y-120875958D01*
X157035900Y-120875955D01*
X157035899Y-120875953D01*
X157015857Y-120775197D01*
X157005137Y-120721303D01*
X156991171Y-120687586D01*
X156944797Y-120575627D01*
X156944790Y-120575614D01*
X156857189Y-120444511D01*
X156857186Y-120444507D01*
X156745692Y-120333013D01*
X156745688Y-120333010D01*
X156614585Y-120245409D01*
X156614572Y-120245402D01*
X156468901Y-120185064D01*
X156468889Y-120185061D01*
X156314245Y-120154300D01*
X156314242Y-120154300D01*
X156156558Y-120154300D01*
X156156555Y-120154300D01*
X156001910Y-120185061D01*
X156001898Y-120185064D01*
X155856227Y-120245402D01*
X155856214Y-120245409D01*
X155725111Y-120333010D01*
X155725107Y-120333013D01*
X155613613Y-120444507D01*
X155613610Y-120444511D01*
X155526009Y-120575614D01*
X155526002Y-120575627D01*
X155465664Y-120721298D01*
X155465661Y-120721310D01*
X155434900Y-120875953D01*
X136608595Y-120875953D01*
X136640789Y-120848057D01*
X136709947Y-120838113D01*
X136716470Y-120839230D01*
X136798684Y-120855583D01*
X136852556Y-120866300D01*
X136852558Y-120866300D01*
X137010244Y-120866300D01*
X137010245Y-120866299D01*
X137164897Y-120835537D01*
X137310579Y-120775194D01*
X137441689Y-120687589D01*
X137553189Y-120576089D01*
X137640794Y-120444979D01*
X137701137Y-120299297D01*
X137731900Y-120144642D01*
X137731900Y-119986958D01*
X137731900Y-119986955D01*
X137731899Y-119986953D01*
X137701138Y-119832310D01*
X137701137Y-119832303D01*
X137701135Y-119832298D01*
X137640797Y-119686627D01*
X137640790Y-119686614D01*
X137553189Y-119555511D01*
X137553186Y-119555507D01*
X137441692Y-119444013D01*
X137441688Y-119444010D01*
X137310585Y-119356409D01*
X137310572Y-119356402D01*
X137164901Y-119296064D01*
X137164889Y-119296061D01*
X137010245Y-119265300D01*
X137010242Y-119265300D01*
X136852558Y-119265300D01*
X136852555Y-119265300D01*
X136716491Y-119292365D01*
X136646900Y-119286138D01*
X136591722Y-119243275D01*
X136568478Y-119177385D01*
X136568300Y-119170748D01*
X136568300Y-118335953D01*
X155180900Y-118335953D01*
X155180900Y-118493646D01*
X155211661Y-118648289D01*
X155211664Y-118648301D01*
X155272002Y-118793972D01*
X155272009Y-118793985D01*
X155359610Y-118925088D01*
X155359613Y-118925092D01*
X155471107Y-119036586D01*
X155471111Y-119036589D01*
X155602214Y-119124190D01*
X155602227Y-119124197D01*
X155714613Y-119170748D01*
X155747903Y-119184537D01*
X155902553Y-119215299D01*
X155902556Y-119215300D01*
X155902558Y-119215300D01*
X156060244Y-119215300D01*
X156060245Y-119215299D01*
X156214897Y-119184537D01*
X156360579Y-119124194D01*
X156491689Y-119036589D01*
X156603189Y-118925089D01*
X156690794Y-118793979D01*
X156751137Y-118648297D01*
X156781900Y-118493642D01*
X156781900Y-118335958D01*
X156781900Y-118335955D01*
X156781899Y-118335953D01*
X156768780Y-118269999D01*
X156751137Y-118181303D01*
X156707265Y-118075386D01*
X156690797Y-118035627D01*
X156690790Y-118035614D01*
X156603189Y-117904511D01*
X156603186Y-117904507D01*
X156491692Y-117793013D01*
X156491688Y-117793010D01*
X156360585Y-117705409D01*
X156360572Y-117705402D01*
X156214901Y-117645064D01*
X156214889Y-117645061D01*
X156060245Y-117614300D01*
X156060242Y-117614300D01*
X155902558Y-117614300D01*
X155902555Y-117614300D01*
X155747910Y-117645061D01*
X155747898Y-117645064D01*
X155602227Y-117705402D01*
X155602214Y-117705409D01*
X155471111Y-117793010D01*
X155471107Y-117793013D01*
X155359613Y-117904507D01*
X155359610Y-117904511D01*
X155272009Y-118035614D01*
X155272002Y-118035627D01*
X155211664Y-118181298D01*
X155211661Y-118181310D01*
X155180900Y-118335953D01*
X136568300Y-118335953D01*
X136568300Y-115073680D01*
X148521800Y-115073680D01*
X148521800Y-115304319D01*
X148557877Y-115532102D01*
X148629147Y-115751446D01*
X148733850Y-115956935D01*
X148789253Y-116033191D01*
X148789254Y-116033192D01*
X149497504Y-115324941D01*
X149513619Y-115385081D01*
X149580498Y-115500920D01*
X149675080Y-115595502D01*
X149790919Y-115662381D01*
X149851057Y-115678494D01*
X149142806Y-116386744D01*
X149219067Y-116442151D01*
X149424553Y-116546852D01*
X149643897Y-116618122D01*
X149871681Y-116654200D01*
X150102319Y-116654200D01*
X150330102Y-116618122D01*
X150549446Y-116546852D01*
X150754924Y-116442155D01*
X150754930Y-116442151D01*
X150831191Y-116386744D01*
X150831192Y-116386744D01*
X150744614Y-116300166D01*
X150122942Y-115678495D01*
X150183081Y-115662381D01*
X150298920Y-115595502D01*
X150393502Y-115500920D01*
X150460381Y-115385081D01*
X150476494Y-115324942D01*
X151184744Y-116033192D01*
X151184744Y-116033191D01*
X151240151Y-115956930D01*
X151240155Y-115956924D01*
X151344852Y-115751446D01*
X151416122Y-115532102D01*
X151452200Y-115304319D01*
X151452200Y-115073681D01*
X151434386Y-114961213D01*
X151434386Y-114961212D01*
X151432084Y-114946680D01*
X154998800Y-114946680D01*
X154998800Y-115177319D01*
X155034877Y-115405102D01*
X155106147Y-115624446D01*
X155210850Y-115829935D01*
X155266253Y-115906191D01*
X155266254Y-115906192D01*
X155974504Y-115197941D01*
X155990619Y-115258081D01*
X156057498Y-115373920D01*
X156152080Y-115468502D01*
X156267919Y-115535381D01*
X156328057Y-115551494D01*
X155619806Y-116259744D01*
X155696067Y-116315151D01*
X155901553Y-116419852D01*
X156120897Y-116491122D01*
X156348681Y-116527200D01*
X156579319Y-116527200D01*
X156807102Y-116491122D01*
X157026446Y-116419852D01*
X157231924Y-116315155D01*
X157231930Y-116315151D01*
X157308191Y-116259744D01*
X157308192Y-116259744D01*
X156599942Y-115551495D01*
X156660081Y-115535381D01*
X156775920Y-115468502D01*
X156870502Y-115373920D01*
X156937381Y-115258081D01*
X156953494Y-115197942D01*
X157661744Y-115906192D01*
X157661744Y-115906191D01*
X157717151Y-115829930D01*
X157717155Y-115829924D01*
X157821852Y-115624446D01*
X157893122Y-115405102D01*
X157929200Y-115177319D01*
X157929200Y-114946680D01*
X157893122Y-114718897D01*
X157821852Y-114499553D01*
X157717151Y-114294067D01*
X157661744Y-114217807D01*
X157661744Y-114217806D01*
X156953494Y-114926056D01*
X156937381Y-114865919D01*
X156870502Y-114750080D01*
X156775920Y-114655498D01*
X156660081Y-114588619D01*
X156599941Y-114572504D01*
X157308192Y-113864254D01*
X157308191Y-113864253D01*
X157231935Y-113808850D01*
X157026446Y-113704147D01*
X156807102Y-113632877D01*
X156579319Y-113596800D01*
X156348681Y-113596800D01*
X156120897Y-113632877D01*
X155901553Y-113704147D01*
X155696069Y-113808847D01*
X155619807Y-113864254D01*
X156328058Y-114572504D01*
X156267919Y-114588619D01*
X156152080Y-114655498D01*
X156057498Y-114750080D01*
X155990619Y-114865919D01*
X155974504Y-114926057D01*
X155266254Y-114217807D01*
X155210847Y-114294069D01*
X155106147Y-114499553D01*
X155034877Y-114718897D01*
X154998800Y-114946680D01*
X151432084Y-114946680D01*
X151416121Y-114845897D01*
X151344852Y-114626553D01*
X151240151Y-114421067D01*
X151184744Y-114344807D01*
X151184744Y-114344806D01*
X150476494Y-115053056D01*
X150460381Y-114992919D01*
X150393502Y-114877080D01*
X150298920Y-114782498D01*
X150183081Y-114715619D01*
X150122941Y-114699504D01*
X150831192Y-113991254D01*
X150831191Y-113991253D01*
X150754935Y-113935850D01*
X150549446Y-113831147D01*
X150330102Y-113759877D01*
X150102319Y-113723800D01*
X149871681Y-113723800D01*
X149643897Y-113759877D01*
X149424553Y-113831147D01*
X149219069Y-113935847D01*
X149142807Y-113991254D01*
X149851058Y-114699504D01*
X149790919Y-114715619D01*
X149675080Y-114782498D01*
X149580498Y-114877080D01*
X149513619Y-114992919D01*
X149497504Y-115053057D01*
X148789254Y-114344807D01*
X148733847Y-114421069D01*
X148629147Y-114626553D01*
X148557877Y-114845897D01*
X148521800Y-115073680D01*
X136568300Y-115073680D01*
X136568300Y-109993647D01*
X148521300Y-109993647D01*
X148521300Y-110224352D01*
X148557390Y-110452219D01*
X148583516Y-110532624D01*
X148628683Y-110671633D01*
X148628684Y-110671636D01*
X148628685Y-110671637D01*
X148658754Y-110730651D01*
X148733421Y-110877194D01*
X148869027Y-111063839D01*
X149032161Y-111226973D01*
X149218806Y-111362579D01*
X149424367Y-111467317D01*
X149598071Y-111523757D01*
X149643780Y-111538609D01*
X149757714Y-111556654D01*
X149871647Y-111574700D01*
X149871648Y-111574700D01*
X150102352Y-111574700D01*
X150102353Y-111574700D01*
X150330219Y-111538609D01*
X150549633Y-111467317D01*
X150755194Y-111362579D01*
X150941839Y-111226973D01*
X151104973Y-111063839D01*
X151240579Y-110877194D01*
X151345317Y-110671633D01*
X151416609Y-110452219D01*
X151419010Y-110437061D01*
X151448939Y-110373926D01*
X151508250Y-110336994D01*
X151578113Y-110337992D01*
X151636346Y-110376601D01*
X151663100Y-110432267D01*
X151683061Y-110532616D01*
X151683064Y-110532628D01*
X151743402Y-110678299D01*
X151743409Y-110678312D01*
X151831010Y-110809415D01*
X151831013Y-110809419D01*
X151942507Y-110920913D01*
X151942511Y-110920916D01*
X152073614Y-111008517D01*
X152073627Y-111008524D01*
X152207171Y-111063839D01*
X152219303Y-111068864D01*
X152373953Y-111099626D01*
X152373956Y-111099627D01*
X152373958Y-111099627D01*
X152531644Y-111099627D01*
X152531645Y-111099626D01*
X152686297Y-111068864D01*
X152831979Y-111008521D01*
X152963089Y-110920916D01*
X153074589Y-110809416D01*
X153162194Y-110678306D01*
X153222537Y-110532624D01*
X153253300Y-110377969D01*
X153253300Y-110220285D01*
X153253300Y-110220282D01*
X153253299Y-110220280D01*
X153245244Y-110179786D01*
X153222537Y-110065630D01*
X153162194Y-109919948D01*
X153162193Y-109919946D01*
X153162192Y-109919944D01*
X153126580Y-109866647D01*
X154998300Y-109866647D01*
X154998300Y-110097353D01*
X155002252Y-110122306D01*
X155034390Y-110325219D01*
X155069173Y-110432267D01*
X155105683Y-110544633D01*
X155105684Y-110544636D01*
X155105685Y-110544637D01*
X155118608Y-110570000D01*
X155210421Y-110750194D01*
X155346027Y-110936839D01*
X155509161Y-111099973D01*
X155695806Y-111235579D01*
X155901367Y-111340317D01*
X156078850Y-111397984D01*
X156120780Y-111411609D01*
X156234714Y-111429654D01*
X156348647Y-111447700D01*
X156348648Y-111447700D01*
X156579352Y-111447700D01*
X156579353Y-111447700D01*
X156807219Y-111411609D01*
X157026633Y-111340317D01*
X157232194Y-111235579D01*
X157418839Y-111099973D01*
X157581973Y-110936839D01*
X157717579Y-110750194D01*
X157822317Y-110544633D01*
X157893609Y-110325219D01*
X157929700Y-110097353D01*
X157929700Y-109866647D01*
X157913724Y-109765780D01*
X157893609Y-109638780D01*
X157822315Y-109419362D01*
X157740788Y-109259357D01*
X157717579Y-109213806D01*
X157717578Y-109213805D01*
X157702980Y-109193713D01*
X160649500Y-109193713D01*
X160649500Y-109406286D01*
X160678555Y-109589736D01*
X160682754Y-109616243D01*
X160738832Y-109788834D01*
X160748444Y-109818414D01*
X160844951Y-110007820D01*
X160969890Y-110179786D01*
X161120213Y-110330109D01*
X161292182Y-110455050D01*
X161300946Y-110459516D01*
X161351742Y-110507491D01*
X161368536Y-110575312D01*
X161345998Y-110641447D01*
X161300946Y-110680484D01*
X161292182Y-110684949D01*
X161120213Y-110809890D01*
X160969890Y-110960213D01*
X160844951Y-111132179D01*
X160748444Y-111321585D01*
X160682753Y-111523760D01*
X160649500Y-111733713D01*
X160649500Y-111946286D01*
X160682753Y-112156239D01*
X160748444Y-112358414D01*
X160844951Y-112547820D01*
X160969890Y-112719786D01*
X161120213Y-112870109D01*
X161292182Y-112995050D01*
X161300946Y-112999516D01*
X161351742Y-113047491D01*
X161368536Y-113115312D01*
X161345998Y-113181447D01*
X161300946Y-113220484D01*
X161292182Y-113224949D01*
X161120213Y-113349890D01*
X160969890Y-113500213D01*
X160844951Y-113672179D01*
X160748444Y-113861585D01*
X160682753Y-114063760D01*
X160649500Y-114273713D01*
X160649500Y-114486286D01*
X160680339Y-114681000D01*
X160682754Y-114696243D01*
X160737885Y-114865919D01*
X160748444Y-114898414D01*
X160844951Y-115087820D01*
X160969890Y-115259786D01*
X161083818Y-115373714D01*
X161117303Y-115435037D01*
X161112319Y-115504729D01*
X161070447Y-115560662D01*
X161039471Y-115577577D01*
X160907912Y-115626646D01*
X160907906Y-115626649D01*
X160792812Y-115712809D01*
X160792809Y-115712812D01*
X160706649Y-115827906D01*
X160706645Y-115827913D01*
X160656403Y-115962620D01*
X160656401Y-115962627D01*
X160650000Y-116022155D01*
X160650000Y-116670000D01*
X161566988Y-116670000D01*
X161534075Y-116727007D01*
X161500000Y-116854174D01*
X161500000Y-116985826D01*
X161534075Y-117112993D01*
X161566988Y-117170000D01*
X160650000Y-117170000D01*
X160650000Y-117817844D01*
X160656401Y-117877372D01*
X160656403Y-117877379D01*
X160706645Y-118012086D01*
X160706649Y-118012093D01*
X160792809Y-118127187D01*
X160792812Y-118127190D01*
X160907906Y-118213350D01*
X160907913Y-118213354D01*
X161042620Y-118263596D01*
X161042627Y-118263598D01*
X161102155Y-118269999D01*
X161102172Y-118270000D01*
X161750000Y-118270000D01*
X161750000Y-117353012D01*
X161807007Y-117385925D01*
X161934174Y-117420000D01*
X162065826Y-117420000D01*
X162192993Y-117385925D01*
X162250000Y-117353012D01*
X162250000Y-118270000D01*
X162897828Y-118270000D01*
X162897844Y-118269999D01*
X162957372Y-118263598D01*
X162957379Y-118263596D01*
X163092086Y-118213354D01*
X163092093Y-118213350D01*
X163207187Y-118127190D01*
X163207190Y-118127187D01*
X163293350Y-118012093D01*
X163293354Y-118012086D01*
X163343596Y-117877379D01*
X163343598Y-117877372D01*
X163349999Y-117817844D01*
X163350000Y-117817827D01*
X163350000Y-117170000D01*
X162433012Y-117170000D01*
X162465925Y-117112993D01*
X162500000Y-116985826D01*
X162500000Y-116854174D01*
X162465925Y-116727007D01*
X162433012Y-116670000D01*
X163350000Y-116670000D01*
X163350000Y-116022172D01*
X163349999Y-116022155D01*
X163343598Y-115962627D01*
X163343596Y-115962620D01*
X163293354Y-115827913D01*
X163293350Y-115827906D01*
X163207190Y-115712812D01*
X163207187Y-115712809D01*
X163092093Y-115626649D01*
X163092088Y-115626646D01*
X162960528Y-115577577D01*
X162904595Y-115535705D01*
X162880178Y-115470241D01*
X162895030Y-115401968D01*
X162916175Y-115373720D01*
X163030104Y-115259792D01*
X163155051Y-115087816D01*
X163251557Y-114898412D01*
X163317246Y-114696243D01*
X163350500Y-114486287D01*
X163350500Y-114273713D01*
X163317246Y-114063757D01*
X163251557Y-113861588D01*
X163155051Y-113672184D01*
X163155049Y-113672181D01*
X163155048Y-113672179D01*
X163030109Y-113500213D01*
X162879786Y-113349890D01*
X162707820Y-113224951D01*
X162707115Y-113224591D01*
X162699054Y-113220485D01*
X162648259Y-113172512D01*
X162631463Y-113104692D01*
X162653999Y-113038556D01*
X162699054Y-112999515D01*
X162707816Y-112995051D01*
X162729789Y-112979086D01*
X162879786Y-112870109D01*
X162879788Y-112870106D01*
X162879792Y-112870104D01*
X163030104Y-112719792D01*
X163030106Y-112719788D01*
X163030109Y-112719786D01*
X163155048Y-112547820D01*
X163155047Y-112547820D01*
X163155051Y-112547816D01*
X163251557Y-112358412D01*
X163317246Y-112156243D01*
X163350500Y-111946287D01*
X163350500Y-111733713D01*
X163317246Y-111523757D01*
X163251557Y-111321588D01*
X163155051Y-111132184D01*
X163155049Y-111132181D01*
X163155048Y-111132179D01*
X163030109Y-110960213D01*
X162879786Y-110809890D01*
X162707820Y-110684951D01*
X162707115Y-110684591D01*
X162699054Y-110680485D01*
X162648259Y-110632512D01*
X162631463Y-110564692D01*
X162653999Y-110498556D01*
X162699054Y-110459515D01*
X162707816Y-110455051D01*
X162813906Y-110377973D01*
X162879786Y-110330109D01*
X162879788Y-110330106D01*
X162879792Y-110330104D01*
X163030104Y-110179792D01*
X163030106Y-110179788D01*
X163030109Y-110179786D01*
X163155048Y-110007820D01*
X163155047Y-110007820D01*
X163155051Y-110007816D01*
X163251557Y-109818412D01*
X163317246Y-109616243D01*
X163350500Y-109406287D01*
X163350500Y-109193713D01*
X163317246Y-108983757D01*
X163251557Y-108781588D01*
X163155051Y-108592184D01*
X163155049Y-108592181D01*
X163155048Y-108592179D01*
X163030109Y-108420213D01*
X162879786Y-108269890D01*
X162707820Y-108144951D01*
X162518414Y-108048444D01*
X162518413Y-108048443D01*
X162518412Y-108048443D01*
X162316243Y-107982754D01*
X162316241Y-107982753D01*
X162316240Y-107982753D01*
X162154957Y-107957208D01*
X162106287Y-107949500D01*
X161893713Y-107949500D01*
X161845042Y-107957208D01*
X161683760Y-107982753D01*
X161481585Y-108048444D01*
X161292179Y-108144951D01*
X161120213Y-108269890D01*
X160969890Y-108420213D01*
X160844951Y-108592179D01*
X160748444Y-108781585D01*
X160682753Y-108983760D01*
X160649500Y-109193713D01*
X157702980Y-109193713D01*
X157674244Y-109154161D01*
X157581973Y-109027161D01*
X157418839Y-108864027D01*
X157232194Y-108728421D01*
X157026633Y-108623683D01*
X156929674Y-108592179D01*
X156807219Y-108552390D01*
X156610508Y-108521234D01*
X156579353Y-108516300D01*
X156348647Y-108516300D01*
X156321239Y-108520641D01*
X156120780Y-108552390D01*
X155949805Y-108607944D01*
X155901367Y-108623683D01*
X155901364Y-108623684D01*
X155901362Y-108623685D01*
X155695805Y-108728421D01*
X155665162Y-108750685D01*
X155509161Y-108864027D01*
X155509159Y-108864029D01*
X155509158Y-108864029D01*
X155346029Y-109027158D01*
X155346029Y-109027159D01*
X155346027Y-109027161D01*
X155324211Y-109057188D01*
X155210421Y-109213805D01*
X155105685Y-109419362D01*
X155034390Y-109638780D01*
X155010624Y-109788838D01*
X154998300Y-109866647D01*
X153126580Y-109866647D01*
X153074589Y-109788838D01*
X153074586Y-109788834D01*
X152963092Y-109677340D01*
X152963088Y-109677337D01*
X152831985Y-109589736D01*
X152831972Y-109589729D01*
X152686301Y-109529391D01*
X152686289Y-109529388D01*
X152531645Y-109498627D01*
X152531642Y-109498627D01*
X152373958Y-109498627D01*
X152373955Y-109498627D01*
X152219310Y-109529388D01*
X152219298Y-109529391D01*
X152073627Y-109589729D01*
X152073614Y-109589736D01*
X151942511Y-109677337D01*
X151942507Y-109677340D01*
X151831013Y-109788834D01*
X151831010Y-109788838D01*
X151743409Y-109919941D01*
X151743402Y-109919954D01*
X151691261Y-110045837D01*
X151647420Y-110100241D01*
X151581126Y-110122306D01*
X151513427Y-110105027D01*
X151465816Y-110053890D01*
X151452700Y-109998385D01*
X151452700Y-109993647D01*
X151416609Y-109765780D01*
X151389350Y-109681886D01*
X151345317Y-109546367D01*
X151240579Y-109340806D01*
X151104973Y-109154161D01*
X150941839Y-108991027D01*
X150755194Y-108855421D01*
X150549633Y-108750683D01*
X150445663Y-108716901D01*
X150330219Y-108679390D01*
X150133508Y-108648234D01*
X150102353Y-108643300D01*
X149871647Y-108643300D01*
X149844239Y-108647641D01*
X149643780Y-108679390D01*
X149492882Y-108728421D01*
X149424367Y-108750683D01*
X149424364Y-108750684D01*
X149424362Y-108750685D01*
X149218805Y-108855421D01*
X149112317Y-108932789D01*
X149032161Y-108991027D01*
X149032159Y-108991029D01*
X149032158Y-108991029D01*
X148869029Y-109154158D01*
X148869029Y-109154159D01*
X148869027Y-109154161D01*
X148810789Y-109234317D01*
X148733421Y-109340805D01*
X148628685Y-109546362D01*
X148557390Y-109765780D01*
X148521300Y-109993647D01*
X136568300Y-109993647D01*
X136568300Y-108404553D01*
X143827100Y-108404553D01*
X143827100Y-108562246D01*
X143857861Y-108716889D01*
X143857864Y-108716901D01*
X143918202Y-108862572D01*
X143918209Y-108862585D01*
X144005810Y-108993688D01*
X144005813Y-108993692D01*
X144117307Y-109105186D01*
X144117311Y-109105189D01*
X144248414Y-109192790D01*
X144248427Y-109192797D01*
X144394098Y-109253135D01*
X144394103Y-109253137D01*
X144548753Y-109283899D01*
X144548756Y-109283900D01*
X144548758Y-109283900D01*
X144706444Y-109283900D01*
X144706445Y-109283899D01*
X144861097Y-109253137D01*
X144973766Y-109206467D01*
X145006772Y-109192797D01*
X145006772Y-109192796D01*
X145006779Y-109192794D01*
X145137889Y-109105189D01*
X145249389Y-108993689D01*
X145336994Y-108862579D01*
X145397337Y-108716897D01*
X145428100Y-108562242D01*
X145428100Y-108404558D01*
X145428100Y-108404555D01*
X145428099Y-108404553D01*
X145412084Y-108324043D01*
X145397337Y-108249903D01*
X145394515Y-108243091D01*
X145336997Y-108104227D01*
X145336990Y-108104214D01*
X145249389Y-107973111D01*
X145249386Y-107973107D01*
X145137892Y-107861613D01*
X145137888Y-107861610D01*
X145006785Y-107774009D01*
X145006772Y-107774002D01*
X144857962Y-107712364D01*
X144803558Y-107668523D01*
X144781493Y-107602229D01*
X144798772Y-107534530D01*
X144849909Y-107486919D01*
X144881222Y-107476186D01*
X144886497Y-107475137D01*
X145032179Y-107414794D01*
X145163289Y-107327189D01*
X145274789Y-107215689D01*
X145362394Y-107084579D01*
X145422737Y-106938897D01*
X145453500Y-106784242D01*
X145453500Y-106626558D01*
X145453500Y-106626555D01*
X145453499Y-106626553D01*
X145431744Y-106517185D01*
X145422737Y-106471903D01*
X145368347Y-106340592D01*
X145362397Y-106326227D01*
X145362390Y-106326214D01*
X145274789Y-106195111D01*
X145274786Y-106195107D01*
X145163292Y-106083613D01*
X145163288Y-106083610D01*
X145032185Y-105996009D01*
X145032172Y-105996002D01*
X144886501Y-105935664D01*
X144886489Y-105935661D01*
X144731845Y-105904900D01*
X144731842Y-105904900D01*
X144574158Y-105904900D01*
X144574155Y-105904900D01*
X144419510Y-105935661D01*
X144419498Y-105935664D01*
X144273827Y-105996002D01*
X144273814Y-105996009D01*
X144142711Y-106083610D01*
X144142707Y-106083613D01*
X144031213Y-106195107D01*
X144031210Y-106195111D01*
X143943609Y-106326214D01*
X143943602Y-106326227D01*
X143883264Y-106471898D01*
X143883261Y-106471910D01*
X143852500Y-106626553D01*
X143852500Y-106784246D01*
X143883261Y-106938889D01*
X143883264Y-106938901D01*
X143943602Y-107084572D01*
X143943609Y-107084585D01*
X144031210Y-107215688D01*
X144031213Y-107215692D01*
X144142707Y-107327186D01*
X144142711Y-107327189D01*
X144273814Y-107414790D01*
X144273827Y-107414797D01*
X144422637Y-107476435D01*
X144477041Y-107520275D01*
X144499106Y-107586569D01*
X144481827Y-107654269D01*
X144430690Y-107701880D01*
X144399383Y-107712612D01*
X144394109Y-107713661D01*
X144394098Y-107713664D01*
X144248427Y-107774002D01*
X144248414Y-107774009D01*
X144117311Y-107861610D01*
X144117307Y-107861613D01*
X144005813Y-107973107D01*
X144005810Y-107973111D01*
X143918209Y-108104214D01*
X143918202Y-108104227D01*
X143857864Y-108249898D01*
X143857861Y-108249910D01*
X143827100Y-108404553D01*
X136568300Y-108404553D01*
X136568300Y-105102553D01*
X150939100Y-105102553D01*
X150939100Y-105260246D01*
X150969861Y-105414889D01*
X150969864Y-105414901D01*
X151030202Y-105560572D01*
X151030209Y-105560585D01*
X151117810Y-105691688D01*
X151117813Y-105691692D01*
X151229307Y-105803186D01*
X151229311Y-105803189D01*
X151360414Y-105890790D01*
X151360427Y-105890797D01*
X151506098Y-105951135D01*
X151506103Y-105951137D01*
X151647245Y-105979212D01*
X151660753Y-105981899D01*
X151660756Y-105981900D01*
X151660758Y-105981900D01*
X151818444Y-105981900D01*
X151818445Y-105981899D01*
X151973097Y-105951137D01*
X152118779Y-105890794D01*
X152249889Y-105803189D01*
X152361389Y-105691689D01*
X152448994Y-105560579D01*
X152509337Y-105414897D01*
X152540100Y-105260242D01*
X152540100Y-105102558D01*
X152540100Y-105102555D01*
X152540099Y-105102553D01*
X152533596Y-105069857D01*
X152529995Y-105051753D01*
X157390700Y-105051753D01*
X157390700Y-105209446D01*
X157421461Y-105364089D01*
X157421464Y-105364101D01*
X157481802Y-105509772D01*
X157481809Y-105509785D01*
X157569410Y-105640888D01*
X157569413Y-105640892D01*
X157680907Y-105752386D01*
X157680911Y-105752389D01*
X157812014Y-105839990D01*
X157812027Y-105839997D01*
X157934654Y-105890790D01*
X157957703Y-105900337D01*
X158112353Y-105931099D01*
X158112356Y-105931100D01*
X158112358Y-105931100D01*
X158270044Y-105931100D01*
X158270045Y-105931099D01*
X158424697Y-105900337D01*
X158570379Y-105839994D01*
X158701489Y-105752389D01*
X158812989Y-105640889D01*
X158900594Y-105509779D01*
X158960937Y-105364097D01*
X158991700Y-105209442D01*
X158991700Y-105051758D01*
X158991700Y-105051755D01*
X158991699Y-105051753D01*
X158960938Y-104897110D01*
X158960937Y-104897103D01*
X158960935Y-104897098D01*
X158900597Y-104751427D01*
X158900590Y-104751414D01*
X158812989Y-104620311D01*
X158812986Y-104620307D01*
X158701492Y-104508813D01*
X158701488Y-104508810D01*
X158570385Y-104421209D01*
X158570372Y-104421202D01*
X158424701Y-104360864D01*
X158424689Y-104360861D01*
X158270045Y-104330100D01*
X158270042Y-104330100D01*
X158112358Y-104330100D01*
X158112355Y-104330100D01*
X157957710Y-104360861D01*
X157957698Y-104360864D01*
X157812027Y-104421202D01*
X157812014Y-104421209D01*
X157680911Y-104508810D01*
X157680907Y-104508813D01*
X157569413Y-104620307D01*
X157569410Y-104620311D01*
X157481809Y-104751414D01*
X157481802Y-104751427D01*
X157421464Y-104897098D01*
X157421461Y-104897110D01*
X157390700Y-105051753D01*
X152529995Y-105051753D01*
X152509338Y-104947908D01*
X152509337Y-104947907D01*
X152509337Y-104947903D01*
X152452978Y-104811839D01*
X152448997Y-104802227D01*
X152448990Y-104802214D01*
X152361389Y-104671111D01*
X152361386Y-104671107D01*
X152249892Y-104559613D01*
X152249888Y-104559610D01*
X152118785Y-104472009D01*
X152118772Y-104472002D01*
X151973101Y-104411664D01*
X151973089Y-104411661D01*
X151818445Y-104380900D01*
X151818442Y-104380900D01*
X151660758Y-104380900D01*
X151660755Y-104380900D01*
X151506110Y-104411661D01*
X151506098Y-104411664D01*
X151360427Y-104472002D01*
X151360414Y-104472009D01*
X151229311Y-104559610D01*
X151229307Y-104559613D01*
X151117813Y-104671107D01*
X151117810Y-104671111D01*
X151030209Y-104802214D01*
X151030202Y-104802227D01*
X150969864Y-104947898D01*
X150969861Y-104947910D01*
X150939100Y-105102553D01*
X136568300Y-105102553D01*
X136568300Y-103248353D01*
X152310700Y-103248353D01*
X152310700Y-103406046D01*
X152341461Y-103560689D01*
X152341464Y-103560701D01*
X152401802Y-103706372D01*
X152401809Y-103706385D01*
X152489410Y-103837488D01*
X152489413Y-103837492D01*
X152600907Y-103948986D01*
X152600911Y-103948989D01*
X152732014Y-104036590D01*
X152732027Y-104036597D01*
X152837571Y-104080314D01*
X152877703Y-104096937D01*
X153032353Y-104127699D01*
X153032356Y-104127700D01*
X153032358Y-104127700D01*
X153190044Y-104127700D01*
X153190045Y-104127699D01*
X153344697Y-104096937D01*
X153490379Y-104036594D01*
X153621489Y-103948989D01*
X153732989Y-103837489D01*
X153820594Y-103706379D01*
X153880937Y-103560697D01*
X153911700Y-103406042D01*
X153911700Y-103248358D01*
X153911700Y-103248355D01*
X153911699Y-103248353D01*
X153906117Y-103220292D01*
X153880937Y-103093703D01*
X153836203Y-102985704D01*
X153820597Y-102948027D01*
X153820590Y-102948014D01*
X153732989Y-102816911D01*
X153732986Y-102816907D01*
X153621492Y-102705413D01*
X153621488Y-102705410D01*
X153490385Y-102617809D01*
X153490372Y-102617802D01*
X153344701Y-102557464D01*
X153344689Y-102557461D01*
X153190045Y-102526700D01*
X153190042Y-102526700D01*
X153032358Y-102526700D01*
X153032355Y-102526700D01*
X152877710Y-102557461D01*
X152877698Y-102557464D01*
X152732027Y-102617802D01*
X152732014Y-102617809D01*
X152600911Y-102705410D01*
X152600907Y-102705413D01*
X152489413Y-102816907D01*
X152489410Y-102816911D01*
X152401809Y-102948014D01*
X152401802Y-102948027D01*
X152341464Y-103093698D01*
X152341461Y-103093710D01*
X152310700Y-103248353D01*
X136568300Y-103248353D01*
X136568300Y-99590753D01*
X141871300Y-99590753D01*
X141871300Y-99748446D01*
X141902061Y-99903089D01*
X141902064Y-99903101D01*
X141962402Y-100048772D01*
X141962409Y-100048785D01*
X142050010Y-100179888D01*
X142050013Y-100179892D01*
X142161507Y-100291386D01*
X142161511Y-100291389D01*
X142292614Y-100378990D01*
X142292627Y-100378997D01*
X142438298Y-100439335D01*
X142438303Y-100439337D01*
X142592953Y-100470099D01*
X142592956Y-100470100D01*
X142592958Y-100470100D01*
X142750644Y-100470100D01*
X142750645Y-100470099D01*
X142905297Y-100439337D01*
X143050979Y-100378994D01*
X143182089Y-100291389D01*
X143293589Y-100179889D01*
X143381194Y-100048779D01*
X143441537Y-99903097D01*
X143472300Y-99748442D01*
X143472300Y-99590758D01*
X143472300Y-99590755D01*
X143472299Y-99590753D01*
X143441537Y-99436103D01*
X143406158Y-99350690D01*
X143381197Y-99290427D01*
X143381190Y-99290414D01*
X143293589Y-99159311D01*
X143293586Y-99159307D01*
X143182092Y-99047813D01*
X143182088Y-99047810D01*
X143050985Y-98960209D01*
X143050972Y-98960202D01*
X142905301Y-98899864D01*
X142905289Y-98899861D01*
X142750645Y-98869100D01*
X142750642Y-98869100D01*
X142592958Y-98869100D01*
X142592955Y-98869100D01*
X142438310Y-98899861D01*
X142438298Y-98899864D01*
X142292627Y-98960202D01*
X142292614Y-98960209D01*
X142161511Y-99047810D01*
X142161507Y-99047813D01*
X142050013Y-99159307D01*
X142050010Y-99159311D01*
X141962409Y-99290414D01*
X141962402Y-99290427D01*
X141902064Y-99436098D01*
X141902061Y-99436110D01*
X141871300Y-99590753D01*
X136568300Y-99590753D01*
X136568300Y-94071153D01*
X139499500Y-94071153D01*
X139499500Y-94228846D01*
X139530261Y-94383489D01*
X139530264Y-94383501D01*
X139590602Y-94529172D01*
X139590609Y-94529185D01*
X139678210Y-94660288D01*
X139678213Y-94660292D01*
X139789707Y-94771786D01*
X139789711Y-94771789D01*
X139920814Y-94859390D01*
X139920827Y-94859397D01*
X140066498Y-94919735D01*
X140066503Y-94919737D01*
X140221153Y-94950499D01*
X140221156Y-94950500D01*
X140221158Y-94950500D01*
X140378844Y-94950500D01*
X140378845Y-94950499D01*
X140533497Y-94919737D01*
X140679179Y-94859394D01*
X140810289Y-94771789D01*
X140921789Y-94660289D01*
X141009394Y-94529179D01*
X141069737Y-94383497D01*
X141079790Y-94332958D01*
X141079791Y-94332953D01*
X157314500Y-94332953D01*
X157314500Y-94490646D01*
X157345261Y-94645289D01*
X157345264Y-94645301D01*
X157405602Y-94790972D01*
X157405609Y-94790985D01*
X157493210Y-94922088D01*
X157493213Y-94922092D01*
X157604707Y-95033586D01*
X157604711Y-95033589D01*
X157735814Y-95121190D01*
X157735827Y-95121197D01*
X157851588Y-95169146D01*
X157881503Y-95181537D01*
X157980672Y-95201263D01*
X158036153Y-95212299D01*
X158036156Y-95212300D01*
X158036158Y-95212300D01*
X158193844Y-95212300D01*
X158249329Y-95201263D01*
X158318921Y-95207490D01*
X158374098Y-95250353D01*
X158397343Y-95316242D01*
X158381276Y-95384239D01*
X158376625Y-95391768D01*
X158363275Y-95411748D01*
X158363267Y-95411762D01*
X158302929Y-95557433D01*
X158302926Y-95557445D01*
X158272165Y-95712088D01*
X158272165Y-95869781D01*
X158302926Y-96024424D01*
X158302929Y-96024436D01*
X158363267Y-96170107D01*
X158363274Y-96170120D01*
X158450875Y-96301223D01*
X158450878Y-96301227D01*
X158562372Y-96412721D01*
X158562376Y-96412724D01*
X158693479Y-96500325D01*
X158693492Y-96500332D01*
X158839163Y-96560670D01*
X158839168Y-96560672D01*
X158982803Y-96589243D01*
X158993818Y-96591434D01*
X158993821Y-96591435D01*
X158993823Y-96591435D01*
X159151509Y-96591435D01*
X159151510Y-96591434D01*
X159306162Y-96560672D01*
X159451844Y-96500329D01*
X159582954Y-96412724D01*
X159694454Y-96301224D01*
X159782059Y-96170114D01*
X159842402Y-96024432D01*
X159873165Y-95869777D01*
X159873165Y-95712093D01*
X159873165Y-95712090D01*
X159873164Y-95712088D01*
X159866194Y-95677047D01*
X159842402Y-95557438D01*
X159814737Y-95490648D01*
X159782062Y-95411762D01*
X159782055Y-95411749D01*
X159694454Y-95280646D01*
X159694451Y-95280642D01*
X159582957Y-95169148D01*
X159582953Y-95169145D01*
X159451850Y-95081544D01*
X159451837Y-95081537D01*
X159306166Y-95021199D01*
X159306154Y-95021196D01*
X159151510Y-94990435D01*
X159151507Y-94990435D01*
X158993823Y-94990435D01*
X158938333Y-95001472D01*
X158868741Y-94995243D01*
X158813564Y-94952380D01*
X158790321Y-94886490D01*
X158806390Y-94818493D01*
X158811042Y-94810961D01*
X158824394Y-94790979D01*
X158827953Y-94782388D01*
X158878527Y-94660289D01*
X158884737Y-94645297D01*
X158915500Y-94490642D01*
X158915500Y-94332958D01*
X158915500Y-94332955D01*
X158915499Y-94332953D01*
X158903114Y-94270690D01*
X158884737Y-94178303D01*
X158869404Y-94141286D01*
X158824397Y-94032627D01*
X158824390Y-94032614D01*
X158736789Y-93901511D01*
X158736786Y-93901507D01*
X158731832Y-93896553D01*
X158698347Y-93835230D01*
X158703331Y-93765538D01*
X158745203Y-93709605D01*
X158810667Y-93685188D01*
X158843708Y-93687255D01*
X158848958Y-93688300D01*
X159006644Y-93688300D01*
X159006645Y-93688299D01*
X159161297Y-93657537D01*
X159306979Y-93597194D01*
X159438089Y-93509589D01*
X159549589Y-93398089D01*
X159637194Y-93266979D01*
X159697537Y-93121297D01*
X159728300Y-92966642D01*
X159728300Y-92808958D01*
X159728300Y-92808955D01*
X159701422Y-92673833D01*
X159701422Y-92673832D01*
X159699427Y-92663807D01*
X159697537Y-92654303D01*
X159650072Y-92539711D01*
X159637197Y-92508627D01*
X159637190Y-92508614D01*
X159549589Y-92377511D01*
X159549586Y-92377507D01*
X159438092Y-92266013D01*
X159438088Y-92266010D01*
X159306985Y-92178409D01*
X159306972Y-92178402D01*
X159161301Y-92118064D01*
X159161289Y-92118061D01*
X159006645Y-92087300D01*
X159006642Y-92087300D01*
X158848958Y-92087300D01*
X158848955Y-92087300D01*
X158694310Y-92118061D01*
X158694298Y-92118064D01*
X158548627Y-92178402D01*
X158548614Y-92178409D01*
X158417511Y-92266010D01*
X158417507Y-92266013D01*
X158306013Y-92377507D01*
X158306010Y-92377511D01*
X158218409Y-92508614D01*
X158218402Y-92508627D01*
X158158064Y-92654298D01*
X158158061Y-92654310D01*
X158127300Y-92808953D01*
X158127300Y-92966646D01*
X158158061Y-93121289D01*
X158158064Y-93121301D01*
X158218402Y-93266972D01*
X158218409Y-93266985D01*
X158306010Y-93398088D01*
X158306013Y-93398092D01*
X158310967Y-93403046D01*
X158344452Y-93464369D01*
X158339468Y-93534061D01*
X158297596Y-93589994D01*
X158232132Y-93614411D01*
X158199097Y-93612345D01*
X158193843Y-93611300D01*
X158193842Y-93611300D01*
X158036158Y-93611300D01*
X158036155Y-93611300D01*
X157881510Y-93642061D01*
X157881498Y-93642064D01*
X157735827Y-93702402D01*
X157735814Y-93702409D01*
X157604711Y-93790010D01*
X157604707Y-93790013D01*
X157493213Y-93901507D01*
X157493210Y-93901511D01*
X157405609Y-94032614D01*
X157405602Y-94032627D01*
X157345264Y-94178298D01*
X157345261Y-94178310D01*
X157314500Y-94332953D01*
X141079791Y-94332953D01*
X141085814Y-94302675D01*
X141085814Y-94302674D01*
X141100500Y-94228844D01*
X141100500Y-94071155D01*
X141100499Y-94071153D01*
X141079743Y-93966803D01*
X141085970Y-93897212D01*
X141128833Y-93842034D01*
X141177174Y-93820994D01*
X141183497Y-93819737D01*
X141329179Y-93759394D01*
X141460289Y-93671789D01*
X141571789Y-93560289D01*
X141659394Y-93429179D01*
X141719737Y-93283497D01*
X141750500Y-93128842D01*
X141750500Y-92971158D01*
X141750500Y-92971155D01*
X141750499Y-92971153D01*
X141719737Y-92816503D01*
X141710389Y-92793935D01*
X141659397Y-92670827D01*
X141659390Y-92670814D01*
X141571789Y-92539711D01*
X141571786Y-92539707D01*
X141460292Y-92428213D01*
X141460288Y-92428210D01*
X141329185Y-92340609D01*
X141329172Y-92340602D01*
X141183501Y-92280264D01*
X141183489Y-92280261D01*
X141028845Y-92249500D01*
X141028842Y-92249500D01*
X140871158Y-92249500D01*
X140871155Y-92249500D01*
X140716510Y-92280261D01*
X140716498Y-92280264D01*
X140570827Y-92340602D01*
X140570814Y-92340609D01*
X140439711Y-92428210D01*
X140439707Y-92428213D01*
X140328213Y-92539707D01*
X140328210Y-92539711D01*
X140240609Y-92670814D01*
X140240602Y-92670827D01*
X140180264Y-92816498D01*
X140180261Y-92816510D01*
X140149500Y-92971153D01*
X140149500Y-93128846D01*
X140170256Y-93233195D01*
X140164029Y-93302787D01*
X140121165Y-93357964D01*
X140072840Y-93379002D01*
X140066505Y-93380262D01*
X140066498Y-93380264D01*
X139920827Y-93440602D01*
X139920814Y-93440609D01*
X139789711Y-93528210D01*
X139789707Y-93528213D01*
X139678213Y-93639707D01*
X139678210Y-93639711D01*
X139590609Y-93770814D01*
X139590602Y-93770827D01*
X139530264Y-93916498D01*
X139530261Y-93916510D01*
X139499500Y-94071153D01*
X136568300Y-94071153D01*
X136568300Y-91945353D01*
X153758500Y-91945353D01*
X153758500Y-92103046D01*
X153789261Y-92257689D01*
X153789264Y-92257701D01*
X153849602Y-92403372D01*
X153849609Y-92403385D01*
X153937210Y-92534488D01*
X153937213Y-92534492D01*
X154048707Y-92645986D01*
X154048711Y-92645989D01*
X154179814Y-92733590D01*
X154179827Y-92733597D01*
X154325498Y-92793935D01*
X154325503Y-92793937D01*
X154480153Y-92824699D01*
X154480156Y-92824700D01*
X154480158Y-92824700D01*
X154637844Y-92824700D01*
X154637845Y-92824699D01*
X154792497Y-92793937D01*
X154938179Y-92733594D01*
X155069289Y-92645989D01*
X155180789Y-92534489D01*
X155268394Y-92403379D01*
X155328737Y-92257697D01*
X155359500Y-92103042D01*
X155359500Y-91945358D01*
X155359500Y-91945355D01*
X155359499Y-91945353D01*
X155328738Y-91790710D01*
X155328737Y-91790703D01*
X155328735Y-91790698D01*
X155268397Y-91645027D01*
X155268390Y-91645014D01*
X155180789Y-91513911D01*
X155180786Y-91513907D01*
X155069292Y-91402413D01*
X155069288Y-91402410D01*
X154938185Y-91314809D01*
X154938172Y-91314802D01*
X154792501Y-91254464D01*
X154792489Y-91254461D01*
X154637845Y-91223700D01*
X154637842Y-91223700D01*
X154480158Y-91223700D01*
X154480155Y-91223700D01*
X154325510Y-91254461D01*
X154325498Y-91254464D01*
X154179827Y-91314802D01*
X154179814Y-91314809D01*
X154048711Y-91402410D01*
X154048707Y-91402413D01*
X153937213Y-91513907D01*
X153937210Y-91513911D01*
X153849609Y-91645014D01*
X153849602Y-91645027D01*
X153789264Y-91790698D01*
X153789261Y-91790710D01*
X153758500Y-91945353D01*
X136568300Y-91945353D01*
X136568300Y-89354553D01*
X153326700Y-89354553D01*
X153326700Y-89512246D01*
X153357461Y-89666889D01*
X153357464Y-89666901D01*
X153417802Y-89812572D01*
X153417809Y-89812585D01*
X153505410Y-89943688D01*
X153505413Y-89943692D01*
X153616907Y-90055186D01*
X153616911Y-90055189D01*
X153748014Y-90142790D01*
X153748027Y-90142797D01*
X153893698Y-90203135D01*
X153893703Y-90203137D01*
X154048353Y-90233899D01*
X154048356Y-90233900D01*
X154048358Y-90233900D01*
X154206044Y-90233900D01*
X154206045Y-90233899D01*
X154360697Y-90203137D01*
X154506379Y-90142794D01*
X154637489Y-90055189D01*
X154637492Y-90055186D01*
X154670679Y-90022000D01*
X154748986Y-89943692D01*
X154748989Y-89943689D01*
X154836594Y-89812579D01*
X154896937Y-89666897D01*
X154927700Y-89512242D01*
X154927700Y-89354558D01*
X154927700Y-89354555D01*
X154927699Y-89354553D01*
X154896938Y-89199910D01*
X154896937Y-89199903D01*
X154857846Y-89105528D01*
X154836597Y-89054227D01*
X154836590Y-89054214D01*
X154748989Y-88923111D01*
X154748986Y-88923107D01*
X154637492Y-88811613D01*
X154637488Y-88811610D01*
X154506385Y-88724009D01*
X154506372Y-88724002D01*
X154360701Y-88663664D01*
X154360689Y-88663661D01*
X154206045Y-88632900D01*
X154206042Y-88632900D01*
X154048358Y-88632900D01*
X154048355Y-88632900D01*
X153893710Y-88663661D01*
X153893698Y-88663664D01*
X153748027Y-88724002D01*
X153748014Y-88724009D01*
X153616911Y-88811610D01*
X153616907Y-88811613D01*
X153505413Y-88923107D01*
X153505410Y-88923111D01*
X153417809Y-89054214D01*
X153417802Y-89054227D01*
X153357464Y-89199898D01*
X153357461Y-89199910D01*
X153326700Y-89354553D01*
X136568300Y-89354553D01*
X136568300Y-85239753D01*
X139534500Y-85239753D01*
X139534500Y-85397446D01*
X139565261Y-85552089D01*
X139565264Y-85552101D01*
X139625602Y-85697772D01*
X139625609Y-85697785D01*
X139713210Y-85828888D01*
X139713213Y-85828892D01*
X139824707Y-85940386D01*
X139824711Y-85940389D01*
X139955814Y-86027990D01*
X139955827Y-86027997D01*
X140101498Y-86088335D01*
X140101503Y-86088337D01*
X140256153Y-86119099D01*
X140256156Y-86119100D01*
X140256158Y-86119100D01*
X140413844Y-86119100D01*
X140413845Y-86119099D01*
X140568497Y-86088337D01*
X140714179Y-86027994D01*
X140845289Y-85940389D01*
X140956789Y-85828889D01*
X141044394Y-85697779D01*
X141104737Y-85552097D01*
X141135500Y-85397442D01*
X141135500Y-85239758D01*
X141135500Y-85239755D01*
X141135499Y-85239753D01*
X141114281Y-85133083D01*
X141104737Y-85085103D01*
X141099919Y-85073472D01*
X141044397Y-84939427D01*
X141044390Y-84939414D01*
X140956789Y-84808311D01*
X140956786Y-84808307D01*
X140845292Y-84696813D01*
X140845288Y-84696810D01*
X140714185Y-84609209D01*
X140714172Y-84609202D01*
X140568501Y-84548864D01*
X140568489Y-84548861D01*
X140413845Y-84518100D01*
X140413842Y-84518100D01*
X140256158Y-84518100D01*
X140256155Y-84518100D01*
X140101510Y-84548861D01*
X140101498Y-84548864D01*
X139955827Y-84609202D01*
X139955814Y-84609209D01*
X139824711Y-84696810D01*
X139824707Y-84696813D01*
X139713213Y-84808307D01*
X139713210Y-84808311D01*
X139625609Y-84939414D01*
X139625602Y-84939427D01*
X139565264Y-85085098D01*
X139565261Y-85085110D01*
X139534500Y-85239753D01*
X136568300Y-85239753D01*
X136568300Y-84242935D01*
X161590500Y-84242935D01*
X161590500Y-86038670D01*
X161590501Y-86038676D01*
X161596908Y-86098283D01*
X161647202Y-86233128D01*
X161647206Y-86233135D01*
X161733452Y-86348344D01*
X161733455Y-86348347D01*
X161848664Y-86434593D01*
X161848671Y-86434597D01*
X161980082Y-86483610D01*
X162036016Y-86525481D01*
X162060433Y-86590945D01*
X162045582Y-86659218D01*
X162024431Y-86687473D01*
X161910889Y-86801015D01*
X161785951Y-86972979D01*
X161689444Y-87162385D01*
X161623753Y-87364560D01*
X161590500Y-87574513D01*
X161590500Y-87787086D01*
X161614458Y-87938354D01*
X161623754Y-87997043D01*
X161657385Y-88100549D01*
X161689444Y-88199214D01*
X161785951Y-88388620D01*
X161910890Y-88560586D01*
X162061213Y-88710909D01*
X162233179Y-88835848D01*
X162233181Y-88835849D01*
X162233184Y-88835851D01*
X162242493Y-88840594D01*
X162293290Y-88888566D01*
X162310087Y-88956387D01*
X162287552Y-89022522D01*
X162242505Y-89061560D01*
X162233446Y-89066176D01*
X162233440Y-89066180D01*
X162179282Y-89105527D01*
X162179282Y-89105528D01*
X162811591Y-89737837D01*
X162748007Y-89754875D01*
X162633993Y-89820701D01*
X162540901Y-89913793D01*
X162475075Y-90027807D01*
X162458037Y-90091391D01*
X161825728Y-89459082D01*
X161825727Y-89459082D01*
X161786380Y-89513239D01*
X161689904Y-89702582D01*
X161624242Y-89904669D01*
X161624242Y-89904672D01*
X161591000Y-90114553D01*
X161591000Y-90327046D01*
X161624242Y-90536927D01*
X161624242Y-90536930D01*
X161689904Y-90739017D01*
X161786375Y-90928350D01*
X161825728Y-90982516D01*
X162458037Y-90350208D01*
X162475075Y-90413793D01*
X162540901Y-90527807D01*
X162633993Y-90620899D01*
X162748007Y-90686725D01*
X162811590Y-90703762D01*
X162179282Y-91336069D01*
X162179282Y-91336070D01*
X162233452Y-91375426D01*
X162233451Y-91375426D01*
X162242495Y-91380034D01*
X162293292Y-91428008D01*
X162310087Y-91495829D01*
X162287550Y-91561964D01*
X162242499Y-91601002D01*
X162233182Y-91605749D01*
X162061213Y-91730690D01*
X161910890Y-91881013D01*
X161785951Y-92052979D01*
X161689444Y-92242385D01*
X161689443Y-92242387D01*
X161689443Y-92242388D01*
X161681768Y-92266010D01*
X161623753Y-92444560D01*
X161590500Y-92654513D01*
X161590500Y-92867086D01*
X161621941Y-93065600D01*
X161623754Y-93077043D01*
X161685470Y-93266985D01*
X161689444Y-93279214D01*
X161785951Y-93468620D01*
X161910890Y-93640586D01*
X162061213Y-93790909D01*
X162233182Y-93915850D01*
X162241946Y-93920316D01*
X162292742Y-93968291D01*
X162309536Y-94036112D01*
X162286998Y-94102247D01*
X162241946Y-94141284D01*
X162233182Y-94145749D01*
X162061213Y-94270690D01*
X161910890Y-94421013D01*
X161785951Y-94592979D01*
X161689444Y-94782385D01*
X161623753Y-94984560D01*
X161592555Y-95181537D01*
X161590500Y-95194513D01*
X161590500Y-95407087D01*
X161600534Y-95470444D01*
X161621941Y-95605600D01*
X161623754Y-95617043D01*
X161657385Y-95720549D01*
X161689444Y-95819214D01*
X161785951Y-96008620D01*
X161910890Y-96180586D01*
X162061213Y-96330909D01*
X162233182Y-96455850D01*
X162241946Y-96460316D01*
X162292742Y-96508291D01*
X162309536Y-96576112D01*
X162286998Y-96642247D01*
X162241946Y-96681284D01*
X162233182Y-96685749D01*
X162061213Y-96810690D01*
X161910890Y-96961013D01*
X161785951Y-97132979D01*
X161689444Y-97322385D01*
X161623753Y-97524560D01*
X161590500Y-97734513D01*
X161590500Y-97947086D01*
X161621941Y-98145600D01*
X161623754Y-98157043D01*
X161657385Y-98260549D01*
X161689444Y-98359214D01*
X161785951Y-98548620D01*
X161910890Y-98720586D01*
X162061213Y-98870909D01*
X162233182Y-98995850D01*
X162241946Y-99000316D01*
X162292742Y-99048291D01*
X162309536Y-99116112D01*
X162286998Y-99182247D01*
X162241946Y-99221284D01*
X162233182Y-99225749D01*
X162061213Y-99350690D01*
X161910890Y-99501013D01*
X161785951Y-99672979D01*
X161689444Y-99862385D01*
X161623753Y-100064560D01*
X161590500Y-100274513D01*
X161590500Y-100487086D01*
X161621941Y-100685600D01*
X161623754Y-100697043D01*
X161657385Y-100800549D01*
X161689444Y-100899214D01*
X161785951Y-101088620D01*
X161910890Y-101260586D01*
X162061213Y-101410909D01*
X162233182Y-101535850D01*
X162241946Y-101540316D01*
X162292742Y-101588291D01*
X162309536Y-101656112D01*
X162286998Y-101722247D01*
X162241946Y-101761284D01*
X162233182Y-101765749D01*
X162061213Y-101890690D01*
X161910890Y-102041013D01*
X161785951Y-102212979D01*
X161689444Y-102402385D01*
X161623753Y-102604560D01*
X161590500Y-102814513D01*
X161590500Y-103027086D01*
X161621941Y-103225600D01*
X161623754Y-103237043D01*
X161678665Y-103406042D01*
X161689444Y-103439214D01*
X161785951Y-103628620D01*
X161910890Y-103800586D01*
X162061213Y-103950909D01*
X162233182Y-104075850D01*
X162241946Y-104080316D01*
X162292742Y-104128291D01*
X162309536Y-104196112D01*
X162286998Y-104262247D01*
X162241946Y-104301284D01*
X162233182Y-104305749D01*
X162061213Y-104430690D01*
X161910890Y-104581013D01*
X161785951Y-104752979D01*
X161689444Y-104942385D01*
X161623753Y-105144560D01*
X161590500Y-105354513D01*
X161590500Y-105567086D01*
X161621941Y-105765600D01*
X161623754Y-105777043D01*
X161680321Y-105951138D01*
X161689444Y-105979214D01*
X161785951Y-106168620D01*
X161910890Y-106340586D01*
X162061213Y-106490909D01*
X162233179Y-106615848D01*
X162233181Y-106615849D01*
X162233184Y-106615851D01*
X162422588Y-106712357D01*
X162624757Y-106778046D01*
X162834713Y-106811300D01*
X162834714Y-106811300D01*
X163047286Y-106811300D01*
X163047287Y-106811300D01*
X163257243Y-106778046D01*
X163459412Y-106712357D01*
X163648816Y-106615851D01*
X163670789Y-106599886D01*
X163820786Y-106490909D01*
X163820788Y-106490906D01*
X163820792Y-106490904D01*
X163971104Y-106340592D01*
X163971106Y-106340588D01*
X163971109Y-106340586D01*
X164096048Y-106168620D01*
X164096047Y-106168620D01*
X164096051Y-106168616D01*
X164192557Y-105979212D01*
X164258246Y-105777043D01*
X164291500Y-105567087D01*
X164291500Y-105354513D01*
X164258246Y-105144557D01*
X164192557Y-104942388D01*
X164096051Y-104752984D01*
X164096049Y-104752981D01*
X164096048Y-104752979D01*
X163971109Y-104581013D01*
X163820786Y-104430690D01*
X163648820Y-104305751D01*
X163648115Y-104305391D01*
X163640054Y-104301285D01*
X163589259Y-104253312D01*
X163572463Y-104185492D01*
X163594999Y-104119356D01*
X163640054Y-104080315D01*
X163648816Y-104075851D01*
X163702855Y-104036590D01*
X163820786Y-103950909D01*
X163820788Y-103950906D01*
X163820792Y-103950904D01*
X163971104Y-103800592D01*
X163971106Y-103800588D01*
X163971109Y-103800586D01*
X164096048Y-103628620D01*
X164096047Y-103628620D01*
X164096051Y-103628616D01*
X164192557Y-103439212D01*
X164258246Y-103237043D01*
X164291500Y-103027087D01*
X164291500Y-102814513D01*
X164258246Y-102604557D01*
X164192557Y-102402388D01*
X164096051Y-102212984D01*
X164096049Y-102212981D01*
X164096048Y-102212979D01*
X163971109Y-102041013D01*
X163820786Y-101890690D01*
X163648820Y-101765751D01*
X163648115Y-101765391D01*
X163640054Y-101761285D01*
X163589259Y-101713312D01*
X163572463Y-101645492D01*
X163594999Y-101579356D01*
X163640054Y-101540315D01*
X163648816Y-101535851D01*
X163670789Y-101519886D01*
X163820786Y-101410909D01*
X163820788Y-101410906D01*
X163820792Y-101410904D01*
X163971104Y-101260592D01*
X163971106Y-101260588D01*
X163971109Y-101260586D01*
X164096048Y-101088620D01*
X164096047Y-101088620D01*
X164096051Y-101088616D01*
X164192557Y-100899212D01*
X164258246Y-100697043D01*
X164291500Y-100487087D01*
X164291500Y-100274513D01*
X164258246Y-100064557D01*
X164192557Y-99862388D01*
X164096051Y-99672984D01*
X164096049Y-99672981D01*
X164096048Y-99672979D01*
X163971109Y-99501013D01*
X163820786Y-99350690D01*
X163648820Y-99225751D01*
X163648115Y-99225391D01*
X163640054Y-99221285D01*
X163589259Y-99173312D01*
X163572463Y-99105492D01*
X163594999Y-99039356D01*
X163640054Y-99000315D01*
X163648816Y-98995851D01*
X163670789Y-98979886D01*
X163820786Y-98870909D01*
X163820788Y-98870906D01*
X163820792Y-98870904D01*
X163971104Y-98720592D01*
X163971106Y-98720588D01*
X163971109Y-98720586D01*
X164096048Y-98548620D01*
X164096047Y-98548620D01*
X164096051Y-98548616D01*
X164192557Y-98359212D01*
X164258246Y-98157043D01*
X164291500Y-97947087D01*
X164291500Y-97734513D01*
X164258246Y-97524557D01*
X164192557Y-97322388D01*
X164096051Y-97132984D01*
X164096049Y-97132981D01*
X164096048Y-97132979D01*
X163971109Y-96961013D01*
X163820786Y-96810690D01*
X163648820Y-96685751D01*
X163648115Y-96685391D01*
X163640054Y-96681285D01*
X163589259Y-96633312D01*
X163572463Y-96565492D01*
X163594999Y-96499356D01*
X163640054Y-96460315D01*
X163648816Y-96455851D01*
X163708180Y-96412721D01*
X163820786Y-96330909D01*
X163820788Y-96330906D01*
X163820792Y-96330904D01*
X163971104Y-96180592D01*
X163971106Y-96180588D01*
X163971109Y-96180586D01*
X164096048Y-96008620D01*
X164096047Y-96008620D01*
X164096051Y-96008616D01*
X164192557Y-95819212D01*
X164258246Y-95617043D01*
X164291500Y-95407087D01*
X164291500Y-95194513D01*
X164258246Y-94984557D01*
X164192557Y-94782388D01*
X164096051Y-94592984D01*
X164096049Y-94592981D01*
X164096048Y-94592979D01*
X163971109Y-94421013D01*
X163820786Y-94270690D01*
X163648820Y-94145751D01*
X163648115Y-94145391D01*
X163640054Y-94141285D01*
X163589259Y-94093312D01*
X163572463Y-94025492D01*
X163594999Y-93959356D01*
X163640054Y-93920315D01*
X163648816Y-93915851D01*
X163742195Y-93848008D01*
X163820786Y-93790909D01*
X163820788Y-93790906D01*
X163820792Y-93790904D01*
X163971104Y-93640592D01*
X163971106Y-93640588D01*
X163971109Y-93640586D01*
X164096048Y-93468620D01*
X164096047Y-93468620D01*
X164096051Y-93468616D01*
X164192557Y-93279212D01*
X164258246Y-93077043D01*
X164291500Y-92867087D01*
X164291500Y-92654513D01*
X164258246Y-92444557D01*
X164192557Y-92242388D01*
X164096051Y-92052984D01*
X164096049Y-92052981D01*
X164096048Y-92052979D01*
X163971109Y-91881013D01*
X163820786Y-91730690D01*
X163648817Y-91605749D01*
X163639504Y-91601004D01*
X163588707Y-91553030D01*
X163571912Y-91485209D01*
X163594449Y-91419074D01*
X163639507Y-91380032D01*
X163648555Y-91375422D01*
X163702716Y-91336070D01*
X163702717Y-91336070D01*
X163070408Y-90703762D01*
X163133993Y-90686725D01*
X163248007Y-90620899D01*
X163341099Y-90527807D01*
X163406925Y-90413793D01*
X163423962Y-90350209D01*
X164056270Y-90982517D01*
X164056270Y-90982516D01*
X164095622Y-90928354D01*
X164192095Y-90739017D01*
X164257757Y-90536930D01*
X164257757Y-90536927D01*
X164291000Y-90327046D01*
X164291000Y-90114553D01*
X164257757Y-89904672D01*
X164257757Y-89904669D01*
X164192095Y-89702582D01*
X164095624Y-89513249D01*
X164056270Y-89459082D01*
X164056269Y-89459082D01*
X163423962Y-90091390D01*
X163406925Y-90027807D01*
X163341099Y-89913793D01*
X163248007Y-89820701D01*
X163133993Y-89754875D01*
X163070409Y-89737837D01*
X163672866Y-89135378D01*
X163593969Y-89021840D01*
X163592373Y-89017051D01*
X163588706Y-89013588D01*
X163581439Y-88984242D01*
X163571879Y-88955554D01*
X163573124Y-88950664D01*
X163571912Y-88945766D01*
X163581667Y-88917142D01*
X163589132Y-88887848D01*
X163592823Y-88884408D01*
X163594451Y-88879632D01*
X163639508Y-88840593D01*
X163648816Y-88835851D01*
X163784615Y-88737188D01*
X163820786Y-88710909D01*
X163820788Y-88710906D01*
X163820792Y-88710904D01*
X163971104Y-88560592D01*
X163971106Y-88560588D01*
X163971109Y-88560586D01*
X164096048Y-88388620D01*
X164096047Y-88388620D01*
X164096051Y-88388616D01*
X164192557Y-88199212D01*
X164258246Y-87997043D01*
X164291500Y-87787087D01*
X164291500Y-87574513D01*
X164258246Y-87364557D01*
X164192557Y-87162388D01*
X164096051Y-86972984D01*
X164096049Y-86972981D01*
X164096048Y-86972979D01*
X163971109Y-86801013D01*
X163857569Y-86687473D01*
X163824084Y-86626150D01*
X163829068Y-86556458D01*
X163870940Y-86500525D01*
X163901915Y-86483610D01*
X164033331Y-86434596D01*
X164148546Y-86348346D01*
X164234796Y-86233131D01*
X164285091Y-86098283D01*
X164291500Y-86038673D01*
X164291499Y-84242928D01*
X164285091Y-84183317D01*
X164234796Y-84048469D01*
X164234795Y-84048468D01*
X164234793Y-84048464D01*
X164148547Y-83933255D01*
X164148544Y-83933252D01*
X164033335Y-83847006D01*
X164033328Y-83847002D01*
X163898482Y-83796708D01*
X163898483Y-83796708D01*
X163838883Y-83790301D01*
X163838881Y-83790300D01*
X163838873Y-83790300D01*
X163838864Y-83790300D01*
X162043129Y-83790300D01*
X162043123Y-83790301D01*
X161983516Y-83796708D01*
X161848671Y-83847002D01*
X161848664Y-83847006D01*
X161733455Y-83933252D01*
X161733452Y-83933255D01*
X161647206Y-84048464D01*
X161647202Y-84048471D01*
X161596908Y-84183317D01*
X161590501Y-84242916D01*
X161590501Y-84242923D01*
X161590500Y-84242935D01*
X136568300Y-84242935D01*
X136568300Y-83225300D01*
X136587985Y-83158261D01*
X136640789Y-83112506D01*
X136692300Y-83101300D01*
X166272022Y-83101300D01*
X166339061Y-83120985D01*
G37*
%TD.AperFunction*%
%TD*%
M02*
