%TF.GenerationSoftware,KiCad,Pcbnew,9.0.0*%
%TF.CreationDate,2026-04-28T15:06:29-05:00*%
%TF.ProjectId,EE327 - PMIC Breakout,45453332-3720-42d2-9050-4d4943204272,rev?*%
%TF.SameCoordinates,Original*%
%TF.FileFunction,Copper,L1,Top*%
%TF.FilePolarity,Positive*%
%FSLAX46Y46*%
G04 Gerber Fmt 4.6, Leading zero omitted, Abs format (unit mm)*
G04 Created by KiCad (PCBNEW 9.0.0) date 2026-04-28 15:06:29*
%MOMM*%
%LPD*%
G01*
G04 APERTURE LIST*
G04 Aperture macros list*
%AMRotRect*
0 Rectangle, with rotation*
0 The origin of the aperture is its center*
0 $1 length*
0 $2 width*
0 $3 Rotation angle, in degrees counterclockwise*
0 Add horizontal line*
21,1,$1,$2,0,0,$3*%
G04 Aperture macros list end*
%TA.AperFunction,SMDPad,CuDef*%
%ADD10RotRect,0.254000X0.812800X45.000000*%
%TD*%
%TA.AperFunction,SMDPad,CuDef*%
%ADD11RotRect,0.254000X0.812800X315.000000*%
%TD*%
%TA.AperFunction,SMDPad,CuDef*%
%ADD12RotRect,3.508400X4.499000X315.000000*%
%TD*%
%TA.AperFunction,ComponentPad*%
%ADD13R,1.700000X1.700000*%
%TD*%
%TA.AperFunction,ComponentPad*%
%ADD14O,1.700000X1.700000*%
%TD*%
%TA.AperFunction,ViaPad*%
%ADD15C,0.600000*%
%TD*%
%TA.AperFunction,Conductor*%
%ADD16C,0.250000*%
%TD*%
%TA.AperFunction,Conductor*%
%ADD17C,0.300000*%
%TD*%
G04 APERTURE END LIST*
D10*
%TO.P,U1,1,SCL*%
%TO.N,Net-(J1-Pin_1)*%
X137748202Y-104495419D03*
%TO.P,U1,2,SDA*%
%TO.N,Net-(J1-Pin_2)*%
X137394559Y-104849062D03*
%TO.P,U1,3,\u002AINT*%
%TO.N,Net-(J1-Pin_3)*%
X137040917Y-105202704D03*
%TO.P,U1,4,STAT1*%
%TO.N,Net-(J1-Pin_4)*%
X136687274Y-105556347D03*
%TO.P,U1,5,STAT2*%
%TO.N,Net-(J1-Pin_5)*%
X136333632Y-105909989D03*
%TO.P,U1,6,\u002APG*%
%TO.N,Net-(J1-Pin_6)*%
X135979989Y-106263632D03*
%TO.P,U1,7,\u002ACE*%
%TO.N,Net-(J1-Pin_7)*%
X135626347Y-106617274D03*
%TO.P,U1,8,TS*%
%TO.N,Net-(J1-Pin_8)*%
X135272704Y-106970917D03*
%TO.P,U1,9,ICHG*%
%TO.N,Net-(J1-Pin_9)*%
X134919062Y-107324559D03*
%TO.P,U1,10,ILIM_HIZ*%
%TO.N,Net-(J1-Pin_10)*%
X134565419Y-107678202D03*
D11*
%TO.P,U1,11,FBG*%
%TO.N,Net-(J1-Pin_11)*%
X134568832Y-108665671D03*
%TO.P,U1,12,FB*%
%TO.N,Net-(J1-Pin_12)*%
X134922474Y-109019313D03*
%TO.P,U1,13,SRN*%
%TO.N,Net-(J1-Pin_13)*%
X135276117Y-109372956D03*
%TO.P,U1,14,SRP*%
%TO.N,Net-(J1-Pin_14)*%
X135629759Y-109726598D03*
%TO.P,U1,15,BATDRV*%
%TO.N,Net-(J1-Pin_15)*%
X135983402Y-110080241D03*
%TO.P,U1,16,BATSRC*%
%TO.N,Net-(J1-Pin_16)*%
X136337044Y-110433883D03*
%TO.P,U1,17,MODE*%
%TO.N,Net-(J1-Pin_17)*%
X136690687Y-110787526D03*
%TO.P,U1,18,SW2*%
%TO.N,Net-(J1-Pin_18)*%
X137044329Y-111141168D03*
D10*
%TO.P,U1,19,HIDRV2*%
%TO.N,Net-(J2-Pin_18)*%
X138031798Y-111144581D03*
%TO.P,U1,20,BTST2*%
%TO.N,Net-(J2-Pin_17)*%
X138385441Y-110790938D03*
%TO.P,U1,21,LODRV2*%
%TO.N,Net-(J2-Pin_16)*%
X138739083Y-110437296D03*
%TO.P,U1,22,PGND*%
%TO.N,GND*%
X139092726Y-110083653D03*
%TO.P,U1,23,DRV_SUP*%
%TO.N,Net-(J2-Pin_14)*%
X139446368Y-109730011D03*
%TO.P,U1,24,REGN*%
%TO.N,Net-(J2-Pin_13)*%
X139800011Y-109376368D03*
%TO.P,U1,25,LODRV1*%
%TO.N,Net-(J2-Pin_12)*%
X140153653Y-109022726D03*
%TO.P,U1,26,BTST1*%
%TO.N,Net-(J2-Pin_11)*%
X140507296Y-108669083D03*
%TO.P,U1,27,HIDRV1*%
%TO.N,Net-(J2-Pin_10)*%
X140860938Y-108315441D03*
%TO.P,U1,28,SW1*%
%TO.N,Net-(J2-Pin_9)*%
X141214581Y-107961798D03*
D11*
%TO.P,U1,29,ACN*%
%TO.N,Net-(J2-Pin_8)*%
X141211168Y-106974329D03*
%TO.P,U1,30,ACP*%
%TO.N,Net-(J2-Pin_7)*%
X140857526Y-106620687D03*
%TO.P,U1,31,ACDRV*%
%TO.N,Net-(J2-Pin_6)*%
X140503883Y-106267044D03*
%TO.P,U1,32,SYS*%
%TO.N,Net-(J2-Pin_5)*%
X140150241Y-105913402D03*
%TO.P,U1,33,VAC*%
%TO.N,Net-(J2-Pin_4)*%
X139796598Y-105559759D03*
%TO.P,U1,34,ACUV*%
%TO.N,Net-(J2-Pin_3)*%
X139442956Y-105206117D03*
%TO.P,U1,35,ACOV*%
%TO.N,Net-(J2-Pin_2)*%
X139089313Y-104852474D03*
%TO.P,U1,36,FSW_SYNC*%
%TO.N,Net-(J2-Pin_1)*%
X138735671Y-104498832D03*
D12*
%TO.P,U1,37,PGND*%
%TO.N,GND*%
X137890000Y-107820000D03*
%TD*%
D13*
%TO.P,J1,1,Pin_1*%
%TO.N,Net-(J1-Pin_1)*%
X129000000Y-84960000D03*
D14*
%TO.P,J1,2,Pin_2*%
%TO.N,Net-(J1-Pin_2)*%
X129000000Y-87500000D03*
%TO.P,J1,3,Pin_3*%
%TO.N,Net-(J1-Pin_3)*%
X129000000Y-90040000D03*
%TO.P,J1,4,Pin_4*%
%TO.N,Net-(J1-Pin_4)*%
X129000000Y-92580000D03*
%TO.P,J1,5,Pin_5*%
%TO.N,Net-(J1-Pin_5)*%
X129000000Y-95120000D03*
%TO.P,J1,6,Pin_6*%
%TO.N,Net-(J1-Pin_6)*%
X129000000Y-97660000D03*
%TO.P,J1,7,Pin_7*%
%TO.N,Net-(J1-Pin_7)*%
X129000000Y-100200000D03*
%TO.P,J1,8,Pin_8*%
%TO.N,Net-(J1-Pin_8)*%
X129000000Y-102740000D03*
%TO.P,J1,9,Pin_9*%
%TO.N,Net-(J1-Pin_9)*%
X129000000Y-105280000D03*
%TO.P,J1,10,Pin_10*%
%TO.N,Net-(J1-Pin_10)*%
X129000000Y-107820000D03*
%TO.P,J1,11,Pin_11*%
%TO.N,Net-(J1-Pin_11)*%
X129000000Y-110360000D03*
%TO.P,J1,12,Pin_12*%
%TO.N,Net-(J1-Pin_12)*%
X129000000Y-112900000D03*
%TO.P,J1,13,Pin_13*%
%TO.N,Net-(J1-Pin_13)*%
X129000000Y-115440000D03*
%TO.P,J1,14,Pin_14*%
%TO.N,Net-(J1-Pin_14)*%
X129000000Y-117980000D03*
%TO.P,J1,15,Pin_15*%
%TO.N,Net-(J1-Pin_15)*%
X129000000Y-120520000D03*
%TO.P,J1,16,Pin_16*%
%TO.N,Net-(J1-Pin_16)*%
X129000000Y-123060000D03*
%TO.P,J1,17,Pin_17*%
%TO.N,Net-(J1-Pin_17)*%
X129000000Y-125600000D03*
%TO.P,J1,18,Pin_18*%
%TO.N,Net-(J1-Pin_18)*%
X129000000Y-128140000D03*
%TD*%
D13*
%TO.P,J2,1,Pin_1*%
%TO.N,Net-(J2-Pin_1)*%
X146780000Y-84960000D03*
D14*
%TO.P,J2,2,Pin_2*%
%TO.N,Net-(J2-Pin_2)*%
X146780000Y-87500000D03*
%TO.P,J2,3,Pin_3*%
%TO.N,Net-(J2-Pin_3)*%
X146780000Y-90040000D03*
%TO.P,J2,4,Pin_4*%
%TO.N,Net-(J2-Pin_4)*%
X146780000Y-92580000D03*
%TO.P,J2,5,Pin_5*%
%TO.N,Net-(J2-Pin_5)*%
X146780000Y-95120000D03*
%TO.P,J2,6,Pin_6*%
%TO.N,Net-(J2-Pin_6)*%
X146780000Y-97660000D03*
%TO.P,J2,7,Pin_7*%
%TO.N,Net-(J2-Pin_7)*%
X146780000Y-100200000D03*
%TO.P,J2,8,Pin_8*%
%TO.N,Net-(J2-Pin_8)*%
X146780000Y-102740000D03*
%TO.P,J2,9,Pin_9*%
%TO.N,Net-(J2-Pin_9)*%
X146780000Y-105280000D03*
%TO.P,J2,10,Pin_10*%
%TO.N,Net-(J2-Pin_10)*%
X146780000Y-107820000D03*
%TO.P,J2,11,Pin_11*%
%TO.N,Net-(J2-Pin_11)*%
X146780000Y-110360000D03*
%TO.P,J2,12,Pin_12*%
%TO.N,Net-(J2-Pin_12)*%
X146780000Y-112900000D03*
%TO.P,J2,13,Pin_13*%
%TO.N,Net-(J2-Pin_13)*%
X146780000Y-115440000D03*
%TO.P,J2,14,Pin_14*%
%TO.N,Net-(J2-Pin_14)*%
X146780000Y-117980000D03*
%TO.P,J2,15,Pin_15*%
%TO.N,GND*%
X146780000Y-120520000D03*
%TO.P,J2,16,Pin_16*%
%TO.N,Net-(J2-Pin_16)*%
X146780000Y-123060000D03*
%TO.P,J2,17,Pin_17*%
%TO.N,Net-(J2-Pin_17)*%
X146780000Y-125600000D03*
%TO.P,J2,18,Pin_18*%
%TO.N,Net-(J2-Pin_18)*%
X146780000Y-128140000D03*
%TD*%
D15*
%TO.N,GND*%
X137890000Y-107820000D03*
X139950000Y-107400000D03*
X135900000Y-108150000D03*
X137550000Y-109850000D03*
X138202335Y-105819912D03*
%TD*%
D16*
%TO.N,Net-(J1-Pin_18)*%
X137044329Y-120095671D02*
X129000000Y-128140000D01*
X137044329Y-111141168D02*
X137044329Y-120095671D01*
%TO.N,GND*%
X139092726Y-110083653D02*
X137890000Y-108880927D01*
X137890000Y-108880927D02*
X137890000Y-107820000D01*
%TO.N,Net-(J2-Pin_6)*%
X145604000Y-101166927D02*
X140503883Y-106267044D01*
X145604000Y-98836000D02*
X145604000Y-101166927D01*
X146780000Y-97660000D02*
X145604000Y-98836000D01*
%TO.N,Net-(J2-Pin_5)*%
X143580000Y-95120000D02*
X146780000Y-95120000D01*
X142950000Y-103113643D02*
X142950000Y-95750000D01*
X140150241Y-105913402D02*
X142950000Y-103113643D01*
X142950000Y-95750000D02*
X143580000Y-95120000D01*
%TO.N,Net-(J2-Pin_4)*%
X145280000Y-92580000D02*
X146780000Y-92580000D01*
X145250000Y-92550000D02*
X145280000Y-92580000D01*
X141800000Y-95350000D02*
X144600000Y-92550000D01*
X141800000Y-103556357D02*
X141800000Y-95350000D01*
X139796598Y-105559759D02*
X141800000Y-103556357D01*
X144600000Y-92550000D02*
X145250000Y-92550000D01*
%TO.N,Net-(J2-Pin_3)*%
X144460000Y-90040000D02*
X146780000Y-90040000D01*
X141000000Y-93500000D02*
X144460000Y-90040000D01*
X141000000Y-103649073D02*
X141000000Y-93500000D01*
X139442956Y-105206117D02*
X141000000Y-103649073D01*
%TO.N,Net-(J2-Pin_2)*%
X146480000Y-87800000D02*
X146780000Y-87500000D01*
X139950000Y-92950000D02*
X145100000Y-87800000D01*
X145100000Y-87800000D02*
X146480000Y-87800000D01*
X139950000Y-103991787D02*
X139950000Y-92950000D01*
X139089313Y-104852474D02*
X139950000Y-103991787D01*
%TO.N,Net-(J2-Pin_1)*%
X138735671Y-93004329D02*
X146780000Y-84960000D01*
X138735671Y-104498832D02*
X138735671Y-93004329D01*
%TO.N,Net-(J2-Pin_7)*%
X146780000Y-100698213D02*
X146780000Y-100200000D01*
X140857526Y-106620687D02*
X146780000Y-100698213D01*
%TO.N,Net-(J2-Pin_8)*%
X142545671Y-106974329D02*
X146780000Y-102740000D01*
X141211168Y-106974329D02*
X142545671Y-106974329D01*
%TO.N,Net-(J2-Pin_9)*%
X144098202Y-107961798D02*
X146780000Y-105280000D01*
X141214581Y-107961798D02*
X144098202Y-107961798D01*
%TO.N,Net-(J2-Pin_10)*%
X145930000Y-108670000D02*
X146780000Y-107820000D01*
X140860938Y-108315441D02*
X141215497Y-108670000D01*
X141215497Y-108670000D02*
X145930000Y-108670000D01*
%TO.N,Net-(J2-Pin_11)*%
X142198213Y-110360000D02*
X146780000Y-110360000D01*
X140507296Y-108669083D02*
X142198213Y-110360000D01*
%TO.N,Net-(J2-Pin_12)*%
X144030927Y-112900000D02*
X146780000Y-112900000D01*
X140153653Y-109022726D02*
X144030927Y-112900000D01*
%TO.N,Net-(J2-Pin_13)*%
X142800000Y-115050000D02*
X143400000Y-115050000D01*
X141900000Y-114150000D02*
X142800000Y-115050000D01*
X143400000Y-115050000D02*
X143790000Y-115440000D01*
X141900000Y-111476357D02*
X141900000Y-114150000D01*
X139800011Y-109376368D02*
X141900000Y-111476357D01*
X143790000Y-115440000D02*
X146780000Y-115440000D01*
%TO.N,Net-(J2-Pin_14)*%
X144630000Y-117980000D02*
X146780000Y-117980000D01*
X144250000Y-117600000D02*
X144630000Y-117980000D01*
X142550000Y-117600000D02*
X144250000Y-117600000D01*
X141000000Y-116050000D02*
X142550000Y-117600000D01*
X141000000Y-111283643D02*
X141000000Y-116050000D01*
X139446368Y-109730011D02*
X141000000Y-111283643D01*
%TO.N,Net-(J2-Pin_16)*%
X146570000Y-122850000D02*
X146780000Y-123060000D01*
X144350000Y-122850000D02*
X146570000Y-122850000D01*
X139850000Y-111548213D02*
X139850000Y-118350000D01*
X139850000Y-118350000D02*
X144350000Y-122850000D01*
X138739083Y-110437296D02*
X139850000Y-111548213D01*
%TO.N,Net-(J2-Pin_17)*%
X145980000Y-124800000D02*
X146780000Y-125600000D01*
X145000000Y-124800000D02*
X145980000Y-124800000D01*
X139050000Y-118850000D02*
X145000000Y-124800000D01*
X139050000Y-111455497D02*
X139050000Y-118850000D01*
X138385441Y-110790938D02*
X139050000Y-111455497D01*
%TO.N,Net-(J2-Pin_18)*%
X138031798Y-119391798D02*
X146780000Y-128140000D01*
X138031798Y-111144581D02*
X138031798Y-119391798D01*
%TO.N,Net-(J1-Pin_15)*%
X133000000Y-116520000D02*
X129000000Y-120520000D01*
X133000000Y-113063643D02*
X133000000Y-116520000D01*
X135983402Y-110080241D02*
X133000000Y-113063643D01*
%TO.N,Net-(J1-Pin_16)*%
X135700000Y-116360000D02*
X129000000Y-123060000D01*
X135700000Y-111070927D02*
X135700000Y-116360000D01*
X136337044Y-110433883D02*
X135700000Y-111070927D01*
%TO.N,Net-(J1-Pin_17)*%
X136200000Y-111278213D02*
X136200000Y-118400000D01*
X136200000Y-118400000D02*
X129000000Y-125600000D01*
X136690687Y-110787526D02*
X136200000Y-111278213D01*
%TO.N,Net-(J1-Pin_15)*%
X129000000Y-119800000D02*
X129000000Y-120520000D01*
%TO.N,Net-(J1-Pin_14)*%
X130900000Y-116080000D02*
X129000000Y-117980000D01*
X130900000Y-114456357D02*
X130900000Y-116080000D01*
X135629759Y-109726598D02*
X130900000Y-114456357D01*
%TO.N,Net-(J1-Pin_13)*%
X129209073Y-115440000D02*
X129000000Y-115440000D01*
X135276117Y-109372956D02*
X129209073Y-115440000D01*
%TO.N,Net-(J1-Pin_12)*%
X131041787Y-112900000D02*
X129000000Y-112900000D01*
X134922474Y-109019313D02*
X131041787Y-112900000D01*
%TO.N,Net-(J1-Pin_11)*%
X130694329Y-108665671D02*
X129000000Y-110360000D01*
X134568832Y-108665671D02*
X130694329Y-108665671D01*
%TO.N,Net-(J1-Pin_10)*%
X129141798Y-107678202D02*
X129000000Y-107820000D01*
X134565419Y-107678202D02*
X129141798Y-107678202D01*
%TO.N,Net-(J1-Pin_9)*%
X132874503Y-105280000D02*
X129000000Y-105280000D01*
X134919062Y-107324559D02*
X132874503Y-105280000D01*
%TO.N,Net-(J1-Pin_8)*%
X131990000Y-102740000D02*
X129000000Y-102740000D01*
X132450000Y-103200000D02*
X131990000Y-102740000D01*
X132450000Y-104148213D02*
X132450000Y-103200000D01*
X135272704Y-106970917D02*
X132450000Y-104148213D01*
%TO.N,Net-(J1-Pin_7)*%
X132350000Y-100200000D02*
X129000000Y-100200000D01*
X133100000Y-100950000D02*
X132350000Y-100200000D01*
X133100000Y-104090927D02*
X133100000Y-100950000D01*
X135626347Y-106617274D02*
X133100000Y-104090927D01*
%TO.N,Net-(J1-Pin_6)*%
X132910000Y-97660000D02*
X129000000Y-97660000D01*
X133750000Y-98500000D02*
X132910000Y-97660000D01*
X133750000Y-104033643D02*
X133750000Y-98500000D01*
X135979989Y-106263632D02*
X133750000Y-104033643D01*
%TO.N,Net-(J1-Pin_5)*%
X133670000Y-95120000D02*
X129000000Y-95120000D01*
X134650000Y-104226357D02*
X134650000Y-96100000D01*
X134650000Y-96100000D02*
X133670000Y-95120000D01*
X136333632Y-105909989D02*
X134650000Y-104226357D01*
D17*
%TO.N,Net-(J1-Pin_4)*%
X129420000Y-93000000D02*
X129000000Y-92580000D01*
X133800000Y-93000000D02*
X129420000Y-93000000D01*
X135350000Y-94550000D02*
X133800000Y-93000000D01*
X135350000Y-104219073D02*
X135350000Y-94550000D01*
X136687274Y-105556347D02*
X135350000Y-104219073D01*
D16*
%TO.N,Net-(J1-Pin_3)*%
X129160000Y-90200000D02*
X129000000Y-90040000D01*
X132700000Y-90200000D02*
X129160000Y-90200000D01*
X136250000Y-104411787D02*
X136250000Y-93750000D01*
X136250000Y-93750000D02*
X132700000Y-90200000D01*
X137040917Y-105202704D02*
X136250000Y-104411787D01*
%TO.N,Net-(J1-Pin_2)*%
X129550000Y-88050000D02*
X129000000Y-87500000D01*
X137045031Y-93642841D02*
X131452190Y-88050000D01*
X131452190Y-88050000D02*
X129550000Y-88050000D01*
X137045031Y-104499534D02*
X137045031Y-93642841D01*
X137394559Y-104849062D02*
X137045031Y-104499534D01*
%TO.N,Net-(J1-Pin_1)*%
X137748202Y-104495419D02*
X137748202Y-93708202D01*
X137748202Y-93708202D02*
X129000000Y-84960000D01*
D17*
%TO.N,Net-(J1-Pin_4)*%
X136687274Y-105556347D02*
X136656347Y-105556347D01*
%TD*%
M02*
