%TF.GenerationSoftware,KiCad,Pcbnew,9.0.0*%
%TF.CreationDate,2026-04-28T15:06:29-05:00*%
%TF.ProjectId,EE327 - PMIC Breakout,45453332-3720-42d2-9050-4d4943204272,rev?*%
%TF.SameCoordinates,Original*%
%TF.FileFunction,Legend,Top*%
%TF.FilePolarity,Positive*%
%FSLAX46Y46*%
G04 Gerber Fmt 4.6, Leading zero omitted, Abs format (unit mm)*
G04 Created by KiCad (PCBNEW 9.0.0) date 2026-04-28 15:06:29*
%MOMM*%
%LPD*%
G01*
G04 APERTURE LIST*
%ADD10C,0.100000*%
%ADD11C,0.150000*%
%ADD12C,0.152400*%
%ADD13C,0.000000*%
%ADD14C,0.120000*%
G04 APERTURE END LIST*
D10*
X143158646Y-84672419D02*
X143777693Y-84672419D01*
X143777693Y-84672419D02*
X143444360Y-85053371D01*
X143444360Y-85053371D02*
X143587217Y-85053371D01*
X143587217Y-85053371D02*
X143682455Y-85100990D01*
X143682455Y-85100990D02*
X143730074Y-85148609D01*
X143730074Y-85148609D02*
X143777693Y-85243847D01*
X143777693Y-85243847D02*
X143777693Y-85481942D01*
X143777693Y-85481942D02*
X143730074Y-85577180D01*
X143730074Y-85577180D02*
X143682455Y-85624800D01*
X143682455Y-85624800D02*
X143587217Y-85672419D01*
X143587217Y-85672419D02*
X143301503Y-85672419D01*
X143301503Y-85672419D02*
X143206265Y-85624800D01*
X143206265Y-85624800D02*
X143158646Y-85577180D01*
X144634836Y-84672419D02*
X144444360Y-84672419D01*
X144444360Y-84672419D02*
X144349122Y-84720038D01*
X144349122Y-84720038D02*
X144301503Y-84767657D01*
X144301503Y-84767657D02*
X144206265Y-84910514D01*
X144206265Y-84910514D02*
X144158646Y-85100990D01*
X144158646Y-85100990D02*
X144158646Y-85481942D01*
X144158646Y-85481942D02*
X144206265Y-85577180D01*
X144206265Y-85577180D02*
X144253884Y-85624800D01*
X144253884Y-85624800D02*
X144349122Y-85672419D01*
X144349122Y-85672419D02*
X144539598Y-85672419D01*
X144539598Y-85672419D02*
X144634836Y-85624800D01*
X144634836Y-85624800D02*
X144682455Y-85577180D01*
X144682455Y-85577180D02*
X144730074Y-85481942D01*
X144730074Y-85481942D02*
X144730074Y-85243847D01*
X144730074Y-85243847D02*
X144682455Y-85148609D01*
X144682455Y-85148609D02*
X144634836Y-85100990D01*
X144634836Y-85100990D02*
X144539598Y-85053371D01*
X144539598Y-85053371D02*
X144349122Y-85053371D01*
X144349122Y-85053371D02*
X144253884Y-85100990D01*
X144253884Y-85100990D02*
X144206265Y-85148609D01*
X144206265Y-85148609D02*
X144158646Y-85243847D01*
X143108646Y-87522419D02*
X143727693Y-87522419D01*
X143727693Y-87522419D02*
X143394360Y-87903371D01*
X143394360Y-87903371D02*
X143537217Y-87903371D01*
X143537217Y-87903371D02*
X143632455Y-87950990D01*
X143632455Y-87950990D02*
X143680074Y-87998609D01*
X143680074Y-87998609D02*
X143727693Y-88093847D01*
X143727693Y-88093847D02*
X143727693Y-88331942D01*
X143727693Y-88331942D02*
X143680074Y-88427180D01*
X143680074Y-88427180D02*
X143632455Y-88474800D01*
X143632455Y-88474800D02*
X143537217Y-88522419D01*
X143537217Y-88522419D02*
X143251503Y-88522419D01*
X143251503Y-88522419D02*
X143156265Y-88474800D01*
X143156265Y-88474800D02*
X143108646Y-88427180D01*
X144632455Y-87522419D02*
X144156265Y-87522419D01*
X144156265Y-87522419D02*
X144108646Y-87998609D01*
X144108646Y-87998609D02*
X144156265Y-87950990D01*
X144156265Y-87950990D02*
X144251503Y-87903371D01*
X144251503Y-87903371D02*
X144489598Y-87903371D01*
X144489598Y-87903371D02*
X144584836Y-87950990D01*
X144584836Y-87950990D02*
X144632455Y-87998609D01*
X144632455Y-87998609D02*
X144680074Y-88093847D01*
X144680074Y-88093847D02*
X144680074Y-88331942D01*
X144680074Y-88331942D02*
X144632455Y-88427180D01*
X144632455Y-88427180D02*
X144584836Y-88474800D01*
X144584836Y-88474800D02*
X144489598Y-88522419D01*
X144489598Y-88522419D02*
X144251503Y-88522419D01*
X144251503Y-88522419D02*
X144156265Y-88474800D01*
X144156265Y-88474800D02*
X144108646Y-88427180D01*
X143158646Y-89572419D02*
X143777693Y-89572419D01*
X143777693Y-89572419D02*
X143444360Y-89953371D01*
X143444360Y-89953371D02*
X143587217Y-89953371D01*
X143587217Y-89953371D02*
X143682455Y-90000990D01*
X143682455Y-90000990D02*
X143730074Y-90048609D01*
X143730074Y-90048609D02*
X143777693Y-90143847D01*
X143777693Y-90143847D02*
X143777693Y-90381942D01*
X143777693Y-90381942D02*
X143730074Y-90477180D01*
X143730074Y-90477180D02*
X143682455Y-90524800D01*
X143682455Y-90524800D02*
X143587217Y-90572419D01*
X143587217Y-90572419D02*
X143301503Y-90572419D01*
X143301503Y-90572419D02*
X143206265Y-90524800D01*
X143206265Y-90524800D02*
X143158646Y-90477180D01*
X144634836Y-89905752D02*
X144634836Y-90572419D01*
X144396741Y-89524800D02*
X144158646Y-90239085D01*
X144158646Y-90239085D02*
X144777693Y-90239085D01*
X143108646Y-92022419D02*
X143727693Y-92022419D01*
X143727693Y-92022419D02*
X143394360Y-92403371D01*
X143394360Y-92403371D02*
X143537217Y-92403371D01*
X143537217Y-92403371D02*
X143632455Y-92450990D01*
X143632455Y-92450990D02*
X143680074Y-92498609D01*
X143680074Y-92498609D02*
X143727693Y-92593847D01*
X143727693Y-92593847D02*
X143727693Y-92831942D01*
X143727693Y-92831942D02*
X143680074Y-92927180D01*
X143680074Y-92927180D02*
X143632455Y-92974800D01*
X143632455Y-92974800D02*
X143537217Y-93022419D01*
X143537217Y-93022419D02*
X143251503Y-93022419D01*
X143251503Y-93022419D02*
X143156265Y-92974800D01*
X143156265Y-92974800D02*
X143108646Y-92927180D01*
X144061027Y-92022419D02*
X144680074Y-92022419D01*
X144680074Y-92022419D02*
X144346741Y-92403371D01*
X144346741Y-92403371D02*
X144489598Y-92403371D01*
X144489598Y-92403371D02*
X144584836Y-92450990D01*
X144584836Y-92450990D02*
X144632455Y-92498609D01*
X144632455Y-92498609D02*
X144680074Y-92593847D01*
X144680074Y-92593847D02*
X144680074Y-92831942D01*
X144680074Y-92831942D02*
X144632455Y-92927180D01*
X144632455Y-92927180D02*
X144584836Y-92974800D01*
X144584836Y-92974800D02*
X144489598Y-93022419D01*
X144489598Y-93022419D02*
X144203884Y-93022419D01*
X144203884Y-93022419D02*
X144108646Y-92974800D01*
X144108646Y-92974800D02*
X144061027Y-92927180D01*
X143058646Y-94672419D02*
X143677693Y-94672419D01*
X143677693Y-94672419D02*
X143344360Y-95053371D01*
X143344360Y-95053371D02*
X143487217Y-95053371D01*
X143487217Y-95053371D02*
X143582455Y-95100990D01*
X143582455Y-95100990D02*
X143630074Y-95148609D01*
X143630074Y-95148609D02*
X143677693Y-95243847D01*
X143677693Y-95243847D02*
X143677693Y-95481942D01*
X143677693Y-95481942D02*
X143630074Y-95577180D01*
X143630074Y-95577180D02*
X143582455Y-95624800D01*
X143582455Y-95624800D02*
X143487217Y-95672419D01*
X143487217Y-95672419D02*
X143201503Y-95672419D01*
X143201503Y-95672419D02*
X143106265Y-95624800D01*
X143106265Y-95624800D02*
X143058646Y-95577180D01*
X144058646Y-94767657D02*
X144106265Y-94720038D01*
X144106265Y-94720038D02*
X144201503Y-94672419D01*
X144201503Y-94672419D02*
X144439598Y-94672419D01*
X144439598Y-94672419D02*
X144534836Y-94720038D01*
X144534836Y-94720038D02*
X144582455Y-94767657D01*
X144582455Y-94767657D02*
X144630074Y-94862895D01*
X144630074Y-94862895D02*
X144630074Y-94958133D01*
X144630074Y-94958133D02*
X144582455Y-95100990D01*
X144582455Y-95100990D02*
X144011027Y-95672419D01*
X144011027Y-95672419D02*
X144630074Y-95672419D01*
X143308646Y-97172419D02*
X143927693Y-97172419D01*
X143927693Y-97172419D02*
X143594360Y-97553371D01*
X143594360Y-97553371D02*
X143737217Y-97553371D01*
X143737217Y-97553371D02*
X143832455Y-97600990D01*
X143832455Y-97600990D02*
X143880074Y-97648609D01*
X143880074Y-97648609D02*
X143927693Y-97743847D01*
X143927693Y-97743847D02*
X143927693Y-97981942D01*
X143927693Y-97981942D02*
X143880074Y-98077180D01*
X143880074Y-98077180D02*
X143832455Y-98124800D01*
X143832455Y-98124800D02*
X143737217Y-98172419D01*
X143737217Y-98172419D02*
X143451503Y-98172419D01*
X143451503Y-98172419D02*
X143356265Y-98124800D01*
X143356265Y-98124800D02*
X143308646Y-98077180D01*
X144880074Y-98172419D02*
X144308646Y-98172419D01*
X144594360Y-98172419D02*
X144594360Y-97172419D01*
X144594360Y-97172419D02*
X144499122Y-97315276D01*
X144499122Y-97315276D02*
X144403884Y-97410514D01*
X144403884Y-97410514D02*
X144308646Y-97458133D01*
X143208646Y-99822419D02*
X143827693Y-99822419D01*
X143827693Y-99822419D02*
X143494360Y-100203371D01*
X143494360Y-100203371D02*
X143637217Y-100203371D01*
X143637217Y-100203371D02*
X143732455Y-100250990D01*
X143732455Y-100250990D02*
X143780074Y-100298609D01*
X143780074Y-100298609D02*
X143827693Y-100393847D01*
X143827693Y-100393847D02*
X143827693Y-100631942D01*
X143827693Y-100631942D02*
X143780074Y-100727180D01*
X143780074Y-100727180D02*
X143732455Y-100774800D01*
X143732455Y-100774800D02*
X143637217Y-100822419D01*
X143637217Y-100822419D02*
X143351503Y-100822419D01*
X143351503Y-100822419D02*
X143256265Y-100774800D01*
X143256265Y-100774800D02*
X143208646Y-100727180D01*
X144446741Y-99822419D02*
X144541979Y-99822419D01*
X144541979Y-99822419D02*
X144637217Y-99870038D01*
X144637217Y-99870038D02*
X144684836Y-99917657D01*
X144684836Y-99917657D02*
X144732455Y-100012895D01*
X144732455Y-100012895D02*
X144780074Y-100203371D01*
X144780074Y-100203371D02*
X144780074Y-100441466D01*
X144780074Y-100441466D02*
X144732455Y-100631942D01*
X144732455Y-100631942D02*
X144684836Y-100727180D01*
X144684836Y-100727180D02*
X144637217Y-100774800D01*
X144637217Y-100774800D02*
X144541979Y-100822419D01*
X144541979Y-100822419D02*
X144446741Y-100822419D01*
X144446741Y-100822419D02*
X144351503Y-100774800D01*
X144351503Y-100774800D02*
X144303884Y-100727180D01*
X144303884Y-100727180D02*
X144256265Y-100631942D01*
X144256265Y-100631942D02*
X144208646Y-100441466D01*
X144208646Y-100441466D02*
X144208646Y-100203371D01*
X144208646Y-100203371D02*
X144256265Y-100012895D01*
X144256265Y-100012895D02*
X144303884Y-99917657D01*
X144303884Y-99917657D02*
X144351503Y-99870038D01*
X144351503Y-99870038D02*
X144446741Y-99822419D01*
X143256265Y-102767657D02*
X143303884Y-102720038D01*
X143303884Y-102720038D02*
X143399122Y-102672419D01*
X143399122Y-102672419D02*
X143637217Y-102672419D01*
X143637217Y-102672419D02*
X143732455Y-102720038D01*
X143732455Y-102720038D02*
X143780074Y-102767657D01*
X143780074Y-102767657D02*
X143827693Y-102862895D01*
X143827693Y-102862895D02*
X143827693Y-102958133D01*
X143827693Y-102958133D02*
X143780074Y-103100990D01*
X143780074Y-103100990D02*
X143208646Y-103672419D01*
X143208646Y-103672419D02*
X143827693Y-103672419D01*
X144303884Y-103672419D02*
X144494360Y-103672419D01*
X144494360Y-103672419D02*
X144589598Y-103624800D01*
X144589598Y-103624800D02*
X144637217Y-103577180D01*
X144637217Y-103577180D02*
X144732455Y-103434323D01*
X144732455Y-103434323D02*
X144780074Y-103243847D01*
X144780074Y-103243847D02*
X144780074Y-102862895D01*
X144780074Y-102862895D02*
X144732455Y-102767657D01*
X144732455Y-102767657D02*
X144684836Y-102720038D01*
X144684836Y-102720038D02*
X144589598Y-102672419D01*
X144589598Y-102672419D02*
X144399122Y-102672419D01*
X144399122Y-102672419D02*
X144303884Y-102720038D01*
X144303884Y-102720038D02*
X144256265Y-102767657D01*
X144256265Y-102767657D02*
X144208646Y-102862895D01*
X144208646Y-102862895D02*
X144208646Y-103100990D01*
X144208646Y-103100990D02*
X144256265Y-103196228D01*
X144256265Y-103196228D02*
X144303884Y-103243847D01*
X144303884Y-103243847D02*
X144399122Y-103291466D01*
X144399122Y-103291466D02*
X144589598Y-103291466D01*
X144589598Y-103291466D02*
X144684836Y-103243847D01*
X144684836Y-103243847D02*
X144732455Y-103196228D01*
X144732455Y-103196228D02*
X144780074Y-103100990D01*
X143256265Y-105067657D02*
X143303884Y-105020038D01*
X143303884Y-105020038D02*
X143399122Y-104972419D01*
X143399122Y-104972419D02*
X143637217Y-104972419D01*
X143637217Y-104972419D02*
X143732455Y-105020038D01*
X143732455Y-105020038D02*
X143780074Y-105067657D01*
X143780074Y-105067657D02*
X143827693Y-105162895D01*
X143827693Y-105162895D02*
X143827693Y-105258133D01*
X143827693Y-105258133D02*
X143780074Y-105400990D01*
X143780074Y-105400990D02*
X143208646Y-105972419D01*
X143208646Y-105972419D02*
X143827693Y-105972419D01*
X144399122Y-105400990D02*
X144303884Y-105353371D01*
X144303884Y-105353371D02*
X144256265Y-105305752D01*
X144256265Y-105305752D02*
X144208646Y-105210514D01*
X144208646Y-105210514D02*
X144208646Y-105162895D01*
X144208646Y-105162895D02*
X144256265Y-105067657D01*
X144256265Y-105067657D02*
X144303884Y-105020038D01*
X144303884Y-105020038D02*
X144399122Y-104972419D01*
X144399122Y-104972419D02*
X144589598Y-104972419D01*
X144589598Y-104972419D02*
X144684836Y-105020038D01*
X144684836Y-105020038D02*
X144732455Y-105067657D01*
X144732455Y-105067657D02*
X144780074Y-105162895D01*
X144780074Y-105162895D02*
X144780074Y-105210514D01*
X144780074Y-105210514D02*
X144732455Y-105305752D01*
X144732455Y-105305752D02*
X144684836Y-105353371D01*
X144684836Y-105353371D02*
X144589598Y-105400990D01*
X144589598Y-105400990D02*
X144399122Y-105400990D01*
X144399122Y-105400990D02*
X144303884Y-105448609D01*
X144303884Y-105448609D02*
X144256265Y-105496228D01*
X144256265Y-105496228D02*
X144208646Y-105591466D01*
X144208646Y-105591466D02*
X144208646Y-105781942D01*
X144208646Y-105781942D02*
X144256265Y-105877180D01*
X144256265Y-105877180D02*
X144303884Y-105924800D01*
X144303884Y-105924800D02*
X144399122Y-105972419D01*
X144399122Y-105972419D02*
X144589598Y-105972419D01*
X144589598Y-105972419D02*
X144684836Y-105924800D01*
X144684836Y-105924800D02*
X144732455Y-105877180D01*
X144732455Y-105877180D02*
X144780074Y-105781942D01*
X144780074Y-105781942D02*
X144780074Y-105591466D01*
X144780074Y-105591466D02*
X144732455Y-105496228D01*
X144732455Y-105496228D02*
X144684836Y-105448609D01*
X144684836Y-105448609D02*
X144589598Y-105400990D01*
X143256265Y-108217657D02*
X143303884Y-108170038D01*
X143303884Y-108170038D02*
X143399122Y-108122419D01*
X143399122Y-108122419D02*
X143637217Y-108122419D01*
X143637217Y-108122419D02*
X143732455Y-108170038D01*
X143732455Y-108170038D02*
X143780074Y-108217657D01*
X143780074Y-108217657D02*
X143827693Y-108312895D01*
X143827693Y-108312895D02*
X143827693Y-108408133D01*
X143827693Y-108408133D02*
X143780074Y-108550990D01*
X143780074Y-108550990D02*
X143208646Y-109122419D01*
X143208646Y-109122419D02*
X143827693Y-109122419D01*
X144161027Y-108122419D02*
X144827693Y-108122419D01*
X144827693Y-108122419D02*
X144399122Y-109122419D01*
X143206265Y-109967657D02*
X143253884Y-109920038D01*
X143253884Y-109920038D02*
X143349122Y-109872419D01*
X143349122Y-109872419D02*
X143587217Y-109872419D01*
X143587217Y-109872419D02*
X143682455Y-109920038D01*
X143682455Y-109920038D02*
X143730074Y-109967657D01*
X143730074Y-109967657D02*
X143777693Y-110062895D01*
X143777693Y-110062895D02*
X143777693Y-110158133D01*
X143777693Y-110158133D02*
X143730074Y-110300990D01*
X143730074Y-110300990D02*
X143158646Y-110872419D01*
X143158646Y-110872419D02*
X143777693Y-110872419D01*
X144634836Y-109872419D02*
X144444360Y-109872419D01*
X144444360Y-109872419D02*
X144349122Y-109920038D01*
X144349122Y-109920038D02*
X144301503Y-109967657D01*
X144301503Y-109967657D02*
X144206265Y-110110514D01*
X144206265Y-110110514D02*
X144158646Y-110300990D01*
X144158646Y-110300990D02*
X144158646Y-110681942D01*
X144158646Y-110681942D02*
X144206265Y-110777180D01*
X144206265Y-110777180D02*
X144253884Y-110824800D01*
X144253884Y-110824800D02*
X144349122Y-110872419D01*
X144349122Y-110872419D02*
X144539598Y-110872419D01*
X144539598Y-110872419D02*
X144634836Y-110824800D01*
X144634836Y-110824800D02*
X144682455Y-110777180D01*
X144682455Y-110777180D02*
X144730074Y-110681942D01*
X144730074Y-110681942D02*
X144730074Y-110443847D01*
X144730074Y-110443847D02*
X144682455Y-110348609D01*
X144682455Y-110348609D02*
X144634836Y-110300990D01*
X144634836Y-110300990D02*
X144539598Y-110253371D01*
X144539598Y-110253371D02*
X144349122Y-110253371D01*
X144349122Y-110253371D02*
X144253884Y-110300990D01*
X144253884Y-110300990D02*
X144206265Y-110348609D01*
X144206265Y-110348609D02*
X144158646Y-110443847D01*
X143156265Y-112417657D02*
X143203884Y-112370038D01*
X143203884Y-112370038D02*
X143299122Y-112322419D01*
X143299122Y-112322419D02*
X143537217Y-112322419D01*
X143537217Y-112322419D02*
X143632455Y-112370038D01*
X143632455Y-112370038D02*
X143680074Y-112417657D01*
X143680074Y-112417657D02*
X143727693Y-112512895D01*
X143727693Y-112512895D02*
X143727693Y-112608133D01*
X143727693Y-112608133D02*
X143680074Y-112750990D01*
X143680074Y-112750990D02*
X143108646Y-113322419D01*
X143108646Y-113322419D02*
X143727693Y-113322419D01*
X144632455Y-112322419D02*
X144156265Y-112322419D01*
X144156265Y-112322419D02*
X144108646Y-112798609D01*
X144108646Y-112798609D02*
X144156265Y-112750990D01*
X144156265Y-112750990D02*
X144251503Y-112703371D01*
X144251503Y-112703371D02*
X144489598Y-112703371D01*
X144489598Y-112703371D02*
X144584836Y-112750990D01*
X144584836Y-112750990D02*
X144632455Y-112798609D01*
X144632455Y-112798609D02*
X144680074Y-112893847D01*
X144680074Y-112893847D02*
X144680074Y-113131942D01*
X144680074Y-113131942D02*
X144632455Y-113227180D01*
X144632455Y-113227180D02*
X144584836Y-113274800D01*
X144584836Y-113274800D02*
X144489598Y-113322419D01*
X144489598Y-113322419D02*
X144251503Y-113322419D01*
X144251503Y-113322419D02*
X144156265Y-113274800D01*
X144156265Y-113274800D02*
X144108646Y-113227180D01*
X143106265Y-115017657D02*
X143153884Y-114970038D01*
X143153884Y-114970038D02*
X143249122Y-114922419D01*
X143249122Y-114922419D02*
X143487217Y-114922419D01*
X143487217Y-114922419D02*
X143582455Y-114970038D01*
X143582455Y-114970038D02*
X143630074Y-115017657D01*
X143630074Y-115017657D02*
X143677693Y-115112895D01*
X143677693Y-115112895D02*
X143677693Y-115208133D01*
X143677693Y-115208133D02*
X143630074Y-115350990D01*
X143630074Y-115350990D02*
X143058646Y-115922419D01*
X143058646Y-115922419D02*
X143677693Y-115922419D01*
X144534836Y-115255752D02*
X144534836Y-115922419D01*
X144296741Y-114874800D02*
X144058646Y-115589085D01*
X144058646Y-115589085D02*
X144677693Y-115589085D01*
X143156265Y-117517657D02*
X143203884Y-117470038D01*
X143203884Y-117470038D02*
X143299122Y-117422419D01*
X143299122Y-117422419D02*
X143537217Y-117422419D01*
X143537217Y-117422419D02*
X143632455Y-117470038D01*
X143632455Y-117470038D02*
X143680074Y-117517657D01*
X143680074Y-117517657D02*
X143727693Y-117612895D01*
X143727693Y-117612895D02*
X143727693Y-117708133D01*
X143727693Y-117708133D02*
X143680074Y-117850990D01*
X143680074Y-117850990D02*
X143108646Y-118422419D01*
X143108646Y-118422419D02*
X143727693Y-118422419D01*
X144061027Y-117422419D02*
X144680074Y-117422419D01*
X144680074Y-117422419D02*
X144346741Y-117803371D01*
X144346741Y-117803371D02*
X144489598Y-117803371D01*
X144489598Y-117803371D02*
X144584836Y-117850990D01*
X144584836Y-117850990D02*
X144632455Y-117898609D01*
X144632455Y-117898609D02*
X144680074Y-117993847D01*
X144680074Y-117993847D02*
X144680074Y-118231942D01*
X144680074Y-118231942D02*
X144632455Y-118327180D01*
X144632455Y-118327180D02*
X144584836Y-118374800D01*
X144584836Y-118374800D02*
X144489598Y-118422419D01*
X144489598Y-118422419D02*
X144203884Y-118422419D01*
X144203884Y-118422419D02*
X144108646Y-118374800D01*
X144108646Y-118374800D02*
X144061027Y-118327180D01*
X143056265Y-120017657D02*
X143103884Y-119970038D01*
X143103884Y-119970038D02*
X143199122Y-119922419D01*
X143199122Y-119922419D02*
X143437217Y-119922419D01*
X143437217Y-119922419D02*
X143532455Y-119970038D01*
X143532455Y-119970038D02*
X143580074Y-120017657D01*
X143580074Y-120017657D02*
X143627693Y-120112895D01*
X143627693Y-120112895D02*
X143627693Y-120208133D01*
X143627693Y-120208133D02*
X143580074Y-120350990D01*
X143580074Y-120350990D02*
X143008646Y-120922419D01*
X143008646Y-120922419D02*
X143627693Y-120922419D01*
X144008646Y-120017657D02*
X144056265Y-119970038D01*
X144056265Y-119970038D02*
X144151503Y-119922419D01*
X144151503Y-119922419D02*
X144389598Y-119922419D01*
X144389598Y-119922419D02*
X144484836Y-119970038D01*
X144484836Y-119970038D02*
X144532455Y-120017657D01*
X144532455Y-120017657D02*
X144580074Y-120112895D01*
X144580074Y-120112895D02*
X144580074Y-120208133D01*
X144580074Y-120208133D02*
X144532455Y-120350990D01*
X144532455Y-120350990D02*
X143961027Y-120922419D01*
X143961027Y-120922419D02*
X144580074Y-120922419D01*
X143006265Y-122467657D02*
X143053884Y-122420038D01*
X143053884Y-122420038D02*
X143149122Y-122372419D01*
X143149122Y-122372419D02*
X143387217Y-122372419D01*
X143387217Y-122372419D02*
X143482455Y-122420038D01*
X143482455Y-122420038D02*
X143530074Y-122467657D01*
X143530074Y-122467657D02*
X143577693Y-122562895D01*
X143577693Y-122562895D02*
X143577693Y-122658133D01*
X143577693Y-122658133D02*
X143530074Y-122800990D01*
X143530074Y-122800990D02*
X142958646Y-123372419D01*
X142958646Y-123372419D02*
X143577693Y-123372419D01*
X144530074Y-123372419D02*
X143958646Y-123372419D01*
X144244360Y-123372419D02*
X144244360Y-122372419D01*
X144244360Y-122372419D02*
X144149122Y-122515276D01*
X144149122Y-122515276D02*
X144053884Y-122610514D01*
X144053884Y-122610514D02*
X143958646Y-122658133D01*
X143256265Y-125067657D02*
X143303884Y-125020038D01*
X143303884Y-125020038D02*
X143399122Y-124972419D01*
X143399122Y-124972419D02*
X143637217Y-124972419D01*
X143637217Y-124972419D02*
X143732455Y-125020038D01*
X143732455Y-125020038D02*
X143780074Y-125067657D01*
X143780074Y-125067657D02*
X143827693Y-125162895D01*
X143827693Y-125162895D02*
X143827693Y-125258133D01*
X143827693Y-125258133D02*
X143780074Y-125400990D01*
X143780074Y-125400990D02*
X143208646Y-125972419D01*
X143208646Y-125972419D02*
X143827693Y-125972419D01*
X144446741Y-124972419D02*
X144541979Y-124972419D01*
X144541979Y-124972419D02*
X144637217Y-125020038D01*
X144637217Y-125020038D02*
X144684836Y-125067657D01*
X144684836Y-125067657D02*
X144732455Y-125162895D01*
X144732455Y-125162895D02*
X144780074Y-125353371D01*
X144780074Y-125353371D02*
X144780074Y-125591466D01*
X144780074Y-125591466D02*
X144732455Y-125781942D01*
X144732455Y-125781942D02*
X144684836Y-125877180D01*
X144684836Y-125877180D02*
X144637217Y-125924800D01*
X144637217Y-125924800D02*
X144541979Y-125972419D01*
X144541979Y-125972419D02*
X144446741Y-125972419D01*
X144446741Y-125972419D02*
X144351503Y-125924800D01*
X144351503Y-125924800D02*
X144303884Y-125877180D01*
X144303884Y-125877180D02*
X144256265Y-125781942D01*
X144256265Y-125781942D02*
X144208646Y-125591466D01*
X144208646Y-125591466D02*
X144208646Y-125353371D01*
X144208646Y-125353371D02*
X144256265Y-125162895D01*
X144256265Y-125162895D02*
X144303884Y-125067657D01*
X144303884Y-125067657D02*
X144351503Y-125020038D01*
X144351503Y-125020038D02*
X144446741Y-124972419D01*
X143777693Y-128772419D02*
X143206265Y-128772419D01*
X143491979Y-128772419D02*
X143491979Y-127772419D01*
X143491979Y-127772419D02*
X143396741Y-127915276D01*
X143396741Y-127915276D02*
X143301503Y-128010514D01*
X143301503Y-128010514D02*
X143206265Y-128058133D01*
X144253884Y-128772419D02*
X144444360Y-128772419D01*
X144444360Y-128772419D02*
X144539598Y-128724800D01*
X144539598Y-128724800D02*
X144587217Y-128677180D01*
X144587217Y-128677180D02*
X144682455Y-128534323D01*
X144682455Y-128534323D02*
X144730074Y-128343847D01*
X144730074Y-128343847D02*
X144730074Y-127962895D01*
X144730074Y-127962895D02*
X144682455Y-127867657D01*
X144682455Y-127867657D02*
X144634836Y-127820038D01*
X144634836Y-127820038D02*
X144539598Y-127772419D01*
X144539598Y-127772419D02*
X144349122Y-127772419D01*
X144349122Y-127772419D02*
X144253884Y-127820038D01*
X144253884Y-127820038D02*
X144206265Y-127867657D01*
X144206265Y-127867657D02*
X144158646Y-127962895D01*
X144158646Y-127962895D02*
X144158646Y-128200990D01*
X144158646Y-128200990D02*
X144206265Y-128296228D01*
X144206265Y-128296228D02*
X144253884Y-128343847D01*
X144253884Y-128343847D02*
X144349122Y-128391466D01*
X144349122Y-128391466D02*
X144539598Y-128391466D01*
X144539598Y-128391466D02*
X144634836Y-128343847D01*
X144634836Y-128343847D02*
X144682455Y-128296228D01*
X144682455Y-128296228D02*
X144730074Y-128200990D01*
X131777693Y-127922419D02*
X131206265Y-127922419D01*
X131491979Y-127922419D02*
X131491979Y-126922419D01*
X131491979Y-126922419D02*
X131396741Y-127065276D01*
X131396741Y-127065276D02*
X131301503Y-127160514D01*
X131301503Y-127160514D02*
X131206265Y-127208133D01*
X132349122Y-127350990D02*
X132253884Y-127303371D01*
X132253884Y-127303371D02*
X132206265Y-127255752D01*
X132206265Y-127255752D02*
X132158646Y-127160514D01*
X132158646Y-127160514D02*
X132158646Y-127112895D01*
X132158646Y-127112895D02*
X132206265Y-127017657D01*
X132206265Y-127017657D02*
X132253884Y-126970038D01*
X132253884Y-126970038D02*
X132349122Y-126922419D01*
X132349122Y-126922419D02*
X132539598Y-126922419D01*
X132539598Y-126922419D02*
X132634836Y-126970038D01*
X132634836Y-126970038D02*
X132682455Y-127017657D01*
X132682455Y-127017657D02*
X132730074Y-127112895D01*
X132730074Y-127112895D02*
X132730074Y-127160514D01*
X132730074Y-127160514D02*
X132682455Y-127255752D01*
X132682455Y-127255752D02*
X132634836Y-127303371D01*
X132634836Y-127303371D02*
X132539598Y-127350990D01*
X132539598Y-127350990D02*
X132349122Y-127350990D01*
X132349122Y-127350990D02*
X132253884Y-127398609D01*
X132253884Y-127398609D02*
X132206265Y-127446228D01*
X132206265Y-127446228D02*
X132158646Y-127541466D01*
X132158646Y-127541466D02*
X132158646Y-127731942D01*
X132158646Y-127731942D02*
X132206265Y-127827180D01*
X132206265Y-127827180D02*
X132253884Y-127874800D01*
X132253884Y-127874800D02*
X132349122Y-127922419D01*
X132349122Y-127922419D02*
X132539598Y-127922419D01*
X132539598Y-127922419D02*
X132634836Y-127874800D01*
X132634836Y-127874800D02*
X132682455Y-127827180D01*
X132682455Y-127827180D02*
X132730074Y-127731942D01*
X132730074Y-127731942D02*
X132730074Y-127541466D01*
X132730074Y-127541466D02*
X132682455Y-127446228D01*
X132682455Y-127446228D02*
X132634836Y-127398609D01*
X132634836Y-127398609D02*
X132539598Y-127350990D01*
X131727693Y-125622419D02*
X131156265Y-125622419D01*
X131441979Y-125622419D02*
X131441979Y-124622419D01*
X131441979Y-124622419D02*
X131346741Y-124765276D01*
X131346741Y-124765276D02*
X131251503Y-124860514D01*
X131251503Y-124860514D02*
X131156265Y-124908133D01*
X132061027Y-124622419D02*
X132727693Y-124622419D01*
X132727693Y-124622419D02*
X132299122Y-125622419D01*
X131777693Y-122672419D02*
X131206265Y-122672419D01*
X131491979Y-122672419D02*
X131491979Y-121672419D01*
X131491979Y-121672419D02*
X131396741Y-121815276D01*
X131396741Y-121815276D02*
X131301503Y-121910514D01*
X131301503Y-121910514D02*
X131206265Y-121958133D01*
X132634836Y-121672419D02*
X132444360Y-121672419D01*
X132444360Y-121672419D02*
X132349122Y-121720038D01*
X132349122Y-121720038D02*
X132301503Y-121767657D01*
X132301503Y-121767657D02*
X132206265Y-121910514D01*
X132206265Y-121910514D02*
X132158646Y-122100990D01*
X132158646Y-122100990D02*
X132158646Y-122481942D01*
X132158646Y-122481942D02*
X132206265Y-122577180D01*
X132206265Y-122577180D02*
X132253884Y-122624800D01*
X132253884Y-122624800D02*
X132349122Y-122672419D01*
X132349122Y-122672419D02*
X132539598Y-122672419D01*
X132539598Y-122672419D02*
X132634836Y-122624800D01*
X132634836Y-122624800D02*
X132682455Y-122577180D01*
X132682455Y-122577180D02*
X132730074Y-122481942D01*
X132730074Y-122481942D02*
X132730074Y-122243847D01*
X132730074Y-122243847D02*
X132682455Y-122148609D01*
X132682455Y-122148609D02*
X132634836Y-122100990D01*
X132634836Y-122100990D02*
X132539598Y-122053371D01*
X132539598Y-122053371D02*
X132349122Y-122053371D01*
X132349122Y-122053371D02*
X132253884Y-122100990D01*
X132253884Y-122100990D02*
X132206265Y-122148609D01*
X132206265Y-122148609D02*
X132158646Y-122243847D01*
X131777693Y-120322419D02*
X131206265Y-120322419D01*
X131491979Y-120322419D02*
X131491979Y-119322419D01*
X131491979Y-119322419D02*
X131396741Y-119465276D01*
X131396741Y-119465276D02*
X131301503Y-119560514D01*
X131301503Y-119560514D02*
X131206265Y-119608133D01*
X132682455Y-119322419D02*
X132206265Y-119322419D01*
X132206265Y-119322419D02*
X132158646Y-119798609D01*
X132158646Y-119798609D02*
X132206265Y-119750990D01*
X132206265Y-119750990D02*
X132301503Y-119703371D01*
X132301503Y-119703371D02*
X132539598Y-119703371D01*
X132539598Y-119703371D02*
X132634836Y-119750990D01*
X132634836Y-119750990D02*
X132682455Y-119798609D01*
X132682455Y-119798609D02*
X132730074Y-119893847D01*
X132730074Y-119893847D02*
X132730074Y-120131942D01*
X132730074Y-120131942D02*
X132682455Y-120227180D01*
X132682455Y-120227180D02*
X132634836Y-120274800D01*
X132634836Y-120274800D02*
X132539598Y-120322419D01*
X132539598Y-120322419D02*
X132301503Y-120322419D01*
X132301503Y-120322419D02*
X132206265Y-120274800D01*
X132206265Y-120274800D02*
X132158646Y-120227180D01*
X131727693Y-117922419D02*
X131156265Y-117922419D01*
X131441979Y-117922419D02*
X131441979Y-116922419D01*
X131441979Y-116922419D02*
X131346741Y-117065276D01*
X131346741Y-117065276D02*
X131251503Y-117160514D01*
X131251503Y-117160514D02*
X131156265Y-117208133D01*
X132584836Y-117255752D02*
X132584836Y-117922419D01*
X132346741Y-116874800D02*
X132108646Y-117589085D01*
X132108646Y-117589085D02*
X132727693Y-117589085D01*
X131827693Y-115322419D02*
X131256265Y-115322419D01*
X131541979Y-115322419D02*
X131541979Y-114322419D01*
X131541979Y-114322419D02*
X131446741Y-114465276D01*
X131446741Y-114465276D02*
X131351503Y-114560514D01*
X131351503Y-114560514D02*
X131256265Y-114608133D01*
X132161027Y-114322419D02*
X132780074Y-114322419D01*
X132780074Y-114322419D02*
X132446741Y-114703371D01*
X132446741Y-114703371D02*
X132589598Y-114703371D01*
X132589598Y-114703371D02*
X132684836Y-114750990D01*
X132684836Y-114750990D02*
X132732455Y-114798609D01*
X132732455Y-114798609D02*
X132780074Y-114893847D01*
X132780074Y-114893847D02*
X132780074Y-115131942D01*
X132780074Y-115131942D02*
X132732455Y-115227180D01*
X132732455Y-115227180D02*
X132684836Y-115274800D01*
X132684836Y-115274800D02*
X132589598Y-115322419D01*
X132589598Y-115322419D02*
X132303884Y-115322419D01*
X132303884Y-115322419D02*
X132208646Y-115274800D01*
X132208646Y-115274800D02*
X132161027Y-115227180D01*
X131927693Y-112922419D02*
X131356265Y-112922419D01*
X131641979Y-112922419D02*
X131641979Y-111922419D01*
X131641979Y-111922419D02*
X131546741Y-112065276D01*
X131546741Y-112065276D02*
X131451503Y-112160514D01*
X131451503Y-112160514D02*
X131356265Y-112208133D01*
X132308646Y-112017657D02*
X132356265Y-111970038D01*
X132356265Y-111970038D02*
X132451503Y-111922419D01*
X132451503Y-111922419D02*
X132689598Y-111922419D01*
X132689598Y-111922419D02*
X132784836Y-111970038D01*
X132784836Y-111970038D02*
X132832455Y-112017657D01*
X132832455Y-112017657D02*
X132880074Y-112112895D01*
X132880074Y-112112895D02*
X132880074Y-112208133D01*
X132880074Y-112208133D02*
X132832455Y-112350990D01*
X132832455Y-112350990D02*
X132261027Y-112922419D01*
X132261027Y-112922419D02*
X132880074Y-112922419D01*
X131827693Y-110472419D02*
X131256265Y-110472419D01*
X131541979Y-110472419D02*
X131541979Y-109472419D01*
X131541979Y-109472419D02*
X131446741Y-109615276D01*
X131446741Y-109615276D02*
X131351503Y-109710514D01*
X131351503Y-109710514D02*
X131256265Y-109758133D01*
X132780074Y-110472419D02*
X132208646Y-110472419D01*
X132494360Y-110472419D02*
X132494360Y-109472419D01*
X132494360Y-109472419D02*
X132399122Y-109615276D01*
X132399122Y-109615276D02*
X132303884Y-109710514D01*
X132303884Y-109710514D02*
X132208646Y-109758133D01*
X131677693Y-108122419D02*
X131106265Y-108122419D01*
X131391979Y-108122419D02*
X131391979Y-107122419D01*
X131391979Y-107122419D02*
X131296741Y-107265276D01*
X131296741Y-107265276D02*
X131201503Y-107360514D01*
X131201503Y-107360514D02*
X131106265Y-107408133D01*
X132296741Y-107122419D02*
X132391979Y-107122419D01*
X132391979Y-107122419D02*
X132487217Y-107170038D01*
X132487217Y-107170038D02*
X132534836Y-107217657D01*
X132534836Y-107217657D02*
X132582455Y-107312895D01*
X132582455Y-107312895D02*
X132630074Y-107503371D01*
X132630074Y-107503371D02*
X132630074Y-107741466D01*
X132630074Y-107741466D02*
X132582455Y-107931942D01*
X132582455Y-107931942D02*
X132534836Y-108027180D01*
X132534836Y-108027180D02*
X132487217Y-108074800D01*
X132487217Y-108074800D02*
X132391979Y-108122419D01*
X132391979Y-108122419D02*
X132296741Y-108122419D01*
X132296741Y-108122419D02*
X132201503Y-108074800D01*
X132201503Y-108074800D02*
X132153884Y-108027180D01*
X132153884Y-108027180D02*
X132106265Y-107931942D01*
X132106265Y-107931942D02*
X132058646Y-107741466D01*
X132058646Y-107741466D02*
X132058646Y-107503371D01*
X132058646Y-107503371D02*
X132106265Y-107312895D01*
X132106265Y-107312895D02*
X132153884Y-107217657D01*
X132153884Y-107217657D02*
X132201503Y-107170038D01*
X132201503Y-107170038D02*
X132296741Y-107122419D01*
X131151503Y-105622419D02*
X131341979Y-105622419D01*
X131341979Y-105622419D02*
X131437217Y-105574800D01*
X131437217Y-105574800D02*
X131484836Y-105527180D01*
X131484836Y-105527180D02*
X131580074Y-105384323D01*
X131580074Y-105384323D02*
X131627693Y-105193847D01*
X131627693Y-105193847D02*
X131627693Y-104812895D01*
X131627693Y-104812895D02*
X131580074Y-104717657D01*
X131580074Y-104717657D02*
X131532455Y-104670038D01*
X131532455Y-104670038D02*
X131437217Y-104622419D01*
X131437217Y-104622419D02*
X131246741Y-104622419D01*
X131246741Y-104622419D02*
X131151503Y-104670038D01*
X131151503Y-104670038D02*
X131103884Y-104717657D01*
X131103884Y-104717657D02*
X131056265Y-104812895D01*
X131056265Y-104812895D02*
X131056265Y-105050990D01*
X131056265Y-105050990D02*
X131103884Y-105146228D01*
X131103884Y-105146228D02*
X131151503Y-105193847D01*
X131151503Y-105193847D02*
X131246741Y-105241466D01*
X131246741Y-105241466D02*
X131437217Y-105241466D01*
X131437217Y-105241466D02*
X131532455Y-105193847D01*
X131532455Y-105193847D02*
X131580074Y-105146228D01*
X131580074Y-105146228D02*
X131627693Y-105050990D01*
X131296741Y-102550990D02*
X131201503Y-102503371D01*
X131201503Y-102503371D02*
X131153884Y-102455752D01*
X131153884Y-102455752D02*
X131106265Y-102360514D01*
X131106265Y-102360514D02*
X131106265Y-102312895D01*
X131106265Y-102312895D02*
X131153884Y-102217657D01*
X131153884Y-102217657D02*
X131201503Y-102170038D01*
X131201503Y-102170038D02*
X131296741Y-102122419D01*
X131296741Y-102122419D02*
X131487217Y-102122419D01*
X131487217Y-102122419D02*
X131582455Y-102170038D01*
X131582455Y-102170038D02*
X131630074Y-102217657D01*
X131630074Y-102217657D02*
X131677693Y-102312895D01*
X131677693Y-102312895D02*
X131677693Y-102360514D01*
X131677693Y-102360514D02*
X131630074Y-102455752D01*
X131630074Y-102455752D02*
X131582455Y-102503371D01*
X131582455Y-102503371D02*
X131487217Y-102550990D01*
X131487217Y-102550990D02*
X131296741Y-102550990D01*
X131296741Y-102550990D02*
X131201503Y-102598609D01*
X131201503Y-102598609D02*
X131153884Y-102646228D01*
X131153884Y-102646228D02*
X131106265Y-102741466D01*
X131106265Y-102741466D02*
X131106265Y-102931942D01*
X131106265Y-102931942D02*
X131153884Y-103027180D01*
X131153884Y-103027180D02*
X131201503Y-103074800D01*
X131201503Y-103074800D02*
X131296741Y-103122419D01*
X131296741Y-103122419D02*
X131487217Y-103122419D01*
X131487217Y-103122419D02*
X131582455Y-103074800D01*
X131582455Y-103074800D02*
X131630074Y-103027180D01*
X131630074Y-103027180D02*
X131677693Y-102931942D01*
X131677693Y-102931942D02*
X131677693Y-102741466D01*
X131677693Y-102741466D02*
X131630074Y-102646228D01*
X131630074Y-102646228D02*
X131582455Y-102598609D01*
X131582455Y-102598609D02*
X131487217Y-102550990D01*
X131058646Y-99622419D02*
X131725312Y-99622419D01*
X131725312Y-99622419D02*
X131296741Y-100622419D01*
X131532455Y-97022419D02*
X131341979Y-97022419D01*
X131341979Y-97022419D02*
X131246741Y-97070038D01*
X131246741Y-97070038D02*
X131199122Y-97117657D01*
X131199122Y-97117657D02*
X131103884Y-97260514D01*
X131103884Y-97260514D02*
X131056265Y-97450990D01*
X131056265Y-97450990D02*
X131056265Y-97831942D01*
X131056265Y-97831942D02*
X131103884Y-97927180D01*
X131103884Y-97927180D02*
X131151503Y-97974800D01*
X131151503Y-97974800D02*
X131246741Y-98022419D01*
X131246741Y-98022419D02*
X131437217Y-98022419D01*
X131437217Y-98022419D02*
X131532455Y-97974800D01*
X131532455Y-97974800D02*
X131580074Y-97927180D01*
X131580074Y-97927180D02*
X131627693Y-97831942D01*
X131627693Y-97831942D02*
X131627693Y-97593847D01*
X131627693Y-97593847D02*
X131580074Y-97498609D01*
X131580074Y-97498609D02*
X131532455Y-97450990D01*
X131532455Y-97450990D02*
X131437217Y-97403371D01*
X131437217Y-97403371D02*
X131246741Y-97403371D01*
X131246741Y-97403371D02*
X131151503Y-97450990D01*
X131151503Y-97450990D02*
X131103884Y-97498609D01*
X131103884Y-97498609D02*
X131056265Y-97593847D01*
X131630074Y-94622419D02*
X131153884Y-94622419D01*
X131153884Y-94622419D02*
X131106265Y-95098609D01*
X131106265Y-95098609D02*
X131153884Y-95050990D01*
X131153884Y-95050990D02*
X131249122Y-95003371D01*
X131249122Y-95003371D02*
X131487217Y-95003371D01*
X131487217Y-95003371D02*
X131582455Y-95050990D01*
X131582455Y-95050990D02*
X131630074Y-95098609D01*
X131630074Y-95098609D02*
X131677693Y-95193847D01*
X131677693Y-95193847D02*
X131677693Y-95431942D01*
X131677693Y-95431942D02*
X131630074Y-95527180D01*
X131630074Y-95527180D02*
X131582455Y-95574800D01*
X131582455Y-95574800D02*
X131487217Y-95622419D01*
X131487217Y-95622419D02*
X131249122Y-95622419D01*
X131249122Y-95622419D02*
X131153884Y-95574800D01*
X131153884Y-95574800D02*
X131106265Y-95527180D01*
X131582455Y-92605752D02*
X131582455Y-93272419D01*
X131344360Y-92224800D02*
X131106265Y-92939085D01*
X131106265Y-92939085D02*
X131725312Y-92939085D01*
X131058646Y-89572419D02*
X131677693Y-89572419D01*
X131677693Y-89572419D02*
X131344360Y-89953371D01*
X131344360Y-89953371D02*
X131487217Y-89953371D01*
X131487217Y-89953371D02*
X131582455Y-90000990D01*
X131582455Y-90000990D02*
X131630074Y-90048609D01*
X131630074Y-90048609D02*
X131677693Y-90143847D01*
X131677693Y-90143847D02*
X131677693Y-90381942D01*
X131677693Y-90381942D02*
X131630074Y-90477180D01*
X131630074Y-90477180D02*
X131582455Y-90524800D01*
X131582455Y-90524800D02*
X131487217Y-90572419D01*
X131487217Y-90572419D02*
X131201503Y-90572419D01*
X131201503Y-90572419D02*
X131106265Y-90524800D01*
X131106265Y-90524800D02*
X131058646Y-90477180D01*
X131056265Y-86967657D02*
X131103884Y-86920038D01*
X131103884Y-86920038D02*
X131199122Y-86872419D01*
X131199122Y-86872419D02*
X131437217Y-86872419D01*
X131437217Y-86872419D02*
X131532455Y-86920038D01*
X131532455Y-86920038D02*
X131580074Y-86967657D01*
X131580074Y-86967657D02*
X131627693Y-87062895D01*
X131627693Y-87062895D02*
X131627693Y-87158133D01*
X131627693Y-87158133D02*
X131580074Y-87300990D01*
X131580074Y-87300990D02*
X131008646Y-87872419D01*
X131008646Y-87872419D02*
X131627693Y-87872419D01*
X131677693Y-85222419D02*
X131106265Y-85222419D01*
X131391979Y-85222419D02*
X131391979Y-84222419D01*
X131391979Y-84222419D02*
X131296741Y-84365276D01*
X131296741Y-84365276D02*
X131201503Y-84460514D01*
X131201503Y-84460514D02*
X131106265Y-84508133D01*
D11*
X139896753Y-111075750D02*
X139324333Y-111648170D01*
X139324333Y-111648170D02*
X139290661Y-111749185D01*
X139290661Y-111749185D02*
X139290661Y-111816529D01*
X139290661Y-111816529D02*
X139324333Y-111917544D01*
X139324333Y-111917544D02*
X139459020Y-112052231D01*
X139459020Y-112052231D02*
X139560035Y-112085903D01*
X139560035Y-112085903D02*
X139627379Y-112085903D01*
X139627379Y-112085903D02*
X139728394Y-112052231D01*
X139728394Y-112052231D02*
X140300814Y-111479811D01*
X140300814Y-112894025D02*
X139896753Y-112489964D01*
X140098783Y-112691994D02*
X140805890Y-111984888D01*
X140805890Y-111984888D02*
X140637531Y-112018559D01*
X140637531Y-112018559D02*
X140502844Y-112018559D01*
X140502844Y-112018559D02*
X140401829Y-111984888D01*
X137289559Y-103265774D02*
X137121200Y-103434132D01*
X137020185Y-103198430D02*
X137121200Y-103434132D01*
X137121200Y-103434132D02*
X137356902Y-103535148D01*
X136885498Y-103467804D02*
X137121200Y-103434132D01*
X137121200Y-103434132D02*
X137087528Y-103669835D01*
X132216666Y-83304819D02*
X132216666Y-84019104D01*
X132216666Y-84019104D02*
X132169047Y-84161961D01*
X132169047Y-84161961D02*
X132073809Y-84257200D01*
X132073809Y-84257200D02*
X131930952Y-84304819D01*
X131930952Y-84304819D02*
X131835714Y-84304819D01*
X133216666Y-84304819D02*
X132645238Y-84304819D01*
X132930952Y-84304819D02*
X132930952Y-83304819D01*
X132930952Y-83304819D02*
X132835714Y-83447676D01*
X132835714Y-83447676D02*
X132740476Y-83542914D01*
X132740476Y-83542914D02*
X132645238Y-83590533D01*
X143616666Y-83354819D02*
X143616666Y-84069104D01*
X143616666Y-84069104D02*
X143569047Y-84211961D01*
X143569047Y-84211961D02*
X143473809Y-84307200D01*
X143473809Y-84307200D02*
X143330952Y-84354819D01*
X143330952Y-84354819D02*
X143235714Y-84354819D01*
X144045238Y-83450057D02*
X144092857Y-83402438D01*
X144092857Y-83402438D02*
X144188095Y-83354819D01*
X144188095Y-83354819D02*
X144426190Y-83354819D01*
X144426190Y-83354819D02*
X144521428Y-83402438D01*
X144521428Y-83402438D02*
X144569047Y-83450057D01*
X144569047Y-83450057D02*
X144616666Y-83545295D01*
X144616666Y-83545295D02*
X144616666Y-83640533D01*
X144616666Y-83640533D02*
X144569047Y-83783390D01*
X144569047Y-83783390D02*
X143997619Y-84354819D01*
X143997619Y-84354819D02*
X144616666Y-84354819D01*
D12*
%TO.C,U1*%
X138240230Y-103680102D02*
X137911642Y-104008689D01*
X134078689Y-107841642D02*
X133750102Y-108170230D01*
X133750102Y-108170230D02*
X134082102Y-108502230D01*
X138572230Y-104012102D02*
X138240230Y-103680102D01*
X137207770Y-111627898D02*
X137539770Y-111959898D01*
X142029898Y-107469770D02*
X141697898Y-107137770D01*
X141701311Y-107798358D02*
X142029898Y-107469770D01*
X137539770Y-111959898D02*
X137868358Y-111631311D01*
D13*
G36*
X134233150Y-107076525D02*
G01*
X133963742Y-107345932D01*
X133784137Y-107166327D01*
X134053545Y-106896919D01*
X134233150Y-107076525D01*
G37*
G36*
X141638808Y-106108812D02*
G01*
X141459203Y-106288417D01*
X141189795Y-106019010D01*
X141369400Y-105839405D01*
X141638808Y-106108812D01*
G37*
G36*
X139166723Y-111302813D02*
G01*
X138897315Y-111572220D01*
X138717710Y-111392615D01*
X138987118Y-111123208D01*
X139166723Y-111302813D01*
G37*
D14*
%TO.C,J1*%
X127670000Y-83630000D02*
X129000000Y-83630000D01*
X127670000Y-84960000D02*
X127670000Y-83630000D01*
X127670000Y-86230000D02*
X127670000Y-129470000D01*
X127670000Y-86230000D02*
X130330000Y-86230000D01*
X127670000Y-129470000D02*
X130330000Y-129470000D01*
X130330000Y-86230000D02*
X130330000Y-129470000D01*
%TO.C,J2*%
X145450000Y-83630000D02*
X146780000Y-83630000D01*
X145450000Y-84960000D02*
X145450000Y-83630000D01*
X145450000Y-86230000D02*
X145450000Y-129470000D01*
X145450000Y-86230000D02*
X148110000Y-86230000D01*
X145450000Y-129470000D02*
X148110000Y-129470000D01*
X148110000Y-86230000D02*
X148110000Y-129470000D01*
%TD*%
M02*
