M48
; DRILL file {KiCad 9.0.0} date 2026-04-28T15:06:34-0500
; FORMAT={-:-/ absolute / metric / decimal}
; #@! TF.CreationDate,2026-04-28T15:06:34-05:00
; #@! TF.GenerationSoftware,Kicad,Pcbnew,9.0.0
; #@! TF.FileFunction,Plated,1,2,PTH
FMAT,2
METRIC
; #@! TA.AperFunction,Plated,PTH,ViaDrill
T1C0.300
; #@! TA.AperFunction,Plated,PTH,ComponentDrill
T2C1.000
%
G90
G05
T1
X135.9Y-108.15
X137.55Y-109.85
X137.89Y-107.82
X138.202Y-105.82
X139.95Y-107.4
T2
X129.0Y-84.96
X129.0Y-87.5
X129.0Y-90.04
X129.0Y-92.58
X129.0Y-95.12
X129.0Y-97.66
X129.0Y-100.2
X129.0Y-102.74
X129.0Y-105.28
X129.0Y-107.82
X129.0Y-110.36
X129.0Y-112.9
X129.0Y-115.44
X129.0Y-117.98
X129.0Y-120.52
X129.0Y-123.06
X129.0Y-125.6
X129.0Y-128.14
X146.78Y-84.96
X146.78Y-87.5
X146.78Y-90.04
X146.78Y-92.58
X146.78Y-95.12
X146.78Y-97.66
X146.78Y-100.2
X146.78Y-102.74
X146.78Y-105.28
X146.78Y-107.82
X146.78Y-110.36
X146.78Y-112.9
X146.78Y-115.44
X146.78Y-117.98
X146.78Y-120.52
X146.78Y-123.06
X146.78Y-125.6
X146.78Y-128.14
M30
