%TF.GenerationSoftware,KiCad,Pcbnew,9.0.0*%
%TF.CreationDate,2026-04-28T15:06:29-05:00*%
%TF.ProjectId,EE327 - PMIC Breakout,45453332-3720-42d2-9050-4d4943204272,rev?*%
%TF.SameCoordinates,Original*%
%TF.FileFunction,Copper,L2,Bot*%
%TF.FilePolarity,Positive*%
%FSLAX46Y46*%
G04 Gerber Fmt 4.6, Leading zero omitted, Abs format (unit mm)*
G04 Created by KiCad (PCBNEW 9.0.0) date 2026-04-28 15:06:29*
%MOMM*%
%LPD*%
G01*
G04 APERTURE LIST*
%TA.AperFunction,ComponentPad*%
%ADD10R,1.700000X1.700000*%
%TD*%
%TA.AperFunction,ComponentPad*%
%ADD11O,1.700000X1.700000*%
%TD*%
%TA.AperFunction,ViaPad*%
%ADD12C,0.600000*%
%TD*%
%TA.AperFunction,Conductor*%
%ADD13C,0.400000*%
%TD*%
G04 APERTURE END LIST*
D10*
%TO.P,J1,1,Pin_1*%
%TO.N,Net-(J1-Pin_1)*%
X129000000Y-84960000D03*
D11*
%TO.P,J1,2,Pin_2*%
%TO.N,Net-(J1-Pin_2)*%
X129000000Y-87500000D03*
%TO.P,J1,3,Pin_3*%
%TO.N,Net-(J1-Pin_3)*%
X129000000Y-90040000D03*
%TO.P,J1,4,Pin_4*%
%TO.N,Net-(J1-Pin_4)*%
X129000000Y-92580000D03*
%TO.P,J1,5,Pin_5*%
%TO.N,Net-(J1-Pin_5)*%
X129000000Y-95120000D03*
%TO.P,J1,6,Pin_6*%
%TO.N,Net-(J1-Pin_6)*%
X129000000Y-97660000D03*
%TO.P,J1,7,Pin_7*%
%TO.N,Net-(J1-Pin_7)*%
X129000000Y-100200000D03*
%TO.P,J1,8,Pin_8*%
%TO.N,Net-(J1-Pin_8)*%
X129000000Y-102740000D03*
%TO.P,J1,9,Pin_9*%
%TO.N,Net-(J1-Pin_9)*%
X129000000Y-105280000D03*
%TO.P,J1,10,Pin_10*%
%TO.N,Net-(J1-Pin_10)*%
X129000000Y-107820000D03*
%TO.P,J1,11,Pin_11*%
%TO.N,Net-(J1-Pin_11)*%
X129000000Y-110360000D03*
%TO.P,J1,12,Pin_12*%
%TO.N,Net-(J1-Pin_12)*%
X129000000Y-112900000D03*
%TO.P,J1,13,Pin_13*%
%TO.N,Net-(J1-Pin_13)*%
X129000000Y-115440000D03*
%TO.P,J1,14,Pin_14*%
%TO.N,Net-(J1-Pin_14)*%
X129000000Y-117980000D03*
%TO.P,J1,15,Pin_15*%
%TO.N,Net-(J1-Pin_15)*%
X129000000Y-120520000D03*
%TO.P,J1,16,Pin_16*%
%TO.N,Net-(J1-Pin_16)*%
X129000000Y-123060000D03*
%TO.P,J1,17,Pin_17*%
%TO.N,Net-(J1-Pin_17)*%
X129000000Y-125600000D03*
%TO.P,J1,18,Pin_18*%
%TO.N,Net-(J1-Pin_18)*%
X129000000Y-128140000D03*
%TD*%
D10*
%TO.P,J2,1,Pin_1*%
%TO.N,Net-(J2-Pin_1)*%
X146780000Y-84960000D03*
D11*
%TO.P,J2,2,Pin_2*%
%TO.N,Net-(J2-Pin_2)*%
X146780000Y-87500000D03*
%TO.P,J2,3,Pin_3*%
%TO.N,Net-(J2-Pin_3)*%
X146780000Y-90040000D03*
%TO.P,J2,4,Pin_4*%
%TO.N,Net-(J2-Pin_4)*%
X146780000Y-92580000D03*
%TO.P,J2,5,Pin_5*%
%TO.N,Net-(J2-Pin_5)*%
X146780000Y-95120000D03*
%TO.P,J2,6,Pin_6*%
%TO.N,Net-(J2-Pin_6)*%
X146780000Y-97660000D03*
%TO.P,J2,7,Pin_7*%
%TO.N,Net-(J2-Pin_7)*%
X146780000Y-100200000D03*
%TO.P,J2,8,Pin_8*%
%TO.N,Net-(J2-Pin_8)*%
X146780000Y-102740000D03*
%TO.P,J2,9,Pin_9*%
%TO.N,Net-(J2-Pin_9)*%
X146780000Y-105280000D03*
%TO.P,J2,10,Pin_10*%
%TO.N,Net-(J2-Pin_10)*%
X146780000Y-107820000D03*
%TO.P,J2,11,Pin_11*%
%TO.N,Net-(J2-Pin_11)*%
X146780000Y-110360000D03*
%TO.P,J2,12,Pin_12*%
%TO.N,Net-(J2-Pin_12)*%
X146780000Y-112900000D03*
%TO.P,J2,13,Pin_13*%
%TO.N,Net-(J2-Pin_13)*%
X146780000Y-115440000D03*
%TO.P,J2,14,Pin_14*%
%TO.N,Net-(J2-Pin_14)*%
X146780000Y-117980000D03*
%TO.P,J2,15,Pin_15*%
%TO.N,GND*%
X146780000Y-120520000D03*
%TO.P,J2,16,Pin_16*%
%TO.N,Net-(J2-Pin_16)*%
X146780000Y-123060000D03*
%TO.P,J2,17,Pin_17*%
%TO.N,Net-(J2-Pin_17)*%
X146780000Y-125600000D03*
%TO.P,J2,18,Pin_18*%
%TO.N,Net-(J2-Pin_18)*%
X146780000Y-128140000D03*
%TD*%
D12*
%TO.N,GND*%
X137890000Y-107820000D03*
X139950000Y-107400000D03*
X135900000Y-108150000D03*
X137550000Y-109850000D03*
X138202335Y-105819912D03*
%TD*%
D13*
%TO.N,GND*%
X145950000Y-121350000D02*
X145250000Y-121350000D01*
X146780000Y-120520000D02*
X145950000Y-121350000D01*
X145710000Y-119450000D02*
X145400000Y-119450000D01*
X146780000Y-120520000D02*
X145710000Y-119450000D01*
%TD*%
%TA.AperFunction,Conductor*%
%TO.N,GND*%
G36*
X145460607Y-83680185D02*
G01*
X145506362Y-83732989D01*
X145516306Y-83802147D01*
X145492835Y-83858810D01*
X145486206Y-83867665D01*
X145486202Y-83867671D01*
X145435908Y-84002517D01*
X145429501Y-84062116D01*
X145429501Y-84062123D01*
X145429500Y-84062135D01*
X145429500Y-85857870D01*
X145429501Y-85857876D01*
X145435908Y-85917483D01*
X145486202Y-86052328D01*
X145486206Y-86052335D01*
X145572452Y-86167544D01*
X145572455Y-86167547D01*
X145687664Y-86253793D01*
X145687671Y-86253797D01*
X145819082Y-86302810D01*
X145875016Y-86344681D01*
X145899433Y-86410145D01*
X145884582Y-86478418D01*
X145863431Y-86506673D01*
X145749889Y-86620215D01*
X145624951Y-86792179D01*
X145528444Y-86981585D01*
X145462753Y-87183760D01*
X145429500Y-87393713D01*
X145429500Y-87606286D01*
X145462753Y-87816239D01*
X145528444Y-88018414D01*
X145624951Y-88207820D01*
X145749890Y-88379786D01*
X145900213Y-88530109D01*
X146072182Y-88655050D01*
X146080946Y-88659516D01*
X146131742Y-88707491D01*
X146148536Y-88775312D01*
X146125998Y-88841447D01*
X146080946Y-88880484D01*
X146072182Y-88884949D01*
X145900213Y-89009890D01*
X145749890Y-89160213D01*
X145624951Y-89332179D01*
X145528444Y-89521585D01*
X145462753Y-89723760D01*
X145429500Y-89933713D01*
X145429500Y-90146286D01*
X145462753Y-90356239D01*
X145528444Y-90558414D01*
X145624951Y-90747820D01*
X145749890Y-90919786D01*
X145900213Y-91070109D01*
X146072182Y-91195050D01*
X146080946Y-91199516D01*
X146131742Y-91247491D01*
X146148536Y-91315312D01*
X146125998Y-91381447D01*
X146080946Y-91420484D01*
X146072182Y-91424949D01*
X145900213Y-91549890D01*
X145749890Y-91700213D01*
X145624951Y-91872179D01*
X145528444Y-92061585D01*
X145462753Y-92263760D01*
X145429500Y-92473713D01*
X145429500Y-92686286D01*
X145462753Y-92896239D01*
X145528444Y-93098414D01*
X145624951Y-93287820D01*
X145749890Y-93459786D01*
X145900213Y-93610109D01*
X146072182Y-93735050D01*
X146080946Y-93739516D01*
X146131742Y-93787491D01*
X146148536Y-93855312D01*
X146125998Y-93921447D01*
X146080946Y-93960484D01*
X146072182Y-93964949D01*
X145900213Y-94089890D01*
X145749890Y-94240213D01*
X145624951Y-94412179D01*
X145528444Y-94601585D01*
X145462753Y-94803760D01*
X145429500Y-95013713D01*
X145429500Y-95226286D01*
X145462753Y-95436239D01*
X145528444Y-95638414D01*
X145624951Y-95827820D01*
X145749890Y-95999786D01*
X145900213Y-96150109D01*
X146072182Y-96275050D01*
X146080946Y-96279516D01*
X146131742Y-96327491D01*
X146148536Y-96395312D01*
X146125998Y-96461447D01*
X146080946Y-96500484D01*
X146072182Y-96504949D01*
X145900213Y-96629890D01*
X145749890Y-96780213D01*
X145624951Y-96952179D01*
X145528444Y-97141585D01*
X145462753Y-97343760D01*
X145429500Y-97553713D01*
X145429500Y-97766286D01*
X145462753Y-97976239D01*
X145528444Y-98178414D01*
X145624951Y-98367820D01*
X145749890Y-98539786D01*
X145900213Y-98690109D01*
X146072182Y-98815050D01*
X146080946Y-98819516D01*
X146131742Y-98867491D01*
X146148536Y-98935312D01*
X146125998Y-99001447D01*
X146080946Y-99040484D01*
X146072182Y-99044949D01*
X145900213Y-99169890D01*
X145749890Y-99320213D01*
X145624951Y-99492179D01*
X145528444Y-99681585D01*
X145462753Y-99883760D01*
X145429500Y-100093713D01*
X145429500Y-100306286D01*
X145462753Y-100516239D01*
X145528444Y-100718414D01*
X145624951Y-100907820D01*
X145749890Y-101079786D01*
X145900213Y-101230109D01*
X146072182Y-101355050D01*
X146080946Y-101359516D01*
X146131742Y-101407491D01*
X146148536Y-101475312D01*
X146125998Y-101541447D01*
X146080946Y-101580484D01*
X146072182Y-101584949D01*
X145900213Y-101709890D01*
X145749890Y-101860213D01*
X145624951Y-102032179D01*
X145528444Y-102221585D01*
X145462753Y-102423760D01*
X145429500Y-102633713D01*
X145429500Y-102846286D01*
X145462753Y-103056239D01*
X145528444Y-103258414D01*
X145624951Y-103447820D01*
X145749890Y-103619786D01*
X145900213Y-103770109D01*
X146072182Y-103895050D01*
X146080946Y-103899516D01*
X146131742Y-103947491D01*
X146148536Y-104015312D01*
X146125998Y-104081447D01*
X146080946Y-104120484D01*
X146072182Y-104124949D01*
X145900213Y-104249890D01*
X145749890Y-104400213D01*
X145624951Y-104572179D01*
X145528444Y-104761585D01*
X145462753Y-104963760D01*
X145429500Y-105173713D01*
X145429500Y-105386286D01*
X145462753Y-105596239D01*
X145528444Y-105798414D01*
X145624951Y-105987820D01*
X145749890Y-106159786D01*
X145900213Y-106310109D01*
X146072182Y-106435050D01*
X146080946Y-106439516D01*
X146131742Y-106487491D01*
X146148536Y-106555312D01*
X146125998Y-106621447D01*
X146080946Y-106660484D01*
X146072182Y-106664949D01*
X145900213Y-106789890D01*
X145749890Y-106940213D01*
X145624951Y-107112179D01*
X145528444Y-107301585D01*
X145462753Y-107503760D01*
X145429500Y-107713713D01*
X145429500Y-107926286D01*
X145462753Y-108136239D01*
X145528444Y-108338414D01*
X145624951Y-108527820D01*
X145749890Y-108699786D01*
X145900213Y-108850109D01*
X146072182Y-108975050D01*
X146080946Y-108979516D01*
X146131742Y-109027491D01*
X146148536Y-109095312D01*
X146125998Y-109161447D01*
X146080946Y-109200484D01*
X146072182Y-109204949D01*
X145900213Y-109329890D01*
X145749890Y-109480213D01*
X145624951Y-109652179D01*
X145528444Y-109841585D01*
X145462753Y-110043760D01*
X145429500Y-110253713D01*
X145429500Y-110466286D01*
X145462753Y-110676239D01*
X145528444Y-110878414D01*
X145624951Y-111067820D01*
X145749890Y-111239786D01*
X145900213Y-111390109D01*
X146072182Y-111515050D01*
X146080946Y-111519516D01*
X146131742Y-111567491D01*
X146148536Y-111635312D01*
X146125998Y-111701447D01*
X146080946Y-111740484D01*
X146072182Y-111744949D01*
X145900213Y-111869890D01*
X145749890Y-112020213D01*
X145624951Y-112192179D01*
X145528444Y-112381585D01*
X145462753Y-112583760D01*
X145429500Y-112793713D01*
X145429500Y-113006286D01*
X145462753Y-113216239D01*
X145528444Y-113418414D01*
X145624951Y-113607820D01*
X145749890Y-113779786D01*
X145900213Y-113930109D01*
X146072182Y-114055050D01*
X146080946Y-114059516D01*
X146131742Y-114107491D01*
X146148536Y-114175312D01*
X146125998Y-114241447D01*
X146080946Y-114280484D01*
X146072182Y-114284949D01*
X145900213Y-114409890D01*
X145749890Y-114560213D01*
X145624951Y-114732179D01*
X145528444Y-114921585D01*
X145462753Y-115123760D01*
X145429500Y-115333713D01*
X145429500Y-115546286D01*
X145462753Y-115756239D01*
X145528444Y-115958414D01*
X145624951Y-116147820D01*
X145749890Y-116319786D01*
X145900213Y-116470109D01*
X146072182Y-116595050D01*
X146080946Y-116599516D01*
X146131742Y-116647491D01*
X146148536Y-116715312D01*
X146125998Y-116781447D01*
X146080946Y-116820484D01*
X146072182Y-116824949D01*
X145900213Y-116949890D01*
X145749890Y-117100213D01*
X145624951Y-117272179D01*
X145528444Y-117461585D01*
X145462753Y-117663760D01*
X145429500Y-117873713D01*
X145429500Y-118086286D01*
X145462753Y-118296239D01*
X145528444Y-118498414D01*
X145624951Y-118687820D01*
X145749890Y-118859786D01*
X145900213Y-119010109D01*
X146072179Y-119135048D01*
X146072181Y-119135049D01*
X146072184Y-119135051D01*
X146081493Y-119139794D01*
X146132290Y-119187766D01*
X146149087Y-119255587D01*
X146126552Y-119321722D01*
X146081502Y-119360762D01*
X146072443Y-119365378D01*
X145900540Y-119490272D01*
X145900535Y-119490276D01*
X145750276Y-119640535D01*
X145750272Y-119640540D01*
X145625379Y-119812442D01*
X145528904Y-120001782D01*
X145463242Y-120203870D01*
X145463242Y-120203873D01*
X145452769Y-120270000D01*
X146346988Y-120270000D01*
X146314075Y-120327007D01*
X146280000Y-120454174D01*
X146280000Y-120585826D01*
X146314075Y-120712993D01*
X146346988Y-120770000D01*
X145452769Y-120770000D01*
X145463242Y-120836126D01*
X145463242Y-120836129D01*
X145528904Y-121038217D01*
X145625379Y-121227557D01*
X145750272Y-121399459D01*
X145750276Y-121399464D01*
X145900535Y-121549723D01*
X145900540Y-121549727D01*
X146072444Y-121674622D01*
X146081495Y-121679234D01*
X146132292Y-121727208D01*
X146149087Y-121795029D01*
X146126550Y-121861164D01*
X146081499Y-121900202D01*
X146072182Y-121904949D01*
X145900213Y-122029890D01*
X145749890Y-122180213D01*
X145624951Y-122352179D01*
X145528444Y-122541585D01*
X145462753Y-122743760D01*
X145429500Y-122953713D01*
X145429500Y-123166286D01*
X145462753Y-123376239D01*
X145528444Y-123578414D01*
X145624951Y-123767820D01*
X145749890Y-123939786D01*
X145900213Y-124090109D01*
X146072182Y-124215050D01*
X146080946Y-124219516D01*
X146131742Y-124267491D01*
X146148536Y-124335312D01*
X146125998Y-124401447D01*
X146080946Y-124440484D01*
X146072182Y-124444949D01*
X145900213Y-124569890D01*
X145749890Y-124720213D01*
X145624951Y-124892179D01*
X145528444Y-125081585D01*
X145462753Y-125283760D01*
X145429500Y-125493713D01*
X145429500Y-125706286D01*
X145462753Y-125916239D01*
X145528444Y-126118414D01*
X145624951Y-126307820D01*
X145749890Y-126479786D01*
X145900213Y-126630109D01*
X146072182Y-126755050D01*
X146080946Y-126759516D01*
X146131742Y-126807491D01*
X146148536Y-126875312D01*
X146125998Y-126941447D01*
X146080946Y-126980484D01*
X146072182Y-126984949D01*
X145900213Y-127109890D01*
X145749890Y-127260213D01*
X145624951Y-127432179D01*
X145528444Y-127621585D01*
X145462753Y-127823760D01*
X145429500Y-128033713D01*
X145429500Y-128246286D01*
X145462753Y-128456239D01*
X145528444Y-128658414D01*
X145624951Y-128847820D01*
X145749890Y-129019786D01*
X145900207Y-129170103D01*
X145920960Y-129185181D01*
X145963626Y-129240511D01*
X145969605Y-129310124D01*
X145937000Y-129371920D01*
X145876161Y-129406277D01*
X145848075Y-129409500D01*
X129931925Y-129409500D01*
X129864886Y-129389815D01*
X129819131Y-129337011D01*
X129809187Y-129267853D01*
X129838212Y-129204297D01*
X129859040Y-129185181D01*
X129879792Y-129170104D01*
X130030104Y-129019792D01*
X130030106Y-129019788D01*
X130030109Y-129019786D01*
X130155048Y-128847820D01*
X130155047Y-128847820D01*
X130155051Y-128847816D01*
X130251557Y-128658412D01*
X130317246Y-128456243D01*
X130350500Y-128246287D01*
X130350500Y-128033713D01*
X130317246Y-127823757D01*
X130251557Y-127621588D01*
X130155051Y-127432184D01*
X130155049Y-127432181D01*
X130155048Y-127432179D01*
X130030109Y-127260213D01*
X129879786Y-127109890D01*
X129707820Y-126984951D01*
X129707115Y-126984591D01*
X129699054Y-126980485D01*
X129648259Y-126932512D01*
X129631463Y-126864692D01*
X129653999Y-126798556D01*
X129699054Y-126759515D01*
X129707816Y-126755051D01*
X129729789Y-126739086D01*
X129879786Y-126630109D01*
X129879788Y-126630106D01*
X129879792Y-126630104D01*
X130030104Y-126479792D01*
X130030106Y-126479788D01*
X130030109Y-126479786D01*
X130155048Y-126307820D01*
X130155047Y-126307820D01*
X130155051Y-126307816D01*
X130251557Y-126118412D01*
X130317246Y-125916243D01*
X130350500Y-125706287D01*
X130350500Y-125493713D01*
X130317246Y-125283757D01*
X130251557Y-125081588D01*
X130155051Y-124892184D01*
X130155049Y-124892181D01*
X130155048Y-124892179D01*
X130030109Y-124720213D01*
X129879786Y-124569890D01*
X129707820Y-124444951D01*
X129707115Y-124444591D01*
X129699054Y-124440485D01*
X129648259Y-124392512D01*
X129631463Y-124324692D01*
X129653999Y-124258556D01*
X129699054Y-124219515D01*
X129707816Y-124215051D01*
X129729789Y-124199086D01*
X129879786Y-124090109D01*
X129879788Y-124090106D01*
X129879792Y-124090104D01*
X130030104Y-123939792D01*
X130030106Y-123939788D01*
X130030109Y-123939786D01*
X130155048Y-123767820D01*
X130155047Y-123767820D01*
X130155051Y-123767816D01*
X130251557Y-123578412D01*
X130317246Y-123376243D01*
X130350500Y-123166287D01*
X130350500Y-122953713D01*
X130317246Y-122743757D01*
X130251557Y-122541588D01*
X130155051Y-122352184D01*
X130155049Y-122352181D01*
X130155048Y-122352179D01*
X130030109Y-122180213D01*
X129879786Y-122029890D01*
X129707820Y-121904951D01*
X129707115Y-121904591D01*
X129699054Y-121900485D01*
X129648259Y-121852512D01*
X129631463Y-121784692D01*
X129653999Y-121718556D01*
X129699054Y-121679515D01*
X129707816Y-121675051D01*
X129729789Y-121659086D01*
X129879786Y-121550109D01*
X129879788Y-121550106D01*
X129879792Y-121550104D01*
X130030104Y-121399792D01*
X130030106Y-121399788D01*
X130030109Y-121399786D01*
X130155048Y-121227820D01*
X130155047Y-121227820D01*
X130155051Y-121227816D01*
X130251557Y-121038412D01*
X130317246Y-120836243D01*
X130350500Y-120626287D01*
X130350500Y-120413713D01*
X130317246Y-120203757D01*
X130251557Y-120001588D01*
X130155051Y-119812184D01*
X130155049Y-119812181D01*
X130155048Y-119812179D01*
X130030109Y-119640213D01*
X129879786Y-119489890D01*
X129707820Y-119364951D01*
X129699600Y-119360763D01*
X129699054Y-119360485D01*
X129648259Y-119312512D01*
X129631463Y-119244692D01*
X129653999Y-119178556D01*
X129699054Y-119139515D01*
X129707816Y-119135051D01*
X129729789Y-119119086D01*
X129879786Y-119010109D01*
X129879788Y-119010106D01*
X129879792Y-119010104D01*
X130030104Y-118859792D01*
X130030106Y-118859788D01*
X130030109Y-118859786D01*
X130155048Y-118687820D01*
X130155047Y-118687820D01*
X130155051Y-118687816D01*
X130251557Y-118498412D01*
X130317246Y-118296243D01*
X130350500Y-118086287D01*
X130350500Y-117873713D01*
X130317246Y-117663757D01*
X130251557Y-117461588D01*
X130155051Y-117272184D01*
X130155049Y-117272181D01*
X130155048Y-117272179D01*
X130030109Y-117100213D01*
X129879786Y-116949890D01*
X129707820Y-116824951D01*
X129707115Y-116824591D01*
X129699054Y-116820485D01*
X129648259Y-116772512D01*
X129631463Y-116704692D01*
X129653999Y-116638556D01*
X129699054Y-116599515D01*
X129707816Y-116595051D01*
X129729789Y-116579086D01*
X129879786Y-116470109D01*
X129879788Y-116470106D01*
X129879792Y-116470104D01*
X130030104Y-116319792D01*
X130030106Y-116319788D01*
X130030109Y-116319786D01*
X130155048Y-116147820D01*
X130155047Y-116147820D01*
X130155051Y-116147816D01*
X130251557Y-115958412D01*
X130317246Y-115756243D01*
X130350500Y-115546287D01*
X130350500Y-115333713D01*
X130317246Y-115123757D01*
X130251557Y-114921588D01*
X130155051Y-114732184D01*
X130155049Y-114732181D01*
X130155048Y-114732179D01*
X130030109Y-114560213D01*
X129879786Y-114409890D01*
X129707820Y-114284951D01*
X129707115Y-114284591D01*
X129699054Y-114280485D01*
X129648259Y-114232512D01*
X129631463Y-114164692D01*
X129653999Y-114098556D01*
X129699054Y-114059515D01*
X129707816Y-114055051D01*
X129729789Y-114039086D01*
X129879786Y-113930109D01*
X129879788Y-113930106D01*
X129879792Y-113930104D01*
X130030104Y-113779792D01*
X130030106Y-113779788D01*
X130030109Y-113779786D01*
X130155048Y-113607820D01*
X130155047Y-113607820D01*
X130155051Y-113607816D01*
X130251557Y-113418412D01*
X130317246Y-113216243D01*
X130350500Y-113006287D01*
X130350500Y-112793713D01*
X130317246Y-112583757D01*
X130251557Y-112381588D01*
X130155051Y-112192184D01*
X130155049Y-112192181D01*
X130155048Y-112192179D01*
X130030109Y-112020213D01*
X129879786Y-111869890D01*
X129707820Y-111744951D01*
X129707115Y-111744591D01*
X129699054Y-111740485D01*
X129648259Y-111692512D01*
X129631463Y-111624692D01*
X129653999Y-111558556D01*
X129699054Y-111519515D01*
X129707816Y-111515051D01*
X129729789Y-111499086D01*
X129879786Y-111390109D01*
X129879788Y-111390106D01*
X129879792Y-111390104D01*
X130030104Y-111239792D01*
X130030106Y-111239788D01*
X130030109Y-111239786D01*
X130155048Y-111067820D01*
X130155047Y-111067820D01*
X130155051Y-111067816D01*
X130251557Y-110878412D01*
X130317246Y-110676243D01*
X130350500Y-110466287D01*
X130350500Y-110253713D01*
X130317246Y-110043757D01*
X130251557Y-109841588D01*
X130155051Y-109652184D01*
X130155049Y-109652181D01*
X130155048Y-109652179D01*
X130030109Y-109480213D01*
X129879786Y-109329890D01*
X129707820Y-109204951D01*
X129707115Y-109204591D01*
X129699054Y-109200485D01*
X129648259Y-109152512D01*
X129631463Y-109084692D01*
X129653999Y-109018556D01*
X129699054Y-108979515D01*
X129707816Y-108975051D01*
X129729789Y-108959086D01*
X129879786Y-108850109D01*
X129879788Y-108850106D01*
X129879792Y-108850104D01*
X130030104Y-108699792D01*
X130030106Y-108699788D01*
X130030109Y-108699786D01*
X130155048Y-108527820D01*
X130155047Y-108527820D01*
X130155051Y-108527816D01*
X130251557Y-108338412D01*
X130317246Y-108136243D01*
X130350500Y-107926287D01*
X130350500Y-107713713D01*
X130317246Y-107503757D01*
X130251557Y-107301588D01*
X130155051Y-107112184D01*
X130155049Y-107112181D01*
X130155048Y-107112179D01*
X130030109Y-106940213D01*
X129879786Y-106789890D01*
X129707820Y-106664951D01*
X129707115Y-106664591D01*
X129699054Y-106660485D01*
X129648259Y-106612512D01*
X129631463Y-106544692D01*
X129653999Y-106478556D01*
X129699054Y-106439515D01*
X129707816Y-106435051D01*
X129729789Y-106419086D01*
X129879786Y-106310109D01*
X129879788Y-106310106D01*
X129879792Y-106310104D01*
X130030104Y-106159792D01*
X130030106Y-106159788D01*
X130030109Y-106159786D01*
X130155048Y-105987820D01*
X130155047Y-105987820D01*
X130155051Y-105987816D01*
X130251557Y-105798412D01*
X130317246Y-105596243D01*
X130350500Y-105386287D01*
X130350500Y-105173713D01*
X130317246Y-104963757D01*
X130251557Y-104761588D01*
X130155051Y-104572184D01*
X130155049Y-104572181D01*
X130155048Y-104572179D01*
X130030109Y-104400213D01*
X129879786Y-104249890D01*
X129707820Y-104124951D01*
X129707115Y-104124591D01*
X129699054Y-104120485D01*
X129648259Y-104072512D01*
X129631463Y-104004692D01*
X129653999Y-103938556D01*
X129699054Y-103899515D01*
X129707816Y-103895051D01*
X129729789Y-103879086D01*
X129879786Y-103770109D01*
X129879788Y-103770106D01*
X129879792Y-103770104D01*
X130030104Y-103619792D01*
X130030106Y-103619788D01*
X130030109Y-103619786D01*
X130155048Y-103447820D01*
X130155047Y-103447820D01*
X130155051Y-103447816D01*
X130251557Y-103258412D01*
X130317246Y-103056243D01*
X130350500Y-102846287D01*
X130350500Y-102633713D01*
X130317246Y-102423757D01*
X130251557Y-102221588D01*
X130155051Y-102032184D01*
X130155049Y-102032181D01*
X130155048Y-102032179D01*
X130030109Y-101860213D01*
X129879786Y-101709890D01*
X129707820Y-101584951D01*
X129707115Y-101584591D01*
X129699054Y-101580485D01*
X129648259Y-101532512D01*
X129631463Y-101464692D01*
X129653999Y-101398556D01*
X129699054Y-101359515D01*
X129707816Y-101355051D01*
X129729789Y-101339086D01*
X129879786Y-101230109D01*
X129879788Y-101230106D01*
X129879792Y-101230104D01*
X130030104Y-101079792D01*
X130030106Y-101079788D01*
X130030109Y-101079786D01*
X130155048Y-100907820D01*
X130155047Y-100907820D01*
X130155051Y-100907816D01*
X130251557Y-100718412D01*
X130317246Y-100516243D01*
X130350500Y-100306287D01*
X130350500Y-100093713D01*
X130317246Y-99883757D01*
X130251557Y-99681588D01*
X130155051Y-99492184D01*
X130155049Y-99492181D01*
X130155048Y-99492179D01*
X130030109Y-99320213D01*
X129879786Y-99169890D01*
X129707820Y-99044951D01*
X129707115Y-99044591D01*
X129699054Y-99040485D01*
X129648259Y-98992512D01*
X129631463Y-98924692D01*
X129653999Y-98858556D01*
X129699054Y-98819515D01*
X129707816Y-98815051D01*
X129729789Y-98799086D01*
X129879786Y-98690109D01*
X129879788Y-98690106D01*
X129879792Y-98690104D01*
X130030104Y-98539792D01*
X130030106Y-98539788D01*
X130030109Y-98539786D01*
X130155048Y-98367820D01*
X130155047Y-98367820D01*
X130155051Y-98367816D01*
X130251557Y-98178412D01*
X130317246Y-97976243D01*
X130350500Y-97766287D01*
X130350500Y-97553713D01*
X130317246Y-97343757D01*
X130251557Y-97141588D01*
X130155051Y-96952184D01*
X130155049Y-96952181D01*
X130155048Y-96952179D01*
X130030109Y-96780213D01*
X129879786Y-96629890D01*
X129707820Y-96504951D01*
X129707115Y-96504591D01*
X129699054Y-96500485D01*
X129648259Y-96452512D01*
X129631463Y-96384692D01*
X129653999Y-96318556D01*
X129699054Y-96279515D01*
X129707816Y-96275051D01*
X129729789Y-96259086D01*
X129879786Y-96150109D01*
X129879788Y-96150106D01*
X129879792Y-96150104D01*
X130030104Y-95999792D01*
X130030106Y-95999788D01*
X130030109Y-95999786D01*
X130155048Y-95827820D01*
X130155047Y-95827820D01*
X130155051Y-95827816D01*
X130251557Y-95638412D01*
X130317246Y-95436243D01*
X130350500Y-95226287D01*
X130350500Y-95013713D01*
X130317246Y-94803757D01*
X130251557Y-94601588D01*
X130155051Y-94412184D01*
X130155049Y-94412181D01*
X130155048Y-94412179D01*
X130030109Y-94240213D01*
X129879786Y-94089890D01*
X129707820Y-93964951D01*
X129707115Y-93964591D01*
X129699054Y-93960485D01*
X129648259Y-93912512D01*
X129631463Y-93844692D01*
X129653999Y-93778556D01*
X129699054Y-93739515D01*
X129707816Y-93735051D01*
X129729789Y-93719086D01*
X129879786Y-93610109D01*
X129879788Y-93610106D01*
X129879792Y-93610104D01*
X130030104Y-93459792D01*
X130030106Y-93459788D01*
X130030109Y-93459786D01*
X130155048Y-93287820D01*
X130155047Y-93287820D01*
X130155051Y-93287816D01*
X130251557Y-93098412D01*
X130317246Y-92896243D01*
X130350500Y-92686287D01*
X130350500Y-92473713D01*
X130317246Y-92263757D01*
X130251557Y-92061588D01*
X130155051Y-91872184D01*
X130155049Y-91872181D01*
X130155048Y-91872179D01*
X130030109Y-91700213D01*
X129879786Y-91549890D01*
X129707820Y-91424951D01*
X129707115Y-91424591D01*
X129699054Y-91420485D01*
X129648259Y-91372512D01*
X129631463Y-91304692D01*
X129653999Y-91238556D01*
X129699054Y-91199515D01*
X129707816Y-91195051D01*
X129729789Y-91179086D01*
X129879786Y-91070109D01*
X129879788Y-91070106D01*
X129879792Y-91070104D01*
X130030104Y-90919792D01*
X130030106Y-90919788D01*
X130030109Y-90919786D01*
X130155048Y-90747820D01*
X130155047Y-90747820D01*
X130155051Y-90747816D01*
X130251557Y-90558412D01*
X130317246Y-90356243D01*
X130350500Y-90146287D01*
X130350500Y-89933713D01*
X130317246Y-89723757D01*
X130251557Y-89521588D01*
X130155051Y-89332184D01*
X130155049Y-89332181D01*
X130155048Y-89332179D01*
X130030109Y-89160213D01*
X129879786Y-89009890D01*
X129707820Y-88884951D01*
X129707115Y-88884591D01*
X129699054Y-88880485D01*
X129648259Y-88832512D01*
X129631463Y-88764692D01*
X129653999Y-88698556D01*
X129699054Y-88659515D01*
X129707816Y-88655051D01*
X129729789Y-88639086D01*
X129879786Y-88530109D01*
X129879788Y-88530106D01*
X129879792Y-88530104D01*
X130030104Y-88379792D01*
X130030106Y-88379788D01*
X130030109Y-88379786D01*
X130155048Y-88207820D01*
X130155047Y-88207820D01*
X130155051Y-88207816D01*
X130251557Y-88018412D01*
X130317246Y-87816243D01*
X130350500Y-87606287D01*
X130350500Y-87393713D01*
X130317246Y-87183757D01*
X130251557Y-86981588D01*
X130155051Y-86792184D01*
X130155049Y-86792181D01*
X130155048Y-86792179D01*
X130030109Y-86620213D01*
X129916569Y-86506673D01*
X129883084Y-86445350D01*
X129888068Y-86375658D01*
X129929940Y-86319725D01*
X129960915Y-86302810D01*
X130092331Y-86253796D01*
X130207546Y-86167546D01*
X130293796Y-86052331D01*
X130344091Y-85917483D01*
X130350500Y-85857873D01*
X130350499Y-84062128D01*
X130344091Y-84002517D01*
X130293796Y-83867669D01*
X130293749Y-83867607D01*
X130287165Y-83858810D01*
X130262748Y-83793346D01*
X130277600Y-83725073D01*
X130327005Y-83675668D01*
X130386432Y-83660500D01*
X145393568Y-83660500D01*
X145460607Y-83680185D01*
G37*
%TD.AperFunction*%
%TD*%
M02*
